<svg xmlns="http://www.w3.org/2000/svg" xmlns:xlink="http://www.w3.org/1999/xlink" width="585" zoomAndPan="magnify" viewBox="0 0 438.75 375.749991" height="501" preserveAspectRatio="xMidYMid meet" version="1.0"><defs><clipPath id="46aeae6169"><path d="M 369.46875 305.042969 L 412 305.042969 L 412 375.5 L 369.46875 375.5 Z M 369.46875 305.042969 " clip-rule="nonzero"/></clipPath><clipPath id="1ea74acaf3"><path d="M 414 313 L 438.460938 313 L 438.460938 368 L 414 368 Z M 414 313 " clip-rule="nonzero"/></clipPath></defs><path fill="#caddff" d="M 76.933594 201.421875 C 102.183594 174.828125 54.609375 125.289062 66.4375 89.496094 C 82.363281 41.3125 211.902344 0.00390625 299.09375 52.460938 C 372.113281 96.386719 397.46875 195.269531 365.566406 235.238281 C 356.019531 247.203125 344.140625 250.382812 328.535156 262.894531 C 314.019531 274.53125 312.382812 277.5 311.339844 279.527344 C 301.015625 299.511719 322.726562 317.050781 318.359375 334.191406 C 311.453125 361.269531 242.414062 375.71875 184.675781 366.554688 C 169.109375 364.082031 90.210938 349.707031 61.191406 289.992188 C 58.945312 285.371094 37.699219 240.746094 57.691406 215.914062 C 64.625 207.304688 70.203125 208.511719 76.933594 201.421875 " fill-opacity="1" fill-rule="nonzero"/><path fill="#a6a6a6" d="M 389.746094 268.582031 C 389.746094 251.296875 376.03125 237.21875 358.890625 236.632812 C 350.300781 199.386719 316.933594 171.621094 277.085938 171.621094 C 235.828125 171.621094 201.527344 201.378906 194.464844 240.597656 C 177.960938 242.277344 165.085938 256.214844 165.085938 273.160156 C 165.085938 273.234375 165.085938 273.3125 165.085938 273.386719 C 165.164062 284.464844 174.242188 293.371094 185.320312 293.371094 L 364.84375 293.371094 C 378.230469 293.371094 389.394531 282.796875 389.734375 269.414062 C 389.742188 269.136719 389.746094 268.859375 389.746094 268.582031 " fill-opacity="1" fill-rule="nonzero"/><path fill="#000000" d="M 333.410156 202.332031 L 228.613281 202.332031 C 228.273438 202.332031 228 202.058594 228 201.714844 C 228 201.375 228.273438 201.097656 228.613281 201.097656 L 333.410156 201.097656 C 343.148438 201.097656 352.378906 197.394531 359.40625 190.660156 C 366.480469 183.890625 370.511719 174.808594 370.757812 165.101562 C 370.769531 164.699219 370.777344 164.292969 370.777344 163.886719 C 370.777344 155.230469 368.40625 146.789062 363.921875 139.472656 C 363.742188 139.183594 363.832031 138.800781 364.125 138.625 C 364.414062 138.449219 364.796875 138.535156 364.972656 138.828125 C 369.574219 146.335938 372.007812 155.003906 372.007812 163.886719 C 372.007812 164.304688 372.003906 164.71875 371.992188 165.132812 C 371.734375 175.167969 367.570312 184.554688 360.257812 191.554688 C 353 198.503906 343.464844 202.332031 333.410156 202.332031 " fill-opacity="1" fill-rule="nonzero"/><path fill="#000000" d="M 351.789062 126.082031 C 351.664062 126.082031 351.539062 126.039062 351.429688 125.960938 C 344.878906 121.199219 337.152344 118.21875 329.082031 117.34375 C 328.828125 117.316406 328.617188 117.132812 328.554688 116.886719 C 324.371094 100.96875 316.605469 85.746094 306.097656 72.863281 C 305.882812 72.601562 305.921875 72.210938 306.183594 71.992188 C 306.449219 71.777344 306.835938 71.820312 307.050781 72.085938 C 317.582031 84.988281 325.386719 100.222656 329.636719 116.164062 C 337.765625 117.121094 345.542969 120.15625 352.152344 124.964844 C 352.429688 125.164062 352.492188 125.550781 352.289062 125.824219 C 352.171875 125.992188 351.980469 126.082031 351.789062 126.082031 " fill-opacity="1" fill-rule="nonzero"/><path fill="#000000" d="M 303.199219 69.132812 C 303.027344 69.132812 302.859375 69.0625 302.734375 68.925781 C 301.09375 67.085938 299.367188 65.273438 297.613281 63.539062 C 297.371094 63.300781 297.367188 62.910156 297.609375 62.667969 C 297.84375 62.425781 298.238281 62.421875 298.480469 62.660156 C 300.253906 64.410156 301.996094 66.242188 303.65625 68.105469 C 303.882812 68.359375 303.863281 68.75 303.609375 68.976562 C 303.492188 69.082031 303.34375 69.132812 303.199219 69.132812 " fill-opacity="1" fill-rule="nonzero"/><path fill="#000000" d="M 259.425781 38.460938 C 259.351562 38.460938 259.273438 38.449219 259.199219 38.417969 C 245.339844 32.878906 230.789062 30.070312 215.949219 30.070312 C 215.316406 30.070312 214.6875 30.074219 214.058594 30.085938 C 213.71875 30.089844 213.4375 29.820312 213.429688 29.480469 C 213.425781 29.136719 213.695312 28.859375 214.035156 28.851562 C 214.671875 28.84375 215.3125 28.835938 215.949219 28.835938 C 230.945312 28.835938 245.652344 31.675781 259.65625 37.273438 C 259.972656 37.398438 260.125 37.757812 260 38.074219 C 259.902344 38.316406 259.675781 38.460938 259.425781 38.460938 " fill-opacity="1" fill-rule="nonzero"/><path fill="#000000" d="M 158.949219 44.890625 C 158.734375 44.890625 158.523438 44.777344 158.410156 44.574219 C 158.246094 44.277344 158.351562 43.902344 158.648438 43.734375 C 170.277344 37.253906 182.832031 32.820312 195.957031 30.550781 C 196.296875 30.496094 196.613281 30.71875 196.671875 31.054688 C 196.730469 31.390625 196.503906 31.710938 196.167969 31.765625 C 183.179688 34.011719 170.757812 38.398438 159.25 44.8125 C 159.15625 44.867188 159.050781 44.890625 158.949219 44.890625 " fill-opacity="1" fill-rule="nonzero"/><path fill="#000000" d="M 152.945312 48.476562 C 152.742188 48.476562 152.542969 48.378906 152.425781 48.195312 C 152.242188 47.90625 152.328125 47.523438 152.613281 47.339844 C 154.578125 46.085938 156.609375 44.871094 158.648438 43.738281 C 158.945312 43.570312 159.320312 43.675781 159.488281 43.972656 C 159.652344 44.273438 159.546875 44.648438 159.25 44.8125 C 157.230469 45.9375 155.222656 47.140625 153.277344 48.378906 C 153.175781 48.445312 153.058594 48.476562 152.945312 48.476562 " fill-opacity="1" fill-rule="nonzero"/><path fill="#000000" d="M 82.683594 130.496094 C 82.484375 130.496094 82.292969 130.402344 82.171875 130.222656 C 81.980469 129.941406 82.054688 129.558594 82.335938 129.367188 C 87.980469 125.542969 94.230469 122.980469 100.917969 121.75 C 103.0625 111.757812 106.523438 102.050781 111.214844 92.902344 C 111.371094 92.601562 111.742188 92.480469 112.042969 92.636719 C 112.347656 92.789062 112.46875 93.164062 112.3125 93.464844 C 107.609375 102.640625 104.152344 112.378906 102.039062 122.410156 C 101.988281 122.65625 101.792969 122.847656 101.542969 122.890625 C 94.871094 124.058594 88.640625 126.582031 83.027344 130.386719 C 82.921875 130.460938 82.800781 130.496094 82.683594 130.496094 " fill-opacity="1" fill-rule="nonzero"/><path fill="#000000" d="M 121.96875 202.332031 L 93.125 202.332031 C 75.40625 202.332031 60.898438 187.988281 60.777344 170.351562 L 60.773438 170.011719 C 60.773438 157.777344 65.300781 146.0625 73.523438 137.015625 C 73.996094 136.492188 74.488281 135.972656 74.984375 135.472656 C 75.226562 135.234375 75.617188 135.230469 75.859375 135.472656 C 76.097656 135.710938 76.101562 136.101562 75.859375 136.34375 C 75.378906 136.832031 74.898438 137.335938 74.433594 137.847656 C 66.421875 146.664062 62.007812 158.085938 62.007812 170.011719 L 62.011719 170.347656 C 62.125 187.304688 76.082031 201.097656 93.125 201.097656 L 121.96875 201.097656 C 122.308594 201.097656 122.585938 201.375 122.585938 201.714844 C 122.585938 202.054688 122.308594 202.332031 121.96875 202.332031 " fill-opacity="1" fill-rule="nonzero"/><path fill="#ffffff" d="M 366.742188 163.886719 C 366.742188 140.75 348.382812 121.910156 325.445312 121.121094 C 313.945312 71.273438 269.289062 34.105469 215.949219 34.105469 C 160.730469 34.105469 114.816406 73.9375 105.363281 126.433594 C 83.277344 128.675781 66.042969 147.332031 66.042969 170.011719 C 66.042969 170.113281 66.042969 170.214844 66.042969 170.316406 C 66.144531 185.144531 78.296875 197.066406 93.125 197.066406 L 333.410156 197.066406 C 351.328125 197.066406 366.269531 182.910156 366.730469 164.996094 C 366.738281 164.628906 366.742188 164.257812 366.742188 163.886719 " fill-opacity="1" fill-rule="nonzero"/><path fill="#000000" d="M 215.949219 34.71875 C 161.804688 34.71875 115.550781 73.335938 105.972656 126.542969 C 105.921875 126.8125 105.699219 127.019531 105.425781 127.046875 C 83.328125 129.292969 66.660156 147.761719 66.660156 170.011719 L 66.660156 170.3125 C 66.757812 184.722656 78.628906 196.449219 93.125 196.449219 L 333.410156 196.449219 C 351 196.449219 365.671875 182.332031 366.113281 164.980469 C 366.121094 164.617188 366.128906 164.25 366.128906 163.882812 C 366.128906 141.03125 348.246094 122.519531 325.421875 121.738281 C 325.144531 121.730469 324.90625 121.535156 324.84375 121.261719 C 313.09375 70.308594 268.3125 34.71875 215.949219 34.71875 Z M 333.410156 197.679688 L 93.125 197.679688 C 77.953125 197.679688 65.53125 185.40625 65.425781 170.320312 L 65.425781 170.011719 C 65.425781 158.9375 69.523438 148.332031 76.964844 140.144531 C 84.25 132.125 94.132812 127.070312 104.839844 125.867188 C 109.550781 100.3125 123.125 76.976562 143.097656 60.109375 C 163.425781 42.941406 189.296875 33.488281 215.949219 33.488281 C 229.066406 33.488281 241.921875 35.714844 254.152344 40.109375 C 265.972656 44.355469 276.953125 50.523438 286.773438 58.441406 C 306.332031 74.191406 320.226562 96.222656 325.9375 120.523438 C 337.035156 121.023438 347.386719 125.6875 355.140625 133.695312 C 363.019531 141.832031 367.363281 152.554688 367.363281 163.882812 C 367.363281 164.261719 367.355469 164.640625 367.347656 165.011719 C 367.121094 173.8125 363.464844 182.046875 357.042969 188.195312 C 350.65625 194.3125 342.261719 197.679688 333.410156 197.679688 " fill-opacity="1" fill-rule="nonzero"/><path fill="#a6a6a6" d="M 176.324219 88.246094 L 150.402344 88.246094 C 148.546875 88.246094 147.046875 89.75 147.046875 91.601562 L 147.046875 168.027344 C 147.046875 169.878906 148.546875 171.378906 150.402344 171.378906 L 176.324219 171.378906 C 178.175781 171.378906 179.675781 169.878906 179.675781 168.027344 L 179.675781 91.601562 C 179.675781 89.75 178.175781 88.246094 176.324219 88.246094 " fill-opacity="1" fill-rule="nonzero"/><path fill="#000000" d="M 150.398438 88.867188 C 148.890625 88.867188 147.664062 90.09375 147.664062 91.601562 L 147.664062 168.027344 C 147.664062 169.535156 148.890625 170.761719 150.398438 170.761719 L 176.320312 170.761719 C 177.832031 170.761719 179.058594 169.535156 179.058594 168.027344 L 179.058594 91.601562 C 179.058594 90.09375 177.832031 88.867188 176.320312 88.867188 Z M 176.320312 172 L 150.398438 172 C 148.210938 172 146.429688 170.21875 146.429688 168.027344 L 146.429688 91.601562 C 146.429688 89.414062 148.210938 87.632812 150.398438 87.632812 L 176.320312 87.632812 C 178.511719 87.632812 180.292969 89.414062 180.292969 91.601562 L 180.292969 168.027344 C 180.292969 170.21875 178.511719 172 176.320312 172 " fill-opacity="1" fill-rule="nonzero"/><path fill="#caddff" d="M 156.316406 88.246094 L 144.832031 88.246094 C 142.980469 88.246094 141.476562 89.75 141.476562 91.601562 L 141.476562 168.027344 C 141.476562 169.878906 142.980469 171.378906 144.832031 171.378906 L 156.316406 171.378906 C 158.167969 171.378906 159.671875 169.878906 159.671875 168.027344 L 159.671875 91.601562 C 159.671875 89.75 158.167969 88.246094 156.316406 88.246094 " fill-opacity="1" fill-rule="nonzero"/><path fill="#000000" d="M 144.832031 88.867188 C 143.320312 88.867188 142.09375 90.09375 142.09375 91.601562 L 142.09375 168.027344 C 142.09375 169.535156 143.320312 170.761719 144.832031 170.761719 L 156.316406 170.761719 C 157.824219 170.761719 159.054688 169.535156 159.054688 168.027344 L 159.054688 91.601562 C 159.054688 90.09375 157.824219 88.867188 156.316406 88.867188 Z M 156.316406 172 L 144.832031 172 C 142.640625 172 140.859375 170.21875 140.859375 168.027344 L 140.859375 91.601562 C 140.859375 89.414062 142.640625 87.632812 144.832031 87.632812 L 156.316406 87.632812 C 158.503906 87.632812 160.285156 89.414062 160.285156 91.601562 L 160.285156 168.027344 C 160.285156 170.21875 158.503906 172 156.316406 172 " fill-opacity="1" fill-rule="nonzero"/><path fill="#a6a6a6" d="M 155.527344 156.222656 C 155.527344 158.960938 153.3125 161.179688 150.574219 161.179688 C 147.839844 161.179688 145.621094 158.960938 145.621094 156.222656 C 145.621094 153.488281 147.839844 151.269531 150.574219 151.269531 C 153.3125 151.269531 155.527344 153.488281 155.527344 156.222656 " fill-opacity="1" fill-rule="nonzero"/><path fill="#000000" d="M 150.574219 151.886719 C 148.183594 151.886719 146.238281 153.832031 146.238281 156.222656 C 146.238281 158.617188 148.183594 160.5625 150.574219 160.5625 C 152.964844 160.5625 154.910156 158.617188 154.910156 156.222656 C 154.910156 153.832031 152.964844 151.886719 150.574219 151.886719 Z M 150.574219 161.796875 C 147.503906 161.796875 145.003906 159.296875 145.003906 156.222656 C 145.003906 153.152344 147.503906 150.652344 150.574219 150.652344 C 153.644531 150.652344 156.144531 153.152344 156.144531 156.222656 C 156.144531 159.296875 153.644531 161.796875 150.574219 161.796875 " fill-opacity="1" fill-rule="nonzero"/><path fill="#a6a6a6" d="M 198.890625 88.246094 L 172.96875 88.246094 C 171.117188 88.246094 169.613281 89.75 169.613281 91.601562 L 169.613281 168.027344 C 169.613281 169.878906 171.117188 171.378906 172.96875 171.378906 L 198.890625 171.378906 C 200.742188 171.378906 202.242188 169.878906 202.242188 168.027344 L 202.242188 91.601562 C 202.242188 89.75 200.742188 88.246094 198.890625 88.246094 " fill-opacity="1" fill-rule="nonzero"/><path fill="#000000" d="M 172.96875 88.867188 C 171.457031 88.867188 170.230469 90.09375 170.230469 91.601562 L 170.230469 168.027344 C 170.230469 169.535156 171.457031 170.761719 172.96875 170.761719 L 198.890625 170.761719 C 200.398438 170.761719 201.625 169.535156 201.625 168.027344 L 201.625 91.601562 C 201.625 90.09375 200.398438 88.867188 198.890625 88.867188 Z M 198.890625 172 L 172.96875 172 C 170.777344 172 168.996094 170.21875 168.996094 168.027344 L 168.996094 91.601562 C 168.996094 89.414062 170.777344 87.632812 172.96875 87.632812 L 198.890625 87.632812 C 201.078125 87.632812 202.859375 89.414062 202.859375 91.601562 L 202.859375 168.027344 C 202.859375 170.21875 201.078125 172 198.890625 172 " fill-opacity="1" fill-rule="nonzero"/><path fill="#caddff" d="M 178.882812 88.246094 L 167.398438 88.246094 C 165.546875 88.246094 164.042969 89.75 164.042969 91.601562 L 164.042969 168.027344 C 164.042969 169.878906 165.546875 171.378906 167.398438 171.378906 L 178.882812 171.378906 C 180.734375 171.378906 182.238281 169.878906 182.238281 168.027344 L 182.238281 91.601562 C 182.238281 89.75 180.734375 88.246094 178.882812 88.246094 " fill-opacity="1" fill-rule="nonzero"/><path fill="#000000" d="M 167.398438 88.867188 C 165.890625 88.867188 164.660156 90.09375 164.660156 91.601562 L 164.660156 168.027344 C 164.660156 169.535156 165.890625 170.761719 167.398438 170.761719 L 178.882812 170.761719 C 180.390625 170.761719 181.621094 169.535156 181.621094 168.027344 L 181.621094 91.601562 C 181.621094 90.09375 180.390625 88.867188 178.882812 88.867188 Z M 178.882812 172 L 167.398438 172 C 165.207031 172 163.429688 170.21875 163.429688 168.027344 L 163.429688 91.601562 C 163.429688 89.414062 165.207031 87.632812 167.398438 87.632812 L 178.882812 87.632812 C 181.070312 87.632812 182.851562 89.414062 182.851562 91.601562 L 182.851562 168.027344 C 182.851562 170.21875 181.070312 172 178.882812 172 " fill-opacity="1" fill-rule="nonzero"/><path fill="#a6a6a6" d="M 178.09375 156.222656 C 178.09375 158.960938 175.875 161.179688 173.140625 161.179688 C 170.40625 161.179688 168.1875 158.960938 168.1875 156.222656 C 168.1875 153.488281 170.40625 151.269531 173.140625 151.269531 C 175.875 151.269531 178.09375 153.488281 178.09375 156.222656 " fill-opacity="1" fill-rule="nonzero"/><path fill="#000000" d="M 173.140625 151.886719 C 170.75 151.886719 168.804688 153.832031 168.804688 156.222656 C 168.804688 158.617188 170.75 160.5625 173.140625 160.5625 C 175.53125 160.5625 177.476562 158.617188 177.476562 156.222656 C 177.476562 153.832031 175.53125 151.886719 173.140625 151.886719 Z M 173.140625 161.796875 C 170.070312 161.796875 167.570312 159.296875 167.570312 156.222656 C 167.570312 153.152344 170.070312 150.652344 173.140625 150.652344 C 176.214844 150.652344 178.710938 153.152344 178.710938 156.222656 C 178.710938 159.296875 176.214844 161.796875 173.140625 161.796875 " fill-opacity="1" fill-rule="nonzero"/><path fill="#a6a6a6" d="M 222.71875 88.246094 L 196.796875 88.246094 C 194.945312 88.246094 193.445312 89.75 193.445312 91.601562 L 193.445312 168.027344 C 193.445312 169.878906 194.945312 171.378906 196.796875 171.378906 L 222.71875 171.378906 C 224.574219 171.378906 226.074219 169.878906 226.074219 168.027344 L 226.074219 91.601562 C 226.074219 89.75 224.574219 88.246094 222.71875 88.246094 " fill-opacity="1" fill-rule="nonzero"/><path fill="#000000" d="M 196.796875 88.867188 C 195.289062 88.867188 194.0625 90.09375 194.0625 91.601562 L 194.0625 168.027344 C 194.0625 169.535156 195.289062 170.761719 196.796875 170.761719 L 222.71875 170.761719 C 224.230469 170.761719 225.457031 169.535156 225.457031 168.027344 L 225.457031 91.601562 C 225.457031 90.09375 224.230469 88.867188 222.71875 88.867188 Z M 222.71875 172 L 196.796875 172 C 194.609375 172 192.828125 170.21875 192.828125 168.027344 L 192.828125 91.601562 C 192.828125 89.414062 194.609375 87.632812 196.796875 87.632812 L 222.71875 87.632812 C 224.910156 87.632812 226.691406 89.414062 226.691406 91.601562 L 226.691406 168.027344 C 226.691406 170.21875 224.910156 172 222.71875 172 " fill-opacity="1" fill-rule="nonzero"/><path fill="#caddff" d="M 202.71875 88.246094 L 191.230469 88.246094 C 189.378906 88.246094 187.878906 89.75 187.878906 91.601562 L 187.878906 168.027344 C 187.878906 169.878906 189.378906 171.378906 191.230469 171.378906 L 202.71875 171.378906 C 204.566406 171.378906 206.070312 169.878906 206.070312 168.027344 L 206.070312 91.601562 C 206.070312 89.75 204.566406 88.246094 202.71875 88.246094 " fill-opacity="1" fill-rule="nonzero"/><path fill="#000000" d="M 191.230469 88.867188 C 189.71875 88.867188 188.492188 90.09375 188.492188 91.601562 L 188.492188 168.027344 C 188.492188 169.535156 189.71875 170.761719 191.230469 170.761719 L 202.714844 170.761719 C 204.222656 170.761719 205.449219 169.535156 205.449219 168.027344 L 205.449219 91.601562 C 205.449219 90.09375 204.222656 88.867188 202.714844 88.867188 Z M 202.714844 172 L 191.230469 172 C 189.039062 172 187.257812 170.21875 187.257812 168.027344 L 187.257812 91.601562 C 187.257812 89.414062 189.039062 87.632812 191.230469 87.632812 L 202.714844 87.632812 C 204.90625 87.632812 206.683594 89.414062 206.683594 91.601562 L 206.683594 168.027344 C 206.683594 170.21875 204.90625 172 202.714844 172 " fill-opacity="1" fill-rule="nonzero"/><path fill="#a6a6a6" d="M 201.925781 156.222656 C 201.925781 158.960938 199.707031 161.179688 196.972656 161.179688 C 194.234375 161.179688 192.019531 158.960938 192.019531 156.222656 C 192.019531 153.488281 194.234375 151.269531 196.972656 151.269531 C 199.707031 151.269531 201.925781 153.488281 201.925781 156.222656 " fill-opacity="1" fill-rule="nonzero"/><path fill="#000000" d="M 196.972656 151.886719 C 194.582031 151.886719 192.632812 153.832031 192.632812 156.222656 C 192.632812 158.617188 194.582031 160.5625 196.972656 160.5625 C 199.363281 160.5625 201.308594 158.617188 201.308594 156.222656 C 201.308594 153.832031 199.363281 151.886719 196.972656 151.886719 Z M 196.972656 161.796875 C 193.902344 161.796875 191.402344 159.296875 191.402344 156.222656 C 191.402344 153.152344 193.902344 150.652344 196.972656 150.652344 C 200.042969 150.652344 202.542969 153.152344 202.542969 156.222656 C 202.542969 159.296875 200.042969 161.796875 196.972656 161.796875 " fill-opacity="1" fill-rule="nonzero"/><path fill="#a6a6a6" d="M 257.691406 80.023438 L 211.132812 80.023438 C 209.28125 80.023438 207.78125 81.523438 207.78125 83.375 L 207.78125 159.800781 C 207.78125 161.652344 209.28125 163.15625 211.132812 163.15625 L 257.691406 163.15625 C 259.546875 163.15625 261.046875 161.652344 261.046875 159.800781 L 261.046875 83.375 C 261.046875 81.523438 259.546875 80.023438 257.691406 80.023438 " fill-opacity="1" fill-rule="nonzero"/><path fill="#000000" d="M 211.132812 80.640625 C 209.625 80.640625 208.394531 81.867188 208.394531 83.378906 L 208.394531 159.804688 C 208.394531 161.3125 209.625 162.539062 211.132812 162.539062 L 257.695312 162.539062 C 259.203125 162.539062 260.429688 161.3125 260.429688 159.804688 L 260.429688 83.378906 C 260.429688 81.867188 259.203125 80.640625 257.695312 80.640625 Z M 257.695312 163.773438 L 211.132812 163.773438 C 208.945312 163.773438 207.160156 161.992188 207.160156 159.804688 L 207.160156 83.378906 C 207.160156 81.1875 208.945312 79.40625 211.132812 79.40625 L 257.695312 79.40625 C 259.882812 79.40625 261.664062 81.1875 261.664062 83.378906 L 261.664062 159.804688 C 261.664062 161.992188 259.882812 163.773438 257.695312 163.773438 " fill-opacity="1" fill-rule="nonzero"/><path fill="#caddff" d="M 217.050781 80.023438 L 205.566406 80.023438 C 203.714844 80.023438 202.210938 81.523438 202.210938 83.375 L 202.210938 159.800781 C 202.210938 161.652344 203.714844 163.15625 205.566406 163.15625 L 217.050781 163.15625 C 218.902344 163.15625 220.402344 161.652344 220.402344 159.800781 L 220.402344 83.375 C 220.402344 81.523438 218.902344 80.023438 217.050781 80.023438 " fill-opacity="1" fill-rule="nonzero"/><path fill="#000000" d="M 205.566406 80.640625 C 204.054688 80.640625 202.828125 81.867188 202.828125 83.378906 L 202.828125 159.804688 C 202.828125 161.3125 204.054688 162.539062 205.566406 162.539062 L 217.046875 162.539062 C 218.558594 162.539062 219.785156 161.3125 219.785156 159.804688 L 219.785156 83.378906 C 219.785156 81.867188 218.558594 80.640625 217.046875 80.640625 Z M 217.046875 163.773438 L 205.566406 163.773438 C 203.375 163.773438 201.59375 161.992188 201.59375 159.804688 L 201.59375 83.378906 C 201.59375 81.1875 203.375 79.40625 205.566406 79.40625 L 217.046875 79.40625 C 219.238281 79.40625 221.019531 81.1875 221.019531 83.378906 L 221.019531 159.804688 C 221.019531 161.992188 219.238281 163.773438 217.046875 163.773438 " fill-opacity="1" fill-rule="nonzero"/><path fill="#a6a6a6" d="M 216.261719 148 C 216.261719 150.734375 214.042969 152.953125 211.304688 152.953125 C 208.570312 152.953125 206.355469 150.734375 206.355469 148 C 206.355469 145.265625 208.570312 143.046875 211.304688 143.046875 C 214.042969 143.046875 216.261719 145.265625 216.261719 148 " fill-opacity="1" fill-rule="nonzero"/><path fill="#000000" d="M 211.304688 143.664062 C 208.917969 143.664062 206.96875 145.609375 206.96875 148 C 206.96875 150.390625 208.917969 152.335938 211.304688 152.335938 C 213.699219 152.335938 215.644531 150.390625 215.644531 148 C 215.644531 145.609375 213.699219 143.664062 211.304688 143.664062 Z M 211.304688 153.570312 C 208.234375 153.570312 205.734375 151.070312 205.734375 148 C 205.734375 144.925781 208.234375 142.429688 211.304688 142.429688 C 214.378906 142.429688 216.878906 144.925781 216.878906 148 C 216.878906 151.070312 214.378906 153.570312 211.304688 153.570312 " fill-opacity="1" fill-rule="nonzero"/><path fill="#a6a6a6" d="M 270.382812 88.246094 L 244.460938 88.246094 C 242.609375 88.246094 241.109375 89.75 241.109375 91.601562 L 241.109375 168.027344 C 241.109375 169.878906 242.609375 171.378906 244.460938 171.378906 L 270.382812 171.378906 C 272.238281 171.378906 273.738281 169.878906 273.738281 168.027344 L 273.738281 91.601562 C 273.738281 89.75 272.238281 88.246094 270.382812 88.246094 " fill-opacity="1" fill-rule="nonzero"/><path fill="#000000" d="M 244.460938 88.867188 C 242.953125 88.867188 241.722656 90.09375 241.722656 91.601562 L 241.722656 168.027344 C 241.722656 169.535156 242.953125 170.761719 244.460938 170.761719 L 270.382812 170.761719 C 271.894531 170.761719 273.121094 169.535156 273.121094 168.027344 L 273.121094 91.601562 C 273.121094 90.09375 271.894531 88.867188 270.382812 88.867188 Z M 270.382812 172 L 244.460938 172 C 242.269531 172 240.488281 170.21875 240.488281 168.027344 L 240.488281 91.601562 C 240.488281 89.414062 242.269531 87.632812 244.460938 87.632812 L 270.382812 87.632812 C 272.570312 87.632812 274.351562 89.414062 274.351562 91.601562 L 274.351562 168.027344 C 274.351562 170.21875 272.570312 172 270.382812 172 " fill-opacity="1" fill-rule="nonzero"/><path fill="#caddff" d="M 250.378906 88.246094 L 238.894531 88.246094 C 237.039062 88.246094 235.539062 89.75 235.539062 91.601562 L 235.539062 168.027344 C 235.539062 169.878906 237.039062 171.378906 238.894531 171.378906 L 250.378906 171.378906 C 252.230469 171.378906 253.730469 169.878906 253.730469 168.027344 L 253.730469 91.601562 C 253.730469 89.75 252.230469 88.246094 250.378906 88.246094 " fill-opacity="1" fill-rule="nonzero"/><path fill="#000000" d="M 238.890625 88.867188 C 237.382812 88.867188 236.15625 90.09375 236.15625 91.601562 L 236.15625 168.027344 C 236.15625 169.535156 237.382812 170.761719 238.890625 170.761719 L 250.375 170.761719 C 251.886719 170.761719 253.113281 169.535156 253.113281 168.027344 L 253.113281 91.601562 C 253.113281 90.09375 251.886719 88.867188 250.375 88.867188 Z M 250.375 172 L 238.890625 172 C 236.703125 172 234.921875 170.21875 234.921875 168.027344 L 234.921875 91.601562 C 234.921875 89.414062 236.703125 87.632812 238.890625 87.632812 L 250.375 87.632812 C 252.566406 87.632812 254.347656 89.414062 254.347656 91.601562 L 254.347656 168.027344 C 254.347656 170.21875 252.566406 172 250.375 172 " fill-opacity="1" fill-rule="nonzero"/><path fill="#a6a6a6" d="M 249.589844 156.222656 C 249.589844 158.960938 247.371094 161.179688 244.636719 161.179688 C 241.898438 161.179688 239.683594 158.960938 239.683594 156.222656 C 239.683594 153.488281 241.898438 151.269531 244.636719 151.269531 C 247.371094 151.269531 249.589844 153.488281 249.589844 156.222656 " fill-opacity="1" fill-rule="nonzero"/><path fill="#000000" d="M 244.636719 151.886719 C 242.242188 151.886719 240.296875 153.832031 240.296875 156.222656 C 240.296875 158.617188 242.242188 160.5625 244.636719 160.5625 C 247.027344 160.5625 248.972656 158.617188 248.972656 156.222656 C 248.972656 153.832031 247.027344 151.886719 244.636719 151.886719 Z M 244.636719 161.796875 C 241.5625 161.796875 239.0625 159.296875 239.0625 156.222656 C 239.0625 153.152344 241.5625 150.652344 244.636719 150.652344 C 247.707031 150.652344 250.207031 153.152344 250.207031 156.222656 C 250.207031 159.296875 247.707031 161.796875 244.636719 161.796875 " fill-opacity="1" fill-rule="nonzero"/><path fill="#a6a6a6" d="M 294.21875 88.246094 L 268.292969 88.246094 C 266.441406 88.246094 264.9375 89.75 264.9375 91.601562 L 264.9375 168.027344 C 264.9375 169.878906 266.441406 171.378906 268.292969 171.378906 L 294.21875 171.378906 C 296.066406 171.378906 297.570312 169.878906 297.570312 168.027344 L 297.570312 91.601562 C 297.570312 89.75 296.066406 88.246094 294.21875 88.246094 " fill-opacity="1" fill-rule="nonzero"/><path fill="#000000" d="M 268.292969 88.867188 C 266.78125 88.867188 265.554688 90.09375 265.554688 91.601562 L 265.554688 168.027344 C 265.554688 169.535156 266.78125 170.761719 268.292969 170.761719 L 294.214844 170.761719 C 295.722656 170.761719 296.949219 169.535156 296.949219 168.027344 L 296.949219 91.601562 C 296.949219 90.09375 295.722656 88.867188 294.214844 88.867188 Z M 294.214844 172 L 268.292969 172 C 266.101562 172 264.320312 170.21875 264.320312 168.027344 L 264.320312 91.601562 C 264.320312 89.414062 266.101562 87.632812 268.292969 87.632812 L 294.214844 87.632812 C 296.402344 87.632812 298.183594 89.414062 298.183594 91.601562 L 298.183594 168.027344 C 298.183594 170.21875 296.402344 172 294.214844 172 " fill-opacity="1" fill-rule="nonzero"/><path fill="#caddff" d="M 274.207031 88.246094 L 262.722656 88.246094 C 260.871094 88.246094 259.371094 89.75 259.371094 91.601562 L 259.371094 168.027344 C 259.371094 169.878906 260.871094 171.378906 262.722656 171.378906 L 274.207031 171.378906 C 276.0625 171.378906 277.5625 169.878906 277.5625 168.027344 L 277.5625 91.601562 C 277.5625 89.75 276.0625 88.246094 274.207031 88.246094 " fill-opacity="1" fill-rule="nonzero"/><path fill="#000000" d="M 262.722656 88.867188 C 261.214844 88.867188 259.984375 90.09375 259.984375 91.601562 L 259.984375 168.027344 C 259.984375 169.535156 261.214844 170.761719 262.722656 170.761719 L 274.207031 170.761719 C 275.714844 170.761719 276.945312 169.535156 276.945312 168.027344 L 276.945312 91.601562 C 276.945312 90.09375 275.714844 88.867188 274.207031 88.867188 Z M 274.207031 172 L 262.722656 172 C 260.535156 172 258.753906 170.21875 258.753906 168.027344 L 258.753906 91.601562 C 258.753906 89.414062 260.535156 87.632812 262.722656 87.632812 L 274.207031 87.632812 C 276.398438 87.632812 278.179688 89.414062 278.179688 91.601562 L 278.179688 168.027344 C 278.179688 170.21875 276.398438 172 274.207031 172 " fill-opacity="1" fill-rule="nonzero"/><path fill="#a6a6a6" d="M 273.421875 156.222656 C 273.421875 158.960938 271.203125 161.179688 268.464844 161.179688 C 265.730469 161.179688 263.511719 158.960938 263.511719 156.222656 C 263.511719 153.488281 265.730469 151.269531 268.464844 151.269531 C 271.203125 151.269531 273.421875 153.488281 273.421875 156.222656 " fill-opacity="1" fill-rule="nonzero"/><path fill="#000000" d="M 268.464844 151.886719 C 266.074219 151.886719 264.128906 153.832031 264.128906 156.222656 C 264.128906 158.617188 266.074219 160.5625 268.464844 160.5625 C 270.859375 160.5625 272.804688 158.617188 272.804688 156.222656 C 272.804688 153.832031 270.859375 151.886719 268.464844 151.886719 Z M 268.464844 161.796875 C 265.394531 161.796875 262.898438 159.296875 262.898438 156.222656 C 262.898438 153.152344 265.394531 150.652344 268.464844 150.652344 C 271.539062 150.652344 274.035156 153.152344 274.035156 156.222656 C 274.035156 159.296875 271.539062 161.796875 268.464844 161.796875 " fill-opacity="1" fill-rule="nonzero"/><path fill="#ffffff" d="M 110.347656 352.570312 L 102.332031 352.570312 L 102.332031 260.070312 L 110.347656 260.070312 L 110.347656 352.570312 " fill-opacity="1" fill-rule="nonzero"/><path fill="#000000" d="M 102.949219 351.953125 L 109.730469 351.953125 L 109.730469 260.683594 L 102.949219 260.683594 Z M 110.347656 353.183594 L 102.332031 353.183594 C 101.992188 353.183594 101.714844 352.910156 101.714844 352.570312 L 101.714844 260.070312 C 101.714844 259.726562 101.992188 259.449219 102.332031 259.449219 L 110.347656 259.449219 C 110.6875 259.449219 110.960938 259.726562 110.960938 260.070312 L 110.960938 352.570312 C 110.960938 352.910156 110.6875 353.183594 110.347656 353.183594 " fill-opacity="1" fill-rule="nonzero"/><path fill="#a6a6a6" d="M 106.339844 347.445312 C 98.429688 347.445312 90.574219 348.71875 83.070312 351.222656 L 80.113281 352.210938 C 77.433594 353.105469 75.625 355.613281 75.625 358.441406 L 137.054688 358.441406 C 137.054688 355.613281 135.246094 353.105469 132.566406 352.210938 L 129.605469 351.222656 C 122.105469 348.71875 114.246094 347.445312 106.339844 347.445312 " fill-opacity="1" fill-rule="nonzero"/><path fill="#000000" d="M 76.273438 357.824219 L 136.40625 357.824219 C 136.167969 355.519531 134.605469 353.542969 132.371094 352.796875 L 129.414062 351.808594 C 121.960938 349.320312 114.195312 348.0625 106.339844 348.0625 C 98.480469 348.0625 90.71875 349.320312 83.265625 351.808594 L 80.308594 352.796875 C 78.074219 353.542969 76.511719 355.519531 76.273438 357.824219 Z M 137.054688 359.058594 L 75.625 359.058594 C 75.285156 359.058594 75.007812 358.78125 75.007812 358.441406 C 75.007812 355.34375 76.980469 352.605469 79.917969 351.625 L 82.875 350.640625 C 90.453125 348.109375 98.347656 346.828125 106.339844 346.828125 C 114.328125 346.828125 122.222656 348.109375 129.800781 350.640625 L 132.761719 351.625 C 135.695312 352.605469 137.671875 355.34375 137.671875 358.441406 C 137.671875 358.78125 137.394531 359.058594 137.054688 359.058594 " fill-opacity="1" fill-rule="nonzero"/><path fill="#a6a6a6" d="M 118.003906 194.679688 L 76.988281 194.679688 C 71.992188 194.679688 67.574219 197.964844 66.167969 202.761719 C 64.019531 210.097656 62.828125 218.152344 62.828125 226.605469 C 62.828125 232.992188 63.507812 239.152344 64.765625 244.945312 C 66.824219 254.402344 75.300781 261.085938 84.976562 261.085938 L 130.257812 261.085938 C 140.078125 261.085938 148.507812 254.1875 150.550781 244.582031 C 150.796875 243.417969 151.03125 241.945312 151.242188 240.367188 C 152.039062 234.390625 147.390625 229.078125 141.359375 229.078125 C 136.222656 229.078125 131.925781 225.171875 131.4375 220.058594 C 130.875 214.121094 129.992188 206.730469 128.828125 202.761719 C 127.417969 197.964844 123.003906 194.679688 118.003906 194.679688 " fill-opacity="1" fill-rule="nonzero"/><path fill="#000000" d="M 76.992188 195.296875 C 72.285156 195.296875 68.078125 198.4375 66.761719 202.933594 C 64.5625 210.433594 63.445312 218.398438 63.445312 226.605469 C 63.445312 232.816406 64.09375 238.941406 65.371094 244.816406 C 67.34375 253.886719 75.589844 260.46875 84.976562 260.46875 L 130.257812 260.46875 C 139.695312 260.46875 147.972656 253.730469 149.949219 244.453125 C 150.171875 243.398438 150.402344 241.996094 150.628906 240.285156 C 150.984375 237.613281 150.171875 234.914062 148.394531 232.882812 C 146.621094 230.855469 144.054688 229.691406 141.359375 229.691406 C 135.875 229.691406 131.34375 225.578125 130.824219 220.117188 C 130.289062 214.480469 129.40625 206.921875 128.234375 202.933594 C 126.914062 198.4375 122.710938 195.296875 118.003906 195.296875 Z M 130.257812 261.703125 L 84.976562 261.703125 C 75.011719 261.703125 66.257812 254.710938 64.164062 245.078125 C 62.871094 239.117188 62.210938 232.902344 62.210938 226.605469 C 62.210938 218.28125 63.34375 210.199219 65.578125 202.585938 C 67.050781 197.570312 71.742188 194.0625 76.992188 194.0625 L 118.003906 194.0625 C 123.253906 194.0625 127.945312 197.570312 129.417969 202.585938 C 130.613281 206.667969 131.511719 214.308594 132.054688 220 C 132.511719 224.824219 136.511719 228.460938 141.359375 228.460938 C 144.410156 228.460938 147.3125 229.777344 149.324219 232.070312 C 151.335938 234.367188 152.257812 237.421875 151.851562 240.449219 C 151.617188 242.191406 151.382812 243.625 151.15625 244.707031 C 149.0625 254.554688 140.273438 261.703125 130.257812 261.703125 " fill-opacity="1" fill-rule="nonzero"/><path fill="#000000" d="M 141.3125 243.570312 L 85.566406 243.570312 C 80.269531 243.570312 75.964844 239.261719 75.964844 233.96875 C 75.964844 233.625 76.242188 233.351562 76.582031 233.351562 C 76.921875 233.351562 77.199219 233.625 77.199219 233.96875 C 77.199219 238.582031 80.953125 242.332031 85.566406 242.332031 L 141.3125 242.332031 C 141.652344 242.332031 141.929688 242.613281 141.929688 242.953125 C 141.929688 243.292969 141.652344 243.570312 141.3125 243.570312 " fill-opacity="1" fill-rule="nonzero"/><path fill="#ffffff" d="M 362.050781 214.574219 L 236.101562 214.574219 C 231.511719 214.574219 227.246094 218.296875 226.574219 222.886719 L 212.910156 316.214844 C 212.238281 320.804688 215.414062 324.523438 220.003906 324.523438 L 345.953125 324.523438 C 350.539062 324.523438 354.804688 320.804688 355.476562 316.214844 L 369.144531 222.886719 C 369.816406 218.296875 366.640625 214.574219 362.050781 214.574219 " fill-opacity="1" fill-rule="nonzero"/><path fill="#000000" d="M 236.101562 215.191406 C 231.8125 215.191406 227.8125 218.683594 227.183594 222.976562 L 213.519531 316.304688 C 213.21875 318.363281 213.734375 320.285156 214.976562 321.722656 C 216.195312 323.132812 217.980469 323.910156 220 323.910156 L 345.949219 323.910156 C 350.238281 323.910156 354.238281 320.417969 354.863281 316.125 L 368.53125 222.796875 C 368.832031 220.738281 368.316406 218.816406 367.074219 217.382812 C 365.851562 215.96875 364.070312 215.191406 362.050781 215.191406 Z M 345.949219 325.144531 L 220 325.144531 C 217.617188 325.144531 215.5 324.214844 214.042969 322.527344 C 212.5625 320.816406 211.945312 318.542969 212.296875 316.125 L 225.964844 222.796875 C 226.679688 217.921875 231.226562 213.960938 236.101562 213.960938 L 362.050781 213.960938 C 364.433594 213.960938 366.550781 214.886719 368.007812 216.574219 C 369.488281 218.285156 370.105469 220.558594 369.753906 222.976562 L 356.085938 316.304688 C 355.371094 321.179688 350.828125 325.144531 345.949219 325.144531 " fill-opacity="1" fill-rule="nonzero"/><path fill="#000000" d="M 361.757812 228.828125 L 232.398438 228.828125 C 232.058594 228.828125 231.78125 228.554688 231.78125 228.210938 C 231.78125 227.871094 232.058594 227.597656 232.398438 227.597656 L 361.757812 227.597656 C 362.097656 227.597656 362.371094 227.871094 362.371094 228.210938 C 362.371094 228.554688 362.097656 228.828125 361.757812 228.828125 " fill-opacity="1" fill-rule="nonzero"/><path fill="#a6a6a6" d="M 241.664062 220.964844 C 241.492188 222.144531 240.398438 223.097656 239.21875 223.097656 C 238.046875 223.097656 237.230469 222.144531 237.402344 220.964844 C 237.574219 219.792969 238.667969 218.835938 239.84375 218.835938 C 241.023438 218.835938 241.835938 219.792969 241.664062 220.964844 " fill-opacity="1" fill-rule="nonzero"/><path fill="#a6a6a6" d="M 250.1875 220.964844 C 250.015625 222.144531 248.921875 223.097656 247.742188 223.097656 C 246.566406 223.097656 245.753906 222.144531 245.925781 220.964844 C 246.097656 219.792969 247.191406 218.835938 248.367188 218.835938 C 249.546875 218.835938 250.359375 219.792969 250.1875 220.964844 " fill-opacity="1" fill-rule="nonzero"/><path fill="#a6a6a6" d="M 258.710938 220.964844 C 258.539062 222.144531 257.445312 223.097656 256.265625 223.097656 C 255.089844 223.097656 254.277344 222.144531 254.449219 220.964844 C 254.621094 219.792969 255.714844 218.835938 256.890625 218.835938 C 258.070312 218.835938 258.882812 219.792969 258.710938 220.964844 " fill-opacity="1" fill-rule="nonzero"/><path fill="#000000" d="M 362.921875 221.585938 L 350.921875 221.585938 C 350.578125 221.585938 350.304688 221.308594 350.304688 220.96875 C 350.304688 220.628906 350.578125 220.351562 350.921875 220.351562 L 362.921875 220.351562 C 363.265625 220.351562 363.539062 220.628906 363.539062 220.96875 C 363.539062 221.308594 363.265625 221.585938 362.921875 221.585938 " fill-opacity="1" fill-rule="nonzero"/><path fill="#000000" d="M 345.523438 221.585938 L 287.476562 221.585938 C 287.132812 221.585938 286.859375 221.308594 286.859375 220.964844 C 286.859375 220.625 287.132812 220.351562 287.476562 220.351562 L 345.523438 220.351562 C 345.863281 220.351562 346.140625 220.625 346.140625 220.964844 C 346.140625 221.308594 345.863281 221.585938 345.523438 221.585938 " fill-opacity="1" fill-rule="nonzero"/><path fill="#000000" d="M 274.40625 221.585938 L 263.824219 221.585938 C 263.484375 221.585938 263.207031 221.308594 263.207031 220.964844 C 263.207031 220.625 263.484375 220.351562 263.824219 220.351562 L 274.40625 220.351562 C 274.746094 220.351562 275.023438 220.625 275.023438 220.964844 C 275.023438 221.308594 274.746094 221.585938 274.40625 221.585938 " fill-opacity="1" fill-rule="nonzero"/><path fill="#3a435e" d="M 344.273438 308.871094 L 224.582031 308.871094 L 235.203125 236.339844 L 354.894531 236.339844 L 344.273438 308.871094 " fill-opacity="1" fill-rule="nonzero"/><path fill="#ffffff" d="M 293.03125 256.019531 L 201.535156 256.019531 C 197.964844 256.019531 194.539062 258.914062 193.882812 262.480469 L 180.519531 335.082031 C 179.863281 338.652344 182.226562 341.546875 185.796875 341.546875 L 277.285156 341.546875 C 280.855469 341.546875 284.285156 338.652344 284.941406 335.082031 L 298.304688 262.480469 C 298.960938 258.914062 296.597656 256.019531 293.03125 256.019531 " fill-opacity="1" fill-rule="nonzero"/><path fill="#000000" d="M 201.535156 256.636719 C 198.253906 256.636719 195.09375 259.308594 194.488281 262.59375 L 181.125 335.191406 C 180.839844 336.757812 181.175781 338.214844 182.078125 339.296875 C 182.953125 340.351562 184.273438 340.929688 185.792969 340.929688 L 277.285156 340.929688 C 280.566406 340.929688 283.726562 338.257812 284.332031 334.96875 L 297.691406 262.371094 C 297.980469 260.808594 297.644531 259.351562 296.742188 258.269531 C 295.867188 257.214844 294.546875 256.636719 293.027344 256.636719 Z M 277.285156 342.164062 L 185.792969 342.164062 C 183.898438 342.164062 182.242188 341.425781 181.128906 340.085938 C 179.988281 338.71875 179.558594 336.898438 179.914062 334.96875 L 193.277344 262.371094 C 193.980469 258.527344 197.6875 255.402344 201.535156 255.402344 L 293.027344 255.402344 C 294.921875 255.402344 296.574219 256.140625 297.691406 257.480469 C 298.832031 258.847656 299.261719 260.664062 298.910156 262.59375 L 285.546875 335.191406 C 284.839844 339.039062 281.132812 342.164062 277.285156 342.164062 " fill-opacity="1" fill-rule="nonzero"/><path fill="#000000" d="M 292.398438 267.246094 L 198.257812 267.246094 C 197.914062 267.246094 197.640625 266.96875 197.640625 266.628906 C 197.640625 266.285156 197.914062 266.011719 198.257812 266.011719 L 292.398438 266.011719 C 292.742188 266.011719 293.015625 266.285156 293.015625 266.628906 C 293.015625 266.96875 292.742188 267.246094 292.398438 267.246094 " fill-opacity="1" fill-rule="nonzero"/><path fill="#a6a6a6" d="M 205.675781 260.992188 C 205.507812 261.90625 204.628906 262.648438 203.714844 262.648438 C 202.796875 262.648438 202.191406 261.90625 202.359375 260.992188 C 202.53125 260.078125 203.40625 259.335938 204.324219 259.335938 C 205.238281 259.335938 205.84375 260.078125 205.675781 260.992188 " fill-opacity="1" fill-rule="nonzero"/><path fill="#a6a6a6" d="M 212.308594 260.992188 C 212.136719 261.90625 211.257812 262.648438 210.34375 262.648438 C 209.429688 262.648438 208.820312 261.90625 208.992188 260.992188 C 209.160156 260.078125 210.039062 259.335938 210.953125 259.335938 C 211.871094 259.335938 212.472656 260.078125 212.308594 260.992188 " fill-opacity="1" fill-rule="nonzero"/><path fill="#a6a6a6" d="M 218.933594 260.992188 C 218.765625 261.90625 217.886719 262.648438 216.972656 262.648438 C 216.058594 262.648438 215.449219 261.90625 215.621094 260.992188 C 215.789062 260.078125 216.667969 259.335938 217.582031 259.335938 C 218.496094 259.335938 219.105469 260.078125 218.933594 260.992188 " fill-opacity="1" fill-rule="nonzero"/><path fill="#000000" d="M 293.519531 261.609375 L 284.183594 261.609375 C 283.839844 261.609375 283.566406 261.332031 283.566406 260.992188 C 283.566406 260.652344 283.839844 260.375 284.183594 260.375 L 293.519531 260.375 C 293.859375 260.375 294.136719 260.652344 294.136719 260.992188 C 294.136719 261.332031 293.859375 261.609375 293.519531 261.609375 " fill-opacity="1" fill-rule="nonzero"/><path fill="#000000" d="M 279.984375 261.609375 L 241.3125 261.609375 C 240.96875 261.609375 240.695312 261.332031 240.695312 260.992188 C 240.695312 260.652344 240.96875 260.375 241.3125 260.375 L 279.984375 260.375 C 280.328125 260.375 280.601562 260.652344 280.601562 260.992188 C 280.601562 261.332031 280.328125 261.609375 279.984375 261.609375 " fill-opacity="1" fill-rule="nonzero"/><path fill="#000000" d="M 231.144531 261.609375 L 222.914062 261.609375 C 222.574219 261.609375 222.296875 261.332031 222.296875 260.992188 C 222.296875 260.652344 222.574219 260.375 222.914062 260.375 L 231.144531 260.375 C 231.484375 260.375 231.761719 260.652344 231.761719 260.992188 C 231.761719 261.332031 231.484375 261.609375 231.144531 261.609375 " fill-opacity="1" fill-rule="nonzero"/><path fill="#000000" d="M 199.394531 273.210938 C 198.507812 273.210938 197.617188 273.96875 197.449219 274.863281 L 193.121094 298.398438 C 193.046875 298.796875 193.128906 299.160156 193.347656 299.429688 C 193.5625 299.683594 193.890625 299.824219 194.269531 299.824219 L 253.277344 299.824219 C 254.164062 299.824219 255.054688 299.066406 255.222656 298.175781 L 259.550781 274.636719 C 259.628906 274.238281 259.546875 273.871094 259.324219 273.609375 C 259.113281 273.351562 258.785156 273.210938 258.402344 273.210938 Z M 253.277344 301.054688 L 194.269531 301.054688 C 193.515625 301.054688 192.851562 300.757812 192.398438 300.214844 C 191.941406 299.664062 191.765625 298.941406 191.90625 298.175781 L 196.238281 274.636719 C 196.515625 273.144531 197.902344 271.976562 199.394531 271.976562 L 258.402344 271.976562 C 259.15625 271.976562 259.824219 272.277344 260.273438 272.816406 C 260.730469 273.371094 260.910156 274.09375 260.765625 274.863281 L 256.433594 298.398438 C 256.160156 299.886719 254.773438 301.054688 253.277344 301.054688 " fill-opacity="1" fill-rule="nonzero"/><path fill="#000000" d="M 193.480469 305.367188 C 192.589844 305.367188 191.699219 306.125 191.53125 307.015625 L 186.898438 332.210938 C 186.824219 332.609375 186.902344 332.972656 187.125 333.242188 C 187.339844 333.496094 187.664062 333.636719 188.046875 333.636719 L 247.054688 333.636719 C 247.941406 333.636719 248.832031 332.882812 248.996094 331.988281 L 253.636719 306.792969 C 253.707031 306.394531 253.628906 306.027344 253.40625 305.761719 C 253.195312 305.507812 252.867188 305.367188 252.484375 305.367188 Z M 247.054688 334.867188 L 188.046875 334.867188 C 187.292969 334.867188 186.628906 334.570312 186.179688 334.027344 C 185.71875 333.480469 185.542969 332.753906 185.683594 331.988281 L 190.320312 306.792969 C 190.59375 305.300781 191.980469 304.132812 193.480469 304.132812 L 252.484375 304.132812 C 253.238281 304.132812 253.902344 304.433594 254.355469 304.972656 C 254.8125 305.527344 254.988281 306.25 254.847656 307.015625 L 250.210938 332.210938 C 249.9375 333.703125 248.550781 334.867188 247.054688 334.867188 " fill-opacity="1" fill-rule="nonzero"/><path fill="#caddff" d="M 289.230469 272.59375 L 266.6875 272.59375 C 265.496094 272.59375 264.355469 273.5625 264.136719 274.75 L 253.582031 332.097656 C 253.363281 333.289062 254.148438 334.253906 255.339844 334.253906 L 277.878906 334.253906 C 279.070312 334.253906 280.214844 333.289062 280.433594 332.097656 L 290.988281 274.75 C 291.207031 273.5625 290.417969 272.59375 289.230469 272.59375 " fill-opacity="1" fill-rule="nonzero"/><path fill="#000000" d="M 266.6875 273.210938 C 265.800781 273.210938 264.910156 273.964844 264.746094 274.859375 L 254.1875 332.210938 C 254.117188 332.609375 254.195312 332.976562 254.417969 333.242188 C 254.632812 333.496094 254.957031 333.636719 255.34375 333.636719 L 277.882812 333.636719 C 278.773438 333.636719 279.664062 332.878906 279.828125 331.988281 L 290.382812 274.636719 C 290.457031 274.238281 290.375 273.871094 290.152344 273.605469 C 289.941406 273.351562 289.613281 273.210938 289.230469 273.210938 Z M 277.882812 334.867188 L 255.34375 334.867188 C 254.585938 334.867188 253.921875 334.570312 253.472656 334.03125 C 253.011719 333.476562 252.835938 332.753906 252.976562 331.988281 L 263.53125 274.636719 C 263.808594 273.144531 265.195312 271.976562 266.6875 271.976562 L 289.230469 271.976562 C 289.988281 271.976562 290.652344 272.277344 291.101562 272.816406 C 291.5625 273.371094 291.734375 274.09375 291.597656 274.859375 L 281.039062 332.210938 C 280.765625 333.699219 279.378906 334.867188 277.882812 334.867188 " fill-opacity="1" fill-rule="nonzero"/><path fill="#ffffff" d="M 124.914062 290.394531 L 116.386719 296.9375 L 123.875 307.109375 L 131.855469 299.5 L 124.914062 290.394531 " fill-opacity="1" fill-rule="nonzero"/><path fill="#000000" d="M 117.242188 297.058594 L 123.957031 306.179688 L 131.03125 299.433594 L 124.796875 291.257812 Z M 123.875 307.726562 C 123.855469 307.726562 123.839844 307.726562 123.820312 307.722656 C 123.644531 307.707031 123.484375 307.617188 123.378906 307.476562 L 115.890625 297.304688 C 115.691406 297.035156 115.746094 296.65625 116.011719 296.449219 L 124.539062 289.902344 C 124.667969 289.804688 124.832031 289.761719 124.996094 289.78125 C 125.15625 289.804688 125.304688 289.886719 125.402344 290.019531 L 132.347656 299.125 C 132.535156 299.375 132.507812 299.730469 132.28125 299.945312 L 124.300781 307.554688 C 124.183594 307.667969 124.03125 307.726562 123.875 307.726562 " fill-opacity="1" fill-rule="nonzero"/><path fill="#3a435e" d="M 128.945312 305.917969 L 121.023438 299.5 L 119.527344 294.121094 C 115.367188 294.019531 110.699219 297.121094 108.136719 299.113281 C 106.949219 300.039062 106.5625 301.660156 107.226562 303.007812 C 111.453125 311.59375 120.984375 324.992188 125.597656 331.296875 C 126.757812 332.890625 129.277344 332.375 129.683594 330.445312 C 131.722656 320.792969 128.945312 305.917969 128.945312 305.917969 " fill-opacity="1" fill-rule="nonzero"/><path fill="#000000" d="M 119.058594 294.742188 C 115.164062 294.871094 110.8125 297.8125 108.515625 299.601562 C 107.558594 300.34375 107.25 301.660156 107.78125 302.734375 C 111.90625 311.125 121.027344 324.003906 126.09375 330.9375 C 126.570312 331.585938 127.292969 331.695312 127.8125 331.585938 C 128.46875 331.445312 128.941406 330.972656 129.082031 330.320312 C 130.933594 321.53125 128.707031 308.132812 128.378906 306.253906 L 120.632812 299.980469 C 120.535156 299.898438 120.460938 299.789062 120.425781 299.664062 Z M 127.4375 332.859375 C 126.519531 332.859375 125.660156 332.429688 125.097656 331.664062 C 120.007812 324.699219 110.84375 311.753906 106.671875 303.28125 C 105.886719 301.683594 106.34375 299.726562 107.757812 298.628906 C 110.273438 296.667969 115.148438 293.394531 119.542969 293.507812 C 119.816406 293.511719 120.050781 293.695312 120.125 293.957031 L 121.5625 299.144531 L 129.332031 305.4375 C 129.449219 305.53125 129.523438 305.660156 129.550781 305.804688 C 129.667969 306.417969 132.328125 320.910156 130.289062 330.574219 C 130.050781 331.699219 129.199219 332.546875 128.070312 332.792969 C 127.859375 332.835938 127.648438 332.859375 127.4375 332.859375 " fill-opacity="1" fill-rule="nonzero"/><path fill="#000000" d="M 126.289062 328.070312 C 126.09375 328.070312 125.902344 327.976562 125.78125 327.800781 L 113.160156 309.609375 C 112.261719 308.3125 111.859375 306.6875 112.03125 305.027344 C 112.339844 302.070312 111.136719 299.011719 111.125 298.980469 C 111 298.664062 111.15625 298.304688 111.472656 298.175781 C 111.789062 298.054688 112.144531 298.207031 112.273438 298.523438 C 112.328125 298.660156 113.597656 301.886719 113.257812 305.15625 C 113.117188 306.519531 113.441406 307.851562 114.171875 308.90625 L 126.792969 327.097656 C 126.988281 327.378906 126.917969 327.761719 126.640625 327.957031 C 126.53125 328.03125 126.410156 328.070312 126.289062 328.070312 " fill-opacity="1" fill-rule="nonzero"/><path fill="#ffffff" d="M 149.042969 340.074219 L 160.757812 359.1875 L 171.507812 352.558594 L 158.6875 333.902344 L 149.042969 340.074219 " fill-opacity="1" fill-rule="nonzero"/><path fill="#000000" d="M 149.882812 340.269531 L 160.960938 358.335938 L 170.632812 352.375 L 158.515625 334.742188 Z M 160.757812 359.804688 C 160.710938 359.804688 160.664062 359.796875 160.613281 359.785156 C 160.457031 359.75 160.316406 359.648438 160.230469 359.507812 L 148.515625 340.398438 C 148.339844 340.109375 148.425781 339.738281 148.710938 339.554688 L 158.355469 333.382812 C 158.636719 333.203125 159.007812 333.28125 159.195312 333.554688 L 172.015625 352.210938 C 172.113281 352.347656 172.148438 352.519531 172.113281 352.6875 C 172.078125 352.851562 171.976562 352.996094 171.832031 353.085938 L 161.082031 359.710938 C 160.984375 359.773438 160.871094 359.804688 160.757812 359.804688 " fill-opacity="1" fill-rule="nonzero"/><path fill="#3a435e" d="M 170.734375 347.40625 L 163.691406 354.777344 L 158.207031 355.824219 C 157.765625 359.964844 160.472656 364.875 162.25 367.589844 C 163.074219 368.847656 164.65625 369.367188 166.054688 368.816406 C 174.960938 365.304688 189.089844 356.90625 195.757812 352.824219 C 197.4375 351.796875 197.132812 349.246094 195.242188 348.683594 C 185.785156 345.859375 170.734375 347.40625 170.734375 347.40625 " fill-opacity="1" fill-rule="nonzero"/><path fill="#000000" d="M 163.691406 354.777344 L 163.695312 354.777344 Z M 158.785156 356.34375 C 158.597656 360.238281 161.171875 364.816406 162.765625 367.25 C 163.425781 368.265625 164.714844 368.679688 165.832031 368.242188 C 174.53125 364.8125 188.113281 356.78125 195.433594 352.296875 C 196.121094 351.878906 196.292969 351.167969 196.222656 350.640625 C 196.136719 349.976562 195.703125 349.464844 195.066406 349.273438 C 186.460938 346.703125 172.925781 347.824219 171.023438 348 L 164.136719 355.203125 C 164.046875 355.296875 163.933594 355.359375 163.804688 355.382812 Z M 164.917969 369.648438 C 163.667969 369.648438 162.449219 369.023438 161.734375 367.925781 C 159.988281 365.257812 157.128906 360.128906 157.59375 355.757812 C 157.625 355.488281 157.828125 355.269531 158.09375 355.21875 L 163.378906 354.210938 L 170.289062 346.980469 C 170.390625 346.875 170.527344 346.808594 170.671875 346.792969 C 171.292969 346.730469 185.953125 345.265625 195.421875 348.089844 C 196.519531 348.421875 197.296875 349.335938 197.445312 350.480469 C 197.597656 351.640625 197.074219 352.742188 196.078125 353.351562 C 188.722656 357.855469 175.070312 365.925781 166.28125 369.390625 C 165.839844 369.5625 165.375 369.648438 164.917969 369.648438 " fill-opacity="1" fill-rule="nonzero"/><path fill="#000000" d="M 162.179688 364.625 C 161.917969 364.625 161.671875 364.453125 161.589844 364.1875 C 161.492188 363.863281 161.671875 363.519531 162 363.417969 C 162.140625 363.375 165.460938 362.375 168.691406 362.976562 C 170.039062 363.230469 171.394531 363.015625 172.503906 362.375 L 191.667969 351.285156 C 191.964844 351.117188 192.34375 351.21875 192.511719 351.511719 C 192.683594 351.804688 192.582031 352.183594 192.285156 352.355469 L 173.121094 363.441406 C 171.757812 364.234375 170.101562 364.496094 168.464844 364.191406 C 165.53125 363.640625 162.394531 364.589844 162.359375 364.597656 C 162.300781 364.617188 162.238281 364.625 162.179688 364.625 " fill-opacity="1" fill-rule="nonzero"/><path fill="#000000" d="M 133.410156 204.011719 C 133.410156 204.011719 157.75 223.234375 170.632812 241.226562 C 174.230469 246.253906 174.738281 252.871094 172.007812 258.417969 C 166.078125 270.464844 153.253906 292.0625 133.410156 302.835938 L 116.738281 281.535156 C 116.738281 281.535156 131.316406 265.421875 142.03125 258.082031 L 114.707031 227.457031 L 107.914062 212.074219 L 133.410156 204.011719 " fill-opacity="1" fill-rule="nonzero"/><path fill="#000000" d="M 145.121094 347.574219 C 145.988281 349.09375 165.617188 334.742188 165.617188 334.742188 C 165.617188 334.742188 150.597656 317.160156 126.726562 227.800781 C 126.449219 226.761719 122.046875 204.902344 122.046875 204.902344 L 89.429688 222.003906 C 89.429688 222.003906 95.160156 259.609375 145.121094 347.574219 " fill-opacity="1" fill-rule="nonzero"/><path fill="#caddff" d="M 130.648438 242.746094 C 130.378906 242.746094 130.128906 242.566406 130.054688 242.289062 L 126.984375 231.082031 C 126.394531 228.921875 126.78125 226.628906 128.042969 224.78125 L 129.921875 222.035156 C 130.113281 221.753906 130.496094 221.679688 130.777344 221.875 C 131.058594 222.066406 131.132812 222.449219 130.941406 222.730469 L 129.0625 225.480469 C 128.003906 227.023438 127.679688 228.945312 128.175781 230.753906 L 131.242188 241.964844 C 131.332031 242.292969 131.140625 242.632812 130.8125 242.726562 C 130.757812 242.738281 130.703125 242.746094 130.648438 242.746094 " fill-opacity="1" fill-rule="nonzero"/><path fill="#caddff" d="M 146.671875 341.417969 C 146.457031 341.417969 146.25 341.304688 146.136719 341.105469 C 145.054688 339.1875 143.96875 337.246094 142.914062 335.335938 C 142.75 335.035156 142.859375 334.660156 143.15625 334.496094 C 143.453125 334.332031 143.828125 334.441406 143.992188 334.738281 C 145.046875 336.648438 146.128906 338.582031 147.210938 340.496094 C 147.375 340.796875 147.273438 341.171875 146.972656 341.335938 C 146.878906 341.390625 146.777344 341.417969 146.671875 341.417969 " fill-opacity="1" fill-rule="nonzero"/><path fill="#caddff" d="M 141.3125 331.75 C 141.09375 331.75 140.882812 331.632812 140.769531 331.425781 C 137.699219 325.78125 134.71875 320.121094 131.914062 314.605469 C 131.761719 314.304688 131.882812 313.933594 132.183594 313.777344 C 132.488281 313.625 132.859375 313.742188 133.015625 314.046875 C 135.8125 319.550781 138.785156 325.199219 141.855469 330.835938 C 142.015625 331.136719 141.90625 331.511719 141.609375 331.675781 C 141.515625 331.726562 141.414062 331.75 141.3125 331.75 " fill-opacity="1" fill-rule="nonzero"/><path fill="#caddff" d="M 120.960938 291.011719 C 120.726562 291.011719 120.503906 290.875 120.398438 290.648438 C 105.878906 258.492188 101.769531 240.511719 101.730469 240.335938 C 101.65625 240.003906 101.867188 239.675781 102.199219 239.601562 C 102.53125 239.527344 102.859375 239.734375 102.933594 240.066406 C 102.972656 240.242188 107.0625 258.113281 121.523438 290.140625 C 121.664062 290.449219 121.527344 290.816406 121.214844 290.953125 C 121.132812 290.992188 121.046875 291.011719 120.960938 291.011719 " fill-opacity="1" fill-rule="nonzero"/><path fill="#caddff" d="M 150.574219 301.398438 C 150.335938 301.398438 150.105469 301.253906 150.007812 301.019531 C 149.933594 300.847656 142.519531 283.457031 139.765625 274.710938 C 139.660156 274.386719 139.84375 274.039062 140.167969 273.9375 C 140.492188 273.835938 140.839844 274.015625 140.941406 274.339844 C 143.675781 283.027344 151.066406 300.363281 151.140625 300.539062 C 151.273438 300.851562 151.128906 301.210938 150.816406 301.347656 C 150.738281 301.378906 150.65625 301.398438 150.574219 301.398438 " fill-opacity="1" fill-rule="nonzero"/><path fill="#ffffff" d="M 158.800781 141.84375 C 158.800781 141.84375 171.007812 146.554688 185.695312 134.625 C 192.433594 129.152344 196.53125 121.070312 197.109375 112.40625 C 197.21875 110.714844 197.976562 109.132812 199.21875 107.980469 L 209.75 101.269531 C 209.75 101.269531 209.003906 102.421875 208.191406 105.394531 C 207.378906 108.375 204.910156 110.988281 204.59375 112.230469 L 209.75 110.691406 C 209.75 110.691406 209.199219 113.929688 206.679688 116.09375 C 204.160156 118.257812 203.300781 123.683594 203.300781 123.683594 C 203.300781 123.683594 199.714844 166.925781 161.941406 166.226562 L 158.800781 141.84375 " fill-opacity="1" fill-rule="nonzero"/><path fill="#000000" d="M 162.484375 165.617188 C 162.609375 165.617188 162.734375 165.617188 162.859375 165.617188 C 177.820312 165.617188 189.046875 158.664062 196.238281 144.933594 C 201.734375 134.441406 202.675781 123.742188 202.6875 123.636719 C 202.6875 123.617188 202.6875 123.605469 202.691406 123.589844 C 202.726562 123.359375 203.617188 117.910156 206.277344 115.625 C 207.765625 114.351562 208.519531 112.660156 208.871094 111.597656 L 204.765625 112.820312 C 204.554688 112.882812 204.324219 112.828125 204.164062 112.671875 C 204 112.519531 203.9375 112.292969 203.992188 112.074219 C 204.144531 111.484375 204.625 110.753906 205.234375 109.828125 C 206.078125 108.539062 207.132812 106.933594 207.597656 105.234375 C 207.855469 104.285156 208.109375 103.515625 208.335938 102.902344 L 199.601562 108.46875 C 198.488281 109.515625 197.824219 110.925781 197.722656 112.449219 C 197.136719 121.316406 192.894531 129.574219 186.085938 135.105469 C 173.46875 145.351562 162.738281 143.585938 159.535156 142.71875 Z M 162.832031 166.851562 C 162.53125 166.851562 162.234375 166.851562 161.929688 166.84375 C 161.625 166.835938 161.367188 166.609375 161.328125 166.304688 L 158.1875 141.921875 C 158.160156 141.707031 158.25 141.492188 158.417969 141.359375 C 158.589844 141.222656 158.820312 141.1875 159.019531 141.265625 C 159.140625 141.3125 171.097656 145.6875 185.304688 134.148438 C 191.851562 128.832031 195.929688 120.894531 196.492188 112.367188 C 196.613281 110.511719 197.4375 108.792969 198.800781 107.527344 C 198.828125 107.503906 198.859375 107.480469 198.890625 107.460938 L 209.417969 100.75 C 209.660156 100.59375 209.980469 100.628906 210.1875 100.835938 C 210.390625 101.042969 210.425781 101.363281 210.265625 101.605469 C 210.261719 101.613281 209.554688 102.746094 208.785156 105.558594 C 208.269531 107.449219 207.15625 109.144531 206.265625 110.503906 C 206.101562 110.753906 205.941406 110.996094 205.796875 111.226562 L 209.574219 110.101562 C 209.777344 110.042969 209.996094 110.085938 210.15625 110.230469 C 210.316406 110.371094 210.394531 110.585938 210.355469 110.792969 C 210.332031 110.9375 209.738281 114.28125 207.082031 116.5625 C 204.832031 118.496094 203.972656 123.414062 203.914062 123.761719 C 203.859375 124.371094 202.808594 135.050781 197.332031 145.503906 C 192.203125 155.289062 182.070312 166.851562 162.832031 166.851562 " fill-opacity="1" fill-rule="nonzero"/><path fill="#3a435e" d="M 78.390625 162.121094 L 87.761719 149.605469 C 90.90625 145.402344 95.453125 142.460938 100.578125 141.320312 C 110.582031 139.09375 127.457031 135.796875 136.5625 136.582031 C 150.050781 137.742188 166.710938 138.976562 166.710938 138.976562 L 164.777344 167.894531 L 148.429688 166.679688 C 148.429688 166.679688 138.023438 190.945312 140.832031 204.960938 C 140.832031 204.960938 107.683594 219.785156 83.222656 225.382812 C 83.222656 225.382812 74.578125 191.496094 88.5625 167.894531 L 78.390625 162.121094 " fill-opacity="1" fill-rule="nonzero"/><path fill="#000000" d="M 121.667969 172.035156 L 124.175781 213.550781 C 124.210938 214.183594 123.867188 214.773438 123.308594 215.035156 L 74.757812 237.71875 C 74.273438 237.945312 73.753906 237.878906 73.351562 237.621094 C 72.964844 237.371094 71.820312 236.648438 71.820312 236.648438 L 70.148438 194.898438 C 70.109375 194.265625 70.457031 193.675781 71.015625 193.414062 L 119.761719 169.980469 C 119.761719 169.980469 120.621094 170.578125 121.03125 170.871094 C 121.386719 171.125 121.636719 171.539062 121.667969 172.035156 " fill-opacity="1" fill-rule="nonzero"/><path fill="#ffffff" d="M 120.125 171.113281 L 122.632812 212.632812 C 122.667969 213.265625 122.324219 213.851562 121.765625 214.113281 L 73.351562 236.664062 C 72.398438 237.109375 71.308594 236.433594 71.246094 235.363281 L 68.738281 193.847656 C 68.699219 193.214844 69.046875 192.625 69.605469 192.363281 L 118.019531 169.8125 C 118.96875 169.371094 120.058594 170.042969 120.125 171.113281 " fill-opacity="1" fill-rule="nonzero"/><path fill="#000000" d="M 118.636719 170.289062 C 118.515625 170.289062 118.394531 170.316406 118.28125 170.371094 L 69.867188 192.921875 C 69.539062 193.074219 69.332031 193.429688 69.355469 193.808594 L 71.859375 235.324219 C 71.878906 235.636719 72.042969 235.90625 72.304688 236.0625 C 72.546875 236.210938 72.832031 236.226562 73.089844 236.105469 L 121.503906 213.554688 C 121.832031 213.402344 122.039062 213.046875 122.015625 212.667969 L 119.507812 171.152344 C 119.492188 170.839844 119.328125 170.570312 119.066406 170.410156 C 118.929688 170.332031 118.785156 170.289062 118.636719 170.289062 Z M 72.738281 237.417969 C 72.367188 237.417969 72 237.320312 71.671875 237.125 C 71.0625 236.761719 70.671875 236.117188 70.628906 235.398438 L 68.121094 193.882812 C 68.070312 193.003906 68.5625 192.167969 69.34375 191.804688 L 117.761719 169.25 C 118.382812 168.960938 119.105469 169 119.699219 169.351562 C 120.308594 169.714844 120.695312 170.359375 120.742188 171.078125 L 123.246094 212.59375 C 123.300781 213.472656 122.808594 214.308594 122.023438 214.671875 L 73.609375 237.226562 C 73.332031 237.351562 73.035156 237.417969 72.738281 237.417969 " fill-opacity="1" fill-rule="nonzero"/><path fill="#ffffff" d="M 116.824219 167.839844 L 119.332031 209.355469 C 119.371094 209.988281 119.023438 210.578125 118.464844 210.839844 L 70.046875 233.390625 C 69.097656 233.832031 68.007812 233.15625 67.945312 232.085938 L 65.4375 190.570312 C 65.398438 189.9375 65.746094 189.347656 66.304688 189.085938 L 114.71875 166.535156 C 115.671875 166.09375 116.761719 166.769531 116.824219 167.839844 " fill-opacity="1" fill-rule="nonzero"/><path fill="#000000" d="M 115.335938 167.015625 C 115.214844 167.015625 115.09375 167.039062 114.980469 167.09375 L 66.566406 189.644531 C 66.234375 189.796875 66.03125 190.15625 66.054688 190.53125 L 68.558594 232.050781 C 68.578125 232.363281 68.742188 232.632812 69.003906 232.789062 C 69.246094 232.933594 69.53125 232.949219 69.789062 232.832031 L 118.203125 210.28125 C 118.53125 210.125 118.738281 209.769531 118.714844 209.394531 L 116.207031 167.878906 C 116.191406 167.5625 116.027344 167.292969 115.765625 167.136719 C 115.632812 167.054688 115.484375 167.015625 115.335938 167.015625 Z M 69.4375 234.144531 C 69.066406 234.144531 68.699219 234.042969 68.371094 233.847656 C 67.761719 233.488281 67.371094 232.839844 67.328125 232.125 L 64.824219 190.609375 C 64.769531 189.726562 65.261719 188.894531 66.046875 188.527344 L 114.460938 165.976562 C 115.082031 165.6875 115.804688 165.722656 116.398438 166.074219 C 117.007812 166.441406 117.398438 167.085938 117.441406 167.804688 L 119.945312 209.316406 C 120 210.195312 119.507812 211.03125 118.722656 211.398438 L 70.308594 233.949219 C 70.03125 234.078125 69.734375 234.144531 69.4375 234.144531 " fill-opacity="1" fill-rule="nonzero"/><path fill="#caddff" d="M 114.066406 171.425781 L 116.273438 208.007812 C 116.308594 208.5625 116.003906 209.082031 115.507812 209.3125 L 72.851562 229.183594 C 72.015625 229.570312 71.054688 228.976562 71 228.035156 L 68.789062 191.453125 C 68.753906 190.898438 69.058594 190.375 69.554688 190.144531 L 112.210938 170.277344 C 113.046875 169.886719 114.007812 170.484375 114.066406 171.425781 " fill-opacity="1" fill-rule="nonzero"/><path fill="#000000" d="M 104.859375 214.878906 C 104.625 214.878906 104.402344 214.746094 104.296875 214.523438 C 104.15625 214.214844 104.289062 213.847656 104.597656 213.703125 L 115.179688 208.773438 C 115.441406 208.652344 115.605469 208.367188 115.589844 208.0625 L 115.34375 204.003906 C 115.324219 203.664062 115.582031 203.371094 115.921875 203.351562 C 116.261719 203.332031 116.554688 203.589844 116.574219 203.929688 L 116.820312 207.988281 C 116.867188 208.792969 116.417969 209.558594 115.699219 209.894531 L 105.117188 214.820312 C 105.035156 214.859375 104.945312 214.878906 104.859375 214.878906 " fill-opacity="1" fill-rule="nonzero"/><path fill="#000000" d="M 70.953125 190.160156 C 70.71875 190.160156 70.496094 190.03125 70.390625 189.804688 C 70.246094 189.496094 70.378906 189.128906 70.691406 188.984375 L 77.691406 185.703125 C 78 185.558594 78.367188 185.691406 78.511719 186 C 78.65625 186.308594 78.519531 186.675781 78.214844 186.820312 L 71.210938 190.101562 C 71.128906 190.140625 71.039062 190.160156 70.953125 190.160156 " fill-opacity="1" fill-rule="nonzero"/><path fill="#000000" d="M 72.242188 229.941406 C 71.902344 229.941406 71.566406 229.847656 71.265625 229.671875 C 70.707031 229.335938 70.351562 228.746094 70.3125 228.09375 L 68.3125 194.976562 C 68.292969 194.636719 68.550781 194.34375 68.890625 194.324219 C 69.234375 194.304688 69.523438 194.5625 69.542969 194.902344 L 71.542969 228.015625 C 71.558594 228.269531 71.6875 228.484375 71.898438 228.609375 C 72.089844 228.726562 72.320312 228.738281 72.519531 228.644531 L 82.320312 224.082031 C 82.632812 223.9375 82.996094 224.070312 83.140625 224.378906 C 83.285156 224.6875 83.152344 225.054688 82.84375 225.199219 L 73.042969 229.761719 C 72.789062 229.878906 72.511719 229.941406 72.242188 229.941406 " fill-opacity="1" fill-rule="nonzero"/><path fill="#ffffff" d="M 81.496094 163.628906 L 96.203125 172.28125 C 96.203125 172.28125 83.925781 192.324219 102.585938 213.554688 L 114.644531 212.074219 C 114.644531 212.074219 112.054688 214.007812 109.382812 214.492188 C 106.714844 214.976562 106.144531 217.820312 106.144531 217.820312 L 111.621094 220.828125 C 111.621094 220.828125 104.882812 227.101562 100.664062 224.65625 C 96.441406 222.207031 61.316406 195.898438 81.496094 163.628906 " fill-opacity="1" fill-rule="nonzero"/><path fill="#000000" d="M 81.703125 164.464844 C 76.207031 173.503906 74.609375 182.875 76.957031 192.332031 C 81.21875 209.492188 97.234375 221.957031 100.972656 224.121094 C 104.039062 225.898438 108.8125 222.375 110.546875 220.941406 L 105.84375 218.363281 C 105.609375 218.234375 105.484375 217.964844 105.539062 217.699219 C 105.5625 217.570312 106.226562 214.4375 109.273438 213.886719 C 110.140625 213.730469 111.003906 213.40625 111.765625 213.050781 L 102.664062 214.167969 C 102.457031 214.195312 102.257812 214.113281 102.125 213.960938 C 92.339844 202.832031 91.101562 192.011719 91.785156 184.898438 C 92.394531 178.539062 94.554688 174.015625 95.371094 172.503906 Z M 102.882812 225.835938 C 102 225.835938 101.144531 225.644531 100.351562 225.1875 C 96.527344 222.96875 80.125 210.207031 75.761719 192.628906 C 73.285156 182.65625 75.039062 172.789062 80.972656 163.300781 C 81.148438 163.015625 81.519531 162.925781 81.808594 163.097656 L 96.515625 171.746094 C 96.660156 171.832031 96.761719 171.96875 96.800781 172.128906 C 96.84375 172.289062 96.816406 172.460938 96.730469 172.601562 C 96.699219 172.648438 93.710938 177.621094 93.007812 185.074219 C 92.363281 191.878906 93.558594 202.210938 102.835938 212.90625 L 114.570312 211.464844 C 114.84375 211.429688 115.113281 211.585938 115.21875 211.847656 C 115.320312 212.105469 115.238281 212.402344 115.015625 212.570312 C 114.902344 212.652344 112.273438 214.597656 109.492188 215.101562 C 107.832031 215.402344 107.128906 216.800781 106.871094 217.519531 L 111.917969 220.289062 C 112.09375 220.382812 112.210938 220.558594 112.234375 220.753906 C 112.257812 220.949219 112.1875 221.148438 112.042969 221.28125 C 111.804688 221.503906 107.085938 225.835938 102.882812 225.835938 " fill-opacity="1" fill-rule="nonzero"/><path fill="#000000" d="M 122.386719 127.871094 C 120.925781 128.78125 118.625 130.214844 116.0625 129.453125 C 113.335938 128.636719 111.070312 125.558594 111.578125 123.496094 C 112.019531 121.691406 114.328125 121.734375 114.683594 119.851562 C 115.015625 118.082031 113.089844 117.410156 112.957031 115.234375 C 112.78125 112.335938 115.917969 108.878906 118.820312 108.796875 C 120.605469 108.742188 120.785156 110.007812 122.847656 110.132812 C 125.65625 110.300781 126.214844 108.011719 129.402344 107.703125 C 131.699219 107.480469 133.570312 108.457031 135.152344 109.28125 C 137.492188 110.503906 139.03125 111.304688 139.175781 112.5625 C 139.472656 115.132812 133.460938 115.546875 127.90625 122.039062 C 125.886719 124.398438 125.128906 126.164062 122.386719 127.871094 " fill-opacity="1" fill-rule="nonzero"/><path fill="#ffffff" d="M 131.863281 130.019531 C 134.027344 124.140625 129.304688 116.664062 128.957031 116.046875 C 128.957031 116.046875 126.28125 118.273438 122.714844 118.03125 C 119.148438 117.792969 119.445312 122.621094 119.445312 122.621094 C 117.507812 122.195312 117.171875 123.5 117.648438 126.160156 C 118.128906 128.824219 120.773438 128.042969 120.773438 128.042969 C 121.140625 128.484375 121.527344 128.867188 121.925781 129.203125 L 117.398438 135.902344 C 116.164062 137.730469 114.433594 139.175781 112.417969 140.066406 L 110.582031 140.875 C 110.101562 141.085938 110.199219 141.792969 110.71875 141.863281 C 114.304688 142.34375 122.726562 142.945312 129.046875 139.265625 C 129.425781 139.046875 129.324219 138.46875 128.898438 138.378906 L 127.425781 138.066406 C 126.382812 137.84375 125.835938 136.683594 126.332031 135.738281 L 128.628906 131.347656 C 129.425781 131.3125 130.113281 131.203125 130.613281 131.101562 C 131.191406 130.980469 131.660156 130.570312 131.863281 130.019531 " fill-opacity="1" fill-rule="nonzero"/><path fill="#000000" d="M 128.769531 138.980469 L 128.773438 138.980469 Z M 111.152344 141.296875 C 114.628906 141.730469 122.464844 142.207031 128.425781 138.910156 L 127.296875 138.667969 C 126.609375 138.519531 126.042969 138.070312 125.742188 137.433594 C 125.445312 136.800781 125.460938 136.074219 125.785156 135.449219 L 128.082031 131.058594 C 128.183594 130.863281 128.382812 130.738281 128.601562 130.730469 C 129.238281 130.703125 129.875 130.625 130.488281 130.496094 C 130.855469 130.421875 131.152344 130.164062 131.285156 129.804688 C 132.949219 125.289062 130.265625 119.589844 128.765625 116.945312 C 127.742188 117.621094 125.480469 118.839844 122.675781 118.648438 C 121.976562 118.601562 121.4375 118.777344 121.027344 119.191406 C 120.121094 120.089844 120.023438 121.945312 120.0625 122.582031 C 120.074219 122.777344 119.996094 122.964844 119.847656 123.089844 C 119.703125 123.214844 119.503906 123.265625 119.316406 123.222656 C 118.976562 123.148438 118.53125 123.101562 118.328125 123.296875 C 118.105469 123.507812 117.914062 124.15625 118.257812 126.050781 C 118.367188 126.65625 118.601562 127.0625 118.980469 127.296875 C 119.65625 127.710938 120.589844 127.453125 120.597656 127.453125 C 120.835938 127.382812 121.089844 127.460938 121.246094 127.648438 C 121.574219 128.039062 121.9375 128.402344 122.324219 128.730469 C 122.566406 128.933594 122.613281 129.285156 122.4375 129.546875 L 117.910156 136.246094 C 116.605469 138.175781 114.792969 139.691406 112.664062 140.628906 Z M 116.089844 142.835938 C 113.820312 142.835938 111.882812 142.644531 110.636719 142.472656 C 110.128906 142.40625 109.738281 142.019531 109.664062 141.511719 C 109.59375 141 109.863281 140.519531 110.332031 140.3125 L 112.167969 139.5 C 114.082031 138.65625 115.714844 137.292969 116.886719 135.558594 L 121.113281 129.304688 C 120.917969 129.117188 120.726562 128.921875 120.542969 128.71875 C 120.03125 128.796875 119.121094 128.832031 118.332031 128.34375 C 117.648438 127.925781 117.214844 127.226562 117.042969 126.269531 C 116.671875 124.210938 116.800781 123.050781 117.472656 122.40625 C 117.8125 122.078125 118.285156 121.917969 118.835938 121.925781 C 118.882812 120.980469 119.125 119.339844 120.15625 118.3125 C 120.828125 117.648438 121.699219 117.347656 122.757812 117.417969 C 126.023438 117.636719 128.535156 115.59375 128.5625 115.570312 C 128.703125 115.453125 128.886719 115.40625 129.066406 115.4375 C 129.246094 115.472656 129.402344 115.585938 129.492188 115.742188 L 129.574219 115.882812 C 131.449219 119.058594 134.316406 125.144531 132.441406 130.230469 C 132.160156 130.992188 131.523438 131.542969 130.738281 131.707031 C 130.175781 131.824219 129.59375 131.902344 129.011719 131.941406 L 126.878906 136.023438 C 126.730469 136.300781 126.726562 136.625 126.859375 136.910156 C 126.992188 137.195312 127.246094 137.394531 127.554688 137.460938 L 129.023438 137.773438 C 129.472656 137.871094 129.8125 138.226562 129.882812 138.679688 C 129.957031 139.132812 129.75 139.570312 129.355469 139.800781 C 125.179688 142.230469 120.109375 142.835938 116.089844 142.835938 " fill-opacity="1" fill-rule="nonzero"/><path fill="#000000" d="M 128.054688 131.996094 C 126.019531 131.996094 124.15625 130.882812 124.070312 130.832031 C 123.777344 130.652344 123.6875 130.273438 123.863281 129.984375 C 124.039062 129.691406 124.417969 129.597656 124.707031 129.777344 C 124.738281 129.792969 126.71875 130.964844 128.550781 130.734375 C 128.886719 130.691406 129.195312 130.929688 129.238281 131.265625 C 129.28125 131.605469 129.042969 131.914062 128.703125 131.957031 C 128.488281 131.984375 128.269531 131.996094 128.054688 131.996094 " fill-opacity="1" fill-rule="nonzero"/><path fill="#000000" d="M 118.921875 146.285156 C 110.394531 146.285156 104.917969 142.792969 104.839844 142.742188 C 104.554688 142.550781 104.472656 142.171875 104.660156 141.886719 C 104.847656 141.601562 105.230469 141.523438 105.511719 141.707031 C 105.628906 141.78125 117.355469 149.226562 133.226562 141.667969 C 133.535156 141.519531 133.902344 141.648438 134.046875 141.960938 C 134.195312 142.265625 134.066406 142.632812 133.757812 142.78125 C 128.242188 145.40625 123.199219 146.285156 118.921875 146.285156 " fill-opacity="1" fill-rule="nonzero"/><path fill="#000000" d="M 304.988281 316.417969 C 304.804688 316.417969 304.625 316.339844 304.503906 316.1875 C 304.292969 315.921875 304.339844 315.53125 304.605469 315.320312 C 322.714844 300.898438 337.191406 282.472656 346.472656 262.035156 C 346.613281 261.722656 346.976562 261.585938 347.289062 261.726562 C 347.601562 261.867188 347.738281 262.234375 347.59375 262.542969 C 338.234375 283.160156 323.632812 301.742188 305.371094 316.285156 C 305.257812 316.375 305.121094 316.417969 304.988281 316.417969 " fill-opacity="1" fill-rule="nonzero"/><path fill="#000000" d="M 300.351562 330.921875 C 300.160156 330.921875 299.96875 330.832031 299.851562 330.664062 C 299.652344 330.390625 299.714844 330.003906 299.992188 329.804688 C 319.679688 315.578125 335.757812 296.972656 346.488281 276.003906 C 346.640625 275.699219 347.015625 275.582031 347.316406 275.734375 C 347.617188 275.890625 347.742188 276.261719 347.582031 276.566406 C 336.769531 297.707031 320.558594 316.464844 300.714844 330.804688 C 300.605469 330.882812 300.476562 330.921875 300.351562 330.921875 " fill-opacity="1" fill-rule="nonzero"/><path fill="#000000" d="M 350.65625 281.6875 C 349.445312 281.6875 348.453125 282.675781 348.453125 283.890625 C 348.453125 285.105469 349.445312 286.09375 350.65625 286.09375 C 351.875 286.09375 352.863281 285.105469 352.863281 283.890625 C 352.863281 282.675781 351.875 281.6875 350.65625 281.6875 Z M 350.65625 287.328125 C 348.761719 287.328125 347.222656 285.785156 347.222656 283.890625 C 347.222656 281.996094 348.761719 280.453125 350.65625 280.453125 C 352.554688 280.453125 354.097656 281.996094 354.097656 283.890625 C 354.097656 285.785156 352.554688 287.328125 350.65625 287.328125 " fill-opacity="1" fill-rule="nonzero"/><path fill="#000000" d="M 340.308594 296.472656 L 347.136719 297.125 L 343.875 291.164062 C 343.15625 292.414062 341.808594 294.628906 340.308594 296.472656 Z M 348.238281 298.464844 C 348.222656 298.464844 348.199219 298.464844 348.179688 298.464844 L 339.003906 297.585938 C 338.769531 297.566406 338.570312 297.414062 338.488281 297.195312 C 338.402344 296.976562 338.449219 296.730469 338.609375 296.558594 C 341.007812 293.945312 343.3125 289.640625 343.335938 289.597656 C 343.441406 289.398438 343.652344 289.273438 343.875 289.273438 C 344.113281 289.277344 344.3125 289.394531 344.421875 289.59375 L 348.78125 297.554688 C 348.890625 297.753906 348.878906 298 348.753906 298.1875 C 348.636719 298.363281 348.445312 298.464844 348.238281 298.464844 " fill-opacity="1" fill-rule="nonzero"/><path fill="#000000" d="M 336.71875 101.355469 C 336.378906 101.355469 336.101562 101.082031 336.101562 100.742188 L 336.101562 97.550781 C 336.101562 97.210938 336.378906 96.933594 336.71875 96.933594 C 337.058594 96.933594 337.335938 97.210938 337.335938 97.550781 L 337.335938 100.742188 C 337.335938 101.082031 337.058594 101.355469 336.71875 101.355469 " fill-opacity="1" fill-rule="nonzero"/><path fill="#000000" d="M 336.71875 108.789062 C 336.378906 108.789062 336.101562 108.511719 336.101562 108.171875 L 336.101562 104.980469 C 336.101562 104.640625 336.378906 104.363281 336.71875 104.363281 C 337.058594 104.363281 337.335938 104.640625 337.335938 104.980469 L 337.335938 108.171875 C 337.335938 108.511719 337.058594 108.789062 336.71875 108.789062 " fill-opacity="1" fill-rule="nonzero"/><path fill="#000000" d="M 334.597656 103.476562 L 331.410156 103.476562 C 331.070312 103.476562 330.792969 103.203125 330.792969 102.863281 C 330.792969 102.519531 331.070312 102.242188 331.410156 102.242188 L 334.597656 102.242188 C 334.9375 102.242188 335.214844 102.519531 335.214844 102.863281 C 335.214844 103.203125 334.9375 103.476562 334.597656 103.476562 " fill-opacity="1" fill-rule="nonzero"/><path fill="#000000" d="M 342.027344 103.480469 L 338.839844 103.480469 C 338.5 103.480469 338.222656 103.203125 338.222656 102.863281 C 338.222656 102.523438 338.5 102.246094 338.839844 102.246094 L 342.027344 102.246094 C 342.367188 102.246094 342.644531 102.523438 342.644531 102.863281 C 342.644531 103.203125 342.367188 103.480469 342.027344 103.480469 " fill-opacity="1" fill-rule="nonzero"/><path fill="#000000" d="M 87.167969 271.410156 L 87.171875 271.410156 Z M 88.886719 271.652344 C 88.386719 271.652344 87.890625 271.757812 87.417969 271.972656 C 85.570312 272.804688 84.726562 275.019531 85.542969 276.910156 C 85.941406 277.832031 86.667969 278.539062 87.589844 278.898438 C 88.492188 279.25 89.472656 279.222656 90.355469 278.828125 C 92.207031 277.996094 93.050781 275.777344 92.234375 273.886719 C 91.835938 272.964844 91.105469 272.257812 90.183594 271.898438 C 89.765625 271.734375 89.324219 271.652344 88.886719 271.652344 Z M 88.890625 280.378906 C 88.300781 280.378906 87.710938 280.269531 87.144531 280.046875 C 85.910156 279.570312 84.941406 278.628906 84.410156 277.398438 C 83.328125 274.890625 84.453125 271.949219 86.914062 270.847656 C 88.101562 270.3125 89.421875 270.28125 90.632812 270.75 C 91.863281 271.230469 92.835938 272.167969 93.363281 273.398438 C 94.445312 275.90625 93.324219 278.84375 90.863281 279.953125 C 90.230469 280.234375 89.5625 280.378906 88.890625 280.378906 " fill-opacity="1" fill-rule="nonzero"/><g clip-path="url(#46aeae6169)"><path fill="#3a435e" d="M 411.199219 305.367188 C 410.875 305.097656 410.449219 304.988281 410.039062 305.066406 L 370.613281 312.585938 C 369.949219 312.710938 369.46875 313.292969 369.46875 313.972656 L 369.46875 366.605469 C 369.46875 367.28125 369.949219 367.863281 370.613281 367.988281 L 410.039062 375.507812 C 410.125 375.523438 410.214844 375.53125 410.300781 375.53125 C 410.625 375.53125 410.945312 375.417969 411.199219 375.210938 C 411.523438 374.941406 411.710938 374.542969 411.710938 374.121094 L 411.710938 306.453125 C 411.710938 306.03125 411.523438 305.632812 411.199219 305.367188 Z M 395.542969 353.507812 L 391.007812 344.925781 C 390.835938 344.605469 390.65625 344.015625 390.472656 343.160156 L 390.402344 343.160156 C 390.316406 343.5625 390.113281 344.175781 389.792969 344.996094 L 385.242188 353.507812 L 378.175781 353.507812 L 386.5625 340.328125 L 378.890625 327.148438 L 386.105469 327.148438 L 389.871094 335.050781 C 390.164062 335.675781 390.429688 336.417969 390.660156 337.277344 L 390.730469 337.277344 C 390.878906 336.761719 391.152344 335.996094 391.558594 334.976562 L 395.742188 327.148438 L 402.351562 327.148438 L 394.457031 340.21875 L 402.574219 353.507812 Z M 395.542969 353.507812 " fill-opacity="1" fill-rule="nonzero"/></g><g clip-path="url(#1ea74acaf3)"><path fill="#3a435e" d="M 435.648438 313.5 L 414.527344 313.5 L 414.527344 323.371094 L 417.34375 323.371094 L 417.34375 326.191406 L 414.527344 326.191406 L 414.527344 333.238281 L 417.34375 333.238281 L 417.34375 336.058594 L 414.527344 336.058594 L 414.527344 343.105469 L 417.34375 343.105469 L 417.34375 345.925781 L 414.527344 345.925781 L 414.527344 354.386719 L 417.34375 354.386719 L 417.34375 357.203125 L 414.527344 357.203125 L 414.527344 367.074219 L 435.648438 367.074219 C 437.199219 367.074219 438.460938 365.808594 438.460938 364.253906 L 438.460938 316.320312 C 438.460938 314.765625 437.199219 313.5 435.648438 313.5 Z M 431.421875 357.203125 L 420.160156 357.203125 L 420.160156 354.386719 L 431.421875 354.386719 Z M 431.421875 345.925781 L 420.160156 345.925781 L 420.160156 343.105469 L 431.421875 343.105469 Z M 431.421875 336.058594 L 420.160156 336.058594 L 420.160156 333.238281 L 431.421875 333.238281 Z M 431.421875 326.191406 L 420.160156 326.191406 L 420.160156 323.371094 L 431.421875 323.371094 Z M 431.421875 326.191406 " fill-opacity="1" fill-rule="nonzero"/></g></svg>