<svg xmlns="http://www.w3.org/2000/svg" xmlns:xlink="http://www.w3.org/1999/xlink" width="585" zoomAndPan="magnify" viewBox="0 0 438.75 375.749991" height="501" preserveAspectRatio="xMidYMid meet" version="1.0"><defs><clipPath id="13d01926c9"><path d="M 369.46875 305.039062 L 412 305.039062 L 412 375.5 L 369.46875 375.5 Z M 369.46875 305.039062 " clip-rule="nonzero"/></clipPath><clipPath id="9da26cdcc5"><path d="M 414 313 L 438.460938 313 L 438.460938 368 L 414 368 Z M 414 313 " clip-rule="nonzero"/></clipPath></defs><path fill="#caddff" d="M 383.121094 258.21875 C 395.601562 220.359375 362.597656 196.53125 373.972656 126.894531 C 381.4375 81.21875 390.71875 62.394531 381.242188 40.324219 C 365.078125 2.667969 278.167969 0.0273438 214.097656 7.207031 C 178.585938 11.1875 106.964844 34.6875 71.773438 107.082031 C 43.140625 165.972656 54.925781 240.304688 96.65625 285.1875 C 180.808594 375.695312 362.433594 320.953125 383.121094 258.21875 " fill-opacity="1" fill-rule="nonzero"/><path fill="#ffffff" d="M 381.632812 212.691406 C 381.632812 182.847656 370.339844 138.40625 315.945312 141.109375 C 319.011719 103.3125 295.925781 46.0625 231.074219 50.808594 C 199.777344 53.101562 186.675781 84.984375 183.28125 83.65625 C 139.625 66.566406 88.832031 109.210938 100.699219 169.980469 C 76.441406 172.878906 53.867188 192.230469 54.429688 221.664062 C 54.796875 240.789062 64.839844 255.5 81.125 255.5 L 345.023438 255.5 C 364.703125 255.5 381.113281 237.234375 381.613281 214.128906 C 381.625 213.652344 381.632812 213.171875 381.632812 212.691406 " fill-opacity="1" fill-rule="nonzero"/><path fill="#a6a6a6" d="M 385 217.886719 C 385 188.808594 384.945312 131.898438 316.761719 134.386719 C 305.355469 77.054688 277.347656 57.253906 239.496094 57.121094 C 203.175781 56.992188 188.722656 93.121094 185.496094 91.667969 C 140.414062 71.3125 98.605469 117.367188 107.761719 170.808594 C 84.335938 173.632812 66.054688 197.078125 66.054688 225.585938 C 66.054688 225.714844 66.054688 225.84375 66.058594 225.972656 C 66.164062 244.609375 79.054688 259.59375 94.78125 259.59375 L 349.644531 259.59375 C 368.652344 259.59375 384.5 241.804688 384.980469 219.289062 C 384.992188 218.820312 385 218.355469 385 217.886719 " fill-opacity="1" fill-rule="nonzero"/><path fill="#3a435e" d="M 188.992188 114.679688 C 193.730469 108.339844 202.707031 107.042969 209.042969 111.785156 C 215.382812 116.523438 216.679688 125.5 211.9375 131.839844 C 207.203125 138.175781 198.222656 139.472656 191.886719 134.734375 C 185.546875 129.996094 184.253906 121.015625 188.992188 114.679688 Z M 179.6875 112.867188 C 179.101562 114.039062 178.617188 115.242188 178.242188 116.464844 L 172.203125 117.089844 L 171.546875 122.617188 L 177.277344 124.648438 C 177.355469 125.9375 177.539062 127.222656 177.832031 128.480469 L 172.90625 132.050781 L 175.101562 137.164062 L 181.070312 136.058594 C 181.777344 137.125 182.582031 138.144531 183.476562 139.101562 L 180.996094 144.652344 L 185.453125 147.984375 L 190.074219 144.035156 C 191.246094 144.621094 192.449219 145.105469 193.671875 145.480469 L 194.300781 151.519531 L 199.828125 152.179688 L 201.855469 146.449219 C 203.148438 146.367188 204.429688 146.183594 205.6875 145.890625 L 209.257812 150.816406 L 214.371094 148.621094 L 213.265625 142.652344 C 214.335938 141.949219 215.351562 141.144531 216.308594 140.25 L 221.859375 142.730469 L 225.191406 138.273438 L 221.242188 133.648438 C 221.832031 132.476562 222.316406 131.273438 222.6875 130.050781 L 228.726562 129.425781 L 229.382812 123.894531 L 223.652344 121.867188 C 223.578125 120.578125 223.390625 119.292969 223.097656 118.035156 L 228.023438 114.46875 L 225.832031 109.351562 L 219.859375 110.457031 C 219.15625 109.386719 218.351562 108.371094 217.457031 107.414062 L 219.9375 101.863281 L 215.476562 98.53125 L 210.855469 102.480469 C 209.6875 101.894531 208.484375 101.40625 207.257812 101.035156 L 206.628906 94.996094 L 201.105469 94.335938 L 199.074219 100.070312 C 197.785156 100.148438 196.5 100.332031 195.242188 100.621094 L 191.675781 95.699219 L 186.558594 97.894531 L 187.664062 103.863281 C 186.597656 104.566406 185.578125 105.375 184.625 106.265625 L 179.070312 103.785156 L 175.738281 108.242188 L 179.6875 112.867188 " fill-opacity="1" fill-rule="nonzero"/><path fill="#caddff" d="M 191.703125 114.285156 C 196.441406 107.945312 205.417969 106.652344 211.757812 111.390625 C 218.09375 116.128906 219.390625 125.109375 214.652344 131.445312 C 209.914062 137.78125 200.933594 139.078125 194.597656 134.339844 C 188.257812 129.601562 186.960938 120.621094 191.703125 114.285156 Z M 182.398438 112.476562 C 181.8125 113.644531 181.328125 114.847656 180.953125 116.074219 L 174.914062 116.699219 L 174.257812 122.226562 L 179.988281 124.257812 C 180.066406 125.546875 180.25 126.828125 180.542969 128.089844 L 175.617188 131.65625 L 177.8125 136.773438 L 183.78125 135.664062 C 184.488281 136.734375 185.292969 137.753906 186.1875 138.707031 L 183.707031 144.257812 L 188.164062 147.589844 L 192.785156 143.644531 C 193.957031 144.230469 195.160156 144.714844 196.382812 145.089844 L 197.011719 151.125 L 202.539062 151.785156 L 204.566406 146.054688 C 205.859375 145.976562 207.140625 145.789062 208.398438 145.5 L 211.96875 150.425781 L 217.082031 148.230469 L 215.976562 142.261719 C 217.046875 141.554688 218.0625 140.75 219.019531 139.855469 L 224.570312 142.335938 L 227.902344 137.878906 L 223.953125 133.257812 C 224.539062 132.085938 225.023438 130.882812 225.402344 129.660156 L 231.4375 129.03125 L 232.097656 123.503906 L 226.367188 121.476562 C 226.289062 120.183594 226.101562 118.902344 225.808594 117.640625 L 230.734375 114.074219 L 228.542969 108.960938 L 222.570312 110.066406 C 221.867188 108.996094 221.0625 107.976562 220.167969 107.023438 L 222.648438 101.472656 L 218.191406 98.140625 L 213.570312 102.085938 C 212.398438 101.5 211.195312 101.015625 209.96875 100.640625 L 209.34375 94.601562 L 203.816406 93.945312 L 201.785156 99.675781 C 200.496094 99.753906 199.214844 99.941406 197.953125 100.230469 L 194.386719 95.308594 L 189.269531 97.5 L 190.375 103.46875 C 189.304688 104.175781 188.289062 104.980469 187.335938 105.875 L 181.785156 103.394531 L 178.449219 107.851562 L 182.398438 112.476562 " fill-opacity="1" fill-rule="nonzero"/><path fill="#000000" d="M 191.703125 114.285156 Z M 203.195312 109.144531 C 199.007812 109.144531 194.875 111.042969 192.183594 114.644531 C 189.988281 117.582031 189.066406 121.199219 189.589844 124.824219 C 190.113281 128.453125 192.019531 131.664062 194.957031 133.863281 C 197.894531 136.058594 201.507812 136.980469 205.136719 136.453125 C 208.765625 135.929688 211.976562 134.023438 214.171875 131.085938 C 218.703125 125.023438 217.460938 116.40625 211.398438 111.871094 C 208.9375 110.03125 206.050781 109.144531 203.195312 109.144531 Z M 203.144531 137.796875 C 199.945312 137.796875 196.84375 136.773438 194.234375 134.820312 C 191.042969 132.433594 188.972656 128.945312 188.402344 125 C 187.832031 121.050781 188.832031 117.121094 191.21875 113.925781 C 193.609375 110.734375 197.097656 108.660156 201.042969 108.089844 C 204.988281 107.523438 208.921875 108.519531 212.117188 110.910156 C 215.308594 113.296875 217.382812 116.785156 217.953125 120.730469 C 218.523438 124.679688 217.519531 128.609375 215.132812 131.804688 C 212.742188 135 209.253906 137.070312 205.308594 137.640625 C 204.585938 137.746094 203.863281 137.796875 203.144531 137.796875 Z M 197.558594 150.589844 L 202.132812 151.132812 L 204 145.855469 C 204.082031 145.628906 204.292969 145.46875 204.53125 145.453125 C 205.785156 145.378906 207.039062 145.199219 208.265625 144.917969 C 208.5 144.859375 208.746094 144.953125 208.886719 145.148438 L 212.171875 149.683594 L 216.40625 147.867188 L 215.386719 142.371094 C 215.34375 142.132812 215.445312 141.890625 215.648438 141.757812 C 216.679688 141.078125 217.675781 140.292969 218.609375 139.417969 C 218.785156 139.253906 219.042969 139.207031 219.265625 139.308594 L 224.375 141.589844 L 227.132812 137.90625 L 223.496094 133.648438 C 223.339844 133.460938 223.308594 133.203125 223.417969 132.988281 C 223.988281 131.847656 224.464844 130.667969 224.824219 129.484375 C 224.894531 129.25 225.097656 129.085938 225.339844 129.0625 L 230.902344 128.484375 L 231.445312 123.910156 L 226.164062 122.039062 C 225.9375 121.960938 225.78125 121.753906 225.765625 121.511719 C 225.6875 120.257812 225.507812 119 225.226562 117.777344 C 225.171875 117.542969 225.265625 117.296875 225.457031 117.15625 L 229.992188 113.871094 L 228.179688 109.636719 L 222.683594 110.65625 C 222.445312 110.703125 222.203125 110.597656 222.070312 110.398438 C 221.386719 109.359375 220.601562 108.363281 219.730469 107.433594 C 219.5625 107.257812 219.523438 107 219.621094 106.777344 L 221.902344 101.664062 L 218.214844 98.90625 L 213.957031 102.542969 C 213.773438 102.703125 213.511719 102.730469 213.296875 102.625 C 212.160156 102.050781 210.980469 101.578125 209.792969 101.214844 C 209.5625 101.144531 209.398438 100.941406 209.371094 100.703125 L 208.792969 95.144531 L 204.222656 94.597656 L 202.351562 99.878906 C 202.269531 100.105469 202.0625 100.261719 201.820312 100.277344 C 200.570312 100.351562 199.3125 100.53125 198.085938 100.816406 C 197.851562 100.867188 197.605469 100.777344 197.464844 100.582031 L 194.179688 96.046875 L 189.945312 97.863281 L 190.964844 103.363281 C 191.011719 103.597656 190.90625 103.839844 190.707031 103.972656 C 189.671875 104.652344 188.671875 105.441406 187.742188 106.3125 C 187.566406 106.476562 187.308594 106.519531 187.089844 106.421875 L 181.976562 104.136719 L 179.21875 107.828125 L 182.855469 112.085938 C 183.011719 112.269531 183.042969 112.527344 182.933594 112.746094 C 182.363281 113.882812 181.890625 115.0625 181.527344 116.25 C 181.457031 116.480469 181.253906 116.644531 181.015625 116.671875 L 175.453125 117.246094 L 174.910156 121.820312 L 180.1875 123.691406 C 180.417969 123.769531 180.574219 123.980469 180.585938 124.21875 C 180.660156 125.472656 180.84375 126.730469 181.125 127.957031 C 181.179688 128.1875 181.089844 128.433594 180.894531 128.574219 L 176.359375 131.863281 L 178.175781 136.09375 L 183.671875 135.074219 C 183.910156 135.03125 184.148438 135.132812 184.285156 135.335938 C 184.960938 136.367188 185.75 137.363281 186.625 138.296875 C 186.789062 138.476562 186.832031 138.734375 186.734375 138.953125 L 184.449219 144.066406 L 188.136719 146.824219 L 192.394531 143.1875 C 192.578125 143.03125 192.839844 143 193.054688 143.105469 C 194.195312 143.679688 195.375 144.152344 196.558594 144.515625 C 196.789062 144.585938 196.957031 144.785156 196.980469 145.027344 Z M 202.535156 152.386719 C 202.515625 152.386719 202.488281 152.386719 202.464844 152.382812 L 196.941406 151.726562 C 196.660156 151.691406 196.441406 151.46875 196.414062 151.191406 L 195.828125 145.542969 C 194.832031 145.21875 193.84375 144.820312 192.875 144.355469 L 188.554688 148.046875 C 188.339844 148.230469 188.03125 148.242188 187.800781 148.074219 L 183.34375 144.738281 C 183.121094 144.570312 183.042969 144.269531 183.15625 144.015625 L 185.476562 138.824219 C 184.757812 138.027344 184.097656 137.195312 183.503906 136.328125 L 177.921875 137.363281 C 177.644531 137.414062 177.371094 137.269531 177.257812 137.007812 L 175.066406 131.894531 C 174.953125 131.636719 175.039062 131.335938 175.265625 131.171875 L 179.871094 127.835938 C 179.648438 126.800781 179.496094 125.746094 179.414062 124.691406 L 174.054688 122.792969 C 173.789062 122.699219 173.628906 122.433594 173.660156 122.15625 L 174.316406 116.628906 C 174.351562 116.351562 174.574219 116.132812 174.851562 116.101562 L 180.5 115.515625 C 180.824219 114.519531 181.222656 113.53125 181.6875 112.5625 L 177.992188 108.242188 C 177.8125 108.027344 177.800781 107.714844 177.96875 107.492188 L 181.300781 103.035156 C 181.46875 102.808594 181.769531 102.730469 182.027344 102.847656 L 187.21875 105.164062 C 188.011719 104.449219 188.847656 103.785156 189.714844 103.191406 L 188.679688 97.609375 C 188.628906 97.335938 188.777344 97.058594 189.035156 96.949219 L 194.148438 94.753906 C 194.40625 94.644531 194.707031 94.726562 194.871094 94.953125 L 198.207031 99.558594 C 199.242188 99.339844 200.296875 99.1875 201.351562 99.105469 L 203.25 93.746094 C 203.34375 93.480469 203.601562 93.308594 203.886719 93.347656 L 209.414062 94.007812 C 209.691406 94.039062 209.910156 94.261719 209.9375 94.542969 L 210.527344 100.1875 C 211.523438 100.511719 212.511719 100.910156 213.476562 101.375 L 217.800781 97.683594 C 218.011719 97.5 218.324219 97.492188 218.550781 97.65625 L 223.007812 100.992188 C 223.230469 101.160156 223.308594 101.460938 223.195312 101.71875 L 220.875 106.90625 C 221.59375 107.703125 222.257812 108.539062 222.851562 109.402344 L 228.433594 108.367188 C 228.707031 108.316406 228.980469 108.464844 229.09375 108.722656 L 231.285156 113.839844 C 231.394531 114.09375 231.316406 114.394531 231.089844 114.5625 L 226.484375 117.894531 C 226.703125 118.929688 226.855469 119.984375 226.9375 121.039062 L 232.296875 122.9375 C 232.5625 123.03125 232.726562 123.296875 232.691406 123.574219 L 232.035156 129.101562 C 232 129.382812 231.78125 129.597656 231.503906 129.628906 L 225.855469 130.214844 C 225.527344 131.210938 225.132812 132.199219 224.667969 133.167969 L 228.359375 137.488281 C 228.542969 137.703125 228.550781 138.015625 228.382812 138.238281 L 225.050781 142.695312 C 224.882812 142.917969 224.582031 143 224.324219 142.882812 L 219.132812 140.566406 C 218.335938 141.285156 217.5 141.949219 216.636719 142.539062 L 217.671875 148.121094 C 217.726562 148.398438 217.578125 148.671875 217.320312 148.78125 L 212.207031 150.976562 C 211.945312 151.085938 211.648438 151.003906 211.484375 150.777344 L 208.144531 146.171875 C 207.109375 146.390625 206.054688 146.542969 205 146.625 L 203.101562 151.988281 C 203.015625 152.226562 202.789062 152.386719 202.535156 152.386719 " fill-opacity="1" fill-rule="nonzero"/><path fill="#3a435e" d="M 253.636719 109.664062 C 257.792969 100.386719 268.675781 96.234375 277.953125 100.386719 C 287.230469 104.539062 291.382812 115.425781 287.230469 124.703125 C 283.078125 133.976562 272.191406 138.132812 262.914062 133.976562 C 253.636719 129.824219 249.484375 118.9375 253.636719 109.664062 Z M 241.472656 110.015625 C 241.066406 111.644531 240.796875 113.289062 240.675781 114.929688 L 233.28125 117.414062 L 234.015625 124.523438 L 241.769531 125.457031 C 242.230469 127.050781 242.824219 128.605469 243.542969 130.101562 L 238.378906 135.960938 L 242.566406 141.75 L 249.734375 138.683594 C 250.921875 139.824219 252.214844 140.871094 253.605469 141.820312 L 252.058594 149.46875 L 258.585938 152.394531 L 263.265625 146.144531 C 264.894531 146.550781 266.539062 146.820312 268.179688 146.941406 L 270.667969 154.332031 L 277.777344 153.601562 L 278.707031 145.847656 C 280.300781 145.386719 281.859375 144.792969 283.355469 144.074219 L 289.210938 149.238281 L 295 145.050781 L 291.933594 137.878906 C 293.074219 136.695312 294.125 135.398438 295.070312 134.011719 L 302.722656 135.554688 L 305.644531 129.03125 L 299.394531 124.351562 C 299.800781 122.71875 300.070312 121.078125 300.191406 119.4375 L 307.585938 116.949219 L 306.851562 109.839844 L 299.097656 108.910156 C 298.636719 107.316406 298.042969 105.761719 297.324219 104.261719 L 302.488281 98.40625 L 298.300781 92.613281 L 291.132812 95.679688 C 289.945312 94.542969 288.652344 93.492188 287.261719 92.546875 L 288.808594 84.890625 L 282.28125 81.972656 L 277.601562 88.222656 C 275.972656 87.8125 274.328125 87.546875 272.6875 87.421875 L 270.199219 80.03125 L 263.089844 80.765625 L 262.160156 88.515625 C 260.566406 88.980469 259.007812 89.570312 257.515625 90.292969 L 251.65625 85.125 L 245.863281 89.316406 L 248.933594 96.484375 C 247.792969 97.671875 246.742188 98.964844 245.796875 100.355469 L 238.144531 98.808594 L 235.222656 105.335938 L 241.472656 110.015625 " fill-opacity="1" fill-rule="nonzero"/><path fill="#ffffff" d="M 256.925781 108.40625 C 261.078125 99.132812 271.964844 94.980469 281.242188 99.132812 C 290.515625 103.285156 294.667969 114.171875 290.515625 123.445312 C 286.363281 132.722656 275.476562 136.875 266.203125 132.722656 C 256.925781 128.570312 252.773438 117.683594 256.925781 108.40625 Z M 244.757812 108.757812 C 244.351562 110.390625 244.085938 112.03125 243.960938 113.671875 L 236.570312 116.160156 L 237.300781 123.273438 L 245.054688 124.199219 C 245.515625 125.796875 246.109375 127.347656 246.828125 128.847656 L 241.664062 134.707031 L 245.851562 140.496094 L 253.023438 137.429688 C 254.207031 138.570312 255.503906 139.617188 256.890625 140.5625 L 255.347656 148.21875 L 261.871094 151.140625 L 266.550781 144.886719 C 268.183594 145.296875 269.828125 145.5625 271.46875 145.6875 L 273.953125 153.078125 L 281.066406 152.34375 L 281.992188 144.59375 C 283.589844 144.128906 285.140625 143.539062 286.640625 142.816406 L 292.5 147.984375 L 298.289062 143.796875 L 295.222656 136.625 C 296.363281 135.441406 297.410156 134.144531 298.355469 132.757812 L 306.011719 134.300781 L 308.933594 127.773438 L 302.679688 123.097656 C 303.089844 121.464844 303.355469 119.820312 303.480469 118.179688 L 310.871094 115.695312 L 310.140625 108.585938 L 302.386719 107.65625 C 301.925781 106.058594 301.332031 104.503906 300.613281 103.007812 L 305.777344 97.152344 L 301.589844 91.359375 L 294.417969 94.425781 C 293.234375 93.285156 291.941406 92.238281 290.550781 91.289062 L 292.09375 83.636719 L 285.570312 80.71875 L 280.890625 86.964844 C 279.257812 86.5625 277.613281 86.292969 275.976562 86.167969 L 273.488281 78.777344 L 266.378906 79.507812 L 265.449219 87.261719 C 263.851562 87.722656 262.300781 88.316406 260.800781 89.035156 L 254.945312 83.871094 L 249.152344 88.058594 L 252.21875 95.230469 C 251.078125 96.414062 250.03125 97.710938 249.085938 99.097656 L 241.433594 97.554688 L 238.507812 104.078125 L 244.757812 108.757812 " fill-opacity="1" fill-rule="nonzero"/><path fill="#000000" d="M 256.925781 108.410156 L 256.929688 108.410156 Z M 273.746094 98.128906 C 266.941406 98.128906 260.429688 102.050781 257.472656 108.652344 C 253.460938 117.613281 257.488281 128.164062 266.445312 132.175781 C 275.402344 136.1875 285.953125 132.160156 289.964844 123.203125 C 291.910156 118.863281 292.046875 114.027344 290.351562 109.582031 C 288.65625 105.140625 285.335938 101.625 280.996094 99.683594 C 278.640625 98.628906 276.171875 98.128906 273.746094 98.128906 Z M 273.691406 134.929688 C 271.101562 134.929688 268.46875 134.398438 265.957031 133.269531 C 256.390625 128.992188 252.09375 117.726562 256.378906 108.164062 C 260.660156 98.601562 271.921875 94.304688 281.484375 98.585938 C 291.046875 102.867188 295.34375 114.128906 291.0625 123.695312 C 287.90625 130.742188 280.957031 134.929688 273.691406 134.929688 Z M 266.550781 144.289062 C 266.597656 144.289062 266.644531 144.296875 266.695312 144.308594 C 268.296875 144.707031 269.917969 144.96875 271.511719 145.089844 C 271.75 145.105469 271.957031 145.265625 272.035156 145.496094 L 274.367188 152.433594 L 280.523438 151.796875 L 281.398438 144.519531 C 281.425781 144.28125 281.59375 144.082031 281.828125 144.015625 C 283.382812 143.566406 284.914062 142.980469 286.378906 142.277344 C 286.597656 142.175781 286.855469 142.210938 287.039062 142.371094 L 292.535156 147.21875 L 297.546875 143.59375 L 294.667969 136.863281 C 294.574219 136.640625 294.621094 136.382812 294.789062 136.210938 C 295.898438 135.058594 296.933594 133.785156 297.859375 132.417969 C 297.996094 132.21875 298.234375 132.121094 298.476562 132.167969 L 305.660156 133.617188 L 308.1875 127.96875 L 302.324219 123.578125 C 302.128906 123.433594 302.042969 123.1875 302.097656 122.953125 C 302.5 121.351562 302.761719 119.730469 302.882812 118.136719 C 302.898438 117.894531 303.058594 117.691406 303.289062 117.613281 L 310.222656 115.28125 L 309.589844 109.125 L 302.3125 108.25 C 302.074219 108.222656 301.875 108.054688 301.808594 107.824219 C 301.355469 106.265625 300.773438 104.734375 300.070312 103.269531 C 299.96875 103.050781 300 102.792969 300.160156 102.613281 L 305.007812 97.113281 L 301.382812 92.097656 L 294.65625 94.980469 C 294.433594 95.074219 294.175781 95.027344 294 94.859375 C 292.847656 93.75 291.570312 92.714844 290.210938 91.789062 C 290.011719 91.652344 289.910156 91.410156 289.960938 91.171875 L 291.410156 83.992188 L 285.761719 81.460938 L 281.371094 87.328125 C 281.226562 87.519531 280.976562 87.605469 280.742188 87.550781 C 279.148438 87.152344 277.527344 86.886719 275.925781 86.765625 C 275.6875 86.75 275.480469 86.589844 275.402344 86.359375 L 273.070312 79.425781 L 266.914062 80.058594 L 266.042969 87.335938 C 266.011719 87.574219 265.847656 87.773438 265.613281 87.839844 C 264.054688 88.289062 262.523438 88.875 261.058594 89.578125 C 260.84375 89.679688 260.585938 89.644531 260.402344 89.488281 L 254.90625 84.636719 L 249.890625 88.265625 L 252.769531 94.992188 C 252.867188 95.214844 252.820312 95.472656 252.652344 95.644531 C 251.542969 96.796875 250.507812 98.074219 249.578125 99.4375 C 249.441406 99.636719 249.199219 99.734375 248.964844 99.6875 L 241.78125 98.238281 L 239.253906 103.886719 L 245.117188 108.277344 C 245.3125 108.421875 245.398438 108.667969 245.339844 108.90625 C 244.941406 110.503906 244.679688 112.125 244.558594 113.71875 C 244.539062 113.960938 244.378906 114.167969 244.152344 114.246094 L 237.214844 116.578125 L 237.851562 122.730469 L 245.125 123.605469 C 245.367188 123.632812 245.566406 123.800781 245.632812 124.035156 C 246.085938 125.59375 246.667969 127.125 247.371094 128.589844 C 247.472656 128.808594 247.441406 129.066406 247.28125 129.242188 L 242.429688 134.742188 L 246.058594 139.757812 L 252.785156 136.878906 C 253.003906 136.785156 253.261719 136.832031 253.4375 137 C 254.589844 138.109375 255.867188 139.140625 257.226562 140.070312 C 257.425781 140.203125 257.527344 140.449219 257.476562 140.683594 L 256.027344 147.863281 L 261.679688 150.394531 L 266.070312 144.53125 C 266.1875 144.378906 266.363281 144.289062 266.550781 144.289062 Z M 273.953125 153.679688 C 273.695312 153.679688 273.464844 153.515625 273.382812 153.269531 L 271.023438 146.253906 C 269.621094 146.128906 268.203125 145.898438 266.796875 145.566406 L 262.351562 151.5 C 262.183594 151.722656 261.882812 151.800781 261.625 151.6875 L 255.101562 148.765625 C 254.84375 148.652344 254.703125 148.375 254.757812 148.097656 L 256.222656 140.835938 C 255.039062 140.003906 253.925781 139.101562 252.894531 138.136719 L 246.085938 141.046875 C 245.832031 141.160156 245.53125 141.074219 245.367188 140.847656 L 241.175781 135.058594 C 241.011719 134.828125 241.027344 134.519531 241.210938 134.308594 L 246.117188 128.75 C 245.519531 127.457031 245.003906 126.113281 244.59375 124.75 L 237.230469 123.867188 C 236.953125 123.832031 236.734375 123.613281 236.707031 123.332031 L 235.972656 116.222656 C 235.945312 115.941406 236.113281 115.683594 236.378906 115.59375 L 243.394531 113.230469 C 243.519531 111.828125 243.75 110.410156 244.082031 109.003906 L 238.148438 104.558594 C 237.925781 104.390625 237.847656 104.089844 237.960938 103.835938 L 240.878906 97.308594 C 241 97.054688 241.273438 96.914062 241.546875 96.964844 L 248.816406 98.433594 C 249.644531 97.246094 250.546875 96.132812 251.511719 95.101562 L 248.601562 88.296875 C 248.488281 88.039062 248.570312 87.738281 248.800781 87.574219 L 254.589844 83.382812 C 254.816406 83.21875 255.128906 83.234375 255.339844 83.421875 L 260.898438 88.324219 C 262.191406 87.726562 263.53125 87.214844 264.898438 86.800781 L 265.78125 79.4375 C 265.8125 79.160156 266.035156 78.941406 266.3125 78.914062 L 273.425781 78.179688 C 273.703125 78.152344 273.964844 78.320312 274.054688 78.585938 L 276.417969 85.601562 C 277.824219 85.730469 279.242188 85.960938 280.644531 86.289062 L 285.089844 80.355469 C 285.257812 80.132812 285.558594 80.050781 285.816406 80.171875 L 292.339844 83.089844 C 292.59375 83.203125 292.738281 83.480469 292.679688 83.757812 L 291.214844 91.023438 C 292.398438 91.851562 293.515625 92.757812 294.546875 93.71875 L 301.351562 90.808594 C 301.609375 90.699219 301.910156 90.777344 302.074219 91.007812 L 306.261719 96.800781 C 306.429688 97.027344 306.414062 97.335938 306.226562 97.546875 L 301.324219 103.109375 C 301.921875 104.402344 302.433594 105.746094 302.847656 107.105469 L 310.210938 107.988281 C 310.488281 108.023438 310.707031 108.242188 310.734375 108.523438 L 311.464844 115.636719 C 311.496094 115.914062 311.328125 116.175781 311.0625 116.265625 L 304.046875 118.625 C 303.917969 120.027344 303.6875 121.449219 303.359375 122.855469 L 309.292969 127.296875 C 309.515625 127.464844 309.59375 127.765625 309.480469 128.023438 L 306.558594 134.546875 C 306.441406 134.804688 306.167969 134.945312 305.890625 134.890625 L 298.625 133.425781 C 297.796875 134.605469 296.890625 135.726562 295.929688 136.753906 L 298.839844 143.5625 C 298.953125 143.816406 298.871094 144.117188 298.640625 144.28125 L 292.847656 148.472656 C 292.621094 148.636719 292.3125 148.621094 292.101562 148.4375 L 286.539062 143.53125 C 285.246094 144.132812 283.90625 144.644531 282.542969 145.054688 L 281.660156 152.417969 C 281.625 152.699219 281.40625 152.914062 281.125 152.945312 L 274.011719 153.675781 C 273.996094 153.679688 273.972656 153.679688 273.953125 153.679688 " fill-opacity="1" fill-rule="nonzero"/><path fill="#3a435e" d="M 265.835938 187.71875 C 272.65625 177.1875 286.722656 174.171875 297.257812 180.992188 C 307.789062 187.808594 310.800781 201.878906 303.984375 212.410156 C 297.167969 222.945312 283.097656 225.957031 272.5625 219.140625 C 262.03125 212.320312 259.019531 198.253906 265.835938 187.71875 Z M 250.925781 185.851562 C 250.121094 187.765625 249.484375 189.722656 249.023438 191.699219 L 239.535156 193.339844 L 239.089844 202.152344 L 248.375 204.75 C 248.636719 206.785156 249.066406 208.792969 249.660156 210.757812 L 242.25 216.925781 L 246.269531 224.785156 L 255.597656 222.394531 C 256.828125 224.011719 258.210938 225.53125 259.722656 226.949219 L 256.394531 235.996094 L 263.804688 240.792969 L 270.695312 234.050781 C 272.613281 234.855469 274.566406 235.492188 276.546875 235.953125 L 278.183594 245.4375 L 286.996094 245.886719 L 289.59375 236.601562 C 291.625 236.339844 293.636719 235.910156 295.601562 235.316406 L 301.773438 242.726562 L 309.628906 238.707031 L 307.238281 229.378906 C 308.855469 228.148438 310.378906 226.765625 311.792969 225.25 L 320.839844 228.578125 L 325.636719 221.167969 L 318.894531 214.28125 C 319.699219 212.363281 320.335938 210.410156 320.796875 208.429688 L 330.285156 206.792969 L 330.734375 197.976562 L 321.445312 195.382812 C 321.1875 193.347656 320.753906 191.339844 320.160156 189.375 L 327.570312 183.203125 L 323.550781 175.347656 L 314.222656 177.738281 C 312.992188 176.121094 311.609375 174.597656 310.09375 173.179688 L 313.421875 164.132812 L 306.011719 159.339844 L 299.125 166.078125 C 297.210938 165.277344 295.253906 164.640625 293.277344 164.179688 L 291.640625 154.691406 L 282.824219 154.242188 L 280.226562 163.527344 C 278.191406 163.789062 276.183594 164.222656 274.21875 164.816406 L 268.050781 157.40625 L 260.191406 161.425781 L 262.582031 170.75 C 260.964844 171.984375 259.441406 173.363281 258.023438 174.878906 L 248.976562 171.550781 L 244.183594 178.960938 L 250.925781 185.851562 " fill-opacity="1" fill-rule="nonzero"/><path fill="#000000" d="M 270.082031 186.8125 L 270.085938 186.8125 Z M 289.199219 177.03125 C 287.644531 177.03125 286.078125 177.195312 284.523438 177.527344 C 278.746094 178.765625 273.792969 182.179688 270.585938 187.140625 C 263.960938 197.378906 266.894531 211.097656 277.136719 217.726562 C 282.09375 220.9375 288.007812 222.023438 293.789062 220.785156 C 299.5625 219.550781 304.515625 216.136719 307.726562 211.175781 C 314.351562 200.9375 311.414062 187.214844 301.175781 180.585938 C 297.546875 178.242188 293.417969 177.03125 289.199219 177.03125 Z M 289.105469 222.484375 C 284.660156 222.484375 280.304688 221.207031 276.484375 218.734375 C 271.253906 215.351562 267.65625 210.132812 266.351562 204.039062 C 265.046875 197.949219 266.191406 191.714844 269.578125 186.484375 C 272.960938 181.253906 278.179688 177.660156 284.273438 176.351562 C 290.363281 175.050781 296.597656 176.195312 301.828125 179.582031 C 307.054688 182.964844 310.65625 188.183594 311.957031 194.273438 C 313.261719 200.367188 312.117188 206.601562 308.730469 211.828125 C 305.347656 217.058594 300.128906 220.65625 294.039062 221.960938 C 292.398438 222.308594 290.746094 222.484375 289.105469 222.484375 Z M 282.9375 243.957031 L 290.792969 244.355469 L 293.261719 235.53125 C 293.324219 235.300781 293.523438 235.128906 293.761719 235.097656 C 295.757812 234.839844 297.746094 234.417969 299.671875 233.832031 C 299.902344 233.761719 300.152344 233.839844 300.304688 234.023438 L 306.167969 241.0625 L 313.171875 237.480469 L 310.898438 228.621094 C 310.839844 228.386719 310.929688 228.140625 311.121094 227.992188 C 312.695312 226.792969 314.207031 225.425781 315.601562 223.929688 C 315.765625 223.753906 316.019531 223.695312 316.246094 223.777344 L 324.84375 226.941406 L 329.117188 220.339844 L 322.710938 213.789062 C 322.539062 213.617188 322.492188 213.359375 322.585938 213.140625 C 323.378906 211.253906 324.007812 209.320312 324.457031 207.386719 C 324.511719 207.152344 324.699219 206.972656 324.941406 206.929688 L 333.953125 205.375 L 334.355469 197.519531 L 325.53125 195.050781 C 325.300781 194.984375 325.128906 194.789062 325.097656 194.550781 C 324.839844 192.554688 324.414062 190.570312 323.832031 188.640625 C 323.761719 188.410156 323.835938 188.160156 324.019531 188.007812 L 331.058594 182.140625 L 327.480469 175.136719 L 318.617188 177.410156 C 318.386719 177.46875 318.136719 177.386719 317.992188 177.195312 C 316.785156 175.613281 315.421875 174.105469 313.929688 172.710938 C 313.753906 172.542969 313.695312 172.292969 313.773438 172.066406 L 316.9375 163.46875 L 310.335938 159.195312 L 303.789062 165.601562 C 303.613281 165.769531 303.355469 165.816406 303.136719 165.726562 C 301.25 164.933594 299.316406 164.304688 297.382812 163.855469 C 297.148438 163.800781 296.96875 163.609375 296.929688 163.371094 L 295.371094 154.359375 L 287.515625 153.957031 L 285.050781 162.78125 C 284.984375 163.015625 284.785156 163.1875 284.546875 163.214844 C 282.554688 163.472656 280.566406 163.898438 278.640625 164.480469 C 278.40625 164.554688 278.160156 164.476562 278.003906 164.289062 L 272.140625 157.25 L 265.136719 160.835938 L 267.410156 169.695312 C 267.46875 169.929688 267.382812 170.175781 267.191406 170.320312 C 265.613281 171.523438 264.105469 172.890625 262.710938 174.382812 C 262.542969 174.558594 262.289062 174.617188 262.0625 174.535156 L 253.46875 171.371094 L 249.195312 177.976562 L 255.597656 184.523438 C 255.769531 184.699219 255.816406 184.953125 255.722656 185.175781 C 254.933594 187.058594 254.300781 188.992188 253.851562 190.925781 C 253.796875 191.164062 253.609375 191.34375 253.371094 191.382812 L 244.355469 192.9375 L 243.957031 200.796875 L 252.78125 203.261719 C 253.011719 203.328125 253.183594 203.523438 253.210938 203.765625 C 253.46875 205.761719 253.898438 207.75 254.476562 209.671875 C 254.550781 209.902344 254.472656 210.152344 254.289062 210.308594 L 247.25 216.171875 L 250.832031 223.175781 L 259.695312 220.902344 C 259.925781 220.84375 260.175781 220.929688 260.320312 221.121094 C 261.523438 222.699219 262.886719 224.207031 264.378906 225.601562 C 264.558594 225.769531 264.617188 226.019531 264.535156 226.246094 L 261.371094 234.847656 L 267.976562 239.121094 L 274.523438 232.710938 C 274.695312 232.542969 274.953125 232.496094 275.175781 232.589844 C 277.058594 233.378906 278.992188 234.007812 280.925781 234.460938 C 281.160156 234.515625 281.339844 234.703125 281.382812 234.941406 Z M 291.242188 245.578125 C 291.230469 245.578125 291.222656 245.578125 291.210938 245.578125 L 282.398438 245.128906 C 282.117188 245.113281 281.882812 244.910156 281.835938 244.632812 L 280.265625 235.535156 C 278.523438 235.109375 276.78125 234.542969 275.078125 233.847656 L 268.46875 240.3125 C 268.269531 240.507812 267.960938 240.539062 267.726562 240.386719 L 260.316406 235.589844 C 260.082031 235.441406 259.980469 235.144531 260.078125 234.882812 L 263.269531 226.207031 C 261.941406 224.9375 260.710938 223.578125 259.609375 222.164062 L 250.667969 224.457031 C 250.390625 224.523438 250.109375 224.398438 249.984375 224.148438 L 245.960938 216.292969 C 245.835938 216.042969 245.894531 215.738281 246.109375 215.554688 L 253.214844 209.636719 C 252.710938 207.898438 252.328125 206.109375 252.078125 204.3125 L 243.171875 201.820312 C 242.902344 201.746094 242.71875 201.496094 242.734375 201.214844 L 243.183594 192.398438 C 243.195312 192.121094 243.402344 191.886719 243.679688 191.839844 L 252.777344 190.265625 C 253.203125 188.523438 253.769531 186.78125 254.464844 185.082031 L 248 178.472656 C 247.800781 178.273438 247.773438 177.964844 247.921875 177.730469 L 252.71875 170.316406 C 252.871094 170.082031 253.167969 169.984375 253.433594 170.082031 L 262.105469 173.273438 C 263.375 171.941406 264.734375 170.710938 266.148438 169.609375 L 263.855469 160.667969 C 263.785156 160.394531 263.914062 160.109375 264.164062 159.984375 L 272.019531 155.964844 C 272.269531 155.835938 272.574219 155.898438 272.753906 156.113281 L 278.675781 163.21875 C 280.414062 162.710938 282.203125 162.328125 284 162.078125 L 286.492188 153.175781 C 286.566406 152.902344 286.824219 152.722656 287.097656 152.734375 L 295.914062 153.183594 C 296.191406 153.195312 296.425781 153.40625 296.472656 153.683594 L 298.042969 162.777344 C 299.789062 163.207031 301.53125 163.773438 303.230469 164.464844 L 309.839844 158 C 310.039062 157.804688 310.351562 157.773438 310.585938 157.925781 L 317.996094 162.722656 C 318.230469 162.871094 318.328125 163.167969 318.230469 163.433594 L 315.039062 172.105469 C 316.371094 173.378906 317.597656 174.734375 318.703125 176.148438 L 327.644531 173.855469 C 327.917969 173.789062 328.199219 173.917969 328.328125 174.164062 L 332.347656 182.023438 C 332.476562 182.269531 332.414062 182.578125 332.199219 182.757812 L 325.09375 188.675781 C 325.601562 190.417969 325.984375 192.207031 326.234375 194 L 335.136719 196.492188 C 335.410156 196.566406 335.589844 196.820312 335.578125 197.101562 L 335.128906 205.914062 C 335.113281 206.195312 334.90625 206.425781 334.632812 206.476562 L 325.535156 208.046875 C 325.105469 209.789062 324.539062 211.53125 323.847656 213.234375 L 330.3125 219.839844 C 330.507812 220.039062 330.539062 220.351562 330.386719 220.585938 L 325.589844 227.996094 C 325.4375 228.230469 325.140625 228.332031 324.878906 228.234375 L 316.203125 225.042969 C 314.933594 226.375 313.578125 227.601562 312.164062 228.707031 L 314.453125 237.648438 C 314.523438 237.917969 314.398438 238.203125 314.148438 238.332031 L 306.289062 242.351562 C 306.039062 242.476562 305.734375 242.414062 305.554688 242.199219 L 299.636719 235.09375 C 297.894531 235.601562 296.109375 235.984375 294.308594 236.238281 L 291.820312 245.140625 C 291.746094 245.402344 291.511719 245.578125 291.242188 245.578125 " fill-opacity="1" fill-rule="nonzero"/><path fill="#ffffff" d="M 270.292969 251.769531 C 270.253906 251.769531 270.210938 251.765625 270.167969 251.753906 C 260.980469 249.820312 253.015625 245.242188 246.488281 238.140625 C 246.265625 237.894531 246.28125 237.515625 246.523438 237.292969 C 246.769531 237.070312 247.148438 237.085938 247.371094 237.328125 C 253.726562 244.242188 261.480469 248.699219 270.414062 250.582031 C 270.742188 250.648438 270.949219 250.964844 270.878906 251.292969 C 270.820312 251.574219 270.570312 251.769531 270.292969 251.769531 " fill-opacity="1" fill-rule="nonzero"/><path fill="#ffffff" d="M 240.398438 229.453125 C 240.191406 229.453125 239.992188 229.347656 239.878906 229.160156 C 234.164062 219.410156 231.210938 207.703125 231.566406 196.199219 C 231.929688 184.480469 235.722656 174.292969 242.25 167.515625 C 242.476562 167.277344 242.859375 167.269531 243.097656 167.5 C 243.335938 167.730469 243.34375 168.109375 243.113281 168.347656 C 236.792969 174.910156 233.121094 184.816406 232.765625 196.234375 C 232.417969 207.519531 235.3125 218.996094 240.914062 228.550781 C 241.082031 228.835938 240.988281 229.203125 240.699219 229.371094 C 240.605469 229.429688 240.5 229.453125 240.398438 229.453125 " fill-opacity="1" fill-rule="nonzero"/><path fill="#caddff" d="M 343.542969 197.484375 C 343.480469 197.484375 343.414062 197.476562 343.347656 197.453125 C 343.035156 197.34375 342.867188 197.003906 342.976562 196.691406 C 345.113281 190.464844 344.679688 182.949219 341.753906 175.519531 C 341.632812 175.207031 341.785156 174.859375 342.09375 174.738281 C 342.402344 174.617188 342.75 174.769531 342.871094 175.078125 C 345.898438 182.773438 346.339844 190.585938 344.113281 197.078125 C 344.023438 197.332031 343.792969 197.484375 343.542969 197.484375 " fill-opacity="1" fill-rule="nonzero"/><path fill="#caddff" d="M 336.628906 165.695312 C 336.445312 165.695312 336.265625 165.609375 336.144531 165.453125 C 328.804688 155.539062 318.210938 149.523438 307.808594 149.359375 C 307.472656 149.355469 307.210938 149.078125 307.210938 148.75 C 307.21875 148.421875 307.488281 148.160156 307.816406 148.160156 C 307.816406 148.160156 307.820312 148.160156 307.824219 148.160156 C 318.601562 148.328125 329.550781 154.527344 337.109375 164.738281 C 337.308594 165.003906 337.25 165.378906 336.984375 165.578125 C 336.878906 165.65625 336.753906 165.695312 336.628906 165.695312 " fill-opacity="1" fill-rule="nonzero"/><path fill="#caddff" d="M 220.457031 91.496094 C 220.359375 91.496094 220.257812 91.46875 220.167969 91.421875 C 214.023438 88.039062 206.023438 87.667969 199.289062 90.453125 C 198.984375 90.582031 198.632812 90.433594 198.507812 90.128906 C 198.378906 89.824219 198.527344 89.472656 198.832031 89.34375 C 205.890625 86.421875 214.289062 86.816406 220.746094 90.367188 C 221.039062 90.527344 221.144531 90.890625 220.984375 91.183594 C 220.875 91.382812 220.667969 91.496094 220.457031 91.496094 " fill-opacity="1" fill-rule="nonzero"/><path fill="#caddff" d="M 231.074219 105.707031 C 230.808594 105.707031 230.5625 105.523438 230.496094 105.25 C 229.371094 100.75 227.207031 97.027344 224.066406 94.183594 C 223.816406 93.964844 223.800781 93.585938 224.023438 93.335938 C 224.246094 93.09375 224.625 93.074219 224.867188 93.296875 C 228.191406 96.296875 230.476562 100.222656 231.65625 104.957031 C 231.738281 105.28125 231.542969 105.605469 231.222656 105.6875 C 231.171875 105.699219 231.125 105.707031 231.074219 105.707031 " fill-opacity="1" fill-rule="nonzero"/><path fill="#ffffff" d="M 179.847656 174.226562 C 179.339844 182.796875 171.980469 189.328125 163.414062 188.820312 C 154.84375 188.308594 148.3125 180.953125 148.820312 172.382812 C 149.332031 163.816406 156.691406 157.285156 165.257812 157.792969 C 173.824219 158.300781 180.355469 165.660156 179.847656 174.226562 " fill-opacity="1" fill-rule="nonzero"/><path fill="#3a435e" d="M 171.820312 163.390625 C 168.621094 166.492188 164.625 171.0625 162.835938 176.164062 L 155.683594 167.792969 C 155.484375 167.5625 155.0625 167.753906 155.1875 168.015625 C 158.191406 174.199219 161.171875 179.304688 163.28125 183.84375 C 163.492188 184.300781 164.277344 184.273438 164.417969 183.804688 C 166.253906 177.703125 169.25 170.285156 172.566406 163.777344 C 172.765625 163.394531 172.148438 163.070312 171.820312 163.390625 " fill-opacity="1" fill-rule="nonzero"/><path fill="#3a435e" d="M 125.996094 183.558594 L 125.996094 202.164062 C 125.996094 220.355469 140.363281 235.109375 158.082031 235.109375 C 175.804688 235.109375 190.171875 249.855469 190.171875 268.050781 C 190.171875 269.671875 188.859375 270.988281 187.238281 270.988281 L 102.296875 270.988281 C 75.730469 270.988281 54.191406 248.875 54.191406 221.601562 L 54.191406 181.902344 C 54.191406 171.054688 62.757812 162.261719 73.324219 162.261719 L 105.25 162.261719 C 116.707031 162.261719 125.996094 171.796875 125.996094 183.558594 " fill-opacity="1" fill-rule="nonzero"/><path fill="#3a435e" d="M 116.195312 327.085938 L 123.894531 327.085938 L 123.894531 237.460938 L 116.195312 237.460938 L 116.195312 327.085938 " fill-opacity="1" fill-rule="nonzero"/><path fill="#3a435e" d="M 156.121094 329.992188 L 122.054688 327 L 118.933594 327 L 84.15625 329.992188 L 84.15625 332.363281 L 156.121094 332.363281 L 156.121094 329.992188 " fill-opacity="1" fill-rule="nonzero"/><path fill="#ffffff" d="M 143.246094 314.351562 C 144.035156 313.554688 148.601562 299.355469 148.601562 299.355469 L 157.617188 305.789062 L 147.730469 319.078125 L 143.246094 314.351562 " fill-opacity="1" fill-rule="nonzero"/><path fill="#000000" d="M 143.988281 314.261719 L 147.675781 318.148438 L 156.773438 305.921875 L 148.917969 300.320312 C 147.578125 304.464844 145.050781 312.128906 143.988281 314.261719 Z M 147.730469 319.679688 C 147.566406 319.679688 147.410156 319.613281 147.296875 319.492188 L 142.808594 314.765625 C 142.589844 314.535156 142.589844 314.171875 142.808594 313.941406 C 143.339844 313.242188 145.890625 305.816406 148.027344 299.171875 C 148.085938 298.988281 148.230469 298.847656 148.410156 298.785156 C 148.59375 298.726562 148.792969 298.753906 148.949219 298.867188 L 157.96875 305.300781 C 158.097656 305.394531 158.1875 305.535156 158.210938 305.695312 C 158.238281 305.855469 158.195312 306.019531 158.101562 306.148438 L 148.210938 319.4375 C 148.105469 319.578125 147.941406 319.667969 147.765625 319.679688 C 147.753906 319.679688 147.742188 319.679688 147.730469 319.679688 " fill-opacity="1" fill-rule="nonzero"/><path fill="#000000" d="M 159.5 332.304688 L 153.5 332.269531 C 149.53125 332.246094 145.839844 330.230469 143.675781 326.90625 L 137.746094 317.515625 C 136.105469 314.917969 137.023438 311.480469 139.734375 310.039062 C 142.210938 308.722656 144.804688 307.445312 145.410156 307.5 C 146.644531 307.621094 147.144531 313.457031 147.144531 313.457031 L 152.488281 313.660156 C 152.488281 313.660156 155.128906 324.640625 157.449219 325.886719 C 159.144531 326.796875 160.324219 328.132812 161.117188 329.351562 C 161.949219 330.625 161.023438 332.316406 159.5 332.304688 " fill-opacity="1" fill-rule="nonzero"/><path fill="#ffffff" d="M 158.894531 330.566406 C 158.867188 330.566406 158.835938 330.5625 158.804688 330.558594 L 150.601562 329.320312 C 148.578125 329.015625 146.8125 327.832031 145.761719 326.078125 L 138.511719 313.964844 C 138.339844 313.683594 138.433594 313.3125 138.71875 313.140625 C 139 312.972656 139.371094 313.0625 139.539062 313.347656 L 146.789062 325.460938 C 147.65625 326.910156 149.113281 327.882812 150.78125 328.136719 L 158.984375 329.371094 C 159.3125 329.421875 159.539062 329.726562 159.488281 330.054688 C 159.445312 330.351562 159.1875 330.566406 158.894531 330.566406 " fill-opacity="1" fill-rule="nonzero"/><path fill="#ffffff" d="M 148.769531 321.457031 C 148.503906 321.457031 148.261719 321.28125 148.1875 321.011719 C 148.101562 320.695312 148.292969 320.363281 148.609375 320.277344 L 153.179688 319.03125 C 153.503906 318.945312 153.832031 319.132812 153.917969 319.453125 C 154.003906 319.773438 153.816406 320.101562 153.496094 320.191406 L 148.925781 321.433594 C 148.875 321.449219 148.820312 321.457031 148.769531 321.457031 " fill-opacity="1" fill-rule="nonzero"/><path fill="#ffffff" d="M 151.148438 323.804688 C 150.878906 323.804688 150.632812 323.621094 150.566406 323.347656 C 150.488281 323.023438 150.683594 322.699219 151.007812 322.621094 L 154.070312 321.871094 C 154.394531 321.792969 154.71875 321.988281 154.796875 322.3125 C 154.875 322.632812 154.679688 322.957031 154.355469 323.035156 L 151.292969 323.785156 C 151.242188 323.796875 151.195312 323.804688 151.148438 323.804688 " fill-opacity="1" fill-rule="nonzero"/><path fill="#ffffff" d="M 174.019531 311.644531 L 184.492188 322.164062 L 190.042969 320.125 L 180.390625 306.664062 L 174.019531 311.644531 " fill-opacity="1" fill-rule="nonzero"/><path fill="#000000" d="M 174.921875 311.699219 L 184.644531 321.46875 L 189.097656 319.835938 L 180.265625 307.523438 Z M 184.492188 322.765625 C 184.335938 322.765625 184.183594 322.703125 184.066406 322.589844 L 173.59375 312.066406 C 173.472656 311.945312 173.410156 311.777344 173.421875 311.605469 C 173.433594 311.433594 173.515625 311.277344 173.652344 311.171875 L 180.019531 306.191406 C 180.148438 306.09375 180.316406 306.042969 180.476562 306.070312 C 180.636719 306.09375 180.785156 306.183594 180.878906 306.316406 L 190.53125 319.777344 C 190.640625 319.929688 190.671875 320.121094 190.617188 320.300781 C 190.5625 320.480469 190.425781 320.625 190.25 320.691406 L 184.699219 322.730469 C 184.632812 322.753906 184.5625 322.765625 184.492188 322.765625 " fill-opacity="1" fill-rule="nonzero"/><path fill="#000000" d="M 181.183594 320.519531 C 181.183594 320.519531 180.679688 324.996094 181.539062 328.949219 C 181.992188 331.058594 183.894531 332.539062 186.050781 332.539062 L 211.75 332.539062 C 213.585938 332.539062 214.417969 330.246094 213.011719 329.066406 C 208.441406 325.238281 200.035156 319.394531 189.699219 317.675781 L 186.816406 321.710938 L 181.183594 320.519531 " fill-opacity="1" fill-rule="nonzero"/><path fill="#ffffff" d="M 210.527344 329.605469 L 183.894531 329.605469 C 183.5625 329.605469 183.292969 329.339844 183.292969 329.007812 C 183.292969 328.675781 183.5625 328.40625 183.894531 328.40625 L 210.527344 328.40625 C 210.859375 328.40625 211.128906 328.675781 211.128906 329.007812 C 211.128906 329.339844 210.859375 329.605469 210.527344 329.605469 " fill-opacity="1" fill-rule="nonzero"/><path fill="#ffffff" d="M 195.667969 324.875 C 195.589844 324.875 195.511719 324.859375 195.4375 324.828125 C 195.132812 324.703125 194.984375 324.355469 195.113281 324.046875 L 196.519531 320.625 C 196.648438 320.320312 197 320.171875 197.304688 320.300781 C 197.613281 320.425781 197.757812 320.777344 197.632812 321.082031 L 196.222656 324.503906 C 196.125 324.734375 195.902344 324.875 195.667969 324.875 " fill-opacity="1" fill-rule="nonzero"/><path fill="#ffffff" d="M 200.300781 325.773438 C 200.238281 325.773438 200.175781 325.765625 200.113281 325.742188 C 199.800781 325.640625 199.628906 325.300781 199.730469 324.984375 L 200.753906 321.902344 C 200.855469 321.585938 201.195312 321.414062 201.511719 321.519531 C 201.824219 321.625 201.996094 321.964844 201.890625 322.277344 L 200.871094 325.363281 C 200.789062 325.613281 200.554688 325.773438 200.300781 325.773438 " fill-opacity="1" fill-rule="nonzero"/><path fill="#000000" d="M 118.59375 238.019531 C 118.59375 238.019531 166.449219 232.449219 180.679688 244.769531 C 194.910156 257.085938 158.214844 310.058594 158.214844 310.058594 L 146.609375 301.457031 L 157.617188 264.011719 L 113.378906 251.449219 L 118.59375 238.019531 " fill-opacity="1" fill-rule="nonzero"/><path fill="#000000" d="M 92.253906 262.402344 C 99.207031 264.609375 111.644531 267.460938 129.027344 267.222656 C 133.96875 267.15625 138.527344 269.882812 140.773438 274.285156 C 145.921875 284.386719 157.066406 302.566406 175.222656 314.351562 L 183.894531 309.679688 L 161.761719 259.863281 C 159.742188 255.316406 155.964844 251.78125 151.289062 250.066406 L 107.429688 233.980469 C 107.429688 233.980469 93.828125 230.179688 87.164062 242.324219 C 85.972656 244.492188 83.761719 240.613281 83.234375 242.363281 C 81.429688 248.363281 86.28125 260.507812 92.253906 262.402344 " fill-opacity="1" fill-rule="nonzero"/><path fill="#ffffff" d="M 171.761719 282.976562 C 171.535156 282.976562 171.3125 282.84375 171.214844 282.617188 L 161.214844 260.109375 C 159.269531 255.730469 155.578125 252.277344 151.085938 250.628906 L 130.078125 242.929688 C 129.769531 242.8125 129.609375 242.46875 129.722656 242.15625 C 129.835938 241.84375 130.179688 241.6875 130.492188 241.800781 L 151.496094 249.503906 C 156.296875 251.261719 160.234375 254.949219 162.3125 259.617188 L 172.3125 282.132812 C 172.445312 282.433594 172.308594 282.789062 172.007812 282.921875 C 171.929688 282.960938 171.84375 282.976562 171.761719 282.976562 " fill-opacity="1" fill-rule="nonzero"/><path fill="#ffffff" d="M 160.085938 302.328125 C 159.929688 302.328125 159.773438 302.265625 159.65625 302.144531 C 157.640625 300.050781 155.65625 297.796875 153.757812 295.449219 C 153.546875 295.191406 153.589844 294.8125 153.847656 294.605469 C 154.105469 294.398438 154.484375 294.4375 154.691406 294.695312 C 156.566406 297.015625 158.527344 299.242188 160.519531 301.3125 C 160.75 301.550781 160.742188 301.929688 160.503906 302.160156 C 160.386719 302.273438 160.234375 302.328125 160.085938 302.328125 " fill-opacity="1" fill-rule="nonzero"/><path fill="#ffffff" d="M 154.222656 295.671875 C 154.050781 295.671875 153.875 295.597656 153.757812 295.449219 C 152.824219 294.296875 151.898438 293.101562 150.996094 291.894531 C 150.800781 291.628906 150.855469 291.253906 151.121094 291.054688 C 151.386719 290.855469 151.761719 290.910156 151.960938 291.179688 C 152.847656 292.371094 153.769531 293.554688 154.691406 294.695312 C 154.898438 294.953125 154.859375 295.332031 154.601562 295.539062 C 154.488281 295.628906 154.355469 295.671875 154.222656 295.671875 " fill-opacity="1" fill-rule="nonzero"/><path fill="#ffffff" d="M 129.464844 199.363281 C 129.464844 199.363281 133.675781 237.585938 161.941406 240.085938 L 129.464844 240.546875 C 129.464844 240.546875 117.441406 216.183594 116.953125 206.695312 C 116.464844 197.207031 129.464844 199.363281 129.464844 199.363281 " fill-opacity="1" fill-rule="nonzero"/><path fill="#000000" d="M 126.464844 199.757812 C 124.222656 199.757812 121.195312 200.117188 119.3125 201.800781 C 118.035156 202.9375 117.445312 204.574219 117.554688 206.664062 C 117.996094 215.316406 128.390625 236.964844 129.835938 239.941406 L 155.992188 239.570312 C 146.9375 236.886719 139.601562 229.890625 134.558594 219.039062 C 130.558594 210.429688 129.210938 201.949219 128.929688 199.898438 C 128.425781 199.839844 127.535156 199.757812 126.464844 199.757812 Z M 129.464844 241.148438 C 129.238281 241.148438 129.027344 241.019531 128.929688 240.8125 C 128.433594 239.816406 116.84375 216.226562 116.355469 206.726562 C 116.226562 204.253906 116.953125 202.296875 118.511719 200.902344 C 122.210938 197.597656 129.265625 198.722656 129.5625 198.773438 C 129.828125 198.816406 130.03125 199.03125 130.0625 199.300781 C 130.074219 199.394531 131.164062 208.894531 135.660156 218.5625 C 141.648438 231.429688 150.507812 238.472656 161.992188 239.488281 C 162.3125 239.519531 162.550781 239.789062 162.539062 240.109375 C 162.527344 240.429688 162.269531 240.683594 161.949219 240.6875 L 129.472656 241.148438 C 129.472656 241.148438 129.46875 241.148438 129.464844 241.148438 " fill-opacity="1" fill-rule="nonzero"/><path fill="#ffffff" d="M 89.238281 175.074219 C 94.722656 173.785156 97.007812 173.765625 116.941406 174.488281 C 121.8125 174.667969 127.605469 180.78125 128.179688 185.621094 C 126.628906 190.265625 119.484375 213.191406 131.960938 231.101562 C 133.730469 233.644531 136.136719 236.433594 139.441406 239.105469 C 137.585938 240.605469 134.699219 242.558594 130.828125 243.707031 C 124.394531 245.617188 121.164062 243.554688 115.980469 243.707031 C 102.269531 244.117188 97.246094 259.386719 88.390625 257.46875 C 86.027344 256.953125 82.894531 255.109375 79.953125 248.925781 C 78.289062 243.796875 76.808594 237.773438 75.984375 230.96875 C 73.746094 212.515625 77.40625 197.148438 80.675781 187.507812 C 81.644531 184.464844 82.773438 176.59375 89.238281 175.074219 " fill-opacity="1" fill-rule="nonzero"/><path fill="#000000" d="M 80.515625 248.703125 C 82.785156 253.472656 85.476562 256.222656 88.515625 256.878906 C 92.433594 257.730469 95.664062 254.851562 99.402344 251.515625 C 103.699219 247.679688 108.570312 243.328125 115.960938 243.109375 C 117.882812 243.050781 119.542969 243.289062 121.152344 243.523438 C 123.988281 243.929688 126.667969 244.316406 130.65625 243.132812 C 133.417969 242.3125 136.050781 240.953125 138.484375 239.09375 C 135.78125 236.828125 133.425781 234.253906 131.46875 231.445312 C 119.808594 214.707031 124.8125 193.878906 127.566406 185.5625 C 126.914062 180.796875 121.292969 175.25 116.917969 175.089844 C 96.777344 174.359375 94.71875 174.402344 89.375 175.65625 C 84.15625 176.882812 82.609375 182.683594 81.683594 186.144531 C 81.523438 186.742188 81.386719 187.253906 81.246094 187.691406 C 76.402344 201.972656 74.835938 216.503906 76.578125 230.894531 C 77.308594 236.90625 78.632812 242.894531 80.515625 248.703125 Z M 89.90625 258.234375 C 89.371094 258.234375 88.824219 258.175781 88.261719 258.054688 C 84.832031 257.3125 81.855469 254.328125 79.414062 249.183594 L 79.382812 249.113281 C 77.472656 243.21875 76.125 237.136719 75.386719 231.039062 C 73.621094 216.472656 75.210938 201.757812 80.105469 187.316406 C 80.234375 186.917969 80.367188 186.417969 80.523438 185.835938 C 81.519531 182.113281 83.183594 175.878906 89.101562 174.488281 C 94.585938 173.199219 96.671875 173.15625 116.960938 173.890625 C 122.359375 174.085938 128.191406 180.625 128.773438 185.550781 L 128.792969 185.683594 L 128.75 185.8125 C 126.0625 193.867188 121.042969 214.378906 132.453125 230.757812 C 134.484375 233.675781 136.960938 236.328125 139.816406 238.636719 L 140.394531 239.105469 L 139.816406 239.570312 C 137.101562 241.765625 134.132812 243.351562 130.996094 244.28125 C 126.757812 245.542969 123.820312 245.121094 120.980469 244.710938 C 119.421875 244.484375 117.808594 244.257812 115.996094 244.308594 C 109.042969 244.515625 104.34375 248.710938 100.199219 252.410156 C 96.859375 255.394531 93.679688 258.234375 89.90625 258.234375 " fill-opacity="1" fill-rule="nonzero"/><path fill="#ffffff" d="M 133.179688 203.648438 C 133.179688 203.648438 129.957031 177.804688 120.667969 175.59375 C 123.9375 185.640625 125.023438 196.574219 124.550781 208.136719 C 124.527344 208.617188 125.054688 208.921875 125.457031 208.660156 L 133.179688 203.648438 " fill-opacity="1" fill-rule="nonzero"/><path fill="#000000" d="M 121.601562 176.558594 C 124.476562 185.910156 125.636719 196.265625 125.148438 208.160156 L 132.535156 203.351562 C 132.113281 200.347656 129.019531 180.070312 121.601562 176.558594 Z M 125.136719 209.355469 C 124.933594 209.355469 124.734375 209.300781 124.550781 209.199219 C 124.160156 208.976562 123.929688 208.558594 123.949219 208.109375 C 124.453125 195.871094 123.191406 185.296875 120.097656 175.78125 L 119.765625 174.765625 L 120.808594 175.011719 C 130.390625 177.289062 133.640625 202.5 133.777344 203.574219 L 133.824219 203.945312 L 125.785156 209.160156 C 125.589844 209.289062 125.363281 209.355469 125.136719 209.355469 " fill-opacity="1" fill-rule="nonzero"/><path fill="#ffffff" d="M 105.097656 174.5 L 105.648438 166.734375 C 106.019531 166.710938 106.273438 166.695312 106.347656 166.695312 C 108.515625 166.667969 109.21875 165.96875 109.40625 164.1875 C 109.523438 163.074219 109.5625 161.421875 109.019531 159.355469 C 108.964844 159.132812 108.976562 158.898438 109.066406 158.6875 L 109.4375 157.820312 C 109.511719 157.535156 109.414062 157.230469 109.1875 157.042969 L 108.988281 156.882812 C 108.28125 156.300781 107.695312 155.589844 107.222656 154.800781 C 106.789062 154.070312 106.054688 152.707031 105.546875 152.46875 C 104.125 151.785156 98.351562 148.765625 95.121094 154.046875 C 92.605469 158.160156 96.71875 163.828125 98.210938 165.683594 C 98.574219 166.132812 95.773438 174.929688 95.773438 174.929688 L 92.214844 175.535156 C 92.214844 175.535156 94.945312 180.769531 103.433594 178.714844 C 109.480469 177.253906 108.519531 175.003906 108.519531 175.003906 L 105.097656 174.5 " fill-opacity="1" fill-rule="nonzero"/><path fill="#000000" d="M 93.253906 175.96875 C 94.324219 177.230469 97.234375 179.597656 103.292969 178.132812 C 106.570312 177.339844 107.542969 176.355469 107.832031 175.839844 C 107.898438 175.722656 107.933594 175.617188 107.953125 175.527344 L 105.011719 175.097656 C 104.699219 175.046875 104.476562 174.773438 104.5 174.460938 L 105.046875 166.695312 C 105.070312 166.394531 105.308594 166.15625 105.605469 166.136719 C 105.996094 166.109375 106.265625 166.09375 106.34375 166.09375 C 108.261719 166.070312 108.660156 165.558594 108.808594 164.125 C 108.972656 162.578125 108.851562 161.070312 108.441406 159.507812 C 108.347656 159.152344 108.375 158.78125 108.515625 158.453125 L 108.859375 157.640625 C 108.863281 157.589844 108.84375 157.539062 108.804688 157.507812 L 108.609375 157.34375 C 107.875 156.742188 107.234375 155.992188 106.707031 155.105469 L 106.507812 154.765625 C 106.230469 154.285156 105.574219 153.164062 105.289062 153.007812 L 105.132812 152.933594 C 103.484375 152.136719 98.472656 149.714844 95.632812 154.355469 C 93.386719 158.03125 97.015625 163.238281 98.679688 165.304688 C 98.90625 165.585938 99.242188 166.007812 96.34375 175.113281 C 96.277344 175.324219 96.09375 175.484375 95.871094 175.523438 Z M 99.671875 179.800781 C 93.84375 179.800781 91.785156 176.003906 91.683594 175.8125 C 91.59375 175.644531 91.59375 175.441406 91.679688 175.269531 C 91.765625 175.097656 91.925781 174.976562 92.113281 174.945312 L 95.308594 174.398438 C 96.460938 170.761719 97.589844 166.792969 97.644531 165.933594 C 95.777344 163.585938 92.011719 157.980469 94.609375 153.730469 C 96.871094 150.035156 100.585938 149.402344 105.65625 151.851562 L 105.808594 151.925781 C 106.363281 152.191406 106.902344 153.058594 107.546875 154.160156 L 107.738281 154.492188 C 108.195312 155.253906 108.742188 155.902344 109.371094 156.417969 L 109.566406 156.578125 C 109.976562 156.914062 110.152344 157.464844 110.015625 157.976562 C 110.007812 158.003906 110 158.03125 109.988281 158.058594 L 109.617188 158.925781 C 109.582031 159.007812 109.578125 159.105469 109.601562 159.203125 C 110.050781 160.910156 110.179688 162.558594 110.003906 164.25 C 109.777344 166.414062 108.753906 167.265625 106.355469 167.292969 C 106.328125 167.292969 106.277344 167.296875 106.207031 167.300781 L 105.738281 173.988281 L 108.605469 174.410156 C 108.8125 174.441406 108.988281 174.578125 109.070312 174.769531 C 109.101562 174.839844 109.355469 175.484375 108.933594 176.324219 C 108.296875 177.59375 106.492188 178.59375 103.574219 179.300781 C 102.117188 179.652344 100.820312 179.800781 99.671875 179.800781 " fill-opacity="1" fill-rule="nonzero"/><path fill="#000000" d="M 96.902344 147.332031 C 98.464844 146.996094 100.265625 147.234375 101.023438 146.957031 C 102.25 146.507812 102.285156 145.039062 103.980469 144.625 C 106.03125 144.125 106.886719 145.003906 107.6875 146.222656 C 107.824219 146.429688 107.941406 146.65625 108.035156 146.914062 C 109.328125 150.371094 107.699219 152.058594 106.972656 152.609375 C 106.972656 152.609375 102.355469 154.992188 101.566406 155.675781 C 100.828125 156.3125 99.976562 157.820312 100.511719 159.988281 C 100.582031 160.269531 100.457031 160.5625 100.222656 160.703125 C 99.945312 160.871094 99.585938 160.792969 99.394531 160.515625 C 98.792969 159.644531 97.484375 157.964844 96.550781 158.363281 C 95.378906 158.859375 95.742188 162.375 98.328125 162.78125 C 99.121094 162.902344 99.769531 163.71875 99.691406 164.550781 C 99.636719 165.089844 99.128906 165.75 98.367188 165.925781 C 97.902344 166.03125 97.445312 165.84375 97.035156 165.582031 C 95.347656 164.503906 90.589844 159.9375 89.996094 155.839844 C 89.285156 150.90625 94.820312 147.78125 96.902344 147.332031 " fill-opacity="1" fill-rule="nonzero"/><path fill="#000000" d="M 106.230469 167.214844 C 106.222656 167.214844 106.214844 167.214844 106.207031 167.214844 C 106.128906 167.210938 104.199219 167.128906 102.808594 165.945312 C 102.574219 165.746094 102.542969 165.394531 102.742188 165.160156 C 102.941406 164.925781 103.292969 164.894531 103.527344 165.097656 C 104.632812 166.03125 106.234375 166.101562 106.25 166.101562 C 106.558594 166.113281 106.796875 166.371094 106.785156 166.679688 C 106.777344 166.980469 106.527344 167.214844 106.230469 167.214844 " fill-opacity="1" fill-rule="nonzero"/><path fill="#caddff" d="M 196.207031 201.144531 L 162.480469 201.144531 C 161.0625 201.144531 159.738281 201.851562 158.980469 203.015625 L 146.328125 240.261719 L 116.476562 240.261719 L 116.476562 240.820312 C 116.476562 242.578125 117.902344 244.003906 119.664062 244.003906 L 183.011719 244.003906 C 184.773438 244.003906 186.199219 242.578125 186.199219 240.820312 L 186.199219 240.328125 L 197.636719 205.503906 C 197.808594 204.972656 198.023438 204.460938 198.222656 203.9375 C 198.722656 202.628906 197.734375 201.144531 196.207031 201.144531 " fill-opacity="1" fill-rule="nonzero"/><path fill="#000000" d="M 117.078125 240.863281 C 117.101562 242.269531 118.253906 243.402344 119.664062 243.402344 L 183.011719 243.402344 C 184.441406 243.402344 185.597656 242.246094 185.597656 240.820312 L 185.597656 240.328125 C 185.597656 240.265625 185.609375 240.203125 185.628906 240.144531 L 197.066406 205.320312 C 197.195312 204.921875 197.347656 204.535156 197.492188 204.164062 C 197.550781 204.015625 197.605469 203.871094 197.660156 203.722656 C 197.828125 203.285156 197.765625 202.804688 197.492188 202.40625 C 197.199219 201.984375 196.734375 201.742188 196.207031 201.742188 L 162.480469 201.742188 C 161.28125 201.742188 160.183594 202.316406 159.523438 203.285156 L 146.898438 240.453125 C 146.816406 240.699219 146.585938 240.863281 146.328125 240.863281 Z M 183.011719 244.605469 L 119.664062 244.605469 C 117.574219 244.605469 115.878906 242.90625 115.878906 240.820312 L 115.878906 240.261719 C 115.878906 239.929688 116.148438 239.660156 116.476562 239.660156 L 145.898438 239.660156 L 158.414062 202.824219 C 158.429688 202.777344 158.453125 202.734375 158.476562 202.691406 C 159.351562 201.347656 160.847656 200.542969 162.480469 200.542969 L 196.207031 200.542969 C 197.132812 200.542969 197.960938 200.972656 198.480469 201.722656 C 198.972656 202.441406 199.089844 203.351562 198.78125 204.152344 C 198.726562 204.300781 198.667969 204.453125 198.609375 204.601562 C 198.464844 204.976562 198.324219 205.328125 198.207031 205.691406 L 186.800781 240.425781 L 186.800781 240.820312 C 186.800781 242.90625 185.101562 244.605469 183.011719 244.605469 " fill-opacity="1" fill-rule="nonzero"/><path fill="#ffffff" d="M 171.394531 220.230469 C 170.921875 221.808594 171.648438 223.425781 173.019531 223.835938 C 174.390625 224.253906 175.886719 223.308594 176.363281 221.730469 C 176.835938 220.152344 176.109375 218.539062 174.738281 218.125 C 173.367188 217.710938 171.871094 218.65625 171.394531 220.230469 " fill-opacity="1" fill-rule="nonzero"/><path fill="#ffffff" d="M 175.226562 240.929688 L 153.25 240.929688 C 152.917969 240.929688 152.648438 240.660156 152.648438 240.328125 C 152.648438 239.996094 152.917969 239.730469 153.25 239.730469 L 175.226562 239.730469 C 175.558594 239.730469 175.828125 239.996094 175.828125 240.328125 C 175.828125 240.660156 175.558594 240.929688 175.226562 240.929688 " fill-opacity="1" fill-rule="nonzero"/><path fill="#ffffff" d="M 186.417969 240.929688 L 182.523438 240.929688 C 182.191406 240.929688 181.921875 240.660156 181.921875 240.328125 C 181.921875 239.996094 182.191406 239.730469 182.523438 239.730469 L 186.417969 239.730469 C 186.75 239.730469 187.019531 239.996094 187.019531 240.328125 C 187.019531 240.660156 186.75 240.929688 186.417969 240.929688 " fill-opacity="1" fill-rule="nonzero"/><path fill="#ffffff" d="M 136.09375 236.992188 C 134.160156 233.972656 130.617188 232.441406 128.667969 232.550781 C 119.808594 233.054688 102.722656 224.085938 90.015625 219.753906 C 87.816406 216.554688 89.414062 209.550781 88.414062 201.148438 L 72.207031 202.546875 C 70.589844 210.558594 71.207031 224.15625 72.605469 225.957031 C 73.535156 228.164062 78.574219 234.570312 88.816406 239.5625 C 104.820312 247.367188 126.25 242.265625 126.25 242.265625 C 126.25 242.265625 137.109375 248.007812 141.796875 241.769531 C 141.796875 241.769531 138.023438 240.015625 136.09375 236.992188 " fill-opacity="1" fill-rule="nonzero"/><path fill="#000000" d="M 126.25 241.664062 C 126.34375 241.664062 126.441406 241.6875 126.527344 241.734375 C 126.628906 241.789062 136.300781 246.804688 140.855469 241.957031 C 139.636719 241.285156 137.097656 239.683594 135.585938 237.316406 C 133.753906 234.449219 130.402344 233.050781 128.703125 233.152344 C 122.511719 233.5 112.503906 229.375 102.816406 225.386719 C 98.402344 223.570312 93.839844 221.691406 89.820312 220.324219 C 89.699219 220.28125 89.59375 220.203125 89.519531 220.09375 C 88.113281 218.046875 88.140625 214.757812 88.175781 210.59375 C 88.195312 207.949219 88.21875 204.980469 87.882812 201.792969 L 72.710938 203.105469 C 71.140625 211.46875 71.96875 224.160156 73.082031 225.585938 C 73.113281 225.632812 73.140625 225.675781 73.160156 225.726562 C 74.113281 227.996094 79.261719 234.238281 89.078125 239.023438 C 104.710938 246.644531 125.898438 241.730469 126.109375 241.679688 C 126.15625 241.671875 126.203125 241.664062 126.25 241.664062 Z M 135.292969 245.292969 C 131.210938 245.292969 127.136719 243.382812 126.167969 242.898438 C 123.84375 243.40625 103.699219 247.488281 88.550781 240.101562 C 77.734375 234.832031 72.964844 228.25 72.082031 226.253906 C 70.550781 223.996094 70.027344 210.300781 71.617188 202.429688 C 71.671875 202.167969 71.890625 201.972656 72.15625 201.949219 L 88.363281 200.546875 C 88.679688 200.519531 88.972656 200.753906 89.011719 201.074219 C 89.425781 204.554688 89.398438 207.765625 89.375 210.601562 C 89.34375 214.4375 89.320312 217.492188 90.40625 219.253906 C 94.410156 220.628906 98.914062 222.484375 103.273438 224.277344 C 112.835938 228.214844 122.726562 232.300781 128.632812 231.949219 C 130.925781 231.828125 134.628906 233.589844 136.597656 236.667969 C 138.414062 239.511719 142.015625 241.207031 142.050781 241.222656 C 142.214844 241.300781 142.335938 241.445312 142.378906 241.621094 C 142.421875 241.796875 142.386719 241.984375 142.277344 242.128906 C 140.476562 244.523438 137.882812 245.292969 135.292969 245.292969 " fill-opacity="1" fill-rule="nonzero"/><path fill="#000000" d="M 139.882812 242.644531 C 139.136719 242.644531 136.230469 242.371094 132.046875 238.578125 C 131.804688 238.355469 131.785156 237.972656 132.007812 237.730469 C 132.230469 237.484375 132.609375 237.464844 132.855469 237.6875 C 137.167969 241.601562 139.914062 241.441406 139.945312 241.441406 C 140.269531 241.410156 140.570312 241.648438 140.601562 241.976562 C 140.636719 242.308594 140.394531 242.601562 140.066406 242.636719 C 140.050781 242.636719 139.988281 242.644531 139.882812 242.644531 " fill-opacity="1" fill-rule="nonzero"/><path fill="#000000" d="M 137.058594 244.109375 C 136.179688 244.109375 133.679688 243.800781 130.214844 240.789062 C 129.964844 240.574219 129.9375 240.191406 130.15625 239.941406 C 130.371094 239.691406 130.75 239.664062 131 239.882812 C 134.796875 243.179688 137.199219 242.90625 137.222656 242.902344 C 137.550781 242.859375 137.851562 243.085938 137.898438 243.414062 C 137.945312 243.738281 137.726562 244.039062 137.402344 244.089844 C 137.382812 244.09375 137.261719 244.109375 137.058594 244.109375 " fill-opacity="1" fill-rule="nonzero"/><path fill="#ffffff" d="M 70.179688 208.363281 C 70.070312 208.375 69.980469 208.289062 69.984375 208.179688 C 70.097656 206.34375 70.972656 192.628906 72.207031 187.101562 C 75 174.621094 92.214844 174.601562 92.214844 174.601562 C 89.050781 185.296875 88.023438 195.546875 89.027344 205.386719 C 89.089844 205.988281 88.65625 206.53125 88.050781 206.589844 L 70.179688 208.363281 " fill-opacity="1" fill-rule="nonzero"/><path fill="#000000" d="M 91.40625 175.234375 C 88.023438 175.4375 75.105469 176.890625 72.792969 187.230469 C 71.648438 192.355469 70.804688 204.753906 70.617188 207.71875 L 87.992188 205.996094 C 88.121094 205.980469 88.238281 205.917969 88.320312 205.816406 C 88.40625 205.714844 88.445312 205.582031 88.429688 205.445312 C 87.4375 195.742188 88.441406 185.582031 91.40625 175.234375 Z M 70.121094 207.765625 Z M 70.160156 208.964844 C 69.960938 208.964844 69.769531 208.886719 69.621094 208.75 C 69.460938 208.589844 69.371094 208.371094 69.386719 208.144531 C 69.484375 206.566406 70.371094 192.566406 71.621094 186.96875 C 74.484375 174.171875 92.039062 174 92.214844 174 L 93.019531 174 L 92.792969 174.773438 C 89.6875 185.246094 88.625 195.523438 89.625 205.324219 C 89.671875 205.777344 89.539062 206.222656 89.25 206.574219 C 88.964844 206.925781 88.558594 207.144531 88.109375 207.1875 L 70.238281 208.960938 C 70.214844 208.964844 70.1875 208.964844 70.160156 208.964844 " fill-opacity="1" fill-rule="nonzero"/><path fill="#ffffff" d="M 121.167969 334.921875 L 102.429688 257.152344 L 83.691406 334.921875 L 79.199219 334.921875 L 99.789062 248.84375 L 105.070312 248.835938 L 125.660156 334.921875 L 121.167969 334.921875 " fill-opacity="1" fill-rule="nonzero"/><path fill="#000000" d="M 121.640625 334.324219 L 124.898438 334.324219 L 104.597656 249.4375 L 100.261719 249.441406 L 79.960938 334.324219 L 83.21875 334.324219 L 102.429688 254.589844 Z M 126.421875 335.523438 L 120.695312 335.523438 L 120.585938 335.0625 L 102.429688 259.714844 L 84.164062 335.523438 L 78.4375 335.523438 L 99.3125 248.246094 L 105.542969 248.234375 L 105.652344 248.695312 L 126.421875 335.523438 " fill-opacity="1" fill-rule="nonzero"/><path fill="#ffffff" d="M 227.617188 334.65625 L 208.875 256.886719 L 190.136719 334.65625 L 185.644531 334.65625 L 206.238281 248.578125 L 211.519531 248.570312 L 232.109375 334.65625 L 227.617188 334.65625 " fill-opacity="1" fill-rule="nonzero"/><path fill="#000000" d="M 228.089844 334.054688 L 231.347656 334.054688 L 211.042969 249.171875 L 206.710938 249.175781 L 186.40625 334.054688 L 189.664062 334.054688 L 208.875 254.320312 Z M 232.871094 335.257812 L 227.144531 335.257812 L 227.035156 334.796875 L 208.875 259.449219 L 190.609375 335.257812 L 184.886719 335.257812 L 205.761719 247.976562 L 211.992188 247.96875 L 212.101562 248.429688 L 232.871094 335.257812 " fill-opacity="1" fill-rule="nonzero"/><path fill="#ffffff" d="M 82.304688 250.339844 L 230.117188 250.339844 L 230.117188 243.304688 L 82.304688 243.304688 L 82.304688 250.339844 " fill-opacity="1" fill-rule="nonzero"/><path fill="#000000" d="M 82.902344 249.738281 L 229.515625 249.738281 L 229.515625 243.90625 L 82.902344 243.90625 Z M 230.714844 250.941406 L 81.703125 250.941406 L 81.703125 242.707031 L 230.714844 242.707031 L 230.714844 250.941406 " fill-opacity="1" fill-rule="nonzero"/><path fill="#3a435e" d="M 127.058594 249.289062 C 126.726562 249.289062 126.457031 249.015625 126.457031 248.683594 L 126.457031 244.769531 C 126.457031 244.4375 126.726562 244.171875 127.058594 244.171875 C 127.390625 244.171875 127.660156 244.4375 127.660156 244.769531 L 127.660156 248.683594 C 127.660156 249.015625 127.390625 249.289062 127.058594 249.289062 " fill-opacity="1" fill-rule="nonzero"/><path fill="#000000" d="M 324.664062 100.9375 L 327.367188 108.121094 L 335.6875 105.347656 Z M 327.007812 109.472656 C 326.765625 109.472656 326.535156 109.324219 326.445312 109.082031 L 323.058594 100.085938 C 322.976562 99.863281 323.03125 99.613281 323.203125 99.445312 C 323.375 99.28125 323.625 99.230469 323.847656 99.316406 L 337.652344 104.839844 C 337.886719 104.933594 338.039062 105.164062 338.03125 105.414062 C 338.023438 105.664062 337.859375 105.886719 337.621094 105.964844 L 327.199219 109.441406 C 327.136719 109.460938 327.070312 109.472656 327.007812 109.472656 " fill-opacity="1" fill-rule="nonzero"/><path fill="#000000" d="M 320.09375 81.929688 C 319.882812 81.929688 319.679688 81.816406 319.566406 81.621094 C 319.410156 81.328125 319.515625 80.964844 319.804688 80.800781 L 368.203125 54.023438 C 368.492188 53.859375 368.859375 53.964844 369.019531 54.253906 C 369.179688 54.542969 369.074219 54.910156 368.785156 55.070312 L 320.386719 81.851562 C 320.292969 81.902344 320.195312 81.929688 320.09375 81.929688 " fill-opacity="1" fill-rule="nonzero"/><path fill="#000000" d="M 314.382812 73.007812 C 314.257812 73.007812 314.128906 72.96875 314.023438 72.886719 C 313.757812 72.6875 313.703125 72.3125 313.902344 72.046875 L 337.75 40.136719 C 337.949219 39.871094 338.324219 39.816406 338.589844 40.015625 C 338.855469 40.214844 338.910156 40.589844 338.714844 40.855469 L 314.863281 72.769531 C 314.746094 72.925781 314.5625 73.007812 314.382812 73.007812 " fill-opacity="1" fill-rule="nonzero"/><path fill="#000000" d="M 306.726562 68.234375 C 306.542969 68.234375 306.359375 68.148438 306.242188 67.984375 C 305.0625 66.367188 304.660156 64.917969 305.046875 63.671875 C 305.328125 62.769531 305.910156 62.34375 306.421875 61.96875 C 306.824219 61.675781 307.167969 61.421875 307.402344 60.9375 C 307.847656 60.019531 307.429688 59.121094 306.945312 58.078125 C 306.453125 57.023438 305.894531 55.820312 306.289062 54.46875 C 306.769531 52.820312 308.28125 52.242188 309.613281 51.730469 C 310.816406 51.269531 311.957031 50.835938 312.425781 49.71875 C 312.960938 48.445312 312.269531 47.105469 311.53125 45.691406 C 310.738281 44.15625 309.835938 42.421875 310.613281 40.625 C 311.265625 39.125 312.664062 38.539062 313.894531 38.023438 C 314.957031 37.578125 315.882812 37.191406 316.15625 36.320312 C 316.550781 35.074219 315.535156 33.238281 313.207031 31.003906 C 312.96875 30.773438 312.960938 30.394531 313.191406 30.15625 C 313.421875 29.917969 313.804688 29.910156 314.039062 30.140625 C 316.792969 32.78125 317.859375 34.921875 317.300781 36.683594 C 316.855469 38.085938 315.585938 38.617188 314.355469 39.132812 C 313.234375 39.601562 312.179688 40.042969 311.714844 41.105469 C 311.164062 42.375 311.859375 43.71875 312.59375 45.136719 C 313.386719 46.664062 314.285156 48.390625 313.53125 50.183594 C 312.863281 51.773438 311.363281 52.347656 310.042969 52.851562 C 308.816406 53.324219 307.757812 53.730469 307.441406 54.804688 C 307.175781 55.726562 307.589844 56.625 308.03125 57.574219 C 308.570312 58.722656 309.179688 60.03125 308.484375 61.460938 C 308.117188 62.210938 307.59375 62.597656 307.132812 62.9375 C 306.679688 63.265625 306.355469 63.503906 306.195312 64.03125 C 305.925781 64.890625 306.269531 65.984375 307.210938 67.277344 C 307.40625 67.546875 307.347656 67.921875 307.078125 68.117188 C 306.972656 68.195312 306.851562 68.234375 306.726562 68.234375 " fill-opacity="1" fill-rule="nonzero"/><path fill="#000000" d="M 245.40625 314.988281 C 245.089844 314.988281 244.828125 314.742188 244.808594 314.421875 C 244.785156 314.09375 245.039062 313.808594 245.371094 313.785156 C 258.085938 313.007812 270.640625 310.324219 282.6875 305.8125 C 290.21875 302.992188 297.492188 299.46875 304.3125 295.339844 C 304.59375 295.167969 304.964844 295.257812 305.136719 295.542969 C 305.308594 295.824219 305.21875 296.191406 304.933594 296.367188 C 298.050781 300.53125 290.710938 304.089844 283.105469 306.9375 C 270.949219 311.492188 258.277344 314.199219 245.441406 314.988281 C 245.429688 314.988281 245.417969 314.988281 245.40625 314.988281 " fill-opacity="1" fill-rule="nonzero"/><path fill="#000000" d="M 247.132812 321.023438 C 244.796875 321.023438 242.453125 320.960938 240.105469 320.839844 C 239.777344 320.824219 239.523438 320.542969 239.539062 320.210938 C 239.554688 319.882812 239.824219 319.632812 240.167969 319.644531 C 256.960938 320.503906 273.613281 318.25 289.65625 312.9375 C 298.828125 309.902344 307.667969 305.894531 315.925781 301.027344 C 316.210938 300.859375 316.578125 300.957031 316.75 301.242188 C 316.917969 301.527344 316.820312 301.894531 316.535156 302.0625 C 308.203125 306.972656 299.285156 311.015625 290.035156 314.078125 C 276.089844 318.695312 261.6875 321.023438 247.132812 321.023438 " fill-opacity="1" fill-rule="nonzero"/><path fill="#000000" d="M 320.632812 301.929688 C 320.621094 301.929688 320.605469 301.929688 320.589844 301.929688 C 320.257812 301.90625 320.011719 301.621094 320.035156 301.289062 C 320.15625 299.566406 320.703125 298.382812 321.660156 297.769531 C 322.359375 297.324219 323.011719 297.363281 323.535156 297.402344 C 323.945312 297.429688 324.296875 297.449219 324.691406 297.277344 C 325.40625 296.957031 325.617188 296.292969 325.90625 295.234375 C 326.167969 294.265625 326.464844 293.164062 327.492188 292.480469 C 328.738281 291.652344 330.058594 292.109375 331.21875 292.511719 C 332.234375 292.863281 333.191406 293.199219 334.074219 292.746094 C 335.078125 292.234375 335.355469 291.007812 335.644531 289.710938 C 335.972656 288.261719 336.339844 286.621094 337.867188 285.863281 C 339.140625 285.230469 340.386719 285.621094 341.480469 285.960938 C 342.394531 286.246094 343.183594 286.492188 343.804688 286.101562 C 344.707031 285.53125 345.039062 283.8125 344.753906 281.132812 C 344.71875 280.804688 344.960938 280.507812 345.289062 280.472656 C 345.621094 280.4375 345.914062 280.675781 345.949219 281.007812 C 346.292969 284.261719 345.800781 286.261719 344.445312 287.121094 C 343.355469 287.804688 342.167969 287.433594 341.125 287.105469 C 340.15625 286.804688 339.246094 286.519531 338.402344 286.941406 C 337.386719 287.441406 337.109375 288.671875 336.816406 289.972656 C 336.492188 291.414062 336.125 293.046875 334.617188 293.816406 C 333.28125 294.5 331.976562 294.046875 330.828125 293.648438 C 329.796875 293.289062 328.910156 292.980469 328.15625 293.480469 C 327.507812 293.914062 327.289062 294.707031 327.066406 295.550781 C 326.777344 296.605469 326.453125 297.808594 325.179688 298.375 C 324.511719 298.671875 323.925781 298.628906 323.453125 298.601562 C 323 298.566406 322.671875 298.546875 322.304688 298.78125 C 321.6875 299.175781 321.328125 300.050781 321.230469 301.375 C 321.210938 301.6875 320.945312 301.929688 320.632812 301.929688 " fill-opacity="1" fill-rule="nonzero"/><path fill="#000000" d="M 117.960938 74.363281 C 117.824219 74.363281 117.6875 74.316406 117.574219 74.21875 C 117.320312 74.003906 117.289062 73.625 117.503906 73.375 C 138.347656 48.867188 161.941406 32.867188 187.625 25.816406 C 187.941406 25.726562 188.273438 25.917969 188.359375 26.238281 C 188.449219 26.558594 188.261719 26.886719 187.941406 26.976562 C 162.496094 33.960938 139.105469 49.832031 118.417969 74.152344 C 118.300781 74.289062 118.132812 74.363281 117.960938 74.363281 " fill-opacity="1" fill-rule="nonzero"/><path fill="#000000" d="M 72.230469 125.679688 C 72.167969 125.679688 72.105469 125.667969 72.042969 125.648438 C 71.730469 125.546875 71.554688 125.207031 71.660156 124.890625 C 76.757812 109.183594 84.527344 94.167969 94.75 80.269531 C 104.460938 67.058594 116.144531 55.164062 129.472656 44.917969 C 155.769531 24.699219 186.4375 12.464844 215.828125 10.464844 C 216.8125 10.398438 217.898438 10.339844 219.054688 10.296875 C 219.390625 10.289062 219.667969 10.542969 219.679688 10.871094 C 219.691406 11.203125 219.433594 11.480469 219.101562 11.496094 C 217.957031 11.539062 216.882812 11.597656 215.910156 11.664062 C 153.980469 15.875 92.457031 64.710938 72.800781 125.261719 C 72.71875 125.515625 72.480469 125.679688 72.230469 125.679688 " fill-opacity="1" fill-rule="nonzero"/><path fill="#000000" d="M 96.289062 104.664062 C 95.980469 104.664062 95.71875 104.429688 95.691406 104.117188 C 95.660156 103.789062 95.90625 103.496094 96.234375 103.46875 C 98.234375 103.285156 99.460938 102.761719 99.882812 101.910156 C 100.300781 101.058594 99.824219 99.953125 99.367188 98.878906 C 98.847656 97.671875 98.3125 96.421875 99.007812 95.367188 C 99.71875 94.300781 101.125 94.339844 102.367188 94.371094 C 103.460938 94.402344 104.488281 94.429688 104.9375 93.835938 C 105.460938 93.140625 105.023438 91.851562 104.601562 90.601562 C 104.125 89.191406 103.628906 87.734375 104.535156 86.816406 C 105.226562 86.113281 106.199219 86.300781 107.054688 86.464844 C 107.832031 86.613281 108.566406 86.757812 109.101562 86.347656 C 109.613281 85.960938 109.65625 85.3125 109.6875 84.199219 C 109.71875 83.273438 109.75 82.121094 110.261719 80.949219 C 111.171875 78.875 113.335938 77.328125 116.691406 76.351562 C 117.007812 76.261719 117.339844 76.441406 117.433594 76.761719 C 117.527344 77.078125 117.34375 77.410156 117.023438 77.503906 C 114.027344 78.378906 112.121094 79.699219 111.363281 81.429688 C 110.945312 82.390625 110.917969 83.328125 110.890625 84.234375 C 110.855469 85.371094 110.820312 86.550781 109.828125 87.304688 C 108.867188 88.035156 107.738281 87.820312 106.828125 87.644531 C 106.082031 87.5 105.613281 87.429688 105.386719 87.660156 C 105.003906 88.050781 105.394531 89.203125 105.738281 90.21875 C 106.234375 91.691406 106.800781 93.355469 105.894531 94.558594 C 105.074219 95.648438 103.617188 95.605469 102.335938 95.574219 C 101.316406 95.546875 100.351562 95.519531 100.011719 96.03125 C 99.671875 96.542969 100.058594 97.449219 100.46875 98.40625 C 101.007812 99.667969 101.621094 101.09375 100.957031 102.441406 C 100.339844 103.691406 98.785156 104.441406 96.34375 104.660156 C 96.324219 104.664062 96.304688 104.664062 96.289062 104.664062 " fill-opacity="1" fill-rule="nonzero"/><path fill="#000000" d="M 91.050781 130.054688 C 90.71875 130.054688 90.449219 129.785156 90.449219 129.453125 L 90.449219 126.351562 C 90.449219 126.019531 90.71875 125.75 91.050781 125.75 C 91.382812 125.75 91.652344 126.019531 91.652344 126.351562 L 91.652344 129.453125 C 91.652344 129.785156 91.382812 130.054688 91.050781 130.054688 " fill-opacity="1" fill-rule="nonzero"/><path fill="#000000" d="M 91.050781 137.285156 C 90.71875 137.285156 90.449219 137.015625 90.449219 136.683594 L 90.449219 133.582031 C 90.449219 133.25 90.71875 132.980469 91.050781 132.980469 C 91.382812 132.980469 91.652344 133.25 91.652344 133.582031 L 91.652344 136.683594 C 91.652344 137.015625 91.382812 137.285156 91.050781 137.285156 " fill-opacity="1" fill-rule="nonzero"/><path fill="#000000" d="M 88.988281 132.117188 L 85.886719 132.117188 C 85.554688 132.117188 85.285156 131.847656 85.285156 131.515625 C 85.285156 131.183594 85.554688 130.917969 85.886719 130.917969 L 88.988281 130.917969 C 89.320312 130.917969 89.589844 131.183594 89.589844 131.515625 C 89.589844 131.847656 89.320312 132.117188 88.988281 132.117188 " fill-opacity="1" fill-rule="nonzero"/><path fill="#000000" d="M 96.21875 132.117188 L 93.113281 132.117188 C 92.78125 132.117188 92.515625 131.847656 92.515625 131.515625 C 92.515625 131.183594 92.78125 130.917969 93.113281 130.917969 L 96.21875 130.917969 C 96.550781 130.917969 96.816406 131.183594 96.816406 131.515625 C 96.816406 131.847656 96.550781 132.117188 96.21875 132.117188 " fill-opacity="1" fill-rule="nonzero"/><g clip-path="url(#13d01926c9)"><path fill="#3a435e" d="M 411.199219 305.367188 C 410.875 305.097656 410.449219 304.988281 410.039062 305.066406 L 370.613281 312.585938 C 369.949219 312.710938 369.46875 313.292969 369.46875 313.972656 L 369.46875 366.605469 C 369.46875 367.28125 369.949219 367.863281 370.613281 367.988281 L 410.039062 375.507812 C 410.125 375.523438 410.214844 375.53125 410.300781 375.53125 C 410.625 375.53125 410.945312 375.417969 411.199219 375.210938 C 411.523438 374.941406 411.710938 374.542969 411.710938 374.121094 L 411.710938 306.453125 C 411.710938 306.03125 411.523438 305.632812 411.199219 305.367188 Z M 395.542969 353.507812 L 391.007812 344.925781 C 390.835938 344.605469 390.65625 344.015625 390.472656 343.160156 L 390.402344 343.160156 C 390.316406 343.5625 390.113281 344.175781 389.792969 344.996094 L 385.242188 353.507812 L 378.175781 353.507812 L 386.5625 340.328125 L 378.890625 327.148438 L 386.105469 327.148438 L 389.871094 335.050781 C 390.164062 335.675781 390.429688 336.417969 390.660156 337.277344 L 390.730469 337.277344 C 390.878906 336.761719 391.152344 335.996094 391.558594 334.976562 L 395.742188 327.148438 L 402.351562 327.148438 L 394.457031 340.21875 L 402.574219 353.507812 Z M 395.542969 353.507812 " fill-opacity="1" fill-rule="nonzero"/></g><g clip-path="url(#9da26cdcc5)"><path fill="#3a435e" d="M 435.648438 313.5 L 414.527344 313.5 L 414.527344 323.371094 L 417.34375 323.371094 L 417.34375 326.191406 L 414.527344 326.191406 L 414.527344 333.238281 L 417.34375 333.238281 L 417.34375 336.058594 L 414.527344 336.058594 L 414.527344 343.105469 L 417.34375 343.105469 L 417.34375 345.925781 L 414.527344 345.925781 L 414.527344 354.386719 L 417.34375 354.386719 L 417.34375 357.203125 L 414.527344 357.203125 L 414.527344 367.074219 L 435.648438 367.074219 C 437.199219 367.074219 438.460938 365.808594 438.460938 364.253906 L 438.460938 316.320312 C 438.460938 314.765625 437.199219 313.5 435.648438 313.5 Z M 431.421875 357.203125 L 420.160156 357.203125 L 420.160156 354.386719 L 431.421875 354.386719 Z M 431.421875 345.925781 L 420.160156 345.925781 L 420.160156 343.105469 L 431.421875 343.105469 Z M 431.421875 336.058594 L 420.160156 336.058594 L 420.160156 333.238281 L 431.421875 333.238281 Z M 431.421875 326.191406 L 420.160156 326.191406 L 420.160156 323.371094 L 431.421875 323.371094 Z M 431.421875 326.191406 " fill-opacity="1" fill-rule="nonzero"/></g></svg>