<svg xmlns="http://www.w3.org/2000/svg" xmlns:xlink="http://www.w3.org/1999/xlink" width="585" zoomAndPan="magnify" viewBox="0 0 438.75 375.749991" height="501" preserveAspectRatio="xMidYMid meet" version="1.0"><defs><clipPath id="d84446be59"><path d="M 369.46875 305.042969 L 412 305.042969 L 412 375.5 L 369.46875 375.5 Z M 369.46875 305.042969 " clip-rule="nonzero"/></clipPath><clipPath id="b03c6cba70"><path d="M 414 313 L 438.460938 313 L 438.460938 368 L 414 368 Z M 414 313 " clip-rule="nonzero"/></clipPath></defs><path fill="#caddff" d="M 260.0625 344.015625 C 279.34375 336.480469 361.609375 304.332031 381.417969 227.851562 C 404.011719 140.644531 356.21875 37.386719 260.609375 19.050781 C 161.433594 0.0351562 39.476562 26.578125 37.125 119.195312 C 36.292969 151.984375 85.972656 161.320312 84.132812 199.679688 C 82.335938 237.109375 35.039062 255.730469 40.265625 300.230469 C 40.59375 303.027344 41.644531 311.398438 45.921875 319.753906 C 70.222656 367.191406 179.066406 375.667969 260.0625 344.015625 " fill-opacity="1" fill-rule="nonzero"/><path fill="#3a435e" d="M 102.324219 343.804688 C 105.832031 340.941406 109.515625 338.269531 113.285156 335.722656 C 120.941406 330.554688 129.011719 325.933594 137.164062 321.453125 C 141.453125 319.101562 145.90625 316.96875 150.304688 314.777344 C 154.726562 312.570312 159.164062 310.386719 163.597656 308.203125 C 167.652344 306.207031 171.707031 304.210938 175.753906 302.203125 C 184.949219 271.136719 194.9375 235.914062 192.953125 235.914062 L 42.148438 231.660156 C 38.597656 231.660156 36.21875 234.546875 36.839844 238.09375 L 55.113281 342.210938 C 55.738281 345.757812 59.132812 348.640625 62.683594 348.640625 L 96.242188 348.640625 C 98.21875 346.976562 100.320312 345.4375 102.324219 343.804688 " fill-opacity="1" fill-rule="nonzero"/><path fill="#000000" d="M 192.925781 236.546875 C 192.9375 236.546875 192.945312 236.546875 192.953125 236.546875 Z M 102.324219 343.804688 L 102.328125 343.804688 Z M 42.128906 232.296875 C 40.640625 232.296875 39.324219 232.871094 38.445312 233.921875 C 37.539062 234.992188 37.191406 236.4375 37.464844 237.984375 L 55.738281 342.101562 C 56.3125 345.359375 59.425781 348.007812 62.683594 348.007812 L 96.011719 348.007812 C 97.082031 347.117188 98.195312 346.25 99.273438 345.40625 C 100.148438 344.726562 101.054688 344.023438 101.921875 343.3125 C 105.167969 340.660156 108.769531 338.007812 112.929688 335.195312 C 121.035156 329.726562 129.574219 324.902344 136.859375 320.898438 C 140.191406 319.070312 143.671875 317.351562 147.035156 315.691406 C 148.03125 315.195312 149.027344 314.703125 150.023438 314.210938 C 154.40625 312.023438 158.8125 309.851562 163.320312 307.636719 C 167.289062 305.679688 171.257812 303.726562 175.222656 301.761719 C 190.9375 248.660156 192.71875 238.320312 192.585938 236.539062 Z M 96.242188 349.277344 L 62.683594 349.277344 C 58.839844 349.277344 55.164062 346.15625 54.492188 342.320312 L 36.214844 238.203125 C 35.878906 236.28125 36.324219 234.46875 37.472656 233.105469 C 38.597656 231.765625 40.261719 231.027344 42.148438 231.027344 L 192.972656 235.28125 C 193.207031 235.28125 193.441406 235.402344 193.59375 235.605469 C 194.140625 236.332031 195.410156 238.035156 176.359375 302.382812 C 176.3125 302.554688 176.195312 302.695312 176.035156 302.773438 C 171.988281 304.777344 167.933594 306.773438 163.878906 308.769531 C 159.375 310.988281 154.96875 313.15625 150.585938 315.34375 C 149.59375 315.839844 148.597656 316.332031 147.597656 316.824219 C 144.246094 318.480469 140.777344 320.191406 137.46875 322.011719 C 130.210938 325.996094 121.699219 330.804688 113.640625 336.246094 C 109.511719 339.035156 105.941406 341.667969 102.722656 344.292969 C 101.84375 345.011719 100.933594 345.722656 100.054688 346.40625 C 98.921875 347.285156 97.757812 348.195312 96.652344 349.125 C 96.535156 349.222656 96.390625 349.277344 96.242188 349.277344 " fill-opacity="1" fill-rule="nonzero"/><path fill="#ffffff" d="M 197.261719 232.023438 L 45.273438 232.023438 C 41.921875 232.023438 39.679688 234.742188 40.265625 238.09375 L 58.542969 342.210938 C 59.128906 345.5625 62.328125 348.28125 65.679688 348.28125 L 217.664062 348.28125 C 221.019531 348.28125 223.261719 345.5625 222.675781 342.210938 L 204.398438 238.09375 C 203.808594 234.742188 200.613281 232.023438 197.261719 232.023438 " fill-opacity="1" fill-rule="nonzero"/><path fill="#000000" d="M 45.273438 232.660156 C 43.859375 232.660156 42.628906 233.199219 41.804688 234.175781 C 40.960938 235.183594 40.636719 236.535156 40.890625 237.984375 L 59.167969 342.101562 C 59.703125 345.160156 62.625 347.644531 65.679688 347.644531 L 217.664062 347.644531 C 219.078125 347.644531 220.3125 347.105469 221.136719 346.125 C 221.980469 345.121094 222.304688 343.769531 222.050781 342.320312 L 203.777344 238.203125 C 203.238281 235.144531 200.3125 232.660156 197.261719 232.660156 Z M 217.664062 348.914062 L 65.679688 348.914062 C 62.039062 348.914062 58.554688 345.953125 57.917969 342.320312 L 39.644531 238.203125 C 39.320312 236.375 39.746094 234.660156 40.835938 233.363281 C 41.902344 232.089844 43.480469 231.390625 45.273438 231.390625 L 197.261719 231.390625 C 200.902344 231.390625 204.386719 234.347656 205.023438 237.984375 L 223.296875 342.101562 C 223.617188 343.925781 223.195312 345.644531 222.105469 346.941406 C 221.039062 348.210938 219.460938 348.914062 217.664062 348.914062 " fill-opacity="1" fill-rule="nonzero"/><path fill="#a6a6a6" d="M 193.511719 236.039062 L 49.875 236.039062 C 46.707031 236.039062 44.585938 238.570312 45.140625 241.6875 L 62.414062 338.613281 C 62.96875 341.734375 65.988281 344.265625 69.160156 344.265625 L 212.796875 344.265625 C 215.96875 344.265625 218.085938 341.734375 217.53125 338.613281 L 200.261719 241.6875 C 199.703125 238.570312 196.683594 236.039062 193.511719 236.039062 " fill-opacity="1" fill-rule="nonzero"/><path fill="#3a435e" d="M 252.871094 348.875 L 65.164062 348.875 C 62.664062 348.875 60.628906 350.820312 60.628906 353.320312 C 60.628906 355.816406 62.664062 357.761719 65.164062 357.761719 L 252.871094 357.761719 C 255.375 357.761719 257.40625 355.820312 257.40625 353.320312 C 257.40625 350.816406 255.375 348.875 252.871094 348.875 " fill-opacity="1" fill-rule="nonzero"/><path fill="#000000" d="M 65.164062 349.507812 C 62.976562 349.507812 61.261719 351.183594 61.261719 353.320312 C 61.261719 355.453125 62.976562 357.128906 65.164062 357.128906 L 252.871094 357.128906 C 255.058594 357.128906 256.773438 355.453125 256.773438 353.320312 C 256.773438 351.183594 255.058594 349.507812 252.871094 349.507812 Z M 252.871094 358.394531 L 65.164062 358.394531 C 62.265625 358.394531 59.992188 356.164062 59.992188 353.320312 C 59.992188 350.46875 62.265625 348.242188 65.164062 348.242188 L 252.871094 348.242188 C 255.769531 348.242188 258.039062 350.46875 258.039062 353.320312 C 258.039062 356.164062 255.769531 358.394531 252.871094 358.394531 " fill-opacity="1" fill-rule="nonzero"/><path fill="#caddff" d="M 157.761719 256.296875 L 64.039062 256.296875 C 61.378906 256.296875 58.964844 254.734375 58.640625 252.808594 C 58.316406 250.882812 60.210938 249.320312 62.867188 249.320312 L 156.59375 249.320312 C 159.25 249.320312 161.667969 250.882812 161.988281 252.808594 C 162.3125 254.734375 160.421875 256.296875 157.761719 256.296875 " fill-opacity="1" fill-rule="nonzero"/><path fill="#caddff" d="M 146.453125 271.316406 L 66.164062 271.316406 C 63.890625 271.316406 61.742188 269.757812 61.367188 267.832031 C 60.992188 265.902344 62.535156 264.34375 64.808594 264.34375 L 145.097656 264.34375 C 147.375 264.34375 149.523438 265.902344 149.898438 267.832031 C 150.273438 269.757812 148.730469 271.316406 146.453125 271.316406 " fill-opacity="1" fill-rule="nonzero"/><path fill="#caddff" d="M 168.453125 286.339844 L 69.726562 286.339844 C 66.925781 286.339844 64.410156 284.777344 64.105469 282.855469 C 63.800781 280.925781 65.824219 279.363281 68.625 279.363281 L 167.351562 279.363281 C 170.152344 279.363281 172.667969 280.925781 172.96875 282.855469 C 173.277344 284.777344 171.25 286.339844 168.453125 286.339844 " fill-opacity="1" fill-rule="nonzero"/><path fill="#000000" d="M 269.921875 358.730469 L 273.582031 358.945312 L 341.394531 358.730469 C 344.472656 358.730469 346.65625 356.714844 346.265625 354.226562 L 328.667969 241.613281 C 328.28125 239.128906 325.46875 237.113281 322.390625 237.113281 L 254.503906 236.46875 C 246.714844 236.46875 245.65625 239.128906 246.042969 241.613281 L 263.640625 354.226562 C 264.03125 356.714844 266.84375 358.730469 269.921875 358.730469 " fill-opacity="1" fill-rule="nonzero"/><path fill="#ffffff" d="M 274.222656 358.730469 L 345.691406 358.730469 C 348.769531 358.730469 350.953125 356.707031 350.566406 354.214844 L 332.96875 241.242188 C 332.578125 238.746094 329.769531 236.726562 326.6875 236.726562 L 255.21875 236.726562 C 252.136719 236.726562 249.953125 238.746094 250.34375 241.242188 L 267.941406 354.214844 C 268.328125 356.707031 271.140625 358.730469 274.222656 358.730469 " fill-opacity="1" fill-rule="nonzero"/><path fill="#000000" d="M 255.21875 237.355469 C 253.726562 237.355469 252.425781 237.878906 251.644531 238.789062 C 251.066406 239.460938 250.835938 240.273438 250.972656 241.144531 L 268.570312 354.117188 C 268.910156 356.3125 271.449219 358.097656 274.222656 358.097656 L 345.695312 358.097656 C 347.183594 358.097656 348.488281 357.574219 349.269531 356.664062 C 349.84375 355.992188 350.078125 355.179688 349.941406 354.308594 L 332.339844 241.339844 C 332 239.144531 329.464844 237.355469 326.6875 237.355469 Z M 345.695312 359.363281 L 274.222656 359.363281 C 270.847656 359.363281 267.753906 357.097656 267.316406 354.308594 L 249.71875 241.339844 C 249.527344 240.113281 249.871094 238.914062 250.683594 237.964844 C 251.699219 236.773438 253.355469 236.09375 255.21875 236.09375 L 326.6875 236.09375 C 330.0625 236.09375 333.160156 238.359375 333.59375 241.144531 L 351.195312 354.117188 C 351.386719 355.34375 351.042969 356.539062 350.230469 357.488281 C 349.210938 358.679688 347.554688 359.363281 345.695312 359.363281 " fill-opacity="1" fill-rule="nonzero"/><path fill="#a6a6a6" d="M 346.496094 354.371094 L 329.691406 246.5 C 329.597656 245.925781 328.953125 245.457031 328.238281 245.457031 L 256.386719 245.457031 C 255.675781 245.457031 255.171875 245.925781 255.261719 246.5 L 272.066406 354.371094 C 272.152344 354.945312 272.804688 355.414062 273.515625 355.414062 L 345.367188 355.414062 C 346.078125 355.414062 346.585938 354.945312 346.496094 354.371094 " fill-opacity="1" fill-rule="nonzero"/><path fill="#caddff" d="M 314.777344 259.574219 L 269.40625 259.574219 C 267.1875 259.574219 265.167969 258.269531 264.902344 256.660156 C 264.632812 255.050781 266.210938 253.746094 268.429688 253.746094 L 313.800781 253.746094 C 316.019531 253.746094 318.039062 255.050781 318.308594 256.660156 C 318.578125 258.269531 316.996094 259.574219 314.777344 259.574219 " fill-opacity="1" fill-rule="nonzero"/><path fill="#caddff" d="M 305.335938 272.117188 L 271.1875 272.117188 C 269.285156 272.117188 267.488281 270.816406 267.175781 269.207031 C 266.863281 267.597656 268.152344 266.292969 270.054688 266.292969 L 304.203125 266.292969 C 306.101562 266.292969 307.898438 267.597656 308.210938 269.207031 C 308.523438 270.816406 307.238281 272.117188 305.335938 272.117188 " fill-opacity="1" fill-rule="nonzero"/><path fill="#caddff" d="M 323.707031 284.664062 L 274.15625 284.664062 C 271.820312 284.664062 269.71875 283.363281 269.464844 281.753906 C 269.210938 280.144531 270.902344 278.839844 273.242188 278.839844 L 322.785156 278.839844 C 325.125 278.839844 327.226562 280.144531 327.480469 281.753906 C 327.734375 283.363281 326.042969 284.664062 323.707031 284.664062 " fill-opacity="1" fill-rule="nonzero"/><path fill="#000000" d="M 333.457031 362.261719 L 335.871094 362.4375 L 380.695312 362.261719 C 382.730469 362.261719 384.171875 360.617188 383.914062 358.589844 L 372.285156 266.777344 C 372.027344 264.75 370.167969 263.105469 368.132812 263.105469 L 323.269531 262.582031 C 318.113281 262.582031 317.417969 264.75 317.675781 266.777344 L 329.304688 358.589844 C 329.5625 360.617188 331.417969 362.261719 333.457031 362.261719 " fill-opacity="1" fill-rule="nonzero"/><path fill="#ffffff" d="M 336.300781 362.261719 L 383.539062 362.261719 C 385.574219 362.261719 387.015625 360.613281 386.757812 358.578125 L 375.128906 266.472656 C 374.871094 264.4375 373.011719 262.789062 370.976562 262.789062 L 323.738281 262.789062 C 321.703125 262.789062 320.257812 264.4375 320.515625 266.472656 L 332.148438 358.578125 C 332.40625 360.613281 334.265625 362.261719 336.300781 362.261719 " fill-opacity="1" fill-rule="nonzero"/><path fill="#000000" d="M 323.738281 263.421875 C 322.941406 263.421875 322.234375 263.726562 321.75 264.277344 C 321.257812 264.835938 321.042969 265.585938 321.144531 266.394531 L 332.777344 358.5 C 332.996094 360.222656 334.574219 361.625 336.300781 361.625 L 383.539062 361.625 C 384.332031 361.625 385.039062 361.324219 385.523438 360.773438 C 386.015625 360.214844 386.234375 359.464844 386.132812 358.65625 L 374.5 266.550781 C 374.277344 264.828125 372.703125 263.421875 370.976562 263.421875 Z M 383.539062 362.894531 L 336.300781 362.894531 C 333.957031 362.894531 331.816406 360.992188 331.519531 358.65625 L 319.886719 266.550781 C 319.738281 265.378906 320.0625 264.273438 320.800781 263.4375 C 321.53125 262.609375 322.574219 262.15625 323.738281 262.15625 L 370.976562 262.15625 C 373.316406 262.15625 375.460938 264.054688 375.753906 266.394531 L 387.386719 358.5 C 387.535156 359.671875 387.210938 360.777344 386.476562 361.613281 C 385.746094 362.441406 384.699219 362.894531 383.539062 362.894531 " fill-opacity="1" fill-rule="nonzero"/><path fill="#a6a6a6" d="M 384.066406 358.707031 L 372.960938 270.757812 C 372.898438 270.289062 372.472656 269.90625 372.003906 269.90625 L 324.511719 269.90625 C 324.042969 269.90625 323.707031 270.289062 323.765625 270.757812 L 334.875 358.707031 C 334.929688 359.175781 335.359375 359.554688 335.832031 359.554688 L 383.324219 359.554688 C 383.796875 359.554688 384.125 359.175781 384.066406 358.707031 " fill-opacity="1" fill-rule="nonzero"/><path fill="#caddff" d="M 347.949219 267.472656 C 348.710938 267.472656 349.253906 266.855469 349.15625 266.09375 C 349.058594 265.332031 348.363281 264.714844 347.601562 264.714844 C 346.839844 264.714844 346.296875 265.332031 346.394531 266.09375 C 346.488281 266.855469 347.1875 267.472656 347.949219 267.472656 " fill-opacity="1" fill-rule="nonzero"/><path fill="#caddff" d="M 362.511719 282.296875 L 333.75 282.296875 C 332.144531 282.296875 330.683594 281.355469 330.492188 280.191406 C 330.296875 279.027344 331.4375 278.085938 333.042969 278.085938 L 361.804688 278.085938 C 363.410156 278.085938 364.871094 279.027344 365.066406 280.191406 C 365.261719 281.355469 364.117188 282.296875 362.511719 282.296875 " fill-opacity="1" fill-rule="nonzero"/><path fill="#caddff" d="M 355.6875 291.367188 L 335.035156 291.367188 C 333.660156 291.367188 332.363281 290.421875 332.132812 289.257812 C 331.910156 288.097656 332.839844 287.15625 334.214844 287.15625 L 354.867188 287.15625 C 356.242188 287.15625 357.539062 288.097656 357.765625 289.257812 C 357.992188 290.421875 357.058594 291.367188 355.6875 291.367188 " fill-opacity="1" fill-rule="nonzero"/><path fill="#caddff" d="M 368.964844 300.433594 L 337.179688 300.433594 C 335.492188 300.433594 333.96875 299.492188 333.789062 298.328125 C 333.605469 297.167969 334.828125 296.222656 336.519531 296.222656 L 368.300781 296.222656 C 369.992188 296.222656 371.507812 297.167969 371.695312 298.328125 C 371.878906 299.492188 370.65625 300.433594 368.964844 300.433594 " fill-opacity="1" fill-rule="nonzero"/><path fill="#a6a6a6" d="M 378.796875 162.269531 C 378.796875 133.792969 367.121094 91.394531 310.902344 93.96875 C 314.070312 57.90625 283.304688 8.34375 216.273438 12.875 C 183.921875 15.0625 177.289062 40.417969 173.777344 39.152344 C 128.652344 22.839844 73.597656 61.199219 85.867188 119.1875 C 60.792969 121.949219 40.011719 142.742188 40.59375 170.832031 C 40.972656 189.078125 51.355469 203.113281 68.183594 203.113281 L 340.957031 203.113281 C 361.300781 203.113281 378.261719 185.6875 378.78125 163.640625 C 378.789062 163.183594 378.796875 162.726562 378.796875 162.269531 " fill-opacity="1" fill-rule="nonzero"/><path fill="#3a435e" d="M 386.710938 167.226562 C 386.710938 139.484375 370.25 85.046875 315.203125 87.554688 C 303.253906 32.851562 277.992188 16.851562 233.023438 16.445312 C 189.109375 16.046875 181.027344 48.1875 177.648438 46.796875 C 130.40625 27.371094 86.59375 71.316406 96.191406 122.308594 C 71.640625 125.003906 52.484375 147.375 52.484375 174.574219 C 52.484375 174.695312 52.488281 174.820312 52.488281 174.941406 C 52.601562 192.722656 66.105469 207.023438 82.585938 207.023438 L 349.664062 207.023438 C 369.578125 207.023438 386.1875 190.046875 386.695312 168.5625 C 386.707031 168.121094 386.710938 167.675781 386.710938 167.226562 " fill-opacity="1" fill-rule="nonzero"/><path fill="#ffffff" d="M 308.347656 198.71875 L 307.976562 181.429688 C 307.960938 180.601562 307.277344 179.949219 306.453125 179.960938 L 298.011719 180.121094 C 297.316406 180.132812 296.761719 180.710938 296.78125 181.402344 L 297.363281 206.171875 C 297.363281 208.347656 299.128906 210.113281 301.304688 210.113281 L 347.648438 210.113281 C 348.582031 210.113281 349.339844 210.867188 349.339844 211.800781 L 349.339844 229.113281 L 359.902344 229.113281 L 359.902344 202.996094 C 359.902344 201.558594 358.746094 200.390625 357.304688 200.382812 L 309.609375 199.988281 C 308.910156 199.984375 308.347656 199.417969 308.347656 198.71875 " fill-opacity="1" fill-rule="nonzero"/><path fill="#ffffff" d="M 345.605469 226.597656 L 363.292969 226.839844 C 363.882812 226.847656 364.21875 227.515625 363.871094 227.992188 L 354.476562 240.914062 C 354.175781 241.328125 353.550781 241.304688 353.277344 240.871094 L 344.984375 227.707031 C 344.675781 227.21875 345.03125 226.589844 345.605469 226.597656 " fill-opacity="1" fill-rule="nonzero"/><path fill="#ffffff" d="M 268.226562 214.902344 L 257.804688 214.902344 L 257.804688 181.886719 C 257.804688 181.507812 258.109375 181.199219 258.492188 181.199219 L 267.410156 181.199219 C 267.863281 181.199219 268.226562 181.5625 268.226562 182.015625 L 268.226562 214.902344 " fill-opacity="1" fill-rule="nonzero"/><path fill="#ffffff" d="M 254.347656 213.933594 L 272.039062 214.179688 C 272.628906 214.1875 272.960938 214.851562 272.617188 215.328125 L 263.222656 228.25 C 262.921875 228.664062 262.296875 228.644531 262.023438 228.210938 L 253.726562 215.042969 C 253.421875 214.558594 253.773438 213.925781 254.347656 213.933594 " fill-opacity="1" fill-rule="nonzero"/><path fill="#ffffff" d="M 175.910156 214.054688 L 165.488281 214.054688 L 165.488281 181.042969 C 165.488281 180.664062 165.792969 180.355469 166.175781 180.355469 L 175.097656 180.355469 C 175.546875 180.355469 175.910156 180.71875 175.910156 181.167969 L 175.910156 214.054688 " fill-opacity="1" fill-rule="nonzero"/><path fill="#ffffff" d="M 162.035156 213.089844 L 179.722656 213.335938 C 180.3125 213.34375 180.644531 214.007812 180.300781 214.484375 L 170.90625 227.40625 C 170.605469 227.820312 169.980469 227.800781 169.707031 227.367188 L 161.410156 214.203125 C 161.105469 213.714844 161.457031 213.082031 162.035156 213.089844 " fill-opacity="1" fill-rule="nonzero"/><path fill="#ffffff" d="M 175.234375 127.585938 C 167.207031 114.691406 171.164062 97.730469 184.070312 89.710938 C 196.980469 81.6875 213.949219 85.640625 221.976562 98.539062 C 230.007812 111.433594 226.050781 128.390625 213.144531 136.410156 C 200.234375 144.433594 183.265625 140.480469 175.234375 127.585938 Z M 223.277344 162.808594 L 232.359375 157.164062 L 228.523438 146.144531 C 230.390625 144.464844 232.097656 142.652344 233.625 140.722656 L 244.867188 143.816406 L 249.90625 134.394531 L 241.070312 126.765625 C 241.832031 124.402344 242.394531 121.980469 242.757812 119.527344 L 254.0625 116.585938 L 253.710938 105.90625 L 242.253906 103.71875 C 241.742188 101.3125 241.011719 98.933594 240.078125 96.601562 L 248.394531 88.410156 L 242.75 79.339844 L 231.71875 83.167969 C 230.035156 81.300781 228.222656 79.597656 226.289062 78.074219 L 229.386719 66.839844 L 219.957031 61.804688 L 212.320312 70.632812 C 209.957031 69.875 207.535156 69.308594 205.074219 68.945312 L 202.132812 57.652344 L 191.449219 58.003906 L 189.257812 69.449219 C 186.851562 69.964844 184.46875 70.691406 182.132812 71.625 L 173.933594 63.3125 L 164.855469 68.957031 L 168.691406 79.976562 C 166.820312 81.660156 165.117188 83.472656 163.589844 85.402344 L 152.347656 82.304688 L 147.308594 91.726562 L 156.144531 99.359375 C 155.382812 101.722656 154.816406 104.140625 154.457031 106.597656 L 143.152344 109.539062 L 143.503906 120.214844 L 154.960938 122.40625 C 155.476562 124.808594 156.203125 127.1875 157.132812 129.523438 L 148.820312 137.714844 L 154.464844 146.785156 L 165.496094 142.953125 C 167.179688 144.820312 168.992188 146.523438 170.925781 148.050781 L 167.824219 159.285156 L 177.253906 164.320312 L 184.890625 155.488281 C 187.253906 156.25 189.679688 156.8125 192.136719 157.175781 L 195.078125 168.46875 L 205.765625 168.117188 L 207.957031 156.671875 C 210.363281 156.160156 212.746094 155.429688 215.082031 154.496094 L 223.277344 162.808594 " fill-opacity="1" fill-rule="nonzero"/><path fill="#000000" d="M 199.75 81.066406 C 194.789062 81.066406 189.917969 82.445312 185.601562 85.128906 C 179.5 88.921875 175.246094 94.855469 173.613281 101.84375 C 171.984375 108.832031 173.175781 116.039062 176.96875 122.132812 C 184.800781 134.710938 201.414062 138.582031 214.003906 130.757812 C 226.59375 122.929688 230.464844 106.332031 222.632812 93.753906 C 218.839844 87.660156 212.898438 83.40625 205.902344 81.777344 C 203.859375 81.300781 201.796875 81.066406 199.75 81.066406 Z M 199.847656 136.070312 C 190.429688 136.070312 181.21875 131.363281 175.890625 122.800781 C 171.917969 116.417969 170.671875 108.875 172.378906 101.558594 C 174.085938 94.238281 178.542969 88.023438 184.929688 84.054688 C 191.316406 80.085938 198.867188 78.835938 206.191406 80.542969 C 213.515625 82.25 219.738281 86.703125 223.707031 93.085938 C 231.910156 106.253906 227.855469 123.640625 214.671875 131.832031 C 210.054688 134.699219 204.921875 136.066406 199.847656 136.070312 Z M 186.085938 149.734375 C 186.152344 149.734375 186.214844 149.746094 186.28125 149.765625 C 188.601562 150.515625 191.007812 151.074219 193.425781 151.429688 C 193.675781 151.46875 193.878906 151.652344 193.945312 151.898438 L 196.761719 162.699219 L 206.433594 162.382812 L 208.527344 151.4375 C 208.578125 151.1875 208.769531 150.988281 209.019531 150.9375 C 211.375 150.429688 213.734375 149.707031 216.042969 148.792969 C 216.277344 148.695312 216.546875 148.753906 216.726562 148.9375 L 224.570312 156.882812 L 232.785156 151.777344 L 229.121094 141.234375 C 229.035156 140.992188 229.105469 140.726562 229.292969 140.558594 C 231.136719 138.898438 232.824219 137.097656 234.320312 135.210938 C 234.480469 135.007812 234.742188 134.921875 234.988281 134.992188 L 245.742188 137.953125 L 250.304688 129.425781 L 241.851562 122.125 C 241.65625 121.957031 241.582031 121.691406 241.65625 121.449219 C 242.40625 119.128906 242.96875 116.730469 243.324219 114.316406 C 243.359375 114.0625 243.546875 113.859375 243.792969 113.792969 L 254.605469 110.980469 L 254.285156 101.316406 L 243.328125 99.222656 C 243.078125 99.175781 242.882812 98.980469 242.828125 98.734375 C 242.324219 96.378906 241.601562 94.015625 240.683594 91.71875 C 240.589844 91.480469 240.644531 91.210938 240.828125 91.03125 L 248.78125 83.195312 L 243.671875 74.984375 L 233.117188 78.652344 C 232.878906 78.734375 232.613281 78.664062 232.441406 78.476562 C 230.785156 76.632812 228.980469 74.945312 227.089844 73.449219 C 226.890625 73.292969 226.804688 73.03125 226.871094 72.785156 L 229.835938 62.039062 L 221.300781 57.484375 L 213.996094 65.929688 C 213.828125 66.121094 213.5625 66.195312 213.320312 66.117188 C 210.996094 65.367188 208.59375 64.808594 206.179688 64.457031 C 205.925781 64.417969 205.722656 64.234375 205.65625 63.988281 L 202.84375 53.183594 L 193.167969 53.503906 L 191.074219 64.449219 C 191.027344 64.699219 190.832031 64.898438 190.582031 64.953125 C 188.230469 65.453125 185.863281 66.175781 183.5625 67.09375 C 183.324219 67.1875 183.054688 67.128906 182.875 66.949219 L 175.03125 59.003906 L 166.8125 64.109375 L 170.484375 74.652344 C 170.566406 74.890625 170.5 75.160156 170.308594 75.328125 C 168.464844 76.988281 166.773438 78.789062 165.28125 80.675781 C 165.121094 80.875 164.859375 80.960938 164.617188 80.894531 L 153.859375 77.933594 L 149.300781 86.460938 L 157.753906 93.761719 C 157.945312 93.925781 158.019531 94.191406 157.941406 94.433594 C 157.191406 96.753906 156.632812 99.15625 156.277344 101.570312 C 156.238281 101.820312 156.054688 102.027344 155.808594 102.089844 L 144.996094 104.90625 L 145.316406 114.566406 L 156.273438 116.664062 C 156.523438 116.710938 156.71875 116.902344 156.773438 117.152344 C 157.277344 119.503906 158 121.867188 158.917969 124.167969 C 159.011719 124.40625 158.953125 124.675781 158.773438 124.855469 L 150.820312 132.6875 L 155.929688 140.902344 L 166.480469 137.238281 C 166.722656 137.152344 166.988281 137.21875 167.160156 137.410156 C 168.820312 139.25 170.621094 140.941406 172.511719 142.433594 C 172.710938 142.59375 172.796875 142.851562 172.730469 143.097656 L 169.765625 153.84375 L 178.300781 158.40625 L 185.605469 149.957031 C 185.726562 149.8125 185.90625 149.734375 186.085938 149.734375 Z M 196.273438 163.984375 C 195.988281 163.984375 195.734375 163.789062 195.660156 163.507812 L 192.824219 152.621094 C 190.617188 152.277344 188.421875 151.765625 186.292969 151.097656 L 178.929688 159.613281 C 178.734375 159.835938 178.410156 159.898438 178.152344 159.757812 L 168.722656 154.722656 C 168.460938 154.585938 168.332031 154.28125 168.410156 153.996094 L 171.394531 143.164062 C 169.679688 141.777344 168.035156 140.238281 166.5 138.570312 L 155.867188 142.265625 C 155.589844 142.359375 155.277344 142.253906 155.121094 142 L 149.476562 132.929688 C 149.316406 132.679688 149.355469 132.351562 149.566406 132.144531 L 157.585938 124.246094 C 156.765625 122.136719 156.105469 119.980469 155.625 117.828125 L 144.578125 115.71875 C 144.289062 115.660156 144.074219 115.410156 144.066406 115.117188 L 143.714844 104.4375 C 143.703125 104.144531 143.902344 103.878906 144.1875 103.808594 L 155.085938 100.96875 C 155.429688 98.765625 155.941406 96.574219 156.609375 94.445312 L 148.085938 87.085938 C 147.863281 86.894531 147.800781 86.570312 147.941406 86.308594 L 152.980469 76.886719 C 153.121094 76.628906 153.421875 76.5 153.707031 76.578125 L 164.546875 79.5625 C 165.9375 77.84375 167.480469 76.199219 169.148438 74.671875 L 165.449219 64.046875 C 165.355469 63.765625 165.464844 63.457031 165.714844 63.300781 L 174.792969 57.65625 C 175.042969 57.5 175.371094 57.539062 175.578125 57.753906 L 183.484375 65.761719 C 185.59375 64.945312 187.753906 64.285156 189.90625 63.800781 L 192.019531 52.765625 C 192.074219 52.476562 192.324219 52.261719 192.621094 52.253906 L 203.304688 51.902344 C 203.605469 51.886719 203.867188 52.089844 203.941406 52.375 L 206.777344 63.265625 C 208.984375 63.609375 211.175781 64.121094 213.308594 64.785156 L 220.671875 56.273438 C 220.867188 56.046875 221.191406 55.988281 221.453125 56.125 L 230.878906 61.160156 C 231.140625 61.300781 231.273438 61.601562 231.191406 61.890625 L 228.207031 72.71875 C 229.925781 74.109375 231.570312 75.648438 233.097656 77.316406 L 243.734375 73.621094 C 244.015625 73.527344 244.324219 73.632812 244.480469 73.882812 L 250.128906 82.957031 C 250.285156 83.207031 250.246094 83.535156 250.03125 83.742188 L 242.015625 91.640625 C 242.835938 93.746094 243.496094 95.902344 243.976562 98.054688 L 255.023438 100.167969 C 255.316406 100.222656 255.527344 100.472656 255.535156 100.769531 L 255.886719 111.445312 C 255.898438 111.742188 255.703125 112.003906 255.414062 112.082031 L 244.515625 114.914062 C 244.171875 117.117188 243.660156 119.308594 242.992188 121.4375 L 251.515625 128.796875 C 251.738281 128.992188 251.800781 129.3125 251.660156 129.574219 L 246.621094 139 C 246.480469 139.257812 246.179688 139.386719 245.894531 139.308594 L 235.054688 136.324219 C 233.667969 138.042969 232.121094 139.683594 230.453125 141.214844 L 234.152344 151.839844 C 234.246094 152.117188 234.140625 152.425781 233.886719 152.582031 L 224.808594 158.226562 C 224.558594 158.382812 224.234375 158.34375 224.023438 158.132812 L 216.117188 150.125 C 214.007812 150.941406 211.847656 151.597656 209.695312 152.082031 L 207.582031 163.121094 C 207.527344 163.410156 207.277344 163.621094 206.980469 163.632812 L 196.296875 163.984375 C 196.289062 163.984375 196.28125 163.984375 196.273438 163.984375 " fill-opacity="1" fill-rule="nonzero"/><path fill="#ffffff" d="M 267.550781 79.039062 C 263.960938 73.28125 265.730469 65.703125 271.492188 62.121094 C 277.257812 58.539062 284.839844 60.304688 288.425781 66.066406 C 292.007812 71.824219 290.242188 79.398438 284.476562 82.980469 C 278.714844 86.5625 271.136719 84.796875 267.550781 79.039062 Z M 289.003906 94.765625 L 293.0625 92.246094 L 291.347656 87.328125 C 292.183594 86.574219 292.945312 85.765625 293.625 84.90625 L 298.648438 86.289062 L 300.898438 82.078125 L 296.949219 78.671875 C 297.292969 77.617188 297.542969 76.535156 297.703125 75.4375 L 302.753906 74.125 L 302.59375 69.355469 L 297.480469 68.378906 C 297.25 67.304688 296.925781 66.242188 296.507812 65.199219 L 300.222656 61.539062 L 297.699219 57.488281 L 292.773438 59.199219 C 292.023438 58.367188 291.210938 57.605469 290.351562 56.925781 L 291.734375 51.90625 L 287.519531 49.65625 L 284.109375 53.601562 C 283.054688 53.261719 281.972656 53.007812 280.878906 52.847656 L 279.5625 47.804688 L 274.789062 47.960938 L 273.8125 53.074219 C 272.734375 53.304688 271.671875 53.628906 270.628906 54.042969 L 266.96875 50.335938 L 262.914062 52.855469 L 264.625 57.773438 C 263.789062 58.527344 263.027344 59.335938 262.347656 60.199219 L 257.324219 58.816406 L 255.074219 63.023438 L 259.019531 66.429688 C 258.679688 67.484375 258.429688 68.566406 258.269531 69.664062 L 253.21875 70.976562 L 253.375 75.746094 L 258.492188 76.722656 C 258.722656 77.796875 259.046875 78.859375 259.464844 79.902344 L 255.75 83.558594 L 258.273438 87.613281 L 263.195312 85.902344 C 263.949219 86.734375 264.761719 87.496094 265.625 88.179688 L 264.238281 93.195312 L 268.449219 95.445312 L 271.863281 91.5 C 272.917969 91.839844 273.996094 92.09375 275.097656 92.253906 L 276.410156 97.296875 L 281.183594 97.140625 L 282.164062 92.027344 C 283.234375 91.796875 284.300781 91.472656 285.34375 91.054688 L 289.003906 94.765625 " fill-opacity="1" fill-rule="nonzero"/><path fill="#caddff" d="M 268.082031 76.753906 C 264.496094 70.992188 266.261719 63.417969 272.023438 59.839844 C 277.789062 56.253906 285.371094 58.019531 288.957031 63.78125 C 292.539062 69.539062 290.773438 77.113281 285.011719 80.695312 C 279.246094 84.277344 271.664062 82.515625 268.082031 76.753906 Z M 289.535156 92.484375 L 293.59375 89.964844 L 291.878906 85.042969 C 292.714844 84.292969 293.476562 83.480469 294.15625 82.617188 L 299.179688 84.003906 L 301.429688 79.792969 L 297.480469 76.386719 C 297.824219 75.332031 298.074219 74.25 298.234375 73.152344 L 303.285156 71.839844 L 303.125 67.074219 L 298.011719 66.09375 C 297.78125 65.019531 297.457031 63.957031 297.039062 62.914062 L 300.753906 59.257812 L 298.230469 55.203125 L 293.304688 56.917969 C 292.554688 56.082031 291.742188 55.324219 290.882812 54.640625 L 292.265625 49.621094 L 288.054688 47.375 L 284.644531 51.316406 C 283.585938 50.976562 282.503906 50.726562 281.40625 50.566406 L 280.09375 45.519531 L 275.320312 45.679688 L 274.34375 50.789062 C 273.265625 51.019531 272.203125 51.34375 271.160156 51.761719 L 267.5 48.046875 L 263.445312 50.570312 L 265.15625 55.492188 C 264.324219 56.242188 263.5625 57.050781 262.878906 57.914062 L 257.855469 56.53125 L 255.605469 60.738281 L 259.554688 64.144531 C 259.210938 65.203125 258.960938 66.28125 258.800781 67.378906 L 253.75 68.691406 L 253.910156 73.460938 L 259.023438 74.441406 C 259.253906 75.515625 259.578125 76.578125 259.996094 77.617188 L 256.28125 81.277344 L 258.804688 85.328125 L 263.730469 83.617188 C 264.480469 84.449219 265.292969 85.210938 266.15625 85.894531 L 264.769531 90.910156 L 268.984375 93.160156 L 272.394531 89.214844 C 273.449219 89.554688 274.53125 89.808594 275.628906 89.96875 L 276.941406 95.011719 L 281.714844 94.855469 L 282.695312 89.742188 C 283.769531 89.511719 284.832031 89.191406 285.875 88.773438 L 289.535156 92.484375 " fill-opacity="1" fill-rule="nonzero"/><path fill="#ffffff" d="M 114.292969 273.851562 C 112.828125 269.027344 113.074219 265.980469 114.40625 262.804688 L 116.640625 258.359375 L 109.917969 255.664062 L 107.855469 260.726562 C 107.191406 262.355469 106.230469 263.847656 105.023438 265.128906 L 103.910156 266.308594 L 114.292969 273.851562 " fill-opacity="1" fill-rule="nonzero"/><path fill="#000000" d="M 104.867188 266.21875 L 113.207031 272.28125 C 112.308594 268.535156 112.507812 265.691406 113.820312 262.5625 C 113.824219 262.546875 113.832031 262.535156 113.839844 262.523438 L 115.765625 258.691406 L 110.265625 256.488281 L 108.441406 260.964844 C 107.746094 262.671875 106.75 264.222656 105.484375 265.566406 Z M 114.292969 274.484375 C 114.160156 274.484375 114.03125 274.445312 113.917969 274.367188 L 103.539062 266.816406 C 103.390625 266.710938 103.296875 266.546875 103.28125 266.363281 C 103.265625 266.183594 103.324219 266.003906 103.449219 265.871094 L 104.5625 264.695312 C 105.722656 263.464844 106.632812 262.050781 107.269531 260.488281 L 109.328125 255.429688 C 109.460938 255.105469 109.828125 254.949219 110.152344 255.078125 L 116.875 257.773438 C 117.042969 257.839844 117.171875 257.972656 117.234375 258.136719 C 117.296875 258.304688 117.285156 258.488281 117.207031 258.648438 L 114.980469 263.070312 C 113.835938 265.816406 113.382812 268.675781 114.898438 273.667969 C 114.976562 273.929688 114.882812 274.210938 114.660156 274.371094 C 114.550781 274.449219 114.421875 274.484375 114.292969 274.484375 " fill-opacity="1" fill-rule="nonzero"/><path fill="#ffffff" d="M 106.953125 263.835938 C 106.785156 263.3125 106.097656 263.1875 105.71875 263.585938 C 104.65625 264.714844 102.792969 266.609375 101.378906 267.585938 C 100.0625 268.492188 99.652344 270.25 100.398438 271.65625 C 102.507812 275.628906 107.847656 284.25 113.476562 290.828125 C 113.863281 291.28125 114.820312 291.882812 116.195312 291.261719 C 120.824219 289.183594 116.425781 279.785156 113.914062 270 C 113.816406 269.613281 113.503906 269.320312 113.113281 269.25 L 111.71875 268.992188 C 109.132812 268.476562 108.050781 267.261719 106.953125 263.835938 " fill-opacity="1" fill-rule="nonzero"/><path fill="#000000" d="M 106.265625 263.984375 C 106.242188 263.984375 106.210938 263.992188 106.183594 264.019531 C 104.929688 265.347656 103.144531 267.136719 101.742188 268.105469 C 100.695312 268.828125 100.359375 270.226562 100.957031 271.359375 C 103.132812 275.453125 108.390625 283.910156 113.957031 290.417969 C 114.078125 290.558594 114.734375 291.226562 115.9375 290.6875 C 119.003906 289.308594 117.234375 283.476562 115.1875 276.726562 C 114.542969 274.597656 113.875 272.398438 113.300781 270.15625 C 113.261719 270.011719 113.144531 269.898438 113 269.871094 L 111.601562 269.613281 C 108.796875 269.054688 107.523438 267.699219 106.351562 264.027344 C 106.347656 264.019531 106.339844 263.996094 106.296875 263.988281 C 106.289062 263.984375 106.28125 263.984375 106.265625 263.984375 Z M 115.054688 292.160156 C 114.136719 292.160156 113.414062 291.730469 112.996094 291.242188 C 107.359375 284.65625 102.039062 276.097656 99.839844 271.953125 C 98.9375 270.253906 99.445312 268.152344 101.019531 267.0625 C 102.402344 266.109375 104.269531 264.203125 105.257812 263.152344 C 105.59375 262.796875 106.097656 262.644531 106.574219 262.75 C 107.046875 262.859375 107.414062 263.191406 107.558594 263.644531 C 108.597656 266.890625 109.515625 267.90625 111.839844 268.371094 L 113.230469 268.625 C 113.859375 268.742188 114.367188 269.21875 114.527344 269.839844 C 115.097656 272.058594 115.757812 274.242188 116.402344 276.355469 C 118.621094 283.679688 120.539062 290.007812 116.457031 291.839844 C 115.957031 292.066406 115.484375 292.160156 115.054688 292.160156 " fill-opacity="1" fill-rule="nonzero"/><path fill="#ffffff" d="M 101.699219 267.367188 C 101.699219 267.367188 101.484375 267.515625 101.378906 267.585938 C 100.0625 268.492188 99.652344 270.25 100.398438 271.65625 C 102.507812 275.628906 107.847656 284.25 113.476562 290.828125 C 113.863281 291.28125 114.820312 291.882812 116.195312 291.261719 C 116.621094 291.074219 117.257812 290.554688 117.257812 290.554688 L 116.878906 290.074219 C 111.488281 283.214844 106.609375 275.96875 102.28125 268.394531 L 101.699219 267.367188 " fill-opacity="1" fill-rule="nonzero"/><path fill="#000000" d="M 101.496094 268.296875 C 100.644531 269.058594 100.40625 270.320312 100.957031 271.359375 C 103.132812 275.453125 108.390625 283.910156 113.957031 290.417969 C 114.078125 290.558594 114.734375 291.226562 115.9375 290.6875 C 116.050781 290.632812 116.203125 290.539062 116.355469 290.433594 C 110.972656 283.585938 106.054688 276.273438 101.734375 268.707031 Z M 115.054688 292.160156 C 114.136719 292.160156 113.414062 291.730469 112.996094 291.242188 C 107.359375 284.65625 102.039062 276.097656 99.839844 271.953125 C 98.9375 270.253906 99.445312 268.152344 101.019531 267.0625 L 101.339844 266.84375 C 101.488281 266.746094 101.667969 266.710938 101.839844 266.75 C 102.011719 266.792969 102.160156 266.902344 102.246094 267.054688 L 102.832031 268.078125 C 107.128906 275.605469 112.023438 282.871094 117.375 289.679688 L 117.753906 290.164062 C 117.96875 290.4375 117.925781 290.828125 117.65625 291.046875 C 117.585938 291.105469 116.941406 291.625 116.457031 291.839844 C 115.957031 292.066406 115.484375 292.160156 115.054688 292.160156 " fill-opacity="1" fill-rule="nonzero"/><path fill="#000000" d="M 115.832031 277.949219 C 115.796875 277.949219 115.761719 277.945312 115.726562 277.941406 L 111.089844 277.164062 C 110.746094 277.105469 110.511719 276.777344 110.570312 276.433594 C 110.628906 276.089844 110.957031 275.859375 111.300781 275.914062 L 115.9375 276.691406 C 116.28125 276.75 116.515625 277.074219 116.457031 277.421875 C 116.402344 277.730469 116.136719 277.949219 115.832031 277.949219 " fill-opacity="1" fill-rule="nonzero"/><path fill="#000000" d="M 116.582031 280.585938 C 116.550781 280.585938 116.519531 280.585938 116.488281 280.582031 L 112.703125 280.019531 C 112.355469 279.96875 112.117188 279.648438 112.167969 279.300781 C 112.21875 278.953125 112.542969 278.710938 112.886719 278.765625 L 116.675781 279.328125 C 117.023438 279.378906 117.261719 279.703125 117.210938 280.046875 C 117.164062 280.363281 116.890625 280.585938 116.582031 280.585938 " fill-opacity="1" fill-rule="nonzero"/><path fill="#000000" d="M 76.40625 203.773438 C 76.40625 203.773438 123.074219 193.550781 137.296875 201.644531 C 139.441406 202.863281 141.472656 205.421875 141.921875 207.84375 C 143.289062 215.222656 139.175781 231.296875 116.691406 261.519531 C 116.375 261.945312 115.808594 262.113281 115.3125 261.925781 L 108.179688 259.21875 C 107.601562 259 107.285156 258.375 107.457031 257.78125 L 116.980469 224.476562 C 117.226562 223.609375 116.507812 222.769531 115.613281 222.878906 L 71.140625 228.34375 L 76.40625 203.773438 " fill-opacity="1" fill-rule="nonzero"/><path fill="#ffffff" d="M 90.1875 291.585938 L 91.101562 295.925781 C 92.324219 302.246094 87.703125 305.480469 87.703125 305.480469 L 101.371094 307.140625 C 101.371094 307.140625 98.386719 305.332031 98.992188 296.550781 L 99.773438 289.207031 L 90.1875 291.585938 " fill-opacity="1" fill-rule="nonzero"/><path fill="#000000" d="M 89.164062 305.019531 L 99.855469 306.320312 C 98.972656 304.847656 97.984375 301.941406 98.363281 296.507812 L 99.050781 290.039062 L 90.933594 292.054688 L 91.722656 295.796875 C 92.628906 300.488281 90.542969 303.5625 89.164062 305.019531 Z M 101.367188 307.777344 C 101.34375 307.777344 101.320312 307.773438 101.292969 307.769531 L 87.625 306.109375 C 87.367188 306.078125 87.152344 305.890625 87.089844 305.632812 C 87.023438 305.378906 87.125 305.113281 87.339844 304.960938 C 87.511719 304.839844 91.605469 301.867188 90.480469 296.046875 L 89.566406 291.71875 C 89.496094 291.382812 89.703125 291.054688 90.035156 290.972656 L 99.621094 288.59375 C 99.824219 288.542969 100.035156 288.59375 100.191406 288.730469 C 100.347656 288.867188 100.425781 289.070312 100.40625 289.273438 L 99.625 296.617188 C 99.0625 304.753906 101.683594 306.589844 101.707031 306.609375 C 101.953125 306.769531 102.058594 307.082031 101.957031 307.359375 C 101.867188 307.609375 101.628906 307.777344 101.367188 307.777344 " fill-opacity="1" fill-rule="nonzero"/><path fill="#ffffff" d="M 89.902344 299.636719 C 88.777344 300.933594 86.734375 303.367188 85.167969 305.722656 C 84.183594 307.199219 84.773438 308.902344 85.828125 310.320312 C 87.980469 313.210938 90.933594 315.433594 94.402344 317.71875 C 97.433594 319.71875 100.820312 321.824219 104.894531 323.6875 C 106.003906 324.195312 108.496094 324.886719 110.167969 324.054688 C 115.207031 321.542969 106.804688 313.679688 100.195312 304.621094 C 99.9375 304.265625 99.496094 304.089844 99.066406 304.175781 L 97.519531 304.484375 C 95.972656 304.792969 94.394531 304.144531 93.519531 302.832031 L 91.4375 299.726562 C 91.082031 299.199219 90.324219 299.15625 89.902344 299.636719 " fill-opacity="1" fill-rule="nonzero"/><path fill="#000000" d="M 90.382812 300.054688 C 89.300781 301.296875 87.253906 303.734375 85.695312 306.074219 C 84.820312 307.386719 85.5625 308.902344 86.335938 309.941406 C 88.402344 312.71875 91.195312 314.847656 94.75 317.191406 C 97.59375 319.066406 101.054688 321.238281 105.160156 323.113281 C 106.308594 323.636719 108.515625 324.171875 109.882812 323.488281 C 110.53125 323.164062 110.90625 322.746094 111.023438 322.207031 C 111.515625 319.980469 108.046875 315.640625 104.375 311.046875 C 102.824219 309.105469 101.21875 307.097656 99.683594 304.992188 C 99.570312 304.839844 99.375 304.757812 99.1875 304.796875 L 97.644531 305.105469 C 95.839844 305.464844 94.011719 304.710938 92.992188 303.1875 L 90.910156 300.082031 C 90.832031 299.964844 90.71875 299.941406 90.660156 299.9375 C 90.597656 299.933594 90.480469 299.941406 90.382812 300.054688 Z M 108.292969 325.070312 C 106.851562 325.070312 105.40625 324.617188 104.632812 324.265625 C 100.449219 322.351562 96.9375 320.148438 94.050781 318.25 C 90.878906 316.15625 87.625 313.792969 85.320312 310.699219 C 83.878906 308.765625 83.640625 306.875 84.640625 305.371094 C 86.238281 302.976562 88.324219 300.492188 89.425781 299.222656 C 89.757812 298.839844 90.242188 298.636719 90.738281 298.671875 C 91.238281 298.703125 91.6875 298.960938 91.964844 299.378906 L 94.042969 302.484375 C 94.78125 303.578125 96.097656 304.121094 97.394531 303.863281 L 98.941406 303.554688 C 99.613281 303.421875 100.304688 303.695312 100.710938 304.25 C 102.226562 306.328125 103.824219 308.324219 105.367188 310.257812 C 109.566406 315.511719 112.882812 319.664062 112.261719 322.480469 C 112.058594 323.402344 111.449219 324.125 110.449219 324.621094 C 109.796875 324.949219 109.046875 325.070312 108.292969 325.070312 " fill-opacity="1" fill-rule="nonzero"/><path fill="#ffffff" d="M 85.980469 304.628906 C 85.980469 304.628906 85.246094 305.605469 85.167969 305.722656 C 84.921875 306.089844 84.777344 306.523438 84.695312 306.964844 C 84.4375 308.386719 84.933594 309.84375 85.933594 310.890625 C 86.175781 311.144531 86.503906 311.46875 86.886719 311.828125 C 90.851562 315.601562 95.308594 318.8125 100.109375 321.433594 C 102.546875 322.765625 107.957031 325.5 110.167969 324.054688 C 110.847656 323.609375 111.265625 322.25 111.265625 322.25 C 111.265625 322.25 109.976562 323.027344 106.085938 321.097656 C 99.519531 317.832031 95.070312 314.171875 89.648438 309.796875 C 88.582031 308.933594 87.847656 308.144531 87.085938 307.207031 C 86.488281 306.464844 86.101562 305.574219 85.980469 304.628906 " fill-opacity="1" fill-rule="nonzero"/><path fill="#000000" d="M 85.699219 306.066406 C 85.699219 306.070312 85.695312 306.070312 85.695312 306.074219 C 85.519531 306.335938 85.394531 306.675781 85.320312 307.078125 C 85.105469 308.265625 85.507812 309.527344 86.390625 310.453125 C 86.609375 310.683594 86.921875 310.992188 87.320312 311.371094 C 91.191406 315.050781 95.597656 318.25 100.414062 320.882812 C 107.03125 324.492188 109.195312 323.933594 109.820312 323.527344 C 109.957031 323.4375 110.097656 323.253906 110.226562 323.039062 C 109.316406 323.007812 107.898438 322.703125 105.804688 321.664062 C 99.386719 318.476562 94.929688 314.878906 89.769531 310.710938 L 89.25 310.289062 C 88.257812 309.488281 87.488281 308.710938 86.59375 307.605469 C 86.214844 307.136719 85.914062 306.617188 85.699219 306.066406 Z M 108.519531 325.09375 C 106.503906 325.09375 103.589844 324.054688 99.808594 321.992188 C 94.890625 319.308594 90.398438 316.042969 86.449219 312.289062 C 86.027344 311.890625 85.710938 311.574219 85.472656 311.328125 C 84.308594 310.109375 83.785156 308.4375 84.074219 306.851562 C 84.175781 306.277344 84.367188 305.78125 84.640625 305.371094 C 84.71875 305.25 85.296875 304.480469 85.472656 304.246094 C 85.628906 304.039062 85.894531 303.945312 86.140625 304.015625 C 86.390625 304.082031 86.574219 304.289062 86.609375 304.542969 C 86.714844 305.371094 87.050781 306.15625 87.578125 306.808594 C 88.414062 307.839844 89.128906 308.5625 90.046875 309.300781 L 90.566406 309.726562 C 95.667969 313.84375 100.074219 317.402344 106.371094 320.527344 C 109.757812 322.210938 110.957031 321.699219 110.972656 321.691406 C 111.195312 321.558594 111.464844 321.582031 111.671875 321.746094 C 111.878906 321.90625 111.949219 322.1875 111.871094 322.4375 C 111.792969 322.703125 111.34375 324.042969 110.511719 324.585938 C 109.996094 324.925781 109.332031 325.09375 108.519531 325.09375 " fill-opacity="1" fill-rule="nonzero"/><path fill="#000000" d="M 98.964844 311.5625 C 98.671875 311.5625 98.410156 311.359375 98.34375 311.0625 C 98.269531 310.71875 98.488281 310.382812 98.832031 310.308594 L 103.929688 309.207031 C 104.269531 309.132812 104.609375 309.351562 104.683594 309.695312 C 104.753906 310.039062 104.539062 310.375 104.195312 310.449219 L 99.097656 311.546875 C 99.050781 311.558594 99.007812 311.5625 98.964844 311.5625 " fill-opacity="1" fill-rule="nonzero"/><path fill="#000000" d="M 101.785156 313.847656 C 101.496094 313.847656 101.234375 313.652344 101.167969 313.359375 C 101.085938 313.019531 101.296875 312.679688 101.636719 312.597656 L 105.773438 311.625 C 106.113281 311.542969 106.457031 311.753906 106.535156 312.09375 C 106.617188 312.433594 106.40625 312.777344 106.066406 312.855469 L 101.929688 313.832031 C 101.882812 313.839844 101.832031 313.847656 101.785156 313.847656 " fill-opacity="1" fill-rule="nonzero"/><path fill="#000000" d="M 106.601562 217.109375 C 93.003906 205.488281 49.25 205.121094 49.25 205.121094 C 49.25 205.121094 43.785156 211.632812 46.394531 224.730469 C 47.253906 229.050781 50.3125 232.925781 55.140625 232.925781 L 81.984375 233.152344 C 83.953125 233.167969 85.511719 234.804688 85.4375 236.769531 C 84.9375 249.734375 84.492188 276.539062 88.203125 294.804688 C 88.355469 295.542969 88.910156 296.132812 89.640625 296.328125 C 91.355469 296.792969 94.714844 297.546875 98.359375 297.496094 C 99.496094 297.480469 100.445312 296.625 100.597656 295.503906 L 109.5 229.082031 C 109.765625 227.078125 109.773438 225.046875 109.4375 223.054688 C 109.082031 220.925781 108.292969 218.550781 106.601562 217.109375 " fill-opacity="1" fill-rule="nonzero"/><path fill="#caddff" d="M 110.246094 225.488281 C 109.902344 225.488281 109.621094 225.214844 109.613281 224.871094 C 109.324219 214.808594 96.046875 211.859375 95.914062 211.828125 C 95.570312 211.757812 95.351562 211.421875 95.425781 211.078125 C 95.496094 210.738281 95.835938 210.519531 96.175781 210.589844 C 96.320312 210.621094 110.5625 213.773438 110.878906 224.835938 C 110.890625 225.183594 110.613281 225.476562 110.261719 225.488281 C 110.257812 225.488281 110.25 225.488281 110.246094 225.488281 " fill-opacity="1" fill-rule="nonzero"/><path fill="#ffffff" d="M 127.039062 178.078125 C 126.949219 176.546875 126.464844 174.910156 127.257812 173.664062 L 128.855469 171.550781 C 130.019531 169.742188 129.894531 167.363281 129.164062 165.410156 L 127.074219 160.351562 C 126.871094 159.785156 126.058594 161.0625 125.894531 161.644531 L 120.183594 181.902344 C 119.230469 184.835938 115.980469 185.089844 114.152344 183.84375 L 106.632812 178.707031 L 97.734375 191.070312 C 97.734375 191.070312 106.382812 197.175781 117.480469 199.132812 C 119.992188 199.578125 128.269531 199.328125 127.039062 178.078125 " fill-opacity="1" fill-rule="nonzero"/><path fill="#000000" d="M 126.488281 160.59375 C 126.488281 160.597656 126.488281 160.601562 126.492188 160.605469 Z M 98.628906 190.90625 C 100.664062 192.230469 108.304688 196.875 117.59375 198.511719 C 118.609375 198.691406 120.585938 198.746094 122.433594 197.105469 C 124.632812 195.152344 127.109375 190.269531 126.40625 178.117188 C 126.386719 177.769531 126.34375 177.417969 126.300781 177.050781 C 126.152344 175.777344 126 174.464844 126.722656 173.324219 C 126.730469 173.3125 126.742188 173.296875 126.75 173.28125 L 128.332031 171.1875 C 129.246094 169.757812 129.335938 167.679688 128.570312 165.628906 L 126.765625 161.265625 C 126.652344 161.457031 126.550781 161.667969 126.503906 161.816406 L 120.796875 182.074219 C 120.335938 183.484375 119.371094 184.492188 118.0625 184.9375 C 116.671875 185.410156 115 185.1875 113.796875 184.363281 L 106.785156 179.578125 Z M 118.558594 199.859375 C 118.066406 199.859375 117.65625 199.808594 117.371094 199.757812 C 106.261719 197.800781 97.453125 191.648438 97.367188 191.585938 C 97.226562 191.488281 97.136719 191.339844 97.105469 191.171875 C 97.078125 191.007812 97.117188 190.835938 97.21875 190.699219 L 106.117188 178.339844 C 106.316406 178.058594 106.703125 177.992188 106.988281 178.183594 L 114.511719 183.320312 C 115.394531 183.921875 116.628906 184.085938 117.652344 183.738281 C 118.304688 183.515625 119.167969 182.984375 119.582031 181.707031 L 125.285156 161.472656 C 125.292969 161.453125 125.929688 159.609375 126.894531 159.578125 C 127.164062 159.589844 127.519531 159.714844 127.671875 160.140625 L 129.75 165.167969 C 130.667969 167.621094 130.527344 170.125 129.386719 171.894531 C 129.378906 171.90625 129.367188 171.921875 129.359375 171.929688 L 127.78125 174.023438 C 127.3125 174.78125 127.433594 175.8125 127.5625 176.902344 C 127.605469 177.273438 127.648438 177.660156 127.671875 178.042969 C 128.261719 188.207031 126.78125 194.9375 123.273438 198.054688 C 121.605469 199.535156 119.8125 199.859375 118.558594 199.859375 " fill-opacity="1" fill-rule="nonzero"/><path fill="#ffffff" d="M 109.195312 177.386719 L 108.792969 177.082031 C 106.628906 175.453125 104.363281 173.90625 102.011719 172.558594 L 99.921875 171.429688 C 97.921875 170.273438 67.058594 152.726562 56.179688 163.167969 C 49.570312 169.511719 53.359375 183.714844 50.726562 190.648438 C 46.9375 200.636719 46.21875 204.289062 45.234375 208.226562 C 44.933594 209.417969 45.757812 210.59375 46.984375 210.726562 C 50.734375 211.136719 58.679688 211.695312 67.429688 210.433594 C 79.566406 208.683594 79.109375 207.75 79.109375 207.75 L 80.417969 202.925781 C 82.5625 197.132812 85.300781 191.589844 88.578125 186.378906 L 99.449219 192.777344 L 109.195312 177.386719 " fill-opacity="1" fill-rule="nonzero"/><path fill="#000000" d="M 78.496094 207.90625 C 78.507812 207.949219 78.519531 207.988281 78.539062 208.027344 C 78.519531 207.988281 78.507812 207.949219 78.496094 207.90625 Z M 66.121094 160.492188 C 62.3125 160.492188 58.964844 161.375 56.617188 163.625 C 52.730469 167.355469 52.617188 173.953125 52.503906 180.335938 C 52.433594 184.335938 52.367188 188.113281 51.320312 190.871094 C 47.980469 199.675781 47.023438 203.578125 46.183594 207.019531 C 46.070312 207.476562 45.960938 207.925781 45.847656 208.378906 C 45.75 208.773438 45.824219 209.175781 46.054688 209.511719 C 46.285156 209.839844 46.648438 210.054688 47.050781 210.097656 C 50.933594 210.523438 58.734375 211.046875 67.339844 209.804688 C 76.25 208.519531 78.152344 207.699219 78.527344 207.472656 L 79.804688 202.761719 C 79.808594 202.742188 79.816406 202.726562 79.820312 202.707031 C 81.96875 196.910156 84.734375 191.304688 88.039062 186.042969 C 88.222656 185.75 88.601562 185.65625 88.898438 185.832031 L 99.242188 191.917969 L 108.347656 177.542969 C 106 175.777344 103.824219 174.328125 101.695312 173.109375 L 99.621094 171.988281 C 98.582031 171.390625 79.515625 160.492188 66.121094 160.492188 Z M 56.140625 211.847656 C 52.253906 211.847656 49.015625 211.589844 46.914062 211.359375 C 46.148438 211.273438 45.457031 210.863281 45.015625 210.234375 C 44.574219 209.605469 44.429688 208.816406 44.617188 208.074219 C 44.730469 207.621094 44.839844 207.175781 44.953125 206.71875 C 45.804688 203.242188 46.765625 199.300781 50.132812 190.421875 C 51.101562 187.871094 51.167969 184.199219 51.234375 180.3125 C 51.347656 173.980469 51.472656 166.804688 55.738281 162.710938 C 66.820312 152.078125 96.851562 168.925781 100.238281 170.882812 L 102.3125 172 C 104.523438 173.265625 106.761719 174.761719 109.171875 176.578125 L 109.578125 176.882812 C 109.839844 177.078125 109.90625 177.449219 109.730469 177.726562 L 99.984375 193.117188 C 99.800781 193.402344 99.421875 193.496094 99.125 193.320312 L 88.789062 187.238281 C 85.675781 192.265625 83.066406 197.605469 81.019531 203.121094 L 79.742188 207.839844 C 79.734375 207.929688 79.703125 208.015625 79.660156 208.101562 C 79.472656 208.460938 78.96875 209.40625 67.519531 211.058594 C 63.441406 211.648438 59.542969 211.847656 56.140625 211.847656 " fill-opacity="1" fill-rule="nonzero"/><path fill="#a6a6a6" d="M 122.015625 173.949219 L 116.976562 173.78125 C 116.21875 173.757812 115.703125 173.007812 115.953125 172.289062 L 121.050781 157.6875 C 121.210938 157.222656 121.65625 156.917969 122.148438 156.933594 L 127.1875 157.101562 C 127.945312 157.125 128.464844 157.878906 128.214844 158.59375 L 123.113281 173.199219 C 122.953125 173.664062 122.507812 173.96875 122.015625 173.949219 " fill-opacity="1" fill-rule="nonzero"/><path fill="#000000" d="M 122.035156 173.316406 C 122.25 173.3125 122.445312 173.191406 122.515625 172.988281 L 127.613281 158.386719 C 127.667969 158.238281 127.644531 158.078125 127.554688 157.949219 C 127.46875 157.816406 127.324219 157.738281 127.167969 157.734375 L 122.128906 157.566406 C 121.914062 157.570312 121.71875 157.691406 121.648438 157.894531 L 116.550781 172.5 C 116.496094 172.648438 116.519531 172.808594 116.609375 172.9375 C 116.695312 173.066406 116.839844 173.144531 116.996094 173.148438 Z M 122.054688 174.585938 C 122.035156 174.585938 122.015625 174.585938 121.996094 174.582031 L 116.953125 174.414062 C 116.390625 174.394531 115.882812 174.117188 115.5625 173.652344 C 115.242188 173.1875 115.167969 172.617188 115.351562 172.082031 L 120.453125 157.476562 C 120.707031 156.75 121.40625 156.277344 122.167969 156.300781 L 127.210938 156.46875 C 127.773438 156.488281 128.28125 156.765625 128.601562 157.230469 C 128.921875 157.695312 128.996094 158.269531 128.8125 158.800781 L 123.714844 173.40625 C 123.464844 174.117188 122.800781 174.585938 122.054688 174.585938 " fill-opacity="1" fill-rule="nonzero"/><path fill="#ffffff" d="M 86.792969 183.097656 L 91.996094 187.886719 C 92.355469 188.226562 92.789062 188.488281 93.273438 188.585938 C 94.261719 188.792969 95.320312 188.441406 95.984375 187.605469 L 106.191406 172.441406 C 106.949219 171.308594 108.195312 170.601562 109.554688 170.527344 L 116.050781 169.996094 C 116.90625 169.929688 117.421875 170.960938 116.820312 171.578125 C 116.191406 172.222656 115.265625 172.851562 113.9375 173.09375 C 113.121094 173.242188 112.492188 173.871094 112.367188 174.691406 C 111.835938 178.179688 107.832031 179.730469 107.832031 179.730469 C 107.832031 179.730469 103.929688 203.101562 92.851562 200.261719 C 78.15625 196.5 69.738281 186.226562 69.738281 186.226562 L 86.792969 183.097656 " fill-opacity="1" fill-rule="nonzero"/><path fill="#000000" d="M 70.964844 186.644531 C 73.304688 189.132812 81.109375 196.601562 93.007812 199.648438 C 94.859375 200.125 96.546875 199.839844 98.175781 198.785156 C 104.644531 194.570312 107.179688 179.777344 107.207031 179.625 C 107.242188 179.40625 107.390625 179.21875 107.601562 179.140625 C 107.636719 179.125 111.269531 177.671875 111.742188 174.59375 C 111.90625 173.519531 112.742188 172.667969 113.824219 172.46875 C 114.824219 172.289062 115.679688 171.839844 116.367188 171.136719 C 116.484375 171.015625 116.449219 170.882812 116.414062 170.8125 C 116.394531 170.765625 116.304688 170.613281 116.101562 170.628906 L 109.605469 171.15625 C 108.433594 171.222656 107.359375 171.835938 106.714844 172.792969 L 96.511719 187.960938 C 96.5 187.972656 96.492188 187.988281 96.480469 188 C 95.679688 189.003906 94.402344 189.46875 93.144531 189.207031 C 92.585938 189.089844 92.039062 188.792969 91.5625 188.351562 L 86.597656 183.777344 Z M 94.683594 201.136719 C 94.03125 201.136719 93.367188 201.050781 92.695312 200.875 C 77.96875 197.105469 69.332031 186.730469 69.246094 186.625 C 69.105469 186.453125 69.066406 186.21875 69.140625 186.007812 C 69.21875 185.796875 69.402344 185.644531 69.621094 185.601562 L 86.679688 182.472656 C 86.878906 182.4375 87.078125 182.496094 87.222656 182.632812 L 92.425781 187.421875 C 92.734375 187.710938 93.070312 187.898438 93.402344 187.96875 C 94.179688 188.128906 94.972656 187.847656 95.472656 187.230469 L 105.664062 172.085938 C 106.527344 170.800781 107.96875 169.980469 109.519531 169.894531 L 116 169.367188 C 116.660156 169.308594 117.277344 169.667969 117.5625 170.273438 C 117.84375 170.871094 117.730469 171.554688 117.273438 172.019531 C 116.398438 172.917969 115.316406 173.484375 114.050781 173.714844 C 113.492188 173.820312 113.078125 174.238281 112.996094 174.785156 C 112.503906 178.011719 109.433594 179.691406 108.394531 180.175781 C 107.964844 182.523438 105.304688 195.652344 98.867188 199.84375 C 97.542969 200.703125 96.144531 201.136719 94.683594 201.136719 " fill-opacity="1" fill-rule="nonzero"/><path fill="#caddff" d="M 86.710938 181.414062 C 86.507812 181.414062 86.3125 181.320312 86.1875 181.140625 L 83.835938 177.734375 C 83.636719 177.449219 83.707031 177.054688 83.996094 176.855469 C 84.285156 176.65625 84.679688 176.730469 84.878906 177.015625 L 87.230469 180.421875 C 87.429688 180.710938 87.355469 181.105469 87.070312 181.304688 C 86.960938 181.378906 86.832031 181.414062 86.710938 181.414062 " fill-opacity="1" fill-rule="nonzero"/><path fill="#caddff" d="M 67.488281 187.460938 C 67.339844 187.460938 67.191406 187.410156 67.070312 187.304688 C 59.015625 180.289062 56.558594 174.472656 55.511719 171.988281 L 55.378906 171.675781 C 55.242188 171.355469 55.390625 170.984375 55.714844 170.84375 C 56.035156 170.707031 56.40625 170.859375 56.542969 171.179688 L 56.679688 171.5 C 57.695312 173.898438 60.070312 179.527344 67.90625 186.351562 C 68.167969 186.582031 68.195312 186.980469 67.964844 187.242188 C 67.839844 187.386719 67.664062 187.460938 67.488281 187.460938 " fill-opacity="1" fill-rule="nonzero"/><path fill="#ffffff" d="M 68.226562 161.492188 L 64.621094 162.457031 C 63.761719 162.6875 63.800781 163.820312 64.636719 164.132812 C 74.042969 167.664062 78.71875 166.285156 81.628906 165.917969 C 82.492188 165.808594 82.683594 164.648438 81.898438 164.273438 L 81.875 164.265625 C 80.84375 163.777344 80.371094 162.574219 80.792969 161.515625 L 83.320312 155.179688 L 77.890625 144.539062 L 72.210938 158.257812 C 71.402344 159.851562 69.957031 161.03125 68.226562 161.492188 " fill-opacity="1" fill-rule="nonzero"/><path fill="#000000" d="M 68.390625 162.101562 L 64.785156 163.070312 C 64.679688 163.097656 64.632812 163.148438 64.625 163.238281 C 64.621094 163.335938 64.679688 163.472656 64.855469 163.542969 C 73.027344 166.605469 77.492188 165.910156 80.449219 165.449219 C 80.84375 165.390625 81.207031 165.332031 81.550781 165.289062 C 81.707031 165.269531 81.746094 165.15625 81.757812 165.09375 C 81.769531 165.015625 81.757812 164.910156 81.628906 164.847656 C 80.273438 164.210938 79.65625 162.644531 80.203125 161.277344 L 82.625 155.210938 L 77.949219 146.050781 L 72.796875 158.5 C 72.789062 158.515625 72.78125 158.527344 72.777344 158.542969 C 71.890625 160.296875 70.292969 161.59375 68.390625 162.101562 Z M 75.980469 167.128906 C 73.164062 167.128906 69.464844 166.621094 64.410156 164.726562 C 63.75 164.480469 63.328125 163.855469 63.359375 163.175781 C 63.390625 162.539062 63.824219 162.015625 64.457031 161.847656 L 68.0625 160.878906 C 69.609375 160.464844 70.90625 159.414062 71.632812 157.992188 L 77.304688 144.296875 C 77.398438 144.070312 77.617188 143.914062 77.867188 143.90625 C 78.109375 143.898438 78.34375 144.03125 78.457031 144.25 L 83.886719 154.890625 C 83.96875 155.054688 83.980469 155.246094 83.910156 155.414062 L 81.382812 161.75 C 81.082031 162.496094 81.417969 163.347656 82.144531 163.691406 C 82.777344 163.988281 83.113281 164.628906 83.007812 165.289062 C 82.902344 165.957031 82.382812 166.460938 81.710938 166.546875 C 81.378906 166.585938 81.023438 166.640625 80.644531 166.703125 C 79.394531 166.894531 77.890625 167.128906 75.980469 167.128906 " fill-opacity="1" fill-rule="nonzero"/><path fill="#ffffff" d="M 89.945312 140.09375 C 95.3125 144.066406 93.140625 147.679688 93.140625 147.679688 C 92.75 148.738281 91.847656 151.195312 91.957031 151.703125 C 92.097656 152.328125 92.757812 153.496094 92.707031 153.835938 C 92.660156 154.175781 91.945312 154.699219 90.832031 154.636719 C 90.832031 154.636719 88.914062 159.753906 87.304688 160.214844 C 85.691406 160.675781 80.917969 157.507812 80.917969 157.507812 L 80.136719 156.894531 C 77.625 154.921875 76.578125 152.027344 76.609375 148.835938 C 76.609375 148.835938 77.644531 130.988281 89.945312 140.09375 " fill-opacity="1" fill-rule="nonzero"/><path fill="#000000" d="M 92.078125 153.816406 Z M 86.96875 160.886719 C 84.972656 160.886719 81.332031 158.542969 80.566406 158.035156 C 80.550781 158.023438 80.539062 158.015625 80.523438 158.003906 L 79.746094 157.390625 C 79.375 157.101562 79.023438 156.78125 78.703125 156.445312 C 78.460938 156.1875 78.472656 155.789062 78.726562 155.550781 C 78.980469 155.308594 79.382812 155.320312 79.625 155.574219 C 79.902344 155.867188 80.207031 156.140625 80.527344 156.398438 L 81.289062 156.992188 C 83.464844 158.433594 86.3125 159.84375 87.128906 159.605469 C 87.933594 159.375 89.371094 156.730469 90.238281 154.414062 C 90.335938 154.152344 90.585938 153.988281 90.867188 154.003906 C 91.5 154.035156 91.902344 153.839844 92.054688 153.714844 C 91.996094 153.535156 91.863281 153.21875 91.765625 153 C 91.59375 152.59375 91.414062 152.179688 91.339844 151.84375 C 91.242188 151.402344 91.410156 150.546875 92.542969 147.460938 C 92.558594 147.425781 92.574219 147.390625 92.597656 147.355469 C 92.667969 147.230469 94.367188 144.15625 89.566406 140.601562 C 86.53125 138.355469 84 137.640625 82.042969 138.476562 C 78.675781 139.917969 77.636719 145.511719 77.34375 147.851562 C 77.300781 148.199219 76.980469 148.445312 76.636719 148.402344 C 76.289062 148.359375 76.042969 148.042969 76.085938 147.695312 C 76.40625 145.140625 77.574219 139.011719 81.542969 137.3125 C 83.945312 136.285156 86.898438 137.050781 90.320312 139.582031 C 95.671875 143.542969 94.007812 147.371094 93.722656 147.933594 C 92.761719 150.546875 92.570312 151.371094 92.582031 151.601562 C 92.625 151.789062 92.789062 152.167969 92.933594 152.5 C 93.222656 153.179688 93.386719 153.578125 93.335938 153.925781 C 93.246094 154.554688 92.449219 155.1875 91.269531 155.265625 C 90.703125 156.691406 89.109375 160.355469 87.476562 160.824219 C 87.324219 160.867188 87.152344 160.886719 86.96875 160.886719 " fill-opacity="1" fill-rule="nonzero"/><path fill="#000000" d="M 88.789062 136.683594 C 90.253906 137.53125 91.511719 138.972656 92.304688 139.296875 C 93.582031 139.820312 94.550781 138.667969 96.035156 139.769531 C 97.339844 140.738281 98.277344 141.957031 98.074219 143.429688 C 98.039062 143.675781 97.976562 143.925781 97.878906 144.1875 C 96.53125 147.667969 94.089844 147.363281 93.140625 147.261719 C 93.140625 147.261719 87.859375 145.800781 86.765625 145.753906 C 85.746094 145.707031 84.039062 146.652344 82.980469 148.644531 C 82.84375 148.898438 82.546875 149.03125 82.261719 148.96875 C 81.929688 148.902344 81.699219 148.589844 81.738281 148.25 C 81.859375 147.183594 81.972656 145.007812 80.964844 144.648438 C 79.785156 144.230469 77.566406 146.171875 78.699219 148.121094 C 79.046875 148.722656 78.644531 149.511719 77.953125 149.582031 C 77.378906 149.640625 76.734375 149.464844 76.203125 148.699219 C 76.203125 148.699219 74.695312 142.347656 77.507812 138.175781 C 80.320312 134 86.832031 135.554688 88.789062 136.683594 " fill-opacity="1" fill-rule="nonzero"/><path fill="#000000" d="M 92.804688 154.824219 C 92.578125 154.824219 92.359375 154.699219 92.246094 154.484375 C 92.082031 154.175781 92.199219 153.792969 92.507812 153.628906 C 92.824219 153.460938 93.304688 152.875 93.617188 151.980469 C 94.027344 150.800781 93.84375 150.003906 93.707031 149.898438 C 93.5625 149.902344 92.941406 150.398438 92.53125 151.539062 C 92.410156 151.867188 92.046875 152.039062 91.71875 151.917969 C 91.390625 151.800781 91.21875 151.4375 91.339844 151.109375 C 91.964844 149.375 93.140625 148.359375 94.132812 148.707031 C 95.148438 149.058594 95.433594 150.609375 94.8125 152.394531 C 94.429688 153.503906 93.789062 154.386719 93.101562 154.746094 C 93.007812 154.800781 92.90625 154.824219 92.804688 154.824219 " fill-opacity="1" fill-rule="nonzero"/><path fill="#000000" d="M 88.082031 149.625 L 88.085938 149.625 Z M 90.136719 148.25 C 89.964844 148.25 89.753906 148.34375 89.542969 148.515625 C 89.183594 148.804688 88.871094 149.285156 88.683594 149.832031 C 88.308594 150.910156 88.519531 151.886719 88.960938 152.039062 C 89.152344 152.105469 89.417969 152.015625 89.6875 151.796875 C 90.042969 151.503906 90.359375 151.027344 90.546875 150.480469 C 90.921875 149.398438 90.710938 148.425781 90.269531 148.269531 C 90.226562 148.257812 90.183594 148.25 90.136719 148.25 Z M 89.089844 153.328125 C 88.902344 153.328125 88.71875 153.296875 88.542969 153.238281 C 87.351562 152.820312 86.882812 151.144531 87.484375 149.417969 C 87.753906 148.644531 88.199219 147.976562 88.742188 147.53125 C 89.359375 147.027344 90.070312 146.859375 90.683594 147.074219 C 91.878906 147.488281 92.34375 149.167969 91.746094 150.894531 C 91.476562 151.667969 91.03125 152.335938 90.488281 152.777344 C 90.046875 153.140625 89.554688 153.328125 89.089844 153.328125 " fill-opacity="1" fill-rule="nonzero"/><path fill="#000000" d="M 88.589844 149.203125 C 88.515625 149.203125 88.4375 149.1875 88.359375 149.160156 L 82.769531 146.976562 C 82.445312 146.847656 82.285156 146.480469 82.410156 146.15625 C 82.539062 145.828125 82.90625 145.667969 83.234375 145.796875 L 88.820312 147.980469 C 89.148438 148.105469 89.308594 148.472656 89.183594 148.800781 C 89.082031 149.050781 88.84375 149.203125 88.589844 149.203125 " fill-opacity="1" fill-rule="nonzero"/><path fill="#000000" d="M 361.25 55.105469 C 361.203125 55.105469 361.152344 55.097656 361.105469 55.085938 C 360.769531 55.011719 360.550781 54.671875 360.632812 54.332031 L 361.269531 51.519531 C 361.351562 51.175781 361.691406 50.964844 362.03125 51.042969 C 362.371094 51.121094 362.585938 51.460938 362.507812 51.800781 L 361.867188 54.609375 C 361.800781 54.90625 361.539062 55.105469 361.25 55.105469 " fill-opacity="1" fill-rule="nonzero"/><path fill="#000000" d="M 359.003906 64.945312 C 358.957031 64.945312 358.910156 64.9375 358.863281 64.925781 C 358.519531 64.847656 358.308594 64.511719 358.386719 64.167969 L 359.027344 61.359375 C 359.101562 61.015625 359.445312 60.804688 359.785156 60.878906 C 360.125 60.957031 360.339844 61.300781 360.261719 61.640625 L 359.621094 64.449219 C 359.554688 64.746094 359.292969 64.945312 359.003906 64.945312 " fill-opacity="1" fill-rule="nonzero"/><path fill="#000000" d="M 356.996094 57.777344 C 356.945312 57.777344 356.894531 57.773438 356.84375 57.761719 L 354.082031 57.085938 C 353.742188 57.003906 353.53125 56.660156 353.613281 56.324219 C 353.699219 55.984375 354.039062 55.773438 354.382812 55.855469 L 357.144531 56.527344 C 357.484375 56.609375 357.691406 56.953125 357.609375 57.292969 C 357.539062 57.582031 357.28125 57.777344 356.996094 57.777344 " fill-opacity="1" fill-rule="nonzero"/><path fill="#000000" d="M 366.664062 60.132812 C 366.613281 60.132812 366.5625 60.125 366.511719 60.113281 L 363.75 59.441406 C 363.410156 59.359375 363.199219 59.015625 363.285156 58.675781 C 363.367188 58.335938 363.707031 58.125 364.050781 58.210938 L 366.8125 58.882812 C 367.152344 58.964844 367.359375 59.308594 367.277344 59.648438 C 367.210938 59.9375 366.949219 60.132812 366.664062 60.132812 " fill-opacity="1" fill-rule="nonzero"/><path fill="#000000" d="M 355.566406 34.757812 C 354.535156 36.234375 354.902344 38.3125 356.394531 39.382812 C 357.117188 39.90625 357.996094 40.117188 358.859375 39.964844 C 359.707031 39.820312 360.441406 39.355469 360.933594 38.652344 C 361.96875 37.171875 361.59375 35.097656 360.109375 34.027344 C 359.382812 33.503906 358.503906 33.296875 357.636719 33.445312 C 356.792969 33.585938 356.058594 34.050781 355.5625 34.757812 Z M 358.3125 41.277344 C 357.367188 41.277344 356.441406 40.980469 355.648438 40.410156 C 353.605469 38.933594 353.101562 36.074219 354.523438 34.035156 L 354.527344 34.035156 C 355.210938 33.046875 356.242188 32.394531 357.425781 32.195312 C 358.628906 31.992188 359.84375 32.277344 360.847656 33 C 362.894531 34.472656 363.402344 37.332031 361.972656 39.378906 C 361.289062 40.359375 360.257812 41.015625 359.074219 41.214844 C 358.820312 41.257812 358.566406 41.277344 358.3125 41.277344 " fill-opacity="1" fill-rule="nonzero"/><path fill="#000000" d="M 324.898438 28.375 L 324.902344 28.375 Z M 327.132812 27.847656 C 327.015625 27.847656 326.894531 27.855469 326.777344 27.875 C 326.222656 27.96875 325.738281 28.273438 325.417969 28.738281 L 325.414062 28.738281 C 324.738281 29.707031 324.984375 31.074219 325.960938 31.78125 C 326.441406 32.125 327.015625 32.261719 327.585938 32.164062 C 328.140625 32.070312 328.625 31.765625 328.945312 31.304688 C 329.625 30.332031 329.378906 28.96875 328.398438 28.261719 C 328.023438 27.988281 327.582031 27.847656 327.132812 27.847656 Z M 327.226562 33.460938 C 326.515625 33.460938 325.816406 33.238281 325.222656 32.808594 C 323.683594 31.699219 323.304688 29.546875 324.378906 28.011719 C 324.894531 27.269531 325.671875 26.777344 326.566406 26.628906 C 327.46875 26.472656 328.386719 26.6875 329.140625 27.230469 C 330.679688 28.34375 331.054688 30.492188 329.984375 32.03125 C 329.464844 32.769531 328.691406 33.261719 327.800781 33.414062 C 327.605469 33.445312 327.414062 33.460938 327.226562 33.460938 " fill-opacity="1" fill-rule="nonzero"/><path fill="#000000" d="M 55.957031 78.632812 C 55.84375 78.632812 55.730469 78.605469 55.625 78.542969 C 55.328125 78.359375 55.234375 77.96875 55.414062 77.671875 C 70.554688 52.929688 88.71875 38.128906 110.941406 32.421875 C 111.28125 32.335938 111.625 32.539062 111.710938 32.878906 C 111.800781 33.214844 111.597656 33.5625 111.257812 33.648438 C 89.371094 39.269531 71.457031 53.882812 56.496094 78.332031 C 56.378906 78.527344 56.167969 78.632812 55.957031 78.632812 " fill-opacity="1" fill-rule="nonzero"/><path fill="#000000" d="M 54.300781 97.003906 C 54.21875 97.003906 54.136719 96.988281 54.058594 96.953125 C 53.734375 96.820312 53.582031 96.449219 53.714844 96.128906 C 62.550781 74.804688 74.136719 59.5625 89.140625 49.523438 C 89.433594 49.328125 89.824219 49.410156 90.019531 49.699219 C 90.214844 49.988281 90.136719 50.382812 89.847656 50.574219 C 75.058594 60.46875 63.621094 75.527344 54.886719 96.613281 C 54.785156 96.855469 54.550781 97.003906 54.300781 97.003906 " fill-opacity="1" fill-rule="nonzero"/><path fill="#000000" d="M 117.125 132.453125 C 117.078125 132.453125 117.03125 132.445312 116.984375 132.4375 C 116.640625 132.359375 116.429688 132.019531 116.507812 131.679688 L 117.148438 128.867188 C 117.226562 128.527344 117.566406 128.3125 117.90625 128.390625 C 118.246094 128.46875 118.460938 128.808594 118.382812 129.148438 L 117.742188 131.960938 C 117.675781 132.253906 117.414062 132.453125 117.125 132.453125 " fill-opacity="1" fill-rule="nonzero"/><path fill="#000000" d="M 114.878906 142.292969 C 114.832031 142.292969 114.785156 142.285156 114.738281 142.277344 C 114.398438 142.199219 114.183594 141.859375 114.261719 141.515625 L 114.902344 138.707031 C 114.980469 138.363281 115.320312 138.152344 115.660156 138.230469 C 116.003906 138.308594 116.214844 138.644531 116.140625 138.988281 L 115.496094 141.800781 C 115.429688 142.09375 115.167969 142.292969 114.878906 142.292969 " fill-opacity="1" fill-rule="nonzero"/><path fill="#000000" d="M 112.871094 135.125 C 112.820312 135.125 112.769531 135.121094 112.71875 135.109375 L 109.957031 134.4375 C 109.617188 134.355469 109.410156 134.011719 109.492188 133.671875 C 109.574219 133.332031 109.917969 133.121094 110.257812 133.207031 L 113.019531 133.875 C 113.359375 133.960938 113.570312 134.300781 113.484375 134.640625 C 113.414062 134.933594 113.15625 135.125 112.871094 135.125 " fill-opacity="1" fill-rule="nonzero"/><path fill="#000000" d="M 122.539062 137.480469 C 122.488281 137.480469 122.4375 137.472656 122.386719 137.460938 L 119.625 136.789062 C 119.285156 136.707031 119.078125 136.363281 119.160156 136.023438 C 119.242188 135.683594 119.585938 135.476562 119.925781 135.558594 L 122.6875 136.230469 C 123.027344 136.3125 123.234375 136.65625 123.152344 136.996094 C 123.082031 137.285156 122.824219 137.480469 122.539062 137.480469 " fill-opacity="1" fill-rule="nonzero"/><path fill="#000000" d="M 264.027344 117.191406 C 262.996094 118.667969 263.367188 120.742188 264.855469 121.816406 C 265.582031 122.339844 266.457031 122.546875 267.324219 122.398438 C 268.171875 122.257812 268.90625 121.789062 269.398438 121.085938 C 270.429688 119.609375 270.058594 117.53125 268.570312 116.460938 C 267.84375 115.9375 266.96875 115.726562 266.101562 115.875 C 265.253906 116.019531 264.519531 116.488281 264.027344 117.191406 Z M 266.773438 123.714844 C 265.828125 123.714844 264.90625 123.414062 264.113281 122.84375 C 262.066406 121.367188 261.5625 118.507812 262.988281 116.464844 C 263.675781 115.484375 264.707031 114.828125 265.886719 114.628906 C 267.09375 114.421875 268.3125 114.710938 269.3125 115.433594 C 271.359375 116.90625 271.863281 119.765625 270.4375 121.8125 C 269.75 122.792969 268.71875 123.445312 267.539062 123.648438 C 267.285156 123.691406 267.027344 123.714844 266.773438 123.714844 " fill-opacity="1" fill-rule="nonzero"/><g clip-path="url(#d84446be59)"><path fill="#3a435e" d="M 411.199219 305.367188 C 410.875 305.097656 410.449219 304.988281 410.039062 305.066406 L 370.613281 312.585938 C 369.949219 312.710938 369.46875 313.292969 369.46875 313.972656 L 369.46875 366.605469 C 369.46875 367.28125 369.949219 367.863281 370.613281 367.988281 L 410.039062 375.507812 C 410.125 375.523438 410.214844 375.53125 410.300781 375.53125 C 410.625 375.53125 410.945312 375.417969 411.199219 375.210938 C 411.523438 374.941406 411.710938 374.542969 411.710938 374.121094 L 411.710938 306.453125 C 411.710938 306.03125 411.523438 305.632812 411.199219 305.367188 Z M 395.542969 353.507812 L 391.007812 344.925781 C 390.835938 344.605469 390.65625 344.015625 390.472656 343.160156 L 390.402344 343.160156 C 390.316406 343.5625 390.113281 344.175781 389.792969 344.996094 L 385.242188 353.507812 L 378.175781 353.507812 L 386.5625 340.328125 L 378.890625 327.148438 L 386.105469 327.148438 L 389.871094 335.050781 C 390.164062 335.675781 390.429688 336.417969 390.660156 337.277344 L 390.730469 337.277344 C 390.878906 336.761719 391.152344 335.996094 391.558594 334.976562 L 395.742188 327.148438 L 402.351562 327.148438 L 394.457031 340.21875 L 402.574219 353.507812 Z M 395.542969 353.507812 " fill-opacity="1" fill-rule="nonzero"/></g><g clip-path="url(#b03c6cba70)"><path fill="#3a435e" d="M 435.648438 313.5 L 414.527344 313.5 L 414.527344 323.371094 L 417.34375 323.371094 L 417.34375 326.191406 L 414.527344 326.191406 L 414.527344 333.238281 L 417.34375 333.238281 L 417.34375 336.058594 L 414.527344 336.058594 L 414.527344 343.105469 L 417.34375 343.105469 L 417.34375 345.925781 L 414.527344 345.925781 L 414.527344 354.386719 L 417.34375 354.386719 L 417.34375 357.203125 L 414.527344 357.203125 L 414.527344 367.074219 L 435.648438 367.074219 C 437.199219 367.074219 438.460938 365.808594 438.460938 364.253906 L 438.460938 316.320312 C 438.460938 314.765625 437.199219 313.5 435.648438 313.5 Z M 431.421875 357.203125 L 420.160156 357.203125 L 420.160156 354.386719 L 431.421875 354.386719 Z M 431.421875 345.925781 L 420.160156 345.925781 L 420.160156 343.105469 L 431.421875 343.105469 Z M 431.421875 336.058594 L 420.160156 336.058594 L 420.160156 333.238281 L 431.421875 333.238281 Z M 431.421875 326.191406 L 420.160156 326.191406 L 420.160156 323.371094 L 431.421875 323.371094 Z M 431.421875 326.191406 " fill-opacity="1" fill-rule="nonzero"/></g></svg>