<svg xmlns="http://www.w3.org/2000/svg" xmlns:xlink="http://www.w3.org/1999/xlink" width="585" zoomAndPan="magnify" viewBox="0 0 438.75 375.749991" height="501" preserveAspectRatio="xMidYMid meet" version="1.0"><defs><clipPath id="43ac054492"><path d="M 369.46875 305.042969 L 412 305.042969 L 412 375.5 L 369.46875 375.5 Z M 369.46875 305.042969 " clip-rule="nonzero"/></clipPath><clipPath id="042d7aaaf2"><path d="M 414 313 L 438.460938 313 L 438.460938 368 L 414 368 Z M 414 313 " clip-rule="nonzero"/></clipPath></defs><path fill="#caddff" d="M 68.871094 111.160156 C 61.683594 127.09375 51.042969 157.601562 55.320312 195.542969 C 60.808594 244.222656 87.972656 282.601562 114.398438 304.167969 C 202.082031 375.730469 362.597656 329.5 383.855469 262.085938 C 387.710938 249.855469 386.628906 238.0625 385.292969 223.546875 C 381.050781 177.382812 358.699219 163.664062 343.667969 114.648438 C 329.988281 70.042969 343.476562 65.023438 330.683594 45.195312 C 302.933594 2.175781 222.835938 0.0078125 167.71875 20.632812 C 146.546875 28.554688 95.175781 52.851562 68.871094 111.160156 " fill-opacity="1" fill-rule="nonzero"/><path fill="#3a435e" d="M 177.308594 33.558594 L 107.519531 73.511719 L 65.921875 49.355469 L 136.078125 8.882812 L 177.308594 33.558594 " fill-opacity="1" fill-rule="nonzero"/><path fill="#000000" d="M 67.125 49.355469 L 107.523438 72.816406 L 176.117188 33.542969 L 136.074219 9.582031 Z M 107.519531 74.113281 C 107.417969 74.113281 107.3125 74.085938 107.21875 74.03125 L 65.621094 49.875 C 65.433594 49.769531 65.320312 49.570312 65.320312 49.355469 C 65.320312 49.140625 65.433594 48.941406 65.621094 48.832031 L 135.777344 8.359375 C 135.964844 8.25 136.199219 8.25 136.386719 8.363281 L 177.617188 33.042969 C 177.800781 33.148438 177.914062 33.347656 177.910156 33.5625 C 177.90625 33.777344 177.792969 33.972656 177.605469 34.082031 L 107.820312 74.03125 C 107.726562 74.085938 107.625 74.113281 107.519531 74.113281 " fill-opacity="1" fill-rule="nonzero"/><path fill="#6c6f7f" d="M 107.53125 254.035156 L 107.53125 73.246094 L 177.332031 33.46875 L 177.332031 213.359375 L 107.53125 254.035156 " fill-opacity="1" fill-rule="nonzero"/><path fill="#000000" d="M 108.132812 73.597656 L 108.132812 252.988281 L 176.730469 213.015625 L 176.730469 34.503906 Z M 107.53125 254.640625 C 107.429688 254.640625 107.324219 254.613281 107.230469 254.558594 C 107.046875 254.453125 106.929688 254.25 106.929688 254.039062 L 106.929688 73.246094 C 106.929688 73.03125 107.046875 72.832031 107.234375 72.726562 L 177.035156 32.945312 C 177.222656 32.839844 177.449219 32.839844 177.636719 32.945312 C 177.820312 33.054688 177.9375 33.253906 177.9375 33.46875 L 177.9375 213.359375 C 177.9375 213.574219 177.820312 213.773438 177.636719 213.878906 L 107.835938 254.554688 C 107.742188 254.609375 107.636719 254.640625 107.53125 254.640625 " fill-opacity="1" fill-rule="nonzero"/><path fill="#ffffff" d="M 107.53125 254.035156 L 107.53125 73.246094 L 66.144531 49.242188 L 66.144531 229.496094 L 107.53125 254.035156 " fill-opacity="1" fill-rule="nonzero"/><path fill="#000000" d="M 66.746094 229.15625 L 106.929688 252.980469 L 106.929688 73.597656 L 66.746094 50.292969 Z M 107.53125 254.640625 C 107.425781 254.640625 107.320312 254.613281 107.222656 254.554688 L 65.835938 230.015625 C 65.65625 229.90625 65.542969 229.710938 65.542969 229.5 L 65.542969 49.246094 C 65.542969 49.03125 65.65625 48.832031 65.84375 48.726562 C 66.03125 48.617188 66.261719 48.617188 66.445312 48.726562 L 107.832031 72.726562 C 108.019531 72.835938 108.132812 73.035156 108.132812 73.25 L 108.132812 254.039062 C 108.132812 254.253906 108.015625 254.453125 107.828125 254.5625 C 107.738281 254.613281 107.632812 254.640625 107.53125 254.640625 " fill-opacity="1" fill-rule="nonzero"/><path fill="#000000" d="M 84.742188 135.464844 C 84.636719 135.464844 84.53125 135.4375 84.433594 135.382812 L 71.5625 127.746094 C 71.378906 127.636719 71.265625 127.441406 71.265625 127.226562 L 71.265625 81.066406 C 71.265625 80.851562 71.378906 80.652344 71.566406 80.546875 C 71.753906 80.4375 71.984375 80.4375 72.171875 80.546875 L 102.113281 97.914062 C 102.296875 98.019531 102.414062 98.21875 102.414062 98.433594 L 102.414062 126.132812 C 102.414062 126.460938 102.144531 126.730469 101.808594 126.730469 C 101.476562 126.730469 101.207031 126.460938 101.207031 126.132812 L 101.207031 98.78125 L 72.46875 82.113281 L 72.46875 126.886719 L 85.050781 134.34375 C 85.335938 134.515625 85.429688 134.882812 85.261719 135.167969 C 85.148438 135.359375 84.949219 135.464844 84.742188 135.464844 " fill-opacity="1" fill-rule="nonzero"/><path fill="#caddff" d="M 168.644531 72.148438 L 119.324219 100.203125 C 117.703125 101.125 115.691406 99.953125 115.691406 98.085938 L 115.691406 98.078125 C 115.691406 97.203125 116.160156 96.398438 116.921875 95.964844 L 166.242188 67.921875 C 167.863281 66.996094 169.878906 68.171875 169.875 70.042969 C 169.875 70.914062 169.40625 71.71875 168.644531 72.148438 " fill-opacity="1" fill-rule="nonzero"/><path fill="#caddff" d="M 168.644531 101.765625 L 119.324219 129.816406 C 117.703125 130.738281 115.691406 129.570312 115.691406 127.703125 L 115.691406 127.695312 C 115.691406 126.824219 116.160156 126.015625 116.921875 125.582031 L 166.242188 97.535156 C 167.863281 96.613281 169.878906 97.789062 169.875 99.65625 C 169.875 100.53125 169.40625 101.335938 168.644531 101.765625 " fill-opacity="1" fill-rule="nonzero"/><path fill="#caddff" d="M 168.644531 116.574219 L 119.328125 144.625 C 117.703125 145.546875 115.691406 144.378906 115.691406 142.511719 L 115.691406 142.503906 C 115.691406 141.628906 116.160156 140.824219 116.921875 140.390625 L 166.242188 112.347656 C 167.863281 111.421875 169.878906 112.597656 169.875 114.464844 C 169.875 115.335938 169.40625 116.144531 168.644531 116.574219 " fill-opacity="1" fill-rule="nonzero"/><path fill="#caddff" d="M 168.644531 131.382812 L 119.328125 159.433594 C 117.703125 160.359375 115.691406 159.183594 115.691406 157.320312 L 115.691406 157.3125 C 115.691406 156.4375 116.160156 155.632812 116.921875 155.199219 L 166.242188 127.152344 C 167.863281 126.230469 169.878906 127.40625 169.875 129.273438 C 169.875 130.148438 169.40625 130.953125 168.644531 131.382812 " fill-opacity="1" fill-rule="nonzero"/><path fill="#caddff" d="M 166.320312 82.683594 L 116.921875 110.773438 C 116.160156 111.207031 115.691406 112.011719 115.691406 112.886719 L 115.691406 112.894531 C 115.691406 114.757812 117.703125 115.929688 119.324219 115.007812 L 168.726562 86.917969 C 169.484375 86.484375 169.957031 85.675781 169.957031 84.800781 L 169.957031 84.796875 C 169.957031 82.933594 167.941406 81.761719 166.320312 82.683594 " fill-opacity="1" fill-rule="nonzero"/><path fill="#3a435e" d="M 312.78125 41.421875 L 270.804688 65.632812 L 229.015625 41.28125 L 271.28125 16.664062 L 312.78125 41.421875 " fill-opacity="1" fill-rule="nonzero"/><path fill="#6c6f7f" d="M 270.8125 245.695312 L 270.8125 65.425781 L 312.804688 41.351562 L 312.804688 220.921875 L 270.8125 245.695312 " fill-opacity="1" fill-rule="nonzero"/><path fill="#ffffff" d="M 270.8125 245.695312 L 270.8125 65.429688 L 229.1875 41.191406 L 229.1875 221.042969 L 270.8125 245.695312 " fill-opacity="1" fill-rule="nonzero"/><path fill="#caddff" d="M 278.019531 89.898438 L 278.019531 89.902344 C 278.019531 91.765625 280.03125 92.9375 281.65625 92.015625 L 303.921875 79.351562 C 304.679688 78.921875 305.152344 78.117188 305.152344 77.242188 C 305.15625 75.375 303.140625 74.199219 301.515625 75.125 L 279.25 87.785156 C 278.492188 88.21875 278.019531 89.023438 278.019531 89.898438 " fill-opacity="1" fill-rule="nonzero"/><path fill="#caddff" d="M 278.019531 104.707031 C 278.019531 106.574219 280.035156 107.746094 281.65625 106.824219 L 303.921875 94.160156 C 304.679688 93.730469 305.152344 92.925781 305.152344 92.050781 C 305.15625 90.183594 303.140625 89.007812 301.519531 89.929688 L 279.25 102.59375 C 278.492188 103.023438 278.019531 103.832031 278.019531 104.707031 " fill-opacity="1" fill-rule="nonzero"/><path fill="#3a435e" d="M 251.035156 76.828125 L 181.246094 116.78125 L 139.648438 92.628906 L 209.800781 52.152344 L 251.035156 76.828125 " fill-opacity="1" fill-rule="nonzero"/><path fill="#000000" d="M 140.847656 92.628906 L 181.246094 116.089844 L 249.839844 76.820312 L 209.796875 52.855469 Z M 181.246094 117.386719 C 181.140625 117.386719 181.035156 117.359375 180.941406 117.304688 L 139.34375 93.148438 C 139.160156 93.042969 139.042969 92.84375 139.042969 92.628906 C 139.042969 92.414062 139.160156 92.214844 139.34375 92.109375 L 209.5 51.632812 C 209.6875 51.523438 209.921875 51.527344 210.113281 51.636719 L 251.339844 76.316406 C 251.523438 76.425781 251.636719 76.625 251.632812 76.835938 C 251.632812 77.050781 251.515625 77.25 251.332031 77.355469 L 181.542969 117.304688 C 181.453125 117.359375 181.347656 117.386719 181.246094 117.386719 " fill-opacity="1" fill-rule="nonzero"/><path fill="#6c6f7f" d="M 181.257812 297.3125 L 181.257812 116.523438 L 251.058594 76.742188 L 251.058594 256.632812 L 181.257812 297.3125 " fill-opacity="1" fill-rule="nonzero"/><path fill="#000000" d="M 181.859375 116.871094 L 181.859375 296.261719 L 250.457031 256.289062 L 250.457031 77.78125 Z M 181.257812 297.914062 C 181.152344 297.914062 181.046875 297.886719 180.953125 297.832031 C 180.769531 297.726562 180.652344 297.527344 180.652344 297.3125 L 180.652344 116.523438 C 180.652344 116.304688 180.769531 116.105469 180.957031 116 L 250.757812 76.21875 C 250.945312 76.113281 251.171875 76.113281 251.359375 76.222656 C 251.546875 76.332031 251.660156 76.527344 251.660156 76.742188 L 251.660156 256.632812 C 251.660156 256.847656 251.546875 257.046875 251.363281 257.15625 L 181.558594 297.832031 C 181.464844 297.886719 181.359375 297.914062 181.257812 297.914062 " fill-opacity="1" fill-rule="nonzero"/><path fill="#ffffff" d="M 181.257812 297.3125 L 181.257812 116.523438 L 139.867188 92.519531 L 139.867188 272.769531 L 181.257812 297.3125 " fill-opacity="1" fill-rule="nonzero"/><path fill="#000000" d="M 140.472656 272.425781 L 180.65625 296.253906 L 180.65625 116.867188 L 140.472656 93.566406 Z M 181.257812 297.914062 C 181.148438 297.914062 181.042969 297.882812 180.949219 297.828125 L 139.5625 273.289062 C 139.378906 273.179688 139.265625 272.984375 139.265625 272.769531 L 139.265625 92.515625 C 139.265625 92.300781 139.382812 92.105469 139.570312 91.996094 C 139.753906 91.890625 139.984375 91.890625 140.171875 91.996094 L 181.558594 116 C 181.746094 116.109375 181.859375 116.308594 181.859375 116.523438 L 181.859375 297.3125 C 181.859375 297.527344 181.742188 297.726562 181.554688 297.832031 C 181.460938 297.886719 181.359375 297.914062 181.257812 297.914062 " fill-opacity="1" fill-rule="nonzero"/><path fill="#ffffff" d="M 175.183594 186.070312 L 151.210938 199.652344 L 120.242188 181.671875 L 144.488281 167.699219 L 175.183594 186.070312 " fill-opacity="1" fill-rule="nonzero"/><path fill="#000000" d="M 121.445312 181.671875 L 151.214844 198.957031 L 173.984375 186.054688 L 144.484375 168.394531 Z M 151.210938 200.253906 C 151.105469 200.253906 151 200.226562 150.910156 200.171875 L 119.941406 182.191406 C 119.753906 182.082031 119.640625 181.886719 119.640625 181.667969 C 119.640625 181.457031 119.753906 181.253906 119.941406 181.148438 L 144.1875 167.175781 C 144.378906 167.066406 144.609375 167.066406 144.796875 167.179688 L 175.492188 185.550781 C 175.675781 185.660156 175.789062 185.859375 175.785156 186.074219 C 175.785156 186.289062 175.667969 186.484375 175.480469 186.589844 L 151.507812 200.175781 C 151.414062 200.230469 151.3125 200.253906 151.210938 200.253906 " fill-opacity="1" fill-rule="nonzero"/><path fill="#6c6f7f" d="M 151.21875 206.429688 L 151.21875 199.457031 L 175.203125 186.003906 L 175.203125 192.304688 L 151.21875 206.429688 " fill-opacity="1" fill-rule="nonzero"/><path fill="#000000" d="M 151.820312 199.808594 L 151.820312 205.375 L 174.597656 191.960938 L 174.597656 187.03125 Z M 151.21875 207.03125 C 151.113281 207.03125 151.011719 207.003906 150.917969 206.953125 C 150.730469 206.84375 150.617188 206.644531 150.617188 206.429688 L 150.617188 199.457031 C 150.617188 199.242188 150.734375 199.039062 150.925781 198.933594 L 174.90625 185.476562 C 175.09375 185.371094 175.320312 185.375 175.507812 185.484375 C 175.691406 185.589844 175.804688 185.789062 175.804688 186.003906 L 175.804688 192.304688 C 175.804688 192.519531 175.691406 192.714844 175.507812 192.824219 L 151.523438 206.945312 C 151.429688 207.003906 151.324219 207.03125 151.21875 207.03125 " fill-opacity="1" fill-rule="nonzero"/><path fill="#ffffff" d="M 151.21875 206.429688 L 151.21875 199.457031 L 120.40625 181.585938 L 120.40625 188.160156 L 151.21875 206.429688 " fill-opacity="1" fill-rule="nonzero"/><path fill="#000000" d="M 121.011719 187.816406 L 150.617188 205.371094 L 150.617188 199.804688 L 121.011719 182.632812 Z M 151.21875 207.03125 C 151.113281 207.03125 151.007812 207.003906 150.910156 206.945312 L 120.101562 188.675781 C 119.917969 188.570312 119.804688 188.371094 119.804688 188.160156 L 119.804688 181.585938 C 119.804688 181.375 119.921875 181.175781 120.109375 181.066406 C 120.292969 180.957031 120.523438 180.960938 120.710938 181.066406 L 151.519531 198.9375 C 151.707031 199.042969 151.820312 199.242188 151.820312 199.457031 L 151.820312 206.429688 C 151.820312 206.644531 151.703125 206.84375 151.515625 206.953125 C 151.425781 207.003906 151.320312 207.03125 151.21875 207.03125 " fill-opacity="1" fill-rule="nonzero"/><path fill="#6c6f7f" d="M 148.980469 187.441406 L 143.335938 190.640625 L 136.042969 186.402344 L 141.75 183.113281 L 148.980469 187.441406 " fill-opacity="1" fill-rule="nonzero"/><path fill="#6c6f7f" d="M 167.460938 186.121094 L 159.046875 190.894531 L 136.011719 177.339844 L 144.554688 172.378906 L 167.460938 186.121094 " fill-opacity="1" fill-rule="nonzero"/><path fill="#3a435e" d="M 175.839844 186.117188 L 175.839844 139.652344 L 144.171875 121.289062 L 144.171875 167.34375 L 175.839844 186.117188 " fill-opacity="1" fill-rule="nonzero"/><path fill="#caddff" d="M 171.0625 153.085938 L 171.0625 142.5625 L 164.292969 138.636719 L 164.292969 149.070312 L 171.0625 153.085938 " fill-opacity="1" fill-rule="nonzero"/><path fill="#caddff" d="M 159.625 146.402344 L 159.625 135.878906 L 152.855469 131.953125 L 152.855469 142.390625 L 159.625 146.402344 " fill-opacity="1" fill-rule="nonzero"/><path fill="#caddff" d="M 171.0625 168.8125 L 171.0625 158.289062 L 164.292969 154.363281 L 164.292969 164.796875 L 171.0625 168.8125 " fill-opacity="1" fill-rule="nonzero"/><path fill="#caddff" d="M 242.6875 113.773438 L 193.367188 141.824219 C 191.746094 142.746094 189.730469 141.578125 189.730469 139.710938 L 189.730469 139.703125 C 189.730469 138.828125 190.203125 138.023438 190.964844 137.589844 L 240.28125 109.542969 C 241.90625 108.621094 243.921875 109.796875 243.917969 111.664062 C 243.917969 112.535156 243.445312 113.339844 242.6875 113.773438 " fill-opacity="1" fill-rule="nonzero"/><path fill="#caddff" d="M 242.6875 143.390625 L 193.367188 171.441406 C 191.746094 172.363281 189.730469 171.191406 189.730469 169.328125 L 189.730469 169.320312 C 189.730469 168.445312 190.203125 167.640625 190.964844 167.207031 L 240.28125 139.160156 C 241.90625 138.238281 243.921875 139.414062 243.917969 141.28125 C 243.917969 142.15625 243.445312 142.957031 242.6875 143.390625 " fill-opacity="1" fill-rule="nonzero"/><path fill="#caddff" d="M 242.6875 158.199219 L 193.367188 186.25 C 191.746094 187.171875 189.730469 186 189.730469 184.136719 L 189.730469 184.128906 C 189.730469 183.253906 190.203125 182.449219 190.964844 182.015625 L 240.28125 153.96875 C 241.90625 153.046875 243.921875 154.222656 243.917969 156.089844 C 243.917969 156.964844 243.445312 157.769531 242.6875 158.199219 " fill-opacity="1" fill-rule="nonzero"/><path fill="#caddff" d="M 242.6875 173.007812 L 193.367188 201.058594 C 191.746094 201.980469 189.730469 200.808594 189.730469 198.945312 L 189.730469 198.9375 C 189.730469 198.066406 190.203125 197.253906 190.964844 196.824219 L 240.28125 168.777344 C 241.90625 167.855469 243.921875 169.03125 243.917969 170.898438 C 243.917969 171.769531 243.445312 172.578125 242.6875 173.007812 " fill-opacity="1" fill-rule="nonzero"/><path fill="#caddff" d="M 240.363281 124.308594 L 190.964844 152.398438 C 190.203125 152.832031 189.730469 153.636719 189.730469 154.511719 L 189.730469 154.519531 C 189.730469 156.382812 191.746094 157.554688 193.367188 156.632812 L 242.765625 128.539062 C 243.527344 128.105469 243.996094 127.300781 243.996094 126.425781 L 243.996094 126.421875 C 243.996094 124.554688 241.984375 123.382812 240.363281 124.308594 " fill-opacity="1" fill-rule="nonzero"/><path fill="#3a435e" d="M 385.703125 85.089844 L 343.726562 109.300781 L 301.9375 84.945312 L 344.199219 60.332031 L 385.703125 85.089844 " fill-opacity="1" fill-rule="nonzero"/><path fill="#000000" d="M 303.132812 84.945312 L 343.726562 108.601562 L 384.511719 85.082031 L 344.191406 61.03125 Z M 343.722656 109.902344 C 343.621094 109.902344 343.515625 109.875 343.421875 109.820312 L 301.632812 85.464844 C 301.445312 85.359375 301.332031 85.160156 301.332031 84.945312 C 301.332031 84.730469 301.445312 84.535156 301.632812 84.425781 L 343.894531 59.8125 C 344.085938 59.699219 344.320312 59.703125 344.507812 59.816406 L 386.011719 84.574219 C 386.191406 84.679688 386.308594 84.882812 386.304688 85.09375 C 386.300781 85.308594 386.1875 85.503906 386.003906 85.609375 L 344.023438 109.820312 C 343.929688 109.875 343.828125 109.902344 343.722656 109.902344 " fill-opacity="1" fill-rule="nonzero"/><path fill="#6c6f7f" d="M 343.734375 289.363281 L 343.734375 109.09375 L 385.722656 85.019531 L 385.722656 264.59375 L 343.734375 289.363281 " fill-opacity="1" fill-rule="nonzero"/><path fill="#000000" d="M 344.335938 109.445312 L 344.335938 288.308594 L 385.117188 264.25 L 385.117188 86.0625 Z M 343.734375 289.964844 C 343.628906 289.964844 343.527344 289.941406 343.433594 289.886719 C 343.246094 289.78125 343.128906 289.578125 343.128906 289.363281 L 343.128906 109.097656 C 343.128906 108.882812 343.246094 108.683594 343.429688 108.574219 L 385.421875 84.5 C 385.605469 84.394531 385.839844 84.394531 386.023438 84.5 C 386.210938 84.609375 386.324219 84.808594 386.324219 85.019531 L 386.324219 264.59375 C 386.324219 264.804688 386.210938 265.003906 386.027344 265.113281 L 344.039062 289.882812 C 343.945312 289.9375 343.839844 289.964844 343.734375 289.964844 " fill-opacity="1" fill-rule="nonzero"/><path fill="#ffffff" d="M 343.730469 289.363281 L 343.730469 109.097656 L 302.105469 84.863281 L 302.105469 264.710938 L 343.730469 289.363281 " fill-opacity="1" fill-rule="nonzero"/><path fill="#000000" d="M 302.710938 264.371094 L 343.128906 288.304688 L 343.128906 109.441406 L 302.710938 85.910156 Z M 343.734375 289.964844 C 343.628906 289.964844 343.519531 289.9375 343.425781 289.882812 L 301.800781 265.230469 C 301.617188 265.121094 301.503906 264.925781 301.503906 264.710938 L 301.503906 84.863281 C 301.503906 84.644531 301.617188 84.445312 301.804688 84.339844 C 301.992188 84.230469 302.222656 84.230469 302.410156 84.339844 L 344.035156 108.578125 C 344.222656 108.6875 344.335938 108.882812 344.335938 109.097656 L 344.335938 289.363281 C 344.335938 289.578125 344.21875 289.78125 344.03125 289.886719 C 343.9375 289.941406 343.835938 289.964844 343.734375 289.964844 " fill-opacity="1" fill-rule="nonzero"/><path fill="#3a435e" d="M 351.664062 129.921875 C 351.664062 131.789062 353.675781 132.960938 355.296875 132.039062 L 377.5625 119.378906 C 378.324219 118.945312 378.792969 118.140625 378.792969 117.265625 C 378.796875 115.398438 376.78125 114.222656 375.15625 115.148438 L 352.894531 127.808594 C 352.132812 128.242188 351.664062 129.046875 351.664062 129.921875 " fill-opacity="1" fill-rule="nonzero"/><path fill="#3a435e" d="M 351.664062 144.734375 C 351.664062 146.597656 353.675781 147.769531 355.296875 146.847656 L 377.5625 134.183594 C 378.324219 133.753906 378.792969 132.949219 378.792969 132.074219 C 378.796875 130.207031 376.78125 129.03125 375.15625 129.957031 L 352.894531 142.617188 C 352.132812 143.046875 351.664062 143.855469 351.664062 144.734375 " fill-opacity="1" fill-rule="nonzero"/><path fill="#3a435e" d="M 351.664062 159.539062 L 351.664062 159.542969 C 351.664062 161.40625 353.675781 162.582031 355.296875 161.65625 L 377.5625 148.992188 C 378.324219 148.5625 378.792969 147.757812 378.792969 146.882812 C 378.796875 145.015625 376.78125 143.84375 375.15625 144.761719 L 352.894531 157.425781 C 352.132812 157.859375 351.664062 158.667969 351.664062 159.539062 " fill-opacity="1" fill-rule="nonzero"/><path fill="#3a435e" d="M 351.664062 174.347656 L 351.664062 174.351562 C 351.664062 176.214844 353.675781 177.386719 355.296875 176.464844 L 377.5625 163.800781 C 378.324219 163.371094 378.792969 162.566406 378.792969 161.691406 C 378.796875 159.824219 376.78125 158.648438 375.15625 159.574219 L 352.894531 172.234375 C 352.132812 172.667969 351.664062 173.472656 351.664062 174.347656 " fill-opacity="1" fill-rule="nonzero"/><path fill="#3a435e" d="M 351.664062 189.15625 L 351.664062 189.160156 C 351.664062 191.023438 353.675781 192.195312 355.296875 191.273438 L 377.5625 178.609375 C 378.324219 178.179688 378.792969 177.375 378.792969 176.503906 C 378.796875 174.632812 376.78125 173.457031 375.15625 174.382812 L 352.894531 187.042969 C 352.132812 187.476562 351.664062 188.28125 351.664062 189.15625 " fill-opacity="1" fill-rule="nonzero"/><path fill="#3a435e" d="M 324.757812 120.105469 L 254.96875 160.054688 L 213.371094 135.902344 L 283.527344 95.425781 L 324.757812 120.105469 " fill-opacity="1" fill-rule="nonzero"/><path fill="#000000" d="M 214.574219 135.902344 L 254.972656 159.359375 L 323.5625 120.09375 L 283.519531 96.128906 Z M 254.96875 160.660156 C 254.867188 160.660156 254.761719 160.632812 254.667969 160.578125 L 213.066406 136.421875 C 212.882812 136.316406 212.765625 136.117188 212.769531 135.902344 C 212.769531 135.6875 212.882812 135.488281 213.070312 135.378906 L 283.226562 94.90625 C 283.414062 94.796875 283.648438 94.796875 283.835938 94.910156 L 325.066406 119.585938 C 325.25 119.695312 325.359375 119.898438 325.359375 120.109375 C 325.355469 120.324219 325.242188 120.519531 325.054688 120.625 L 255.265625 160.578125 C 255.175781 160.632812 255.074219 160.660156 254.96875 160.660156 " fill-opacity="1" fill-rule="nonzero"/><path fill="#6c6f7f" d="M 254.980469 340.585938 L 254.980469 159.792969 L 324.78125 120.015625 L 324.78125 299.90625 L 254.980469 340.585938 " fill-opacity="1" fill-rule="nonzero"/><path fill="#000000" d="M 255.582031 160.144531 L 255.582031 339.535156 L 324.179688 299.5625 L 324.179688 121.050781 Z M 254.980469 341.1875 C 254.878906 341.1875 254.773438 341.160156 254.679688 341.105469 C 254.496094 341 254.375 340.800781 254.375 340.585938 L 254.375 159.796875 C 254.375 159.578125 254.496094 159.378906 254.683594 159.273438 L 324.484375 119.492188 C 324.667969 119.386719 324.898438 119.386719 325.085938 119.496094 C 325.269531 119.605469 325.382812 119.800781 325.382812 120.015625 L 325.382812 299.90625 C 325.382812 300.125 325.269531 300.320312 325.085938 300.429688 L 255.28125 341.105469 C 255.191406 341.160156 255.085938 341.1875 254.980469 341.1875 " fill-opacity="1" fill-rule="nonzero"/><path fill="#ffffff" d="M 254.980469 340.585938 L 254.980469 159.792969 L 213.59375 135.789062 L 213.59375 316.042969 L 254.980469 340.585938 " fill-opacity="1" fill-rule="nonzero"/><path fill="#000000" d="M 214.195312 315.699219 L 254.378906 339.527344 L 254.378906 160.144531 L 214.195312 136.835938 Z M 254.980469 341.1875 C 254.875 341.1875 254.769531 341.15625 254.671875 341.101562 L 213.285156 316.5625 C 213.105469 316.453125 212.992188 316.257812 212.992188 316.042969 L 212.992188 135.789062 C 212.992188 135.578125 213.105469 135.378906 213.292969 135.269531 C 213.476562 135.160156 213.710938 135.160156 213.894531 135.269531 L 255.28125 159.273438 C 255.46875 159.382812 255.582031 159.582031 255.582031 159.792969 L 255.582031 340.585938 C 255.582031 340.800781 255.464844 341 255.28125 341.105469 C 255.1875 341.160156 255.082031 341.1875 254.980469 341.1875 " fill-opacity="1" fill-rule="nonzero"/><path fill="#ffffff" d="M 249.789062 227.925781 L 225.816406 241.511719 L 195.015625 223.441406 L 219.09375 209.558594 L 249.789062 227.925781 " fill-opacity="1" fill-rule="nonzero"/><path fill="#000000" d="M 196.210938 223.445312 L 225.820312 240.816406 L 248.589844 227.914062 L 219.085938 210.253906 Z M 225.816406 242.113281 C 225.710938 242.113281 225.601562 242.085938 225.511719 242.03125 L 194.710938 223.960938 C 194.527344 223.855469 194.410156 223.652344 194.414062 223.441406 C 194.414062 223.226562 194.53125 223.027344 194.714844 222.921875 L 218.792969 209.035156 C 218.980469 208.925781 219.214844 208.925781 219.402344 209.039062 L 250.097656 227.410156 C 250.28125 227.519531 250.390625 227.71875 250.390625 227.933594 C 250.386719 228.148438 250.269531 228.34375 250.085938 228.449219 L 226.113281 242.035156 C 226.019531 242.085938 225.917969 242.113281 225.816406 242.113281 " fill-opacity="1" fill-rule="nonzero"/><path fill="#6c6f7f" d="M 225.824219 248.289062 L 225.824219 241.316406 L 249.804688 227.859375 L 249.804688 234.164062 L 225.824219 248.289062 " fill-opacity="1" fill-rule="nonzero"/><path fill="#000000" d="M 226.425781 241.671875 L 226.425781 247.234375 L 249.203125 233.820312 L 249.203125 228.890625 Z M 225.824219 248.890625 C 225.71875 248.890625 225.617188 248.863281 225.523438 248.808594 C 225.335938 248.703125 225.21875 248.503906 225.21875 248.289062 L 225.21875 241.316406 C 225.21875 241.097656 225.339844 240.898438 225.53125 240.792969 L 249.511719 227.335938 C 249.695312 227.230469 249.925781 227.234375 250.109375 227.34375 C 250.292969 227.449219 250.410156 227.648438 250.410156 227.859375 L 250.410156 234.164062 C 250.410156 234.378906 250.296875 234.574219 250.109375 234.683594 L 226.128906 248.808594 C 226.035156 248.863281 225.929688 248.890625 225.824219 248.890625 " fill-opacity="1" fill-rule="nonzero"/><path fill="#ffffff" d="M 225.824219 248.289062 L 225.824219 241.316406 L 195.011719 223.445312 L 195.011719 230.019531 L 225.824219 248.289062 " fill-opacity="1" fill-rule="nonzero"/><path fill="#000000" d="M 195.613281 229.675781 L 225.21875 247.230469 L 225.21875 241.664062 L 195.613281 224.492188 Z M 225.824219 248.890625 C 225.71875 248.890625 225.609375 248.859375 225.515625 248.808594 L 194.707031 230.535156 C 194.523438 230.429688 194.410156 230.230469 194.410156 230.019531 L 194.410156 223.445312 C 194.410156 223.230469 194.527344 223.03125 194.710938 222.925781 C 194.898438 222.816406 195.128906 222.816406 195.316406 222.925781 L 226.125 240.796875 C 226.3125 240.902344 226.425781 241.101562 226.425781 241.316406 L 226.425781 248.289062 C 226.425781 248.503906 226.308594 248.703125 226.121094 248.8125 C 226.027344 248.863281 225.925781 248.890625 225.824219 248.890625 " fill-opacity="1" fill-rule="nonzero"/><path fill="#ffffff" d="M 249.257812 227.476562 L 249.257812 182.445312 C 249.257812 181.503906 248.757812 180.636719 247.945312 180.164062 L 220.398438 164.1875 C 219.917969 163.910156 219.316406 164.253906 219.316406 164.8125 L 219.316406 209.722656 L 249.257812 227.476562 " fill-opacity="1" fill-rule="nonzero"/><path fill="#000000" d="M 219.917969 209.378906 L 248.65625 226.417969 L 248.65625 182.445312 C 248.65625 181.722656 248.269531 181.046875 247.640625 180.6875 L 220.09375 164.707031 C 220.054688 164.6875 220.015625 164.6875 219.976562 164.707031 C 219.9375 164.730469 219.917969 164.765625 219.917969 164.8125 Z M 249.257812 228.078125 C 249.152344 228.078125 249.042969 228.050781 248.949219 227.992188 L 219.007812 210.242188 C 218.824219 210.132812 218.710938 209.933594 218.710938 209.722656 L 218.710938 164.8125 C 218.710938 164.332031 218.960938 163.902344 219.375 163.664062 C 219.789062 163.425781 220.285156 163.425781 220.699219 163.667969 L 248.246094 179.644531 C 249.242188 180.222656 249.859375 181.292969 249.859375 182.445312 L 249.859375 227.476562 C 249.859375 227.691406 249.746094 227.890625 249.554688 228 C 249.464844 228.050781 249.359375 228.078125 249.257812 228.078125 " fill-opacity="1" fill-rule="nonzero"/><path fill="#3a435e" d="M 316.328125 154.199219 L 267.007812 182.25 C 265.386719 183.171875 263.371094 182 263.371094 180.132812 L 263.371094 180.128906 C 263.371094 179.253906 263.84375 178.445312 264.601562 178.015625 L 313.921875 149.96875 C 315.542969 149.046875 317.558594 150.21875 317.554688 152.089844 C 317.554688 152.960938 317.085938 153.765625 316.328125 154.199219 " fill-opacity="1" fill-rule="nonzero"/><path fill="#3a435e" d="M 316.328125 183.816406 L 267.007812 211.867188 C 265.386719 212.789062 263.371094 211.617188 263.371094 209.753906 L 263.371094 209.746094 C 263.371094 208.871094 263.84375 208.0625 264.601562 207.632812 L 313.921875 179.585938 C 315.542969 178.664062 317.558594 179.839844 317.554688 181.707031 C 317.554688 182.578125 317.085938 183.382812 316.328125 183.816406 " fill-opacity="1" fill-rule="nonzero"/><path fill="#3a435e" d="M 316.328125 198.625 L 267.007812 226.675781 C 265.386719 227.597656 263.371094 226.425781 263.371094 224.558594 L 263.371094 224.554688 C 263.371094 223.679688 263.84375 222.875 264.601562 222.441406 L 313.921875 194.394531 C 315.542969 193.472656 317.558594 194.648438 317.554688 196.515625 C 317.554688 197.386719 317.085938 198.191406 316.328125 198.625 " fill-opacity="1" fill-rule="nonzero"/><path fill="#3a435e" d="M 316.328125 213.433594 L 267.007812 241.484375 C 265.386719 242.40625 263.371094 241.234375 263.371094 239.371094 L 263.371094 239.363281 C 263.371094 238.488281 263.84375 237.679688 264.601562 237.246094 L 313.921875 209.203125 C 315.542969 208.28125 317.558594 209.457031 317.554688 211.324219 C 317.554688 212.195312 317.085938 213 316.328125 213.433594 " fill-opacity="1" fill-rule="nonzero"/><path fill="#3a435e" d="M 314 164.734375 L 264.601562 192.824219 C 263.84375 193.253906 263.371094 194.0625 263.371094 194.9375 L 263.371094 194.945312 C 263.371094 196.808594 265.386719 197.980469 267.007812 197.058594 L 316.40625 168.964844 C 317.167969 168.53125 317.636719 167.722656 317.636719 166.851562 L 317.636719 166.847656 C 317.636719 164.980469 315.621094 163.8125 314 164.734375 " fill-opacity="1" fill-rule="nonzero"/><path fill="#000000" d="M 361.132812 39.453125 C 360.976562 39.453125 360.824219 39.394531 360.707031 39.277344 L 359.328125 37.898438 C 359.089844 37.664062 359.089844 37.285156 359.328125 37.050781 C 359.5625 36.816406 359.945312 36.816406 360.179688 37.050781 L 361.558594 38.425781 C 361.792969 38.660156 361.792969 39.042969 361.558594 39.277344 C 361.4375 39.394531 361.285156 39.453125 361.132812 39.453125 " fill-opacity="1" fill-rule="nonzero"/><path fill="#000000" d="M 366.332031 44.652344 C 366.175781 44.652344 366.023438 44.59375 365.90625 44.476562 L 364.53125 43.101562 C 364.292969 42.863281 364.292969 42.484375 364.53125 42.25 C 364.765625 42.011719 365.144531 42.011719 365.382812 42.25 L 366.757812 43.625 C 366.992188 43.859375 366.992188 44.242188 366.757812 44.476562 C 366.640625 44.59375 366.484375 44.652344 366.332031 44.652344 " fill-opacity="1" fill-rule="nonzero"/><path fill="#000000" d="M 359.753906 44.652344 C 359.597656 44.652344 359.445312 44.59375 359.328125 44.476562 C 359.089844 44.242188 359.089844 43.859375 359.328125 43.625 L 360.707031 42.25 C 360.941406 42.011719 361.320312 42.011719 361.558594 42.25 C 361.792969 42.484375 361.792969 42.863281 361.558594 43.101562 L 360.179688 44.476562 C 360.0625 44.59375 359.910156 44.652344 359.753906 44.652344 " fill-opacity="1" fill-rule="nonzero"/><path fill="#000000" d="M 364.957031 39.453125 C 364.800781 39.453125 364.648438 39.394531 364.53125 39.277344 C 364.292969 39.039062 364.292969 38.660156 364.53125 38.425781 L 365.90625 37.050781 C 366.140625 36.8125 366.523438 36.8125 366.757812 37.050781 C 366.992188 37.285156 366.992188 37.664062 366.757812 37.902344 L 365.382812 39.277344 C 365.265625 39.394531 365.109375 39.453125 364.957031 39.453125 " fill-opacity="1" fill-rule="nonzero"/><path fill="#000000" d="M 161.203125 268.117188 C 160.867188 268.117188 160.597656 267.847656 160.597656 267.515625 L 160.597656 265.570312 C 160.597656 265.238281 160.867188 264.964844 161.203125 264.964844 C 161.535156 264.964844 161.804688 265.238281 161.804688 265.570312 L 161.804688 267.515625 C 161.804688 267.847656 161.535156 268.117188 161.203125 268.117188 " fill-opacity="1" fill-rule="nonzero"/><path fill="#000000" d="M 161.203125 260.761719 C 160.867188 260.761719 160.597656 260.492188 160.597656 260.160156 L 160.597656 258.214844 C 160.597656 257.878906 160.867188 257.613281 161.203125 257.613281 C 161.535156 257.613281 161.804688 257.878906 161.804688 258.214844 L 161.804688 260.160156 C 161.804688 260.492188 161.535156 260.761719 161.203125 260.761719 " fill-opacity="1" fill-rule="nonzero"/><path fill="#000000" d="M 165.851562 263.46875 L 163.90625 263.46875 C 163.574219 263.46875 163.304688 263.199219 163.304688 262.867188 C 163.304688 262.53125 163.574219 262.261719 163.90625 262.261719 L 165.851562 262.261719 C 166.183594 262.261719 166.453125 262.53125 166.453125 262.867188 C 166.453125 263.199219 166.183594 263.46875 165.851562 263.46875 " fill-opacity="1" fill-rule="nonzero"/><path fill="#000000" d="M 158.5 263.46875 L 156.550781 263.46875 C 156.21875 263.46875 155.949219 263.199219 155.949219 262.867188 C 155.949219 262.53125 156.21875 262.261719 156.550781 262.261719 L 158.5 262.261719 C 158.832031 262.261719 159.101562 262.53125 159.101562 262.867188 C 159.101562 263.199219 158.832031 263.46875 158.5 263.46875 " fill-opacity="1" fill-rule="nonzero"/><path fill="#000000" d="M 334.53125 20.328125 C 333.523438 20.328125 332.699219 21.148438 332.699219 22.15625 C 332.699219 23.167969 333.523438 23.988281 334.53125 23.988281 C 335.542969 23.988281 336.363281 23.167969 336.363281 22.15625 C 336.363281 21.148438 335.542969 20.328125 334.53125 20.328125 Z M 334.53125 25.191406 C 332.859375 25.191406 331.496094 23.832031 331.496094 22.15625 C 331.496094 20.484375 332.859375 19.121094 334.53125 19.121094 C 336.207031 19.121094 337.570312 20.484375 337.570312 22.15625 C 337.570312 23.832031 336.207031 25.191406 334.53125 25.191406 " fill-opacity="1" fill-rule="nonzero"/><path fill="#000000" d="M 158.679688 306.148438 C 157.144531 306.148438 155.894531 307.402344 155.894531 308.9375 C 155.894531 310.472656 157.144531 311.726562 158.679688 311.726562 C 160.21875 311.726562 161.46875 310.472656 161.46875 308.9375 C 161.46875 307.402344 160.21875 306.148438 158.679688 306.148438 Z M 158.679688 312.929688 C 156.480469 312.929688 154.6875 311.136719 154.6875 308.9375 C 154.6875 306.734375 156.480469 304.945312 158.679688 304.945312 C 160.882812 304.945312 162.671875 306.734375 162.671875 308.9375 C 162.671875 311.136719 160.882812 312.929688 158.679688 312.929688 " fill-opacity="1" fill-rule="nonzero"/><path fill="#000000" d="M 173.886719 318.667969 C 173.167969 318.667969 172.582031 319.253906 172.582031 319.972656 C 172.582031 320.691406 173.167969 321.277344 173.886719 321.277344 C 174.605469 321.277344 175.191406 320.691406 175.191406 319.972656 C 175.191406 319.253906 174.605469 318.667969 173.886719 318.667969 Z M 173.886719 322.480469 C 172.503906 322.480469 171.378906 321.355469 171.378906 319.972656 C 171.378906 318.589844 172.503906 317.460938 173.886719 317.460938 C 175.269531 317.460938 176.394531 318.589844 176.394531 319.972656 C 176.394531 321.355469 175.269531 322.480469 173.886719 322.480469 " fill-opacity="1" fill-rule="nonzero"/><path fill="#ffffff" d="M 70.796875 310.070312 L 68.617188 322.460938 L 75.058594 323.214844 L 77.6875 311.582031 L 70.796875 310.070312 " fill-opacity="1" fill-rule="nonzero"/><path fill="#000000" d="M 69.320312 321.9375 L 74.589844 322.554688 L 76.964844 312.042969 L 71.28125 310.792969 Z M 75.058594 323.820312 C 75.035156 323.820312 75.011719 323.820312 74.988281 323.816406 L 68.546875 323.0625 C 68.382812 323.039062 68.234375 322.953125 68.132812 322.820312 C 68.035156 322.6875 67.996094 322.519531 68.023438 322.355469 L 70.203125 309.964844 C 70.234375 309.804688 70.328125 309.660156 70.460938 309.570312 C 70.597656 309.476562 70.765625 309.449219 70.925781 309.480469 L 77.816406 310.996094 C 77.972656 311.03125 78.109375 311.125 78.195312 311.261719 C 78.28125 311.394531 78.308594 311.558594 78.273438 311.71875 L 75.644531 323.351562 C 75.582031 323.628906 75.335938 323.820312 75.058594 323.820312 " fill-opacity="1" fill-rule="nonzero"/><path fill="#3a435e" d="M 75.757812 320.535156 C 73.652344 321.378906 71.246094 320.835938 69.707031 319.167969 L 68.898438 318.289062 C 68.617188 317.984375 68.128906 318.023438 67.894531 318.367188 L 63.355469 325.054688 C 62.542969 326.152344 62.660156 327.816406 63.644531 328.769531 C 64.925781 330.015625 66.878906 331.695312 69.242188 333.039062 C 73.699219 335.574219 77.550781 340.980469 82.113281 339.671875 C 86.679688 338.367188 86.441406 338.148438 86.957031 336.707031 C 87.472656 335.265625 85.285156 332.304688 81.65625 328.992188 C 79.433594 326.964844 77.277344 322.589844 76.59375 320.886719 C 76.460938 320.558594 76.085938 320.402344 75.757812 320.535156 " fill-opacity="1" fill-rule="nonzero"/><path fill="#000000" d="M 75.757812 320.535156 L 75.761719 320.535156 Z M 68.457031 318.699219 L 68.394531 318.703125 L 63.855469 325.394531 C 63.195312 326.28125 63.296875 327.59375 64.0625 328.335938 C 65.269531 329.507812 67.199219 331.183594 69.539062 332.515625 C 70.988281 333.339844 72.367188 334.449219 73.699219 335.527344 C 76.492188 337.777344 79.128906 339.902344 81.949219 339.09375 C 85.886719 337.964844 85.957031 337.761719 86.285156 336.796875 C 86.316406 336.707031 86.351562 336.609375 86.390625 336.503906 C 86.707031 335.609375 85.242188 333.078125 81.25 329.4375 C 78.835938 327.238281 76.621094 322.574219 76.035156 321.113281 L 75.984375 321.09375 C 73.660156 322.027344 70.960938 321.417969 69.265625 319.578125 Z M 80.703125 340.476562 C 77.917969 340.476562 75.394531 338.441406 72.945312 336.464844 C 71.648438 335.417969 70.308594 334.335938 68.945312 333.5625 C 66.492188 332.167969 64.480469 330.421875 63.222656 329.203125 C 62.039062 328.054688 61.882812 326.03125 62.875 324.695312 L 67.398438 318.027344 C 67.613281 317.710938 67.953125 317.511719 68.335938 317.484375 C 68.71875 317.453125 69.082031 317.601562 69.34375 317.882812 L 70.152344 318.761719 C 71.507812 320.234375 73.671875 320.722656 75.535156 319.976562 C 75.84375 319.851562 76.179688 319.851562 76.484375 319.984375 C 76.792969 320.113281 77.027344 320.355469 77.152344 320.664062 C 77.855469 322.417969 79.980469 326.652344 82.0625 328.546875 C 84.96875 331.199219 88.277344 334.800781 87.523438 336.910156 C 87.488281 337.007812 87.457031 337.097656 87.425781 337.1875 C 86.90625 338.707031 86.515625 339.039062 82.28125 340.25 C 81.746094 340.40625 81.21875 340.476562 80.703125 340.476562 " fill-opacity="1" fill-rule="nonzero"/><path fill="#000000" d="M 87.445312 337.03125 C 87.445312 337.03125 83.730469 339.753906 78.6875 336.941406 C 75.324219 335.070312 62.9375 324.628906 62.9375 324.628906 L 61.859375 326.09375 C 61.3125 326.835938 61.234375 328.25 61.933594 328.859375 C 65.078125 331.613281 74.304688 338.871094 79.164062 340.3125 C 86.640625 342.523438 87.445312 337.03125 87.445312 337.03125 " fill-opacity="1" fill-rule="nonzero"/><path fill="#ffffff" d="M 105.675781 312.601562 L 102.519531 329.710938 L 109.609375 333.25 L 113.632812 314.632812 L 105.675781 312.601562 " fill-opacity="1" fill-rule="nonzero"/><path fill="#000000" d="M 103.191406 329.375 L 109.183594 332.363281 L 112.921875 315.074219 L 106.152344 313.34375 Z M 109.609375 333.851562 C 109.519531 333.851562 109.425781 333.832031 109.34375 333.789062 L 102.25 330.25 C 102.007812 330.132812 101.878906 329.867188 101.925781 329.601562 L 105.082031 312.488281 C 105.113281 312.328125 105.210938 312.179688 105.351562 312.09375 C 105.492188 312 105.664062 311.972656 105.824219 312.015625 L 113.78125 314.046875 C 114.09375 314.128906 114.289062 314.441406 114.222656 314.757812 L 110.199219 333.375 C 110.160156 333.558594 110.039062 333.710938 109.871094 333.792969 C 109.789062 333.832031 109.699219 333.851562 109.609375 333.851562 " fill-opacity="1" fill-rule="nonzero"/><path fill="#3a435e" d="M 101.453125 328.53125 C 101.203125 330.167969 99.289062 333.347656 99.226562 336.074219 C 99.1875 337.789062 100.449219 339.246094 102.136719 339.484375 C 106.902344 340.160156 119.230469 340.824219 128.46875 340.09375 C 129.101562 340.042969 130.226562 339.597656 130.554688 338.011719 C 131.664062 332.699219 122.464844 331.28125 112.410156 327.292969 C 112.015625 327.136719 111.566406 327.222656 111.261719 327.515625 L 110.15625 328.5625 C 109.054688 329.609375 107.433594 329.890625 106.046875 329.273438 L 102.75 327.816406 C 102.1875 327.566406 101.546875 327.921875 101.453125 328.53125 " fill-opacity="1" fill-rule="nonzero"/><path fill="#000000" d="M 101.453125 328.53125 L 101.457031 328.53125 Z M 102.375 328.335938 C 102.304688 328.335938 102.25 328.359375 102.21875 328.378906 C 102.164062 328.40625 102.070312 328.480469 102.050781 328.621094 C 101.941406 329.320312 101.589844 330.199219 101.183594 331.21875 C 100.566406 332.765625 99.867188 334.519531 99.828125 336.089844 C 99.796875 337.488281 100.824219 338.691406 102.21875 338.890625 C 107.179688 339.589844 119.363281 340.207031 128.421875 339.496094 C 128.628906 339.476562 129.667969 339.324219 129.964844 337.886719 C 130.707031 334.339844 125.804688 332.65625 119.019531 330.324219 C 116.824219 329.570312 114.558594 328.792969 112.1875 327.851562 C 112.011719 327.78125 111.8125 327.820312 111.675781 327.949219 L 110.574219 328.996094 C 109.289062 330.21875 107.417969 330.542969 105.800781 329.828125 L 102.503906 328.363281 C 102.457031 328.34375 102.414062 328.335938 102.375 328.335938 Z M 119.285156 341.015625 C 112.359375 341.015625 105.488281 340.566406 102.050781 340.082031 C 100.050781 339.800781 98.578125 338.070312 98.625 336.058594 C 98.667969 334.273438 99.441406 332.332031 100.066406 330.773438 C 100.429688 329.863281 100.769531 329.003906 100.859375 328.4375 C 100.929688 327.960938 101.214844 327.554688 101.640625 327.320312 C 102.0625 327.089844 102.554688 327.070312 102.992188 327.261719 L 106.289062 328.726562 C 107.460938 329.246094 108.816406 329.007812 109.742188 328.125 L 110.84375 327.078125 C 111.320312 326.625 112.019531 326.492188 112.632812 326.734375 C 114.976562 327.664062 117.230469 328.4375 119.410156 329.1875 C 126.503906 331.621094 132.101562 333.546875 131.144531 338.136719 C 130.777344 339.902344 129.5 340.617188 128.519531 340.695312 C 125.644531 340.921875 122.460938 341.015625 119.285156 341.015625 " fill-opacity="1" fill-rule="nonzero"/><path fill="#000000" d="M 99.023438 335.359375 C 99.023438 335.359375 99.011719 335.636719 99.011719 335.769531 C 98.96875 337.484375 100.230469 338.941406 101.917969 339.183594 C 106.6875 339.855469 119.207031 341.4375 128.445312 340.707031 C 129.078125 340.660156 130.226562 339.597656 130.554688 338.011719 C 130.65625 337.527344 130.609375 336.648438 130.609375 336.648438 L 129.953125 336.671875 C 120.625 337.023438 111.28125 336.6875 102 335.664062 L 99.023438 335.359375 " fill-opacity="1" fill-rule="nonzero"/><path fill="#000000" d="M 96.1875 214.023438 C 96.390625 214.96875 93.1875 221.488281 93.710938 227.890625 C 94.53125 237.925781 95.175781 243.136719 89.792969 253.109375 C 84.597656 262.726562 75.222656 271.914062 68.523438 311.949219 C 68.1875 313.953125 69.726562 315.785156 71.757812 315.808594 L 76.902344 315.871094 C 78.167969 315.886719 79.332031 315.183594 79.90625 314.058594 C 83.285156 307.410156 93.730469 287.746094 97.816406 280.375 C 102.617188 271.714844 116.292969 250.042969 117.085938 239.660156 C 117.839844 229.867188 117.152344 215.867188 117.070312 214.296875 C 117.066406 214.214844 117 214.148438 116.914062 214.144531 L 96.1875 214.023438 " fill-opacity="1" fill-rule="nonzero"/><path fill="#000000" d="M 125.082031 211.695312 C 125.082031 211.695312 137.261719 237.035156 129.964844 267.554688 C 124.6875 289.628906 117.203125 314.234375 114.796875 321.246094 C 114.324219 322.617188 113.03125 323.535156 111.582031 323.53125 L 105.960938 323.503906 C 103.933594 323.496094 102.367188 321.71875 102.617188 319.703125 C 104.0625 308.050781 108.515625 270.324219 108.191406 261.203125 C 107.65625 246.167969 103.234375 240.902344 102.46875 230.324219 C 101.628906 218.800781 104.832031 211.90625 104.832031 211.90625 L 125.082031 211.695312 " fill-opacity="1" fill-rule="nonzero"/><path fill="#caddff" d="M 107.390625 265.789062 C 107.375 265.789062 107.355469 265.785156 107.335938 265.785156 C 107.003906 265.753906 106.761719 265.460938 106.792969 265.128906 C 107.832031 253.882812 105.605469 247.574219 103.644531 242.007812 C 102.207031 237.929688 100.847656 234.078125 101.046875 228.976562 C 101.058594 228.644531 101.335938 228.378906 101.671875 228.398438 C 102.003906 228.410156 102.265625 228.691406 102.25 229.023438 C 102.0625 233.894531 103.320312 237.46875 104.78125 241.605469 C 106.785156 247.289062 109.054688 253.730469 107.992188 265.242188 C 107.960938 265.550781 107.699219 265.789062 107.390625 265.789062 " fill-opacity="1" fill-rule="nonzero"/><path fill="#ffffff" d="M 130.054688 167.957031 C 132.703125 170.820312 136.265625 174.316406 139.050781 175.652344 C 143.199219 177.636719 146.667969 178.058594 150.75 173.972656 C 154.832031 169.890625 158.753906 166.203125 159.367188 164.328125 C 159.980469 162.453125 160.445312 158.925781 161.722656 157.644531 C 163 156.363281 163.886719 155.328125 164.382812 154.378906 C 164.875 153.429688 165.242188 152.96875 165.773438 153.035156 C 166.691406 153.148438 167.113281 154.707031 165.65625 156.636719 C 164.234375 158.511719 165.257812 159.421875 166.195312 159.226562 C 167.882812 158.863281 168.117188 157.859375 168.144531 156.625 C 168.175781 155.230469 166.886719 153.746094 167.691406 153.160156 C 170.082031 151.417969 171.503906 158.726562 171.453125 159.585938 C 171.339844 161.597656 169.121094 162.867188 167.429688 163.792969 C 165.742188 164.71875 164.097656 165.882812 162.980469 167.363281 C 161.859375 168.847656 153.851562 184.875 147.28125 188.152344 C 139.699219 191.9375 124.066406 180.625 120.304688 178.285156 C 116.960938 176.207031 127.972656 165.703125 130.054688 167.957031 " fill-opacity="1" fill-rule="nonzero"/><path fill="#000000" d="M 167.128906 154.984375 C 166.984375 155.628906 166.648438 156.324219 166.136719 157 C 165.542969 157.78125 165.484375 158.296875 165.613281 158.5 C 165.699219 158.640625 165.90625 158.671875 166.070312 158.636719 C 167.300781 158.371094 167.519531 157.800781 167.542969 156.613281 C 167.550781 156.140625 167.359375 155.609375 167.171875 155.097656 C 167.15625 155.058594 167.144531 155.023438 167.128906 154.984375 Z M 129.226562 168.242188 C 129.046875 168.242188 128.816406 168.285156 128.550781 168.371094 C 125.761719 169.273438 120.613281 174.257812 120.292969 176.882812 C 120.222656 177.449219 120.433594 177.65625 120.621094 177.773438 C 121.03125 178.027344 121.582031 178.390625 122.246094 178.824219 C 127.253906 182.109375 140.5625 190.835938 147.011719 187.613281 C 152.144531 185.050781 158.410156 174.066406 161.085938 169.375 C 161.789062 168.136719 162.257812 167.320312 162.496094 167.003906 C 163.527344 165.636719 165.046875 164.414062 167.140625 163.261719 C 168.582031 162.472656 170.753906 161.28125 170.851562 159.550781 C 170.890625 158.894531 169.929688 154.261719 168.636719 153.558594 C 168.507812 153.488281 168.34375 153.429688 168.046875 153.648438 C 167.976562 153.792969 168.179688 154.347656 168.300781 154.679688 C 168.515625 155.269531 168.761719 155.9375 168.746094 156.640625 C 168.71875 158.027344 168.402344 159.367188 166.320312 159.8125 C 165.625 159.960938 164.945312 159.699219 164.59375 159.148438 C 164.324219 158.71875 164.035156 157.777344 165.175781 156.273438 C 166.015625 155.160156 166.109375 154.273438 165.933594 153.855469 C 165.875 153.722656 165.796875 153.644531 165.699219 153.632812 C 165.539062 153.609375 165.28125 153.960938 164.914062 154.65625 C 164.425781 155.59375 163.597656 156.617188 162.148438 158.070312 C 161.355469 158.863281 160.863281 160.898438 160.46875 162.535156 C 160.289062 163.265625 160.125 163.953125 159.941406 164.515625 C 159.367188 166.265625 156.503906 169.109375 152.875 172.710938 C 152.320312 173.261719 151.75 173.828125 151.175781 174.398438 C 146.839844 178.738281 143.089844 178.253906 138.789062 176.195312 C 136.484375 175.089844 133.398438 172.457031 129.613281 168.367188 C 129.539062 168.285156 129.40625 168.242188 129.226562 168.242188 Z M 143.652344 189.519531 C 136.355469 189.519531 126.316406 182.933594 121.585938 179.832031 C 120.933594 179.402344 120.390625 179.046875 119.988281 178.796875 C 119.300781 178.371094 118.984375 177.640625 119.097656 176.738281 C 119.476562 173.628906 125 168.253906 128.179688 167.226562 C 129.464844 166.808594 130.152344 167.171875 130.5 167.546875 C 134.125 171.46875 137.171875 174.082031 139.308594 175.109375 C 143.257812 177 146.476562 177.398438 150.324219 173.550781 C 150.898438 172.976562 151.46875 172.410156 152.027344 171.851562 C 155.261719 168.644531 158.3125 165.613281 158.796875 164.140625 C 158.964844 163.625 159.125 162.957031 159.296875 162.25 C 159.75 160.378906 160.265625 158.253906 161.296875 157.222656 C 162.636719 155.875 163.421875 154.914062 163.847656 154.101562 C 164.222656 153.382812 164.785156 152.304688 165.847656 152.4375 C 166.300781 152.496094 166.6875 152.757812 166.929688 153.167969 C 167.011719 152.984375 167.140625 152.816406 167.335938 152.675781 C 167.941406 152.234375 168.609375 152.171875 169.214844 152.5 C 171.269531 153.621094 172.089844 159.042969 172.054688 159.621094 C 171.921875 162.015625 169.394531 163.402344 167.71875 164.320312 C 165.777344 165.386719 164.386719 166.5 163.460938 167.726562 C 163.265625 167.984375 162.765625 168.863281 162.132812 169.972656 C 159.171875 175.164062 153.007812 185.964844 147.550781 188.691406 C 146.394531 189.269531 145.074219 189.519531 143.652344 189.519531 " fill-opacity="1" fill-rule="nonzero"/><path fill="#3a435e" d="M 138.941406 172.414062 C 134.210938 169.886719 130.105469 166.351562 127.464844 163.800781 C 124.6875 161.113281 121.109375 159.386719 117.273438 158.894531 C 108.980469 157.832031 98.523438 158.878906 93.285156 162.339844 C 86.679688 166.699219 87.65625 173.707031 89.042969 176.878906 C 89.757812 178.507812 92.464844 185.304688 93.167969 187.285156 C 97.558594 199.578125 95.578125 209.207031 94.503906 217.386719 C 94.355469 218.519531 95.09375 219.523438 96.175781 219.871094 C 101.90625 221.691406 108.710938 222.921875 127.164062 218.433594 C 128.3125 218.152344 128.960938 216.945312 128.578125 215.828125 C 123.796875 201.957031 127.339844 194.824219 128.9375 187.296875 L 131.492188 188.398438 C 132.566406 188.644531 133.535156 188.183594 134.304688 187.492188 C 135.667969 186.257812 137.242188 184.476562 138.742188 181.484375 C 140.730469 177.519531 141.023438 173.527344 138.941406 172.414062 " fill-opacity="1" fill-rule="nonzero"/><path fill="#000000" d="M 121.882812 135.277344 C 122.125 134.523438 122.019531 133.707031 121.59375 133.039062 C 120.355469 131.074219 117.28125 127.3125 112.152344 127.695312 C 104.925781 128.238281 102.417969 131.597656 101.285156 137.359375 C 100.488281 141.40625 102.117188 147.402344 105.011719 148.914062 C 109.183594 151.09375 112.730469 148.351562 112.730469 148.351562 L 121.484375 136.507812 L 121.882812 135.277344 " fill-opacity="1" fill-rule="nonzero"/><path fill="#000000" d="M 103.886719 135.558594 L 105.699219 131 C 105.699219 131 101.574219 127.5 96.785156 128.046875 C 91.90625 128.609375 86.367188 133.289062 87.054688 141.789062 C 87.410156 146.207031 83.695312 148.410156 80.171875 151.707031 C 79.414062 152.410156 78.617188 153.074219 77.816406 153.726562 C 72.027344 158.441406 73.027344 163.527344 73.027344 163.527344 C 73.308594 162.503906 74.007812 161.613281 74.835938 160.875 C 73.695312 168.484375 79.382812 176.558594 86.777344 178.210938 C 93.773438 179.773438 102.414062 175.234375 104.320312 169.90625 C 106.167969 164.734375 104.90625 157.238281 102.414062 151.539062 C 99.917969 145.835938 98.355469 138.179688 103.886719 135.558594 " fill-opacity="1" fill-rule="nonzero"/><path fill="#ffffff" d="M 121.519531 134.710938 C 121.519531 134.710938 122.25 137.214844 121.722656 139.042969 C 121.328125 140.40625 122.359375 142.222656 123.050781 142.96875 C 123.242188 143.179688 123.179688 143.515625 122.929688 143.648438 L 122.046875 144.085938 C 121.71875 144.253906 121.503906 144.585938 121.480469 144.953125 C 121.390625 146.230469 121.109375 149.1875 120.539062 149.914062 C 119.609375 151.109375 115.695312 149.785156 114.855469 149.53125 C 114.765625 149.503906 114.859375 158.625 114.859375 158.625 C 114.832031 160.269531 114.417969 161.390625 113.433594 162.242188 C 111.242188 164.140625 104.273438 164.824219 103.746094 161.667969 C 103.675781 161.230469 103.265625 160.9375 103.527344 160.582031 C 104.53125 159.230469 105.46875 157.609375 105.796875 155.328125 C 106.222656 152.371094 105.84375 149.050781 105.84375 149.050781 C 105.84375 149.050781 107.632812 149.09375 109.476562 147.296875 C 111.074219 145.738281 112.035156 143.617188 111.640625 142.929688 C 110.742188 141.355469 110.160156 139.835938 111.453125 138.65625 C 112.691406 137.527344 113.898438 138.4375 114.46875 139.117188 C 115.25 140.054688 118.691406 139.484375 120.171875 136.902344 C 121.65625 134.316406 121.519531 134.710938 121.519531 134.710938 " fill-opacity="1" fill-rule="nonzero"/><path fill="#000000" d="M 104.070312 160.863281 C 104.082031 160.894531 104.101562 160.929688 104.117188 160.960938 C 104.195312 161.109375 104.300781 161.316406 104.339844 161.570312 C 104.441406 162.179688 104.902344 162.632812 105.703125 162.921875 C 107.894531 163.710938 111.695312 162.953125 113.042969 161.785156 C 113.867188 161.070312 114.230469 160.121094 114.257812 158.617188 C 114.164062 149.296875 114.164062 149.296875 114.492188 149.050781 L 114.734375 148.867188 L 115.234375 149.015625 C 119.144531 150.238281 119.921875 149.730469 120.066406 149.542969 C 120.378906 149.140625 120.722656 147.191406 120.878906 144.910156 C 120.917969 144.328125 121.25 143.820312 121.765625 143.550781 L 122.457031 143.207031 C 121.664062 142.257812 120.707031 140.398438 121.144531 138.878906 C 121.378906 138.0625 121.332031 137.074219 121.226562 136.285156 C 121.078125 136.535156 120.90625 136.835938 120.695312 137.199219 C 119.570312 139.160156 117.53125 140.003906 116.128906 140.128906 C 115.164062 140.210938 114.410156 139.992188 114.007812 139.503906 C 113.863281 139.332031 113.347656 138.769531 112.753906 138.726562 C 112.453125 138.707031 112.160156 138.828125 111.859375 139.101562 C 111.042969 139.847656 111.125 140.804688 112.164062 142.632812 C 112.796875 143.742188 111.503906 146.160156 109.898438 147.726562 C 108.578125 149.015625 107.261719 149.445312 106.496094 149.585938 C 106.589844 150.695312 106.722656 153.136719 106.394531 155.410156 C 106.035156 157.902344 104.972656 159.628906 104.070312 160.863281 Z M 107.882812 164.441406 C 106.929688 164.441406 106.027344 164.320312 105.296875 164.054688 C 104.070312 163.613281 103.328125 162.824219 103.152344 161.765625 C 103.140625 161.699219 103.09375 161.609375 103.042969 161.507812 C 102.917969 161.261719 102.65625 160.75 103.042969 160.222656 C 103.929688 159.027344 104.875 157.5 105.203125 155.242188 C 105.609375 152.394531 105.246094 149.152344 105.242188 149.121094 L 105.164062 148.433594 L 105.855469 148.449219 C 105.917969 148.460938 107.4375 148.445312 109.058594 146.863281 C 110.601562 145.355469 111.253906 143.570312 111.113281 143.222656 C 110.5 142.140625 109.210938 139.882812 111.046875 138.210938 C 111.597656 137.710938 112.199219 137.480469 112.835938 137.527344 C 113.875 137.597656 114.648438 138.390625 114.929688 138.730469 C 115.023438 138.839844 115.386719 138.980469 116.023438 138.925781 C 117.226562 138.820312 118.816406 138.0625 119.652344 136.601562 C 120.15625 135.71875 120.53125 135.085938 120.765625 134.714844 C 120.988281 134.359375 121.265625 133.914062 121.769531 134.140625 L 122.265625 134.363281 L 122.148438 134.726562 C 122.3125 135.367188 122.792969 137.511719 122.300781 139.210938 C 122.007812 140.234375 122.804688 141.8125 123.492188 142.5625 C 123.710938 142.800781 123.804688 143.121094 123.75 143.4375 C 123.695312 143.757812 123.496094 144.027344 123.210938 144.179688 L 122.3125 144.625 C 122.183594 144.691406 122.089844 144.832031 122.082031 144.992188 C 121.96875 146.601562 121.683594 149.429688 121.015625 150.285156 C 120.09375 151.464844 117.632812 150.988281 115.425781 150.335938 C 115.40625 151.96875 115.4375 155.976562 115.460938 158.621094 C 115.429688 160.496094 114.925781 161.746094 113.828125 162.699219 C 112.578125 163.78125 110.09375 164.441406 107.882812 164.441406 " fill-opacity="1" fill-rule="nonzero"/><path fill="#000000" d="M 113.285156 144.195312 C 112.019531 144.195312 110.957031 143.273438 110.308594 141.574219 C 110.191406 141.261719 110.34375 140.914062 110.65625 140.792969 C 110.96875 140.675781 111.316406 140.832031 111.433594 141.140625 C 111.804688 142.117188 112.496094 143.222656 113.664062 142.945312 C 113.988281 142.867188 114.3125 143.066406 114.390625 143.390625 C 114.46875 143.714844 114.265625 144.039062 113.945312 144.117188 C 113.71875 144.167969 113.5 144.195312 113.285156 144.195312 " fill-opacity="1" fill-rule="nonzero"/><g clip-path="url(#43ac054492)"><path fill="#3a435e" d="M 411.199219 305.367188 C 410.875 305.097656 410.449219 304.988281 410.039062 305.066406 L 370.613281 312.585938 C 369.949219 312.710938 369.46875 313.292969 369.46875 313.972656 L 369.46875 366.605469 C 369.46875 367.28125 369.949219 367.863281 370.613281 367.988281 L 410.039062 375.507812 C 410.125 375.523438 410.214844 375.53125 410.300781 375.53125 C 410.625 375.53125 410.945312 375.417969 411.199219 375.210938 C 411.523438 374.941406 411.710938 374.542969 411.710938 374.121094 L 411.710938 306.453125 C 411.710938 306.03125 411.523438 305.632812 411.199219 305.367188 Z M 395.542969 353.507812 L 391.007812 344.925781 C 390.835938 344.605469 390.65625 344.015625 390.472656 343.160156 L 390.402344 343.160156 C 390.316406 343.5625 390.113281 344.175781 389.792969 344.996094 L 385.242188 353.507812 L 378.175781 353.507812 L 386.5625 340.328125 L 378.890625 327.148438 L 386.105469 327.148438 L 389.871094 335.050781 C 390.164062 335.675781 390.429688 336.417969 390.660156 337.277344 L 390.730469 337.277344 C 390.878906 336.761719 391.152344 335.996094 391.558594 334.976562 L 395.742188 327.148438 L 402.351562 327.148438 L 394.457031 340.21875 L 402.574219 353.507812 Z M 395.542969 353.507812 " fill-opacity="1" fill-rule="nonzero"/></g><g clip-path="url(#042d7aaaf2)"><path fill="#3a435e" d="M 435.648438 313.5 L 414.527344 313.5 L 414.527344 323.371094 L 417.34375 323.371094 L 417.34375 326.191406 L 414.527344 326.191406 L 414.527344 333.238281 L 417.34375 333.238281 L 417.34375 336.058594 L 414.527344 336.058594 L 414.527344 343.105469 L 417.34375 343.105469 L 417.34375 345.925781 L 414.527344 345.925781 L 414.527344 354.386719 L 417.34375 354.386719 L 417.34375 357.203125 L 414.527344 357.203125 L 414.527344 367.074219 L 435.648438 367.074219 C 437.199219 367.074219 438.460938 365.808594 438.460938 364.253906 L 438.460938 316.320312 C 438.460938 314.765625 437.199219 313.5 435.648438 313.5 Z M 431.421875 357.203125 L 420.160156 357.203125 L 420.160156 354.386719 L 431.421875 354.386719 Z M 431.421875 345.925781 L 420.160156 345.925781 L 420.160156 343.105469 L 431.421875 343.105469 Z M 431.421875 336.058594 L 420.160156 336.058594 L 420.160156 333.238281 L 431.421875 333.238281 Z M 431.421875 326.191406 L 420.160156 326.191406 L 420.160156 323.371094 L 431.421875 323.371094 Z M 431.421875 326.191406 " fill-opacity="1" fill-rule="nonzero"/></g></svg>