<svg xmlns="http://www.w3.org/2000/svg" xmlns:xlink="http://www.w3.org/1999/xlink" width="585" zoomAndPan="magnify" viewBox="0 0 438.75 375.749991" height="501" preserveAspectRatio="xMidYMid meet" version="1.0"><defs><clipPath id="446eded4e8"><path d="M 369.46875 305.042969 L 412 305.042969 L 412 375.5 L 369.46875 375.5 Z M 369.46875 305.042969 " clip-rule="nonzero"/></clipPath><clipPath id="4c20200183"><path d="M 414 313 L 438.460938 313 L 438.460938 368 L 414 368 Z M 414 313 " clip-rule="nonzero"/></clipPath></defs><path fill="#a6a6a6" d="M 57.125 75.960938 C 84.234375 29.980469 135.832031 18.738281 155.289062 14.503906 C 221.519531 0.0742188 319.511719 17.410156 366.792969 95.773438 C 408.292969 164.550781 385.1875 238.011719 381.835938 248.082031 C 376.226562 264.972656 362.160156 305.484375 322.296875 332.925781 C 260.242188 375.644531 165.648438 366.0625 133.277344 321.964844 C 118.074219 301.253906 130.375 291.699219 112.671875 255.082031 C 88.957031 206.035156 59.523438 207.210938 45.8125 167.941406 C 30.332031 123.617188 54.621094 80.210938 57.125 75.960938 " fill-opacity="1" fill-rule="nonzero"/><path fill="#99b9ff" d="M 41.234375 296.007812 C 41.019531 296.007812 40.804688 295.894531 40.6875 295.691406 C 40.511719 295.386719 40.613281 295 40.914062 294.824219 L 60.03125 283.667969 C 60.332031 283.492188 60.722656 283.59375 60.898438 283.898438 C 61.074219 284.199219 60.972656 284.589844 60.667969 284.765625 L 41.554688 295.921875 C 41.453125 295.976562 41.34375 296.007812 41.234375 296.007812 " fill-opacity="1" fill-rule="nonzero"/><path fill="#99b9ff" d="M 149.886719 296.214844 C 149.773438 296.214844 149.664062 296.183594 149.5625 296.125 L 141.929688 291.59375 C 141.625 291.414062 141.527344 291.023438 141.707031 290.722656 C 141.886719 290.421875 142.273438 290.320312 142.578125 290.5 L 150.210938 295.03125 C 150.511719 295.210938 150.609375 295.601562 150.433594 295.902344 C 150.3125 296.101562 150.101562 296.214844 149.886719 296.214844 " fill-opacity="1" fill-rule="nonzero"/><path fill="#99b9ff" d="M 133.976562 286.769531 C 133.867188 286.769531 133.753906 286.742188 133.652344 286.683594 L 116.777344 276.667969 C 116.476562 276.488281 116.375 276.097656 116.554688 275.796875 C 116.734375 275.496094 117.125 275.394531 117.425781 275.574219 L 134.300781 285.589844 C 134.601562 285.769531 134.703125 286.160156 134.523438 286.460938 C 134.40625 286.660156 134.195312 286.769531 133.976562 286.769531 " fill-opacity="1" fill-rule="nonzero"/><path fill="#99b9ff" d="M 106.511719 270.4375 C 106.398438 270.4375 106.289062 270.410156 106.1875 270.347656 L 95.605469 264.035156 C 95.304688 263.855469 95.207031 263.464844 95.386719 263.164062 C 95.566406 262.863281 95.953125 262.761719 96.257812 262.941406 L 106.835938 269.253906 C 107.136719 269.4375 107.234375 269.824219 107.054688 270.125 C 106.9375 270.324219 106.726562 270.4375 106.511719 270.4375 " fill-opacity="1" fill-rule="nonzero"/><path fill="#99b9ff" d="M 71.457031 278.382812 C 71.238281 278.382812 71.027344 278.269531 70.90625 278.066406 C 70.730469 277.761719 70.832031 277.375 71.136719 277.199219 L 87.367188 267.742188 C 87.671875 267.5625 88.0625 267.667969 88.238281 267.96875 C 88.414062 268.273438 88.3125 268.660156 88.007812 268.839844 L 71.777344 278.296875 C 71.675781 278.351562 71.566406 278.382812 71.457031 278.382812 " fill-opacity="1" fill-rule="nonzero"/><path fill="#3a435e" d="M 95.324219 345.003906 C 95.214844 345.003906 95.105469 344.976562 95.007812 344.921875 C 94.8125 344.808594 94.691406 344.597656 94.691406 344.371094 L 94.691406 326.871094 C 94.691406 326.644531 94.8125 326.433594 95.007812 326.320312 L 109.691406 317.898438 C 109.996094 317.726562 110.386719 317.828125 110.558594 318.132812 C 110.734375 318.4375 110.628906 318.824219 110.324219 319 L 95.960938 327.238281 L 95.960938 343.257812 L 149.25 311.8125 L 149.25 296.675781 L 123.242188 311.59375 C 122.9375 311.765625 122.550781 311.660156 122.375 311.355469 C 122.199219 311.050781 122.308594 310.664062 122.609375 310.488281 L 149.570312 295.027344 C 149.765625 294.914062 150.007812 294.914062 150.203125 295.027344 C 150.398438 295.140625 150.519531 295.351562 150.519531 295.578125 L 150.519531 312.175781 C 150.519531 312.398438 150.402344 312.609375 150.210938 312.722656 L 95.648438 344.917969 C 95.546875 344.976562 95.4375 345.003906 95.324219 345.003906 " fill-opacity="1" fill-rule="nonzero"/><path fill="#3a435e" d="M 41.871094 311.96875 L 94.691406 343.257812 L 94.691406 327.234375 L 41.871094 296.476562 Z M 95.324219 345.003906 C 95.210938 345.003906 95.101562 344.976562 95 344.917969 L 40.910156 312.878906 C 40.71875 312.761719 40.601562 312.554688 40.601562 312.332031 L 40.601562 295.371094 C 40.601562 295.144531 40.722656 294.933594 40.917969 294.820312 C 41.117188 294.707031 41.359375 294.707031 41.554688 294.820312 L 95.644531 326.324219 C 95.839844 326.4375 95.960938 326.644531 95.960938 326.871094 L 95.960938 344.371094 C 95.960938 344.601562 95.835938 344.808594 95.640625 344.921875 C 95.542969 344.976562 95.433594 345.003906 95.324219 345.003906 " fill-opacity="1" fill-rule="nonzero"/><path fill="#99b9ff" d="M 149.886719 267.058594 C 149.777344 267.058594 149.664062 267.03125 149.5625 266.96875 L 132.226562 256.730469 C 131.925781 256.550781 131.824219 256.160156 132.003906 255.859375 C 132.183594 255.558594 132.570312 255.457031 132.871094 255.636719 L 150.210938 265.875 C 150.511719 266.054688 150.609375 266.445312 150.433594 266.746094 C 150.316406 266.945312 150.101562 267.058594 149.886719 267.058594 " fill-opacity="1" fill-rule="nonzero"/><path fill="#99b9ff" d="M 121.566406 250.265625 C 121.453125 250.265625 121.34375 250.234375 121.242188 250.175781 L 103.730469 239.726562 C 103.429688 239.546875 103.332031 239.15625 103.507812 238.855469 C 103.6875 238.554688 104.078125 238.457031 104.378906 238.636719 L 121.890625 249.082031 C 122.191406 249.261719 122.292969 249.652344 122.113281 249.957031 C 121.992188 250.152344 121.78125 250.265625 121.566406 250.265625 " fill-opacity="1" fill-rule="nonzero"/><path fill="#99b9ff" d="M 72.109375 248.855469 C 71.890625 248.855469 71.679688 248.742188 71.5625 248.539062 C 71.382812 248.234375 71.488281 247.847656 71.789062 247.671875 L 95.609375 233.785156 C 95.914062 233.609375 96.300781 233.710938 96.480469 234.015625 C 96.65625 234.316406 96.554688 234.707031 96.25 234.882812 L 72.429688 248.769531 C 72.328125 248.828125 72.21875 248.855469 72.109375 248.855469 " fill-opacity="1" fill-rule="nonzero"/><path fill="#99b9ff" d="M 41.234375 266.851562 C 41.019531 266.851562 40.804688 266.738281 40.6875 266.535156 C 40.511719 266.234375 40.613281 265.84375 40.914062 265.664062 L 60.65625 254.160156 C 60.957031 253.984375 61.347656 254.085938 61.523438 254.390625 C 61.699219 254.691406 61.597656 255.082031 61.292969 255.257812 L 41.554688 266.761719 C 41.453125 266.824219 41.34375 266.851562 41.234375 266.851562 " fill-opacity="1" fill-rule="nonzero"/><path fill="#3a435e" d="M 95.324219 315.851562 C 95.214844 315.851562 95.105469 315.824219 95.007812 315.769531 C 94.8125 315.652344 94.691406 315.441406 94.691406 315.214844 L 94.691406 297.714844 C 94.691406 297.488281 94.8125 297.277344 95.007812 297.164062 L 128.816406 277.773438 C 129.121094 277.597656 129.511719 277.707031 129.683594 278.007812 C 129.859375 278.3125 129.753906 278.699219 129.449219 278.875 L 95.960938 298.082031 L 95.960938 314.101562 L 149.25 282.65625 L 149.25 267.519531 L 139.59375 273.058594 C 139.289062 273.234375 138.902344 273.128906 138.726562 272.824219 C 138.550781 272.519531 138.65625 272.128906 138.960938 271.957031 L 149.570312 265.871094 C 149.765625 265.757812 150.007812 265.757812 150.203125 265.871094 C 150.398438 265.988281 150.519531 266.195312 150.519531 266.421875 L 150.519531 283.019531 C 150.519531 283.242188 150.402344 283.449219 150.210938 283.566406 L 95.648438 315.761719 C 95.546875 315.820312 95.4375 315.851562 95.324219 315.851562 " fill-opacity="1" fill-rule="nonzero"/><path fill="#3a435e" d="M 95.324219 315.851562 C 95.210938 315.851562 95.101562 315.820312 95 315.761719 L 69.40625 300.601562 C 69.105469 300.421875 69.003906 300.03125 69.183594 299.730469 C 69.359375 299.429688 69.75 299.328125 70.050781 299.507812 L 94.691406 314.101562 L 94.691406 298.078125 L 41.871094 267.320312 L 41.871094 282.8125 L 60.957031 294.121094 C 61.257812 294.300781 61.359375 294.6875 61.179688 294.988281 C 61 295.292969 60.613281 295.390625 60.308594 295.214844 L 40.910156 283.722656 C 40.71875 283.605469 40.601562 283.398438 40.601562 283.175781 L 40.601562 266.214844 C 40.601562 265.988281 40.722656 265.777344 40.917969 265.664062 C 41.117188 265.550781 41.359375 265.550781 41.554688 265.664062 L 95.644531 297.167969 C 95.839844 297.28125 95.960938 297.488281 95.960938 297.714844 L 95.960938 315.214844 C 95.960938 315.445312 95.835938 315.652344 95.640625 315.769531 C 95.542969 315.824219 95.433594 315.851562 95.324219 315.851562 " fill-opacity="1" fill-rule="nonzero"/><path fill="#99b9ff" d="M 149.859375 237.992188 C 149.75 237.992188 149.636719 237.964844 149.535156 237.902344 L 134.289062 228.804688 C 133.988281 228.625 133.890625 228.234375 134.070312 227.933594 C 134.25 227.632812 134.636719 227.535156 134.941406 227.710938 L 150.1875 236.808594 C 150.488281 236.992188 150.585938 237.382812 150.40625 237.679688 C 150.289062 237.878906 150.078125 237.992188 149.859375 237.992188 " fill-opacity="1" fill-rule="nonzero"/><path fill="#99b9ff" d="M 134.613281 228.894531 C 134.503906 228.894531 134.390625 228.867188 134.289062 228.804688 L 118.996094 219.679688 C 118.691406 219.5 118.59375 219.109375 118.773438 218.808594 C 118.953125 218.507812 119.34375 218.40625 119.644531 218.585938 L 134.941406 227.710938 C 135.242188 227.894531 135.339844 228.285156 135.160156 228.585938 C 135.039062 228.78125 134.828125 228.894531 134.613281 228.894531 " fill-opacity="1" fill-rule="nonzero"/><path fill="#99b9ff" d="M 109.835938 214.113281 C 109.726562 214.113281 109.613281 214.082031 109.511719 214.023438 L 95.605469 205.722656 C 95.304688 205.542969 95.207031 205.15625 95.386719 204.851562 C 95.566406 204.550781 95.953125 204.453125 96.257812 204.632812 L 110.164062 212.929688 C 110.464844 213.109375 110.5625 213.5 110.382812 213.800781 C 110.265625 214 110.054688 214.113281 109.835938 214.113281 " fill-opacity="1" fill-rule="nonzero"/><path fill="#99b9ff" d="M 69.75 221.074219 C 69.53125 221.074219 69.320312 220.960938 69.199219 220.757812 C 69.023438 220.457031 69.125 220.066406 69.429688 219.890625 L 85.46875 210.539062 C 85.773438 210.363281 86.160156 210.464844 86.339844 210.769531 C 86.515625 211.070312 86.414062 211.460938 86.109375 211.636719 L 70.070312 220.988281 C 69.96875 221.046875 69.859375 221.074219 69.75 221.074219 " fill-opacity="1" fill-rule="nonzero"/><path fill="#99b9ff" d="M 41.234375 237.695312 C 41.019531 237.695312 40.804688 237.582031 40.6875 237.378906 C 40.511719 237.078125 40.613281 236.6875 40.914062 236.511719 L 56.878906 227.203125 C 57.183594 227.027344 57.570312 227.132812 57.75 227.433594 C 57.925781 227.738281 57.824219 228.125 57.519531 228.300781 L 41.554688 237.609375 C 41.453125 237.667969 41.34375 237.695312 41.234375 237.695312 " fill-opacity="1" fill-rule="nonzero"/><path fill="#3a435e" d="M 143.859375 258.058594 C 143.640625 258.058594 143.429688 257.945312 143.3125 257.742188 C 143.132812 257.441406 143.234375 257.050781 143.535156 256.875 L 149.25 253.503906 L 149.25 238.363281 L 118.628906 255.925781 C 118.324219 256.101562 117.9375 255.996094 117.761719 255.691406 C 117.589844 255.386719 117.695312 255 117.996094 254.824219 L 149.570312 236.714844 C 149.765625 236.605469 150.007812 236.605469 150.203125 236.71875 C 150.398438 236.832031 150.519531 237.039062 150.519531 237.269531 L 150.519531 253.863281 C 150.519531 254.089844 150.402344 254.296875 150.210938 254.410156 L 144.179688 257.96875 C 144.078125 258.027344 143.96875 258.058594 143.859375 258.058594 " fill-opacity="1" fill-rule="nonzero"/><path fill="#3a435e" d="M 95.324219 286.695312 C 95.214844 286.695312 95.105469 286.667969 95.007812 286.613281 C 94.8125 286.5 94.691406 286.289062 94.691406 286.0625 L 94.691406 268.558594 C 94.691406 268.332031 94.8125 268.121094 95.007812 268.011719 L 105.316406 262.097656 C 105.621094 261.921875 106.007812 262.027344 106.183594 262.332031 C 106.355469 262.636719 106.25 263.023438 105.949219 263.199219 L 95.960938 268.929688 L 95.960938 284.949219 L 133.566406 262.757812 C 133.871094 262.578125 134.261719 262.679688 134.4375 262.980469 C 134.617188 263.28125 134.515625 263.671875 134.214844 263.847656 L 95.648438 286.605469 C 95.546875 286.667969 95.4375 286.695312 95.324219 286.695312 " fill-opacity="1" fill-rule="nonzero"/><path fill="#3a435e" d="M 41.871094 253.660156 L 94.691406 284.945312 L 94.691406 268.925781 L 41.871094 238.164062 Z M 95.324219 286.695312 C 95.210938 286.695312 95.101562 286.667969 95 286.605469 L 40.910156 254.566406 C 40.71875 254.453125 40.601562 254.246094 40.601562 254.023438 L 40.601562 237.058594 C 40.601562 236.832031 40.722656 236.621094 40.917969 236.507812 C 41.117188 236.394531 41.359375 236.398438 41.554688 236.511719 L 95.644531 268.011719 C 95.839844 268.125 95.960938 268.335938 95.960938 268.558594 L 95.960938 286.0625 C 95.960938 286.289062 95.835938 286.5 95.640625 286.613281 C 95.542969 286.667969 95.433594 286.695312 95.324219 286.695312 " fill-opacity="1" fill-rule="nonzero"/><path fill="#99b9ff" d="M 74.148438 189.347656 C 73.929688 189.347656 73.714844 189.234375 73.597656 189.03125 C 73.421875 188.730469 73.523438 188.339844 73.828125 188.164062 L 95.609375 175.472656 C 95.808594 175.359375 96.058594 175.359375 96.257812 175.476562 L 105.304688 180.875 C 105.605469 181.054688 105.703125 181.445312 105.523438 181.746094 C 105.34375 182.050781 104.957031 182.148438 104.65625 181.96875 L 95.925781 176.761719 L 74.464844 189.261719 C 74.367188 189.320312 74.253906 189.347656 74.148438 189.347656 " fill-opacity="1" fill-rule="nonzero"/><path fill="#99b9ff" d="M 41.234375 208.539062 C 41.019531 208.539062 40.804688 208.429688 40.6875 208.222656 C 40.511719 207.921875 40.613281 207.53125 40.914062 207.355469 L 61.484375 195.355469 C 61.789062 195.175781 62.175781 195.28125 62.351562 195.582031 C 62.53125 195.886719 62.425781 196.273438 62.125 196.453125 L 41.554688 208.453125 C 41.453125 208.511719 41.34375 208.539062 41.234375 208.539062 " fill-opacity="1" fill-rule="nonzero"/><path fill="#99b9ff" d="M 149.859375 208.835938 C 149.75 208.835938 149.636719 208.808594 149.535156 208.746094 L 142.800781 204.726562 C 142.5 204.546875 142.402344 204.160156 142.582031 203.859375 C 142.761719 203.554688 143.148438 203.457031 143.453125 203.636719 L 150.1875 207.65625 C 150.488281 207.835938 150.585938 208.226562 150.40625 208.527344 C 150.289062 208.726562 150.078125 208.835938 149.859375 208.835938 " fill-opacity="1" fill-rule="nonzero"/><path fill="#99b9ff" d="M 135.40625 200.210938 C 135.296875 200.210938 135.183594 200.183594 135.082031 200.121094 L 113.992188 187.539062 C 113.691406 187.359375 113.59375 186.96875 113.773438 186.667969 C 113.949219 186.367188 114.339844 186.265625 114.640625 186.449219 L 135.730469 199.03125 C 136.035156 199.210938 136.132812 199.601562 135.953125 199.902344 C 135.832031 200.101562 135.621094 200.210938 135.40625 200.210938 " fill-opacity="1" fill-rule="nonzero"/><path fill="#3a435e" d="M 95.324219 257.539062 C 95.214844 257.539062 95.105469 257.511719 95.007812 257.457031 C 94.8125 257.34375 94.691406 257.132812 94.691406 256.90625 L 94.691406 239.40625 C 94.691406 239.175781 94.8125 238.964844 95.007812 238.855469 L 120.964844 223.96875 C 121.269531 223.792969 121.65625 223.898438 121.832031 224.203125 C 122.003906 224.507812 121.898438 224.894531 121.597656 225.070312 L 95.960938 239.773438 L 95.960938 255.792969 L 149.25 224.34375 L 149.25 209.207031 L 132.089844 219.050781 C 131.785156 219.226562 131.394531 219.121094 131.222656 218.816406 C 131.046875 218.511719 131.152344 218.125 131.457031 217.949219 L 149.570312 207.5625 C 149.765625 207.449219 150.007812 207.449219 150.203125 207.5625 C 150.398438 207.675781 150.519531 207.886719 150.519531 208.113281 L 150.519531 224.707031 C 150.519531 224.933594 150.402344 225.140625 150.210938 225.257812 L 95.648438 257.453125 C 95.546875 257.511719 95.4375 257.539062 95.324219 257.539062 " fill-opacity="1" fill-rule="nonzero"/><path fill="#3a435e" d="M 95.324219 257.539062 C 95.210938 257.539062 95.101562 257.511719 95 257.453125 L 80.320312 248.753906 C 80.019531 248.578125 79.917969 248.1875 80.097656 247.886719 C 80.277344 247.582031 80.664062 247.484375 80.96875 247.664062 L 94.691406 255.792969 L 94.691406 239.769531 L 41.871094 209.007812 L 41.871094 224.503906 L 70.976562 241.746094 C 71.28125 241.921875 71.378906 242.3125 71.199219 242.617188 C 71.023438 242.917969 70.632812 243.015625 70.332031 242.839844 L 40.910156 225.414062 C 40.71875 225.296875 40.601562 225.089844 40.601562 224.863281 L 40.601562 207.90625 C 40.601562 207.679688 40.722656 207.46875 40.917969 207.355469 C 41.117188 207.242188 41.359375 207.242188 41.554688 207.355469 L 95.644531 238.855469 C 95.839844 238.96875 95.960938 239.179688 95.960938 239.40625 L 95.960938 256.90625 C 95.960938 257.132812 95.835938 257.34375 95.640625 257.457031 C 95.542969 257.511719 95.433594 257.539062 95.324219 257.539062 " fill-opacity="1" fill-rule="nonzero"/><path fill="#3a435e" d="M 111.773438 156.957031 C 111.664062 156.957031 111.550781 156.929688 111.449219 156.867188 L 95.925781 147.605469 L 86.222656 153.257812 C 85.917969 153.433594 85.53125 153.332031 85.355469 153.027344 C 85.179688 152.726562 85.28125 152.335938 85.582031 152.160156 L 95.609375 146.316406 C 95.808594 146.203125 96.058594 146.203125 96.257812 146.320312 L 112.097656 155.773438 C 112.402344 155.957031 112.5 156.347656 112.320312 156.644531 C 112.199219 156.847656 111.988281 156.957031 111.773438 156.957031 " fill-opacity="1" fill-rule="nonzero"/><path fill="#3a435e" d="M 60.6875 168.035156 C 60.46875 168.035156 60.253906 167.921875 60.136719 167.71875 C 59.960938 167.417969 60.0625 167.027344 60.367188 166.851562 L 74.890625 158.386719 C 75.191406 158.214844 75.582031 158.316406 75.757812 158.621094 C 75.933594 158.921875 75.832031 159.3125 75.53125 159.488281 L 61.007812 167.949219 C 60.90625 168.007812 60.796875 168.035156 60.6875 168.035156 " fill-opacity="1" fill-rule="nonzero"/><path fill="#3a435e" d="M 41.234375 179.382812 C 41.019531 179.382812 40.804688 179.273438 40.6875 179.070312 C 40.511719 178.765625 40.613281 178.378906 40.914062 178.199219 L 51.320312 172.121094 C 51.625 171.945312 52.011719 172.046875 52.1875 172.347656 C 52.367188 172.652344 52.265625 173.039062 51.960938 173.214844 L 41.554688 179.296875 C 41.457031 179.359375 41.34375 179.382812 41.234375 179.382812 " fill-opacity="1" fill-rule="nonzero"/><path fill="#3a435e" d="M 149.859375 179.683594 C 149.75 179.683594 149.636719 179.652344 149.535156 179.589844 L 127.527344 166.457031 C 127.222656 166.28125 127.125 165.890625 127.304688 165.585938 C 127.484375 165.285156 127.875 165.1875 128.175781 165.367188 L 150.1875 178.5 C 150.488281 178.679688 150.585938 179.070312 150.40625 179.371094 C 150.289062 179.570312 150.078125 179.683594 149.859375 179.683594 " fill-opacity="1" fill-rule="nonzero"/><path fill="#3a435e" d="M 95.324219 228.386719 C 95.214844 228.386719 95.105469 228.359375 95.007812 228.300781 C 94.8125 228.1875 94.691406 227.976562 94.691406 227.75 L 94.691406 210.25 C 94.691406 210.023438 94.8125 209.8125 95.007812 209.699219 L 110.636719 200.734375 C 110.941406 200.558594 111.332031 200.664062 111.503906 200.96875 C 111.679688 201.273438 111.574219 201.664062 111.269531 201.835938 L 95.960938 210.617188 L 95.960938 226.636719 L 127.417969 208.074219 C 127.71875 207.898438 128.109375 207.996094 128.285156 208.296875 C 128.464844 208.601562 128.363281 208.992188 128.0625 209.167969 L 95.648438 228.296875 C 95.546875 228.355469 95.4375 228.386719 95.324219 228.386719 " fill-opacity="1" fill-rule="nonzero"/><path fill="#3a435e" d="M 134.425781 205.3125 C 134.210938 205.3125 133.996094 205.199219 133.878906 205 C 133.703125 204.699219 133.800781 204.308594 134.105469 204.128906 L 149.25 195.191406 L 149.25 180.050781 L 118.171875 197.878906 C 117.867188 198.054688 117.480469 197.949219 117.304688 197.644531 C 117.128906 197.339844 117.234375 196.949219 117.539062 196.777344 L 149.570312 178.40625 C 149.765625 178.292969 150.007812 178.292969 150.203125 178.40625 C 150.398438 178.519531 150.519531 178.730469 150.519531 178.957031 L 150.519531 195.554688 C 150.519531 195.777344 150.402344 195.984375 150.210938 196.101562 L 134.75 205.222656 C 134.648438 205.285156 134.535156 205.3125 134.425781 205.3125 " fill-opacity="1" fill-rule="nonzero"/><path fill="#3a435e" d="M 95.324219 228.386719 C 95.210938 228.386719 95.101562 228.355469 95 228.296875 L 40.910156 196.257812 C 40.71875 196.140625 40.601562 195.933594 40.601562 195.710938 L 40.601562 178.75 C 40.601562 178.523438 40.722656 178.3125 40.917969 178.199219 C 41.117188 178.085938 41.359375 178.085938 41.554688 178.199219 L 71.902344 195.875 C 72.207031 196.050781 72.308594 196.4375 72.132812 196.742188 C 71.953125 197.046875 71.566406 197.148438 71.261719 196.972656 L 41.871094 179.855469 L 41.871094 195.347656 L 94.691406 226.636719 L 94.691406 210.613281 L 83.003906 203.808594 C 82.703125 203.632812 82.601562 203.246094 82.777344 202.941406 C 82.953125 202.640625 83.339844 202.535156 83.644531 202.710938 L 95.644531 209.703125 C 95.839844 209.816406 95.960938 210.023438 95.960938 210.25 L 95.960938 227.75 C 95.960938 227.976562 95.835938 228.1875 95.640625 228.300781 C 95.542969 228.359375 95.433594 228.386719 95.324219 228.386719 " fill-opacity="1" fill-rule="nonzero"/><path fill="#99b9ff" d="M 217.054688 95.730469 C 216.703125 95.730469 216.417969 95.445312 216.417969 95.09375 L 216.417969 78.292969 C 216.417969 77.941406 216.703125 77.65625 217.054688 77.65625 C 217.40625 77.65625 217.691406 77.941406 217.691406 78.292969 L 217.691406 95.09375 C 217.691406 95.445312 217.40625 95.730469 217.054688 95.730469 " fill-opacity="1" fill-rule="nonzero"/><path fill="#99b9ff" d="M 217.054688 125.390625 C 216.703125 125.390625 216.417969 125.105469 216.417969 124.753906 L 216.417969 107.949219 C 216.417969 107.597656 216.703125 107.3125 217.054688 107.3125 C 217.402344 107.3125 217.6875 107.597656 217.6875 107.949219 L 217.6875 124.753906 C 217.6875 125.105469 217.402344 125.390625 217.054688 125.390625 " fill-opacity="1" fill-rule="nonzero"/><path fill="#99b9ff" d="M 161.734375 128.097656 C 161.515625 128.097656 161.304688 127.988281 161.1875 127.785156 C 161.011719 127.480469 161.113281 127.09375 161.414062 126.917969 L 216.777344 94.664062 C 216.976562 94.550781 217.222656 94.550781 217.417969 94.667969 L 239.589844 107.898438 C 239.890625 108.078125 239.988281 108.464844 239.8125 108.769531 C 239.628906 109.070312 239.238281 109.167969 238.9375 108.988281 L 217.09375 95.953125 L 162.054688 128.015625 C 161.953125 128.074219 161.84375 128.097656 161.734375 128.097656 " fill-opacity="1" fill-rule="nonzero"/><path fill="#99b9ff" d="M 271.457031 157.542969 C 271.347656 157.542969 271.234375 157.515625 271.132812 157.453125 L 217.09375 125.210938 L 162.054688 157.269531 C 161.75 157.445312 161.363281 157.34375 161.1875 157.042969 C 161.011719 156.738281 161.113281 156.347656 161.414062 156.171875 L 216.773438 123.921875 C 216.976562 123.804688 217.222656 123.804688 217.421875 123.925781 L 271.78125 156.363281 C 272.085938 156.542969 272.183594 156.933594 272.003906 157.234375 C 271.886719 157.429688 271.671875 157.542969 271.457031 157.542969 " fill-opacity="1" fill-rule="nonzero"/><path fill="#99b9ff" d="M 161.734375 186.613281 C 161.515625 186.613281 161.304688 186.5 161.1875 186.296875 C 161.011719 185.992188 161.113281 185.605469 161.414062 185.429688 L 214.222656 154.664062 C 214.523438 154.488281 214.914062 154.589844 215.089844 154.894531 C 215.265625 155.195312 215.164062 155.585938 214.863281 155.761719 L 162.054688 186.523438 C 161.953125 186.585938 161.84375 186.613281 161.734375 186.613281 " fill-opacity="1" fill-rule="nonzero"/><path fill="#99b9ff" d="M 161.734375 245.125 C 161.515625 245.125 161.304688 245.011719 161.1875 244.808594 C 161.011719 244.503906 161.113281 244.117188 161.414062 243.941406 L 216.773438 211.6875 C 217.074219 211.515625 217.464844 211.617188 217.644531 211.917969 C 217.820312 212.222656 217.714844 212.613281 217.414062 212.789062 L 162.054688 245.039062 C 161.953125 245.097656 161.84375 245.125 161.734375 245.125 " fill-opacity="1" fill-rule="nonzero"/><path fill="#3a435e" d="M 216.472656 260.515625 C 216.363281 260.515625 216.253906 260.488281 216.152344 260.429688 L 161.414062 228.527344 C 161.21875 228.410156 161.101562 228.203125 161.101562 227.976562 C 161.101562 227.75 161.21875 227.542969 161.414062 227.429688 L 207.867188 200.367188 C 208.167969 200.191406 208.558594 200.292969 208.734375 200.597656 C 208.910156 200.898438 208.808594 201.289062 208.503906 201.464844 L 162.996094 227.976562 L 216.476562 259.148438 L 271.140625 227.613281 C 271.441406 227.4375 271.832031 227.542969 272.007812 227.84375 C 272.183594 228.148438 272.078125 228.535156 271.777344 228.710938 L 216.789062 260.433594 C 216.691406 260.488281 216.582031 260.515625 216.472656 260.515625 " fill-opacity="1" fill-rule="nonzero"/><path fill="#3a435e" d="M 217.117188 259.984375 L 217.117188 276.144531 L 270.847656 244.4375 L 270.847656 229.167969 Z M 216.484375 277.894531 C 216.375 277.894531 216.265625 277.867188 216.167969 277.808594 C 215.972656 277.695312 215.847656 277.484375 215.847656 277.257812 L 215.847656 259.617188 C 215.847656 259.390625 215.96875 259.179688 216.167969 259.066406 L 271.167969 227.523438 C 271.363281 227.410156 271.605469 227.410156 271.800781 227.523438 C 272 227.636719 272.121094 227.847656 272.121094 228.074219 L 272.121094 244.800781 C 272.121094 245.027344 272 245.234375 271.804688 245.351562 L 216.804688 277.804688 C 216.707031 277.863281 216.597656 277.894531 216.484375 277.894531 " fill-opacity="1" fill-rule="nonzero"/><path fill="#3a435e" d="M 162.59375 244.597656 L 215.847656 276.144531 L 215.847656 259.984375 L 162.59375 228.96875 Z M 216.484375 277.894531 C 216.371094 277.894531 216.257812 277.863281 216.160156 277.804688 L 161.636719 245.507812 C 161.445312 245.394531 161.324219 245.183594 161.324219 244.960938 L 161.324219 227.863281 C 161.324219 227.636719 161.445312 227.425781 161.644531 227.3125 C 161.839844 227.199219 162.082031 227.199219 162.28125 227.316406 L 216.804688 259.066406 C 216.996094 259.179688 217.117188 259.390625 217.117188 259.617188 L 217.117188 277.257812 C 217.117188 277.484375 216.996094 277.695312 216.796875 277.808594 C 216.699219 277.867188 216.59375 277.894531 216.484375 277.894531 " fill-opacity="1" fill-rule="nonzero"/><path fill="#3a435e" d="M 162.996094 110.417969 L 216.472656 141.589844 L 270.203125 110.59375 L 217.09375 78.90625 Z M 216.472656 142.960938 C 216.363281 142.960938 216.253906 142.933594 216.15625 142.875 L 161.414062 110.96875 C 161.222656 110.851562 161.101562 110.644531 161.101562 110.417969 C 161.101562 110.191406 161.222656 109.984375 161.414062 109.871094 L 216.773438 77.621094 C 216.976562 77.503906 217.222656 77.503906 217.421875 77.621094 L 271.78125 110.058594 C 271.980469 110.175781 272.097656 110.382812 272.09375 110.609375 C 272.089844 110.835938 271.972656 111.042969 271.777344 111.15625 L 216.789062 142.875 C 216.691406 142.933594 216.582031 142.960938 216.472656 142.960938 " fill-opacity="1" fill-rule="nonzero"/><path fill="#3a435e" d="M 216.472656 231.128906 C 216.363281 231.128906 216.253906 231.097656 216.152344 231.039062 L 161.414062 199.136719 C 161.21875 199.023438 161.101562 198.8125 161.101562 198.585938 C 161.101562 198.359375 161.21875 198.152344 161.414062 198.039062 L 207.855469 170.984375 C 208.15625 170.808594 208.546875 170.910156 208.722656 171.214844 C 208.898438 171.515625 208.796875 171.90625 208.492188 172.082031 L 162.996094 198.585938 L 216.476562 229.757812 L 270.238281 198.746094 C 269.984375 198.546875 269.917969 198.183594 270.09375 197.90625 C 270.28125 197.609375 270.671875 197.523438 270.96875 197.710938 L 271.800781 198.238281 C 271.984375 198.355469 272.097656 198.566406 272.09375 198.785156 C 272.089844 199.007812 271.96875 199.210938 271.777344 199.320312 L 216.789062 231.042969 C 216.691406 231.101562 216.582031 231.128906 216.472656 231.128906 " fill-opacity="1" fill-rule="nonzero"/><path fill="#3a435e" d="M 162.996094 169.199219 L 216.476562 200.371094 L 270.203125 169.375 L 217.09375 137.683594 Z M 216.472656 201.738281 C 216.363281 201.738281 216.253906 201.710938 216.152344 201.652344 L 161.414062 169.746094 C 161.21875 169.632812 161.101562 169.421875 161.101562 169.195312 C 161.101562 168.972656 161.21875 168.761719 161.414062 168.648438 L 216.773438 136.398438 C 216.976562 136.28125 217.222656 136.28125 217.421875 136.402344 L 271.78125 168.835938 C 271.976562 168.953125 272.09375 169.164062 272.09375 169.390625 C 272.089844 169.613281 271.96875 169.820312 271.777344 169.933594 L 216.789062 201.652344 C 216.691406 201.710938 216.582031 201.738281 216.472656 201.738281 " fill-opacity="1" fill-rule="nonzero"/><path fill="#3a435e" d="M 162.59375 156.429688 L 215.847656 187.976562 L 215.847656 171.816406 L 162.59375 140.800781 Z M 216.484375 189.726562 C 216.371094 189.726562 216.257812 189.695312 216.160156 189.636719 L 161.636719 157.339844 C 161.445312 157.222656 161.324219 157.015625 161.324219 156.792969 L 161.324219 139.695312 C 161.324219 139.46875 161.445312 139.257812 161.644531 139.144531 C 161.839844 139.03125 162.082031 139.03125 162.28125 139.144531 L 216.804688 170.898438 C 216.996094 171.015625 217.117188 171.222656 217.117188 171.449219 L 217.117188 189.089844 C 217.117188 189.316406 216.996094 189.527344 216.796875 189.644531 C 216.699219 189.699219 216.59375 189.726562 216.484375 189.726562 " fill-opacity="1" fill-rule="nonzero"/><path fill="#3a435e" d="M 216.472656 172.347656 C 216.363281 172.347656 216.253906 172.320312 216.15625 172.261719 L 161.414062 140.355469 C 161.222656 140.242188 161.101562 140.03125 161.101562 139.808594 C 161.101562 139.582031 161.222656 139.371094 161.414062 139.257812 L 216.773438 107.007812 C 216.976562 106.890625 217.222656 106.890625 217.421875 107.011719 L 239.804688 120.367188 C 240.109375 120.546875 240.207031 120.9375 240.027344 121.238281 C 239.847656 121.539062 239.457031 121.636719 239.15625 121.457031 L 217.09375 108.292969 L 162.996094 139.808594 L 216.476562 170.980469 L 271.144531 139.441406 C 271.445312 139.265625 271.832031 139.371094 272.007812 139.675781 C 272.183594 139.980469 272.082031 140.371094 271.777344 140.542969 L 216.789062 172.261719 C 216.691406 172.320312 216.585938 172.347656 216.472656 172.347656 " fill-opacity="1" fill-rule="nonzero"/><path fill="#3a435e" d="M 217.117188 142.429688 L 217.117188 158.589844 L 270.847656 126.882812 L 270.847656 111.613281 Z M 216.484375 160.335938 C 216.375 160.335938 216.265625 160.308594 216.167969 160.253906 C 215.972656 160.136719 215.847656 159.929688 215.847656 159.703125 L 215.847656 142.058594 C 215.847656 141.832031 215.96875 141.621094 216.167969 141.507812 L 271.171875 109.964844 C 271.363281 109.851562 271.605469 109.851562 271.804688 109.964844 C 272 110.078125 272.121094 110.289062 272.121094 110.515625 L 272.121094 127.246094 C 272.121094 127.46875 272 127.679688 271.808594 127.792969 L 216.804688 160.246094 C 216.707031 160.304688 216.597656 160.335938 216.484375 160.335938 " fill-opacity="1" fill-rule="nonzero"/><path fill="#99b9ff" d="M 216.484375 247.867188 L 216.484375 230.226562 L 271.484375 198.683594 L 271.484375 215.414062 L 216.484375 247.867188 " fill-opacity="1" fill-rule="nonzero"/><path fill="#000000" d="M 217.117188 230.59375 L 217.117188 246.757812 L 270.847656 215.050781 L 270.847656 199.78125 Z M 216.484375 248.503906 C 216.375 248.503906 216.265625 248.476562 216.167969 248.417969 C 215.972656 248.304688 215.847656 248.097656 215.847656 247.867188 L 215.847656 230.226562 C 215.847656 230 215.96875 229.789062 216.167969 229.675781 L 271.167969 198.132812 C 271.363281 198.019531 271.605469 198.019531 271.800781 198.132812 C 272 198.246094 272.121094 198.457031 272.121094 198.683594 L 272.121094 215.414062 C 272.121094 215.636719 272 215.84375 271.804688 215.960938 L 216.804688 248.414062 C 216.707031 248.472656 216.597656 248.503906 216.484375 248.503906 " fill-opacity="1" fill-rule="nonzero"/><path fill="#99b9ff" d="M 216.484375 218.476562 L 216.484375 200.839844 L 271.484375 169.292969 L 271.484375 186.023438 L 216.484375 218.476562 " fill-opacity="1" fill-rule="nonzero"/><path fill="#000000" d="M 217.117188 201.207031 L 217.117188 217.367188 L 270.847656 185.664062 L 270.847656 170.390625 Z M 216.484375 219.113281 C 216.375 219.113281 216.265625 219.085938 216.167969 219.03125 C 215.972656 218.917969 215.847656 218.707031 215.847656 218.476562 L 215.847656 200.839844 C 215.847656 200.609375 215.96875 200.402344 216.167969 200.285156 L 271.167969 168.742188 C 271.363281 168.628906 271.605469 168.632812 271.800781 168.746094 C 272 168.859375 272.121094 169.066406 272.121094 169.292969 L 272.121094 186.023438 C 272.121094 186.25 272 186.457031 271.804688 186.570312 L 216.804688 219.027344 C 216.707031 219.085938 216.597656 219.113281 216.484375 219.113281 " fill-opacity="1" fill-rule="nonzero"/><path fill="#99b9ff" d="M 216.484375 189.089844 L 216.484375 171.449219 L 271.484375 139.90625 L 271.484375 156.632812 L 216.484375 189.089844 " fill-opacity="1" fill-rule="nonzero"/><path fill="#000000" d="M 217.117188 171.816406 L 217.117188 187.976562 L 270.847656 156.273438 L 270.847656 141 Z M 216.484375 189.726562 C 216.375 189.726562 216.265625 189.699219 216.167969 189.644531 C 215.972656 189.527344 215.847656 189.316406 215.847656 189.089844 L 215.847656 171.449219 C 215.847656 171.21875 215.96875 171.011719 216.167969 170.898438 L 271.167969 139.355469 C 271.363281 139.242188 271.605469 139.242188 271.800781 139.355469 C 272 139.46875 272.121094 139.679688 272.121094 139.90625 L 272.121094 156.632812 C 272.121094 156.859375 272 157.070312 271.804688 157.183594 L 216.804688 189.636719 C 216.707031 189.695312 216.597656 189.726562 216.484375 189.726562 " fill-opacity="1" fill-rule="nonzero"/><path fill="#ffffff" d="M 216.484375 247.867188 L 216.484375 230.226562 L 161.960938 198.472656 L 161.960938 215.570312 L 216.484375 247.867188 " fill-opacity="1" fill-rule="nonzero"/><path fill="#000000" d="M 162.59375 215.210938 L 215.847656 246.753906 L 215.847656 230.59375 L 162.59375 199.578125 Z M 216.484375 248.503906 C 216.371094 248.503906 216.257812 248.472656 216.160156 248.414062 L 161.636719 216.117188 C 161.445312 216.003906 161.324219 215.796875 161.324219 215.570312 L 161.324219 198.472656 C 161.324219 198.246094 161.445312 198.035156 161.644531 197.921875 C 161.839844 197.808594 162.082031 197.8125 162.28125 197.925781 L 216.804688 229.679688 C 216.996094 229.792969 217.117188 230 217.117188 230.226562 L 217.117188 247.867188 C 217.117188 248.097656 216.996094 248.308594 216.796875 248.417969 C 216.699219 248.476562 216.59375 248.503906 216.484375 248.503906 " fill-opacity="1" fill-rule="nonzero"/><path fill="#ffffff" d="M 216.484375 218.476562 L 216.484375 200.839844 L 161.960938 169.085938 L 161.960938 186.179688 L 216.484375 218.476562 " fill-opacity="1" fill-rule="nonzero"/><path fill="#000000" d="M 162.59375 185.820312 L 215.847656 217.367188 L 215.847656 201.203125 L 162.59375 170.191406 Z M 216.484375 219.113281 C 216.371094 219.113281 216.257812 219.082031 216.160156 219.027344 L 161.636719 186.730469 C 161.445312 186.613281 161.324219 186.40625 161.324219 186.179688 L 161.324219 169.085938 C 161.324219 168.859375 161.445312 168.648438 161.644531 168.535156 C 161.839844 168.421875 162.082031 168.421875 162.28125 168.535156 L 216.804688 200.289062 C 216.996094 200.402344 217.117188 200.613281 217.117188 200.839844 L 217.117188 218.476562 C 217.117188 218.707031 216.996094 218.917969 216.796875 219.03125 C 216.699219 219.085938 216.59375 219.113281 216.484375 219.113281 " fill-opacity="1" fill-rule="nonzero"/><path fill="#ffffff" d="M 216.484375 159.703125 L 216.484375 142.058594 L 161.960938 110.304688 L 161.960938 127.402344 L 216.484375 159.703125 " fill-opacity="1" fill-rule="nonzero"/><path fill="#000000" d="M 162.59375 127.039062 L 215.847656 158.585938 L 215.847656 142.425781 L 162.59375 111.410156 Z M 216.484375 160.335938 C 216.371094 160.335938 216.257812 160.304688 216.160156 160.246094 L 161.636719 127.949219 C 161.445312 127.835938 161.324219 127.628906 161.324219 127.402344 L 161.324219 110.304688 C 161.324219 110.078125 161.449219 109.867188 161.644531 109.757812 C 161.839844 109.640625 162.082031 109.644531 162.28125 109.757812 L 216.804688 141.511719 C 216.996094 141.625 217.117188 141.832031 217.117188 142.058594 L 217.117188 159.703125 C 217.117188 159.925781 216.996094 160.140625 216.796875 160.253906 C 216.699219 160.308594 216.589844 160.335938 216.484375 160.335938 " fill-opacity="1" fill-rule="nonzero"/><path fill="#ffffff" d="M 391.757812 157.675781 L 337.210938 189.144531 L 282.910156 157.492188 L 337.828125 125.5 L 391.757812 157.675781 " fill-opacity="1" fill-rule="nonzero"/><path fill="#000000" d="M 284.167969 157.492188 L 337.214844 188.410156 L 390.503906 157.664062 L 337.824219 126.234375 Z M 337.210938 189.777344 C 337.101562 189.777344 336.988281 189.75 336.890625 189.691406 L 282.589844 158.039062 C 282.394531 157.925781 282.273438 157.71875 282.273438 157.492188 C 282.273438 157.265625 282.394531 157.058594 282.589844 156.941406 L 337.507812 124.949219 C 337.707031 124.835938 337.953125 124.835938 338.152344 124.949219 L 392.082031 157.128906 C 392.277344 157.246094 392.394531 157.457031 392.390625 157.679688 C 392.386719 157.90625 392.269531 158.113281 392.074219 158.226562 L 337.527344 189.691406 C 337.429688 189.75 337.320312 189.777344 337.210938 189.777344 " fill-opacity="1" fill-rule="nonzero"/><path fill="#3a435e" d="M 337.222656 206.382812 L 337.222656 188.878906 L 391.78125 157.589844 L 391.78125 174.183594 L 337.222656 206.382812 " fill-opacity="1" fill-rule="nonzero"/><path fill="#000000" d="M 337.859375 189.246094 L 337.859375 205.265625 L 391.148438 173.820312 L 391.148438 158.679688 Z M 337.222656 207.015625 C 337.113281 207.015625 337.003906 206.988281 336.90625 206.933594 C 336.707031 206.820312 336.585938 206.609375 336.585938 206.378906 L 336.585938 188.878906 C 336.585938 188.652344 336.707031 188.441406 336.90625 188.328125 L 391.46875 157.035156 C 391.664062 156.925781 391.90625 156.925781 392.105469 157.039062 C 392.296875 157.148438 392.417969 157.359375 392.417969 157.585938 L 392.417969 174.183594 C 392.417969 174.40625 392.300781 174.617188 392.105469 174.730469 L 337.542969 206.925781 C 337.445312 206.984375 337.332031 207.015625 337.222656 207.015625 " fill-opacity="1" fill-rule="nonzero"/><path fill="#99b9ff" d="M 337.222656 206.378906 L 337.222656 188.878906 L 283.132812 157.378906 L 283.132812 174.339844 L 337.222656 206.378906 " fill-opacity="1" fill-rule="nonzero"/><path fill="#000000" d="M 283.769531 173.976562 L 336.585938 205.265625 L 336.585938 189.242188 L 283.769531 158.484375 Z M 337.21875 207.015625 C 337.109375 207.015625 337 206.984375 336.898438 206.925781 L 282.808594 174.886719 C 282.617188 174.769531 282.496094 174.566406 282.496094 174.339844 L 282.496094 157.378906 C 282.496094 157.152344 282.621094 156.941406 282.816406 156.828125 C 283.011719 156.714844 283.253906 156.714844 283.453125 156.828125 L 337.542969 188.332031 C 337.734375 188.445312 337.855469 188.652344 337.855469 188.878906 L 337.855469 206.378906 C 337.855469 206.609375 337.734375 206.820312 337.535156 206.933594 C 337.4375 206.988281 337.332031 207.015625 337.21875 207.015625 " fill-opacity="1" fill-rule="nonzero"/><path fill="#ffffff" d="M 391.757812 128.523438 L 337.210938 159.988281 L 282.910156 128.335938 L 337.828125 96.34375 L 391.757812 128.523438 " fill-opacity="1" fill-rule="nonzero"/><path fill="#000000" d="M 284.167969 128.335938 L 337.214844 159.253906 L 390.503906 128.511719 L 337.824219 97.082031 Z M 337.210938 160.625 C 337.101562 160.625 336.988281 160.59375 336.890625 160.539062 L 282.589844 128.886719 C 282.394531 128.769531 282.273438 128.5625 282.273438 128.335938 C 282.273438 128.109375 282.394531 127.902344 282.589844 127.789062 L 337.507812 95.792969 C 337.707031 95.679688 337.953125 95.679688 338.152344 95.796875 L 392.082031 127.976562 C 392.277344 128.09375 392.394531 128.300781 392.390625 128.527344 C 392.386719 128.75 392.269531 128.960938 392.074219 129.074219 L 337.527344 160.539062 C 337.429688 160.59375 337.320312 160.625 337.210938 160.625 " fill-opacity="1" fill-rule="nonzero"/><path fill="#3a435e" d="M 337.222656 177.226562 L 337.222656 159.726562 L 391.78125 128.433594 L 391.78125 145.027344 L 337.222656 177.226562 " fill-opacity="1" fill-rule="nonzero"/><path fill="#000000" d="M 337.859375 160.09375 L 337.859375 176.113281 L 391.148438 144.664062 L 391.148438 129.527344 Z M 337.222656 177.859375 C 337.113281 177.859375 337.003906 177.832031 336.90625 177.777344 C 336.707031 177.664062 336.585938 177.453125 336.585938 177.226562 L 336.585938 159.722656 C 336.585938 159.496094 336.707031 159.285156 336.90625 159.171875 L 391.46875 127.878906 C 391.664062 127.769531 391.90625 127.769531 392.105469 127.882812 C 392.296875 127.996094 392.417969 128.203125 392.417969 128.429688 L 392.417969 145.027344 C 392.417969 145.25 392.300781 145.460938 392.105469 145.574219 L 337.542969 177.769531 C 337.445312 177.832031 337.332031 177.859375 337.222656 177.859375 " fill-opacity="1" fill-rule="nonzero"/><path fill="#99b9ff" d="M 337.222656 177.226562 L 337.222656 159.722656 L 283.132812 128.222656 L 283.132812 145.183594 L 337.222656 177.226562 " fill-opacity="1" fill-rule="nonzero"/><path fill="#000000" d="M 283.769531 144.820312 L 336.585938 176.113281 L 336.585938 160.089844 L 283.769531 129.328125 Z M 337.21875 177.859375 C 337.109375 177.859375 337 177.832031 336.898438 177.769531 L 282.808594 145.730469 C 282.617188 145.617188 282.496094 145.410156 282.496094 145.183594 L 282.496094 128.222656 C 282.496094 127.996094 282.621094 127.789062 282.816406 127.675781 C 283.011719 127.558594 283.253906 127.558594 283.453125 127.675781 L 337.542969 159.175781 C 337.734375 159.289062 337.855469 159.496094 337.855469 159.726562 L 337.855469 177.226562 C 337.855469 177.453125 337.734375 177.664062 337.535156 177.777344 C 337.4375 177.832031 337.332031 177.859375 337.21875 177.859375 " fill-opacity="1" fill-rule="nonzero"/><path fill="#ffffff" d="M 391.757812 99.367188 L 337.210938 130.835938 L 282.910156 99.183594 L 337.828125 67.1875 L 391.757812 99.367188 " fill-opacity="1" fill-rule="nonzero"/><path fill="#000000" d="M 284.167969 99.179688 L 337.214844 130.097656 L 390.503906 99.359375 L 337.824219 67.925781 Z M 337.210938 131.46875 C 337.101562 131.46875 336.988281 131.4375 336.890625 131.382812 L 282.589844 99.730469 C 282.394531 99.617188 282.273438 99.410156 282.273438 99.179688 C 282.273438 98.953125 282.394531 98.746094 282.589844 98.632812 L 337.507812 66.636719 C 337.707031 66.523438 337.953125 66.523438 338.152344 66.644531 L 392.082031 98.820312 C 392.277344 98.9375 392.394531 99.144531 392.390625 99.371094 C 392.386719 99.59375 392.269531 99.804688 392.074219 99.917969 L 337.527344 131.382812 C 337.429688 131.441406 337.320312 131.46875 337.210938 131.46875 " fill-opacity="1" fill-rule="nonzero"/><path fill="#3a435e" d="M 337.222656 148.070312 L 337.222656 130.570312 L 391.78125 99.277344 L 391.78125 115.871094 L 337.222656 148.070312 " fill-opacity="1" fill-rule="nonzero"/><path fill="#000000" d="M 337.859375 130.9375 L 337.859375 146.957031 L 391.148438 115.507812 L 391.148438 100.371094 Z M 337.222656 148.703125 C 337.113281 148.703125 337.003906 148.679688 336.90625 148.621094 C 336.707031 148.507812 336.585938 148.296875 336.585938 148.070312 L 336.585938 130.570312 C 336.585938 130.339844 336.707031 130.132812 336.90625 130.015625 L 391.46875 98.726562 C 391.664062 98.613281 391.90625 98.613281 392.105469 98.726562 C 392.296875 98.839844 392.417969 99.050781 392.417969 99.277344 L 392.417969 115.871094 C 392.417969 116.097656 392.300781 116.304688 392.105469 116.417969 L 337.542969 148.617188 C 337.445312 148.675781 337.332031 148.703125 337.222656 148.703125 " fill-opacity="1" fill-rule="nonzero"/><path fill="#99b9ff" d="M 337.222656 148.070312 L 337.222656 130.566406 L 283.132812 99.066406 L 283.132812 116.03125 L 337.222656 148.070312 " fill-opacity="1" fill-rule="nonzero"/><path fill="#000000" d="M 283.769531 115.667969 L 336.585938 146.957031 L 336.585938 130.933594 L 283.769531 100.171875 Z M 337.21875 148.703125 C 337.109375 148.703125 337 148.675781 336.898438 148.617188 L 282.808594 116.574219 C 282.617188 116.460938 282.496094 116.253906 282.496094 116.03125 L 282.496094 99.070312 C 282.496094 98.84375 282.621094 98.632812 282.816406 98.519531 C 283.011719 98.40625 283.253906 98.40625 283.453125 98.519531 L 337.542969 130.019531 C 337.734375 130.132812 337.855469 130.34375 337.855469 130.570312 L 337.855469 148.070312 C 337.855469 148.296875 337.734375 148.507812 337.535156 148.621094 C 337.4375 148.675781 337.332031 148.703125 337.21875 148.703125 " fill-opacity="1" fill-rule="nonzero"/><path fill="#ffffff" d="M 391.757812 70.210938 L 337.210938 101.675781 L 282.910156 70.023438 L 337.828125 38.03125 L 391.757812 70.210938 " fill-opacity="1" fill-rule="nonzero"/><path fill="#000000" d="M 284.167969 70.027344 L 337.214844 100.941406 L 390.503906 70.203125 L 337.824219 38.769531 Z M 337.210938 102.3125 C 337.101562 102.3125 336.988281 102.285156 336.890625 102.226562 L 282.589844 70.574219 C 282.394531 70.460938 282.273438 70.253906 282.273438 70.027344 C 282.273438 69.800781 282.394531 69.59375 282.589844 69.476562 L 337.507812 37.484375 C 337.707031 37.367188 337.953125 37.367188 338.152344 37.488281 L 392.082031 69.664062 C 392.277344 69.78125 392.394531 69.988281 392.390625 70.214844 C 392.386719 70.441406 392.269531 70.648438 392.074219 70.761719 L 337.527344 102.226562 C 337.429688 102.285156 337.320312 102.3125 337.210938 102.3125 " fill-opacity="1" fill-rule="nonzero"/><path fill="#3a435e" d="M 337.222656 118.914062 L 337.222656 101.414062 L 391.78125 70.121094 L 391.78125 86.71875 L 337.222656 118.914062 " fill-opacity="1" fill-rule="nonzero"/><path fill="#000000" d="M 337.859375 101.78125 L 337.859375 117.800781 L 391.148438 86.355469 L 391.148438 71.21875 Z M 337.222656 119.550781 C 337.113281 119.550781 337.003906 119.519531 336.90625 119.464844 C 336.707031 119.351562 336.585938 119.144531 336.585938 118.914062 L 336.585938 101.414062 C 336.585938 101.1875 336.707031 100.976562 336.90625 100.863281 L 391.46875 69.570312 C 391.664062 69.457031 391.90625 69.457031 392.105469 69.570312 C 392.296875 69.683594 392.417969 69.894531 392.417969 70.121094 L 392.417969 86.71875 C 392.417969 86.941406 392.300781 87.148438 392.105469 87.265625 L 337.542969 119.460938 C 337.445312 119.519531 337.332031 119.550781 337.222656 119.550781 " fill-opacity="1" fill-rule="nonzero"/><path fill="#99b9ff" d="M 337.222656 118.914062 L 337.222656 101.414062 L 283.132812 69.914062 L 283.132812 86.875 L 337.222656 118.914062 " fill-opacity="1" fill-rule="nonzero"/><path fill="#000000" d="M 283.769531 86.511719 L 336.585938 117.800781 L 336.585938 101.78125 L 283.769531 71.019531 Z M 337.21875 119.550781 C 337.109375 119.550781 337 119.519531 336.898438 119.460938 L 282.808594 87.421875 C 282.617188 87.308594 282.496094 87.097656 282.496094 86.875 L 282.496094 69.914062 C 282.496094 69.6875 282.621094 69.476562 282.816406 69.363281 C 283.011719 69.25 283.253906 69.25 283.453125 69.363281 L 337.542969 100.863281 C 337.734375 100.980469 337.855469 101.1875 337.855469 101.414062 L 337.855469 118.914062 C 337.855469 119.140625 337.734375 119.351562 337.535156 119.464844 C 337.4375 119.519531 337.332031 119.550781 337.21875 119.550781 " fill-opacity="1" fill-rule="nonzero"/><path fill="#ffffff" d="M 391.757812 41.054688 L 337.210938 72.523438 L 282.910156 40.871094 L 337.828125 8.875 L 391.757812 41.054688 " fill-opacity="1" fill-rule="nonzero"/><path fill="#000000" d="M 284.167969 40.871094 L 337.210938 71.789062 L 390.503906 41.046875 L 337.824219 9.613281 Z M 337.210938 73.160156 C 337.101562 73.160156 336.988281 73.128906 336.894531 73.070312 L 282.589844 41.421875 C 282.394531 41.304688 282.273438 41.097656 282.273438 40.871094 C 282.273438 40.644531 282.394531 40.4375 282.589844 40.320312 L 337.507812 8.328125 C 337.707031 8.210938 337.953125 8.214844 338.152344 8.332031 L 392.082031 40.511719 C 392.277344 40.625 392.394531 40.835938 392.390625 41.058594 C 392.390625 41.285156 392.269531 41.496094 392.074219 41.605469 L 337.527344 73.070312 C 337.429688 73.132812 337.320312 73.160156 337.210938 73.160156 " fill-opacity="1" fill-rule="nonzero"/><path fill="#3a435e" d="M 337.222656 89.761719 L 337.222656 72.261719 L 391.78125 40.96875 L 391.78125 57.5625 L 337.222656 89.761719 " fill-opacity="1" fill-rule="nonzero"/><path fill="#000000" d="M 337.859375 72.625 L 337.859375 88.644531 L 391.148438 57.199219 L 391.148438 42.0625 Z M 337.222656 90.394531 C 337.113281 90.394531 337.003906 90.367188 336.90625 90.308594 C 336.707031 90.199219 336.585938 89.984375 336.585938 89.757812 L 336.585938 72.257812 C 336.585938 72.027344 336.707031 71.820312 336.90625 71.707031 L 391.46875 40.414062 C 391.664062 40.300781 391.90625 40.300781 392.105469 40.414062 C 392.296875 40.527344 392.417969 40.738281 392.417969 40.964844 L 392.417969 57.5625 C 392.417969 57.789062 392.300781 57.996094 392.105469 58.109375 L 337.542969 90.304688 C 337.445312 90.363281 337.332031 90.394531 337.222656 90.394531 " fill-opacity="1" fill-rule="nonzero"/><path fill="#99b9ff" d="M 337.21875 89.761719 L 337.21875 72.257812 L 283.132812 40.757812 L 283.132812 57.71875 L 337.21875 89.761719 " fill-opacity="1" fill-rule="nonzero"/><path fill="#000000" d="M 283.769531 57.359375 L 336.585938 88.644531 L 336.585938 72.625 L 283.769531 41.863281 Z M 337.21875 90.394531 C 337.109375 90.394531 336.996094 90.367188 336.898438 90.308594 L 282.808594 58.265625 C 282.613281 58.152344 282.496094 57.945312 282.496094 57.71875 L 282.496094 40.757812 C 282.496094 40.53125 282.621094 40.320312 282.816406 40.207031 C 283.015625 40.09375 283.253906 40.09375 283.453125 40.210938 L 337.542969 71.710938 C 337.734375 71.824219 337.855469 72.035156 337.855469 72.257812 L 337.855469 89.757812 C 337.855469 89.988281 337.734375 90.199219 337.535156 90.3125 C 337.4375 90.367188 337.328125 90.394531 337.21875 90.394531 " fill-opacity="1" fill-rule="nonzero"/><path fill="#ffffff" d="M 284.617188 333.039062 L 285.972656 347.449219 C 286.015625 347.855469 285.746094 348.222656 285.386719 348.246094 L 278.234375 348.691406 C 277.921875 348.707031 277.660156 348.460938 277.617188 348.113281 L 276.285156 335.015625 L 284.617188 333.039062 " fill-opacity="1" fill-rule="nonzero"/><path fill="#000000" d="M 276.972656 335.503906 L 278.246094 348.046875 C 278.25 348.050781 278.25 348.050781 278.25 348.054688 L 285.34375 347.613281 C 285.324219 347.613281 285.347656 347.574219 285.339844 347.519531 L 284.050781 333.824219 Z M 278.199219 349.324219 C 277.582031 349.324219 277.066406 348.851562 276.984375 348.191406 L 275.65625 335.078125 C 275.621094 334.761719 275.828125 334.46875 276.140625 334.398438 L 284.46875 332.417969 C 284.644531 332.375 284.835938 332.414062 284.984375 332.519531 C 285.132812 332.628906 285.230469 332.792969 285.246094 332.976562 L 286.605469 347.390625 C 286.644531 347.761719 286.53125 348.144531 286.289062 348.4375 C 286.066406 348.703125 285.757812 348.859375 285.425781 348.882812 L 278.269531 349.324219 C 278.246094 349.324219 278.222656 349.324219 278.199219 349.324219 " fill-opacity="1" fill-rule="nonzero"/><path fill="#3a435e" d="M 287.101562 343.714844 C 287.574219 345.417969 288.578125 350.214844 288.996094 353.101562 C 289.257812 354.914062 288.113281 356.628906 286.363281 357.097656 C 281.414062 358.4375 269.582031 358.382812 259.730469 358.816406 C 259.054688 358.847656 257.808594 358.519531 257.257812 356.882812 C 255.382812 351.335938 265.738281 349.617188 275.972656 343.980469 C 276.171875 343.871094 276.417969 343.878906 276.605469 344.015625 C 276.722656 344.097656 276.871094 344.199219 277.050781 344.3125 C 278.832031 345.445312 281.789062 345.449219 283.597656 344.359375 L 285.640625 343.132812 C 286.199219 342.792969 286.921875 343.082031 287.101562 343.714844 " fill-opacity="1" fill-rule="nonzero"/><path fill="#000000" d="M 276.257812 344.546875 C 273.136719 346.265625 269.996094 347.625 267.222656 348.828125 C 260.527344 351.726562 256.792969 353.523438 257.859375 356.679688 C 258.359375 358.164062 259.476562 358.191406 259.699219 358.183594 C 262.226562 358.070312 264.921875 357.992188 267.523438 357.914062 C 274.925781 357.691406 282.585938 357.464844 286.199219 356.488281 C 287.652344 356.09375 288.582031 354.679688 288.367188 353.191406 C 287.964844 350.429688 286.96875 345.609375 286.488281 343.886719 C 286.445312 343.738281 286.335938 343.671875 286.277344 343.648438 C 286.21875 343.625 286.097656 343.597656 285.964844 343.675781 L 283.925781 344.902344 C 281.902344 346.121094 278.667969 346.09375 276.710938 344.847656 C 276.53125 344.738281 276.378906 344.632812 276.257812 344.546875 Z M 259.644531 359.453125 C 258.609375 359.453125 257.25 358.839844 256.65625 357.085938 C 255.160156 352.667969 260.261719 350.457031 266.71875 347.660156 C 269.46875 346.46875 272.589844 345.121094 275.667969 343.425781 C 276.078125 343.195312 276.59375 343.226562 276.972656 343.496094 C 277.085938 343.574219 277.222656 343.671875 277.390625 343.777344 C 278.953125 344.773438 281.648438 344.789062 283.269531 343.816406 L 285.3125 342.585938 C 285.75 342.324219 286.269531 342.28125 286.746094 342.46875 C 287.222656 342.660156 287.574219 343.050781 287.710938 343.546875 C 288.207031 345.320312 289.207031 350.128906 289.621094 353.011719 C 289.929688 355.132812 288.601562 357.152344 286.527344 357.710938 C 282.773438 358.730469 275.386719 358.949219 267.558594 359.183594 C 264.960938 359.257812 262.273438 359.339844 259.757812 359.453125 C 259.71875 359.453125 259.679688 359.453125 259.644531 359.453125 " fill-opacity="1" fill-rule="nonzero"/><path fill="#ffffff" d="M 289.292969 354.410156 C 289.304688 354.457031 289.3125 354.492188 289.3125 354.507812 C 289.578125 356.320312 287.855469 357.433594 286.210938 358.203125 C 281.335938 360.496094 261.640625 359.183594 260.882812 359.128906 C 260.863281 359.128906 260.855469 359.128906 260.839844 359.128906 C 260.59375 359.132812 258.09375 359.132812 257.371094 357.578125 C 257.28125 357.386719 257.226562 357.113281 257.191406 356.859375 C 257.140625 356.445312 257.167969 356.019531 257.257812 355.613281 C 257.332031 355.277344 257.664062 355.070312 257.992188 355.152344 C 261.648438 356.089844 270.183594 356.398438 278.714844 355.457031 C 284.382812 354.832031 286.847656 353.597656 288.160156 352.8125 C 288.519531 352.597656 288.980469 352.804688 289.058594 353.21875 C 289.125 353.5625 289.210938 353.980469 289.292969 354.410156 " fill-opacity="1" fill-rule="nonzero"/><path fill="#000000" d="M 260.832031 358.496094 C 260.851562 358.496094 260.90625 358.496094 260.921875 358.496094 C 267.925781 358.972656 282.164062 359.402344 285.941406 357.628906 C 288.003906 356.664062 288.847656 355.730469 288.683594 354.601562 L 288.445312 353.382812 C 286.972656 354.253906 284.367188 355.476562 278.78125 356.089844 C 269.875 357.074219 261.378906 356.664062 257.871094 355.78125 C 257.796875 356.125 257.78125 356.460938 257.824219 356.777344 C 257.867188 357.113281 257.925781 357.261719 257.949219 357.3125 C 258.394531 358.277344 260.035156 358.507812 260.828125 358.496094 C 260.828125 358.496094 260.828125 358.496094 260.832031 358.496094 Z M 273.265625 360.195312 C 267.488281 360.195312 261.929688 359.839844 260.835938 359.765625 C 260.316406 359.769531 257.664062 359.71875 256.796875 357.84375 C 256.691406 357.617188 256.617188 357.320312 256.566406 356.945312 C 256.503906 356.46875 256.527344 355.976562 256.640625 355.472656 C 256.710938 355.144531 256.917969 354.855469 257.203125 354.683594 C 257.488281 354.503906 257.824219 354.457031 258.148438 354.539062 C 261.523438 355.398438 269.851562 355.796875 278.640625 354.828125 C 284.039062 354.234375 286.472656 353.082031 287.835938 352.265625 C 288.179688 352.058594 288.601562 352.035156 288.96875 352.195312 C 289.335938 352.359375 289.601562 352.695312 289.683594 353.09375 L 289.914062 354.285156 C 289.917969 354.289062 289.917969 354.289062 289.917969 354.289062 L 289.9375 354.410156 C 290.273438 356.714844 288.128906 358.007812 286.484375 358.777344 C 284.113281 359.890625 278.59375 360.195312 273.265625 360.195312 " fill-opacity="1" fill-rule="nonzero"/><path fill="#000000" d="M 275.269531 349.097656 C 275.136719 349.097656 275 349.054688 274.886719 348.964844 L 271.898438 346.691406 C 271.621094 346.480469 271.566406 346.078125 271.777344 345.800781 C 271.992188 345.523438 272.390625 345.46875 272.667969 345.679688 L 275.65625 347.957031 C 275.933594 348.167969 275.988281 348.566406 275.777344 348.847656 C 275.652344 349.011719 275.460938 349.097656 275.269531 349.097656 " fill-opacity="1" fill-rule="nonzero"/><path fill="#000000" d="M 271.300781 350.726562 C 271.167969 350.726562 271.035156 350.683594 270.921875 350.597656 L 268.304688 348.636719 C 268.027344 348.425781 267.96875 348.027344 268.179688 347.746094 C 268.390625 347.464844 268.789062 347.40625 269.070312 347.621094 L 271.683594 349.582031 C 271.960938 349.792969 272.019531 350.191406 271.808594 350.472656 C 271.6875 350.636719 271.492188 350.726562 271.300781 350.726562 " fill-opacity="1" fill-rule="nonzero"/><path fill="#3a435e" d="M 305.878906 199.746094 C 305.878906 199.746094 311.558594 211.109375 313.464844 223.082031 C 315.246094 234.226562 321.785156 280.121094 337.714844 316.929688 C 339.519531 321.101562 337.433594 325.445312 332.992188 326.414062 C 331.214844 326.800781 330.46875 326.167969 328.933594 325.417969 C 328.136719 325.035156 326.824219 323.894531 326.824219 323.894531 C 326.824219 323.894531 298.621094 300.316406 287.121094 238.449219 C 279.726562 198.660156 280.953125 201.816406 280.953125 201.816406 L 305.878906 199.746094 " fill-opacity="1" fill-rule="nonzero"/><path fill="#3a435e" d="M 297.960938 204.945312 C 297.960938 204.945312 301.273438 226.542969 295.011719 242.519531 C 288.988281 257.882812 285.144531 318.109375 287.386719 335.507812 C 287.53125 336.601562 286.769531 337.601562 285.675781 337.757812 C 282.9375 338.140625 278 338.664062 274.621094 338.03125 C 274 337.914062 273.5 337.457031 273.34375 336.84375 C 271.117188 328.015625 252.621094 248.21875 265.660156 207.324219 L 297.960938 204.945312 " fill-opacity="1" fill-rule="nonzero"/><path fill="#99b9ff" d="M 291.628906 261.1875 C 291.617188 261.1875 291.605469 261.1875 291.59375 261.1875 C 291.242188 261.167969 290.976562 260.867188 290.996094 260.515625 C 291.015625 260.199219 291.503906 252.597656 295.226562 243.890625 C 296.320312 241.335938 297.109375 238.285156 297.574219 234.820312 C 297.621094 234.472656 297.941406 234.226562 298.285156 234.273438 C 298.632812 234.320312 298.878906 234.640625 298.832031 234.988281 C 298.351562 238.566406 297.53125 241.730469 296.394531 244.390625 C 292.757812 252.898438 292.269531 260.515625 292.265625 260.59375 C 292.246094 260.925781 291.964844 261.1875 291.628906 261.1875 " fill-opacity="1" fill-rule="nonzero"/><path fill="#99b9ff" d="M 290.984375 216.980469 L 290.988281 216.980469 Z M 273.765625 218.039062 C 273.582031 218.039062 273.40625 218.105469 273.261719 218.226562 C 273.101562 218.367188 273.011719 218.5625 273.003906 218.777344 L 272.632812 230.4375 C 272.578125 232.144531 273.546875 233.699219 275.105469 234.394531 L 281.03125 237.046875 C 282.5625 237.734375 284.367188 237.550781 285.730469 236.5625 L 289.566406 233.789062 C 290.59375 233.042969 291.222656 231.886719 291.292969 230.617188 L 291.949219 218.40625 C 291.960938 218.179688 291.871094 217.957031 291.699219 217.804688 C 291.53125 217.648438 291.304688 217.578125 291.074219 217.609375 C 287.714844 218.097656 281.007812 218.800781 273.851562 218.042969 C 273.824219 218.039062 273.792969 218.039062 273.765625 218.039062 Z M 282.957031 238.730469 C 282.125 238.730469 281.289062 238.554688 280.511719 238.207031 L 274.585938 235.554688 C 272.558594 234.644531 271.289062 232.621094 271.363281 230.398438 L 271.734375 218.738281 C 271.75 218.175781 272.003906 217.640625 272.429688 217.269531 C 272.855469 216.898438 273.425781 216.71875 273.984375 216.78125 C 281.003906 217.523438 287.589844 216.832031 290.890625 216.355469 C 291.5 216.265625 292.105469 216.453125 292.558594 216.867188 C 293.007812 217.277344 293.25 217.863281 293.21875 218.476562 L 292.558594 230.6875 C 292.472656 232.339844 291.652344 233.847656 290.3125 234.816406 L 286.476562 237.59375 C 285.4375 238.34375 284.199219 238.730469 282.957031 238.730469 " fill-opacity="1" fill-rule="nonzero"/><path fill="#99b9ff" d="M 311.566406 235.972656 C 311.242188 235.972656 310.917969 235.894531 310.621094 235.746094 L 304.097656 232.429688 C 303.472656 232.113281 303.054688 231.503906 302.976562 230.804688 L 301.503906 217.222656 C 301.382812 216.117188 302.152344 215.121094 303.246094 214.949219 L 309.410156 213.976562 C 309.753906 213.921875 310.082031 214.160156 310.136719 214.503906 C 310.191406 214.855469 309.953125 215.175781 309.605469 215.230469 L 303.445312 216.203125 C 303.019531 216.273438 302.722656 216.65625 302.769531 217.085938 L 304.242188 230.667969 C 304.269531 230.9375 304.429688 231.171875 304.671875 231.296875 L 311.195312 234.613281 C 311.460938 234.746094 311.777344 234.722656 312.023438 234.554688 L 313.578125 233.503906 C 313.867188 233.304688 314.261719 233.382812 314.460938 233.671875 C 314.65625 233.960938 314.578125 234.359375 314.289062 234.554688 L 312.746094 235.597656 C 312.394531 235.84375 311.980469 235.972656 311.566406 235.972656 " fill-opacity="1" fill-rule="nonzero"/><path fill="#ffffff" d="M 333.023438 333.402344 C 332.15625 329.050781 331.777344 328.15625 329.691406 324.804688 C 328.140625 322.3125 331.910156 318.554688 333.828125 318.265625 C 337.03125 317.609375 336.519531 318.621094 340.179688 323.316406 L 343.050781 326.84375 C 343.050781 326.84375 333.785156 337.203125 333.023438 333.402344 " fill-opacity="1" fill-rule="nonzero"/><path fill="#000000" d="M 333.878906 334.867188 C 333.738281 334.867188 333.609375 334.851562 333.484375 334.820312 C 333.160156 334.730469 332.585938 334.441406 332.402344 333.527344 C 331.636719 329.6875 331.394531 328.6875 329.859375 326.121094 C 329.679688 325.820312 329.777344 325.429688 330.078125 325.25 C 330.378906 325.070312 330.765625 325.164062 330.949219 325.464844 C 332.589844 328.207031 332.859375 329.347656 333.648438 333.277344 C 333.703125 333.5625 333.792969 333.585938 333.820312 333.59375 C 334.949219 333.898438 338.960938 330.390625 342.210938 326.824219 L 339.835938 323.925781 C 338.777344 322.570312 338.125 321.515625 337.546875 320.550781 C 337.363281 320.246094 337.460938 319.855469 337.761719 319.675781 C 338.066406 319.496094 338.457031 319.59375 338.632812 319.894531 C 339.191406 320.828125 339.824219 321.847656 340.824219 323.132812 L 343.539062 326.441406 C 343.738281 326.6875 343.730469 327.035156 343.523438 327.265625 C 341.871094 329.109375 336.511719 334.867188 333.878906 334.867188 " fill-opacity="1" fill-rule="nonzero"/><path fill="#3a435e" d="M 332.519531 331.769531 L 336.226562 326.175781 C 337.953125 323.5625 341.632812 323.175781 343.871094 325.367188 L 348.113281 328.929688 C 348.113281 328.929688 348.925781 331.375 348.667969 332.957031 C 348.332031 335.015625 347.667969 337.949219 346.390625 340.855469 C 344.421875 345.328125 338.96875 354.3125 337.027344 357.46875 C 336.621094 358.128906 335.605469 358.785156 334.894531 358.46875 C 334.054688 358.089844 333.183594 357.414062 332.339844 356.621094 C 331.039062 355.398438 331.472656 349.679688 331.941406 345.703125 C 332.242188 343.148438 332.015625 336.636719 331.90625 333.953125 C 331.878906 333.175781 332.089844 332.417969 332.519531 331.769531 " fill-opacity="1" fill-rule="nonzero"/><path fill="#000000" d="M 333.046875 332.121094 C 332.691406 332.65625 332.515625 333.28125 332.542969 333.925781 C 332.65625 336.621094 332.875 343.175781 332.574219 345.777344 C 331.574219 354.296875 332.476562 355.878906 332.777344 356.160156 C 333.6875 357.011719 334.464844 357.578125 335.15625 357.890625 C 335.464844 358.027344 336.191406 357.621094 336.492188 357.136719 C 338.652344 353.617188 343.886719 344.96875 345.808594 340.597656 C 347.078125 337.714844 347.726562 334.796875 348.042969 332.855469 C 348.21875 331.773438 347.796875 330.054688 347.566406 329.296875 L 343.429688 325.820312 C 342.496094 324.910156 341.21875 324.464844 339.925781 324.601562 C 338.628906 324.738281 337.476562 325.441406 336.757812 326.527344 Z M 335.292969 359.183594 C 335.074219 359.183594 334.851562 359.140625 334.636719 359.046875 C 333.816406 358.679688 332.921875 358.035156 331.910156 357.085938 C 331.15625 356.382812 330.277344 354.425781 331.3125 345.628906 C 331.605469 343.117188 331.382812 336.644531 331.273438 333.980469 C 331.238281 333.066406 331.484375 332.179688 331.992188 331.417969 L 335.699219 325.824219 C 336.628906 324.421875 338.117188 323.515625 339.792969 323.335938 C 341.457031 323.164062 343.097656 323.730469 344.296875 324.894531 L 348.660156 328.558594 L 348.71875 328.726562 C 348.753906 328.835938 349.574219 331.34375 349.292969 333.058594 C 348.964844 335.074219 348.296875 338.105469 346.972656 341.109375 C 345.015625 345.550781 339.746094 354.261719 337.570312 357.800781 C 337.164062 358.460938 336.21875 359.183594 335.292969 359.183594 " fill-opacity="1" fill-rule="nonzero"/><path fill="#000000" d="M 332.074219 338.785156 C 331.796875 338.785156 331.539062 338.597656 331.460938 338.320312 C 331.367188 337.980469 331.566406 337.628906 331.90625 337.539062 L 335.898438 336.441406 C 336.234375 336.347656 336.585938 336.546875 336.675781 336.882812 C 336.769531 337.222656 336.570312 337.574219 336.234375 337.664062 L 332.242188 338.761719 C 332.1875 338.777344 332.132812 338.785156 332.074219 338.785156 " fill-opacity="1" fill-rule="nonzero"/><path fill="#000000" d="M 332.371094 342.347656 C 332.09375 342.347656 331.839844 342.160156 331.757812 341.878906 C 331.667969 341.542969 331.863281 341.191406 332.203125 341.097656 L 336.195312 340.003906 C 336.53125 339.910156 336.882812 340.109375 336.972656 340.449219 C 337.066406 340.785156 336.871094 341.136719 336.53125 341.226562 L 332.539062 342.324219 C 332.484375 342.339844 332.425781 342.347656 332.371094 342.347656 " fill-opacity="1" fill-rule="nonzero"/><path fill="#ffffff" d="M 336.441406 358.761719 C 336.035156 358.761719 335.648438 358.695312 335.300781 358.574219 C 334.109375 358.164062 331.128906 357.277344 331.460938 353 C 331.804688 348.570312 335.171875 346.316406 337.632812 343.40625 C 339.507812 341.1875 339.320312 331.910156 339.910156 330.09375 C 340.96875 326.839844 345.722656 326.347656 348.117188 328.929688 C 349.625 330.558594 349.804688 334.097656 349.65625 336.699219 C 349.382812 341.570312 346.519531 351.265625 342.898438 355.949219 C 341.132812 358.234375 338.410156 358.761719 336.441406 358.761719 " fill-opacity="1" fill-rule="nonzero"/><path fill="#000000" d="M 344.210938 327.914062 C 343.867188 327.914062 343.523438 327.949219 343.183594 328.023438 C 341.859375 328.316406 340.886719 329.140625 340.515625 330.289062 C 340.335938 330.835938 340.21875 332.378906 340.097656 334.015625 C 339.824219 337.660156 339.488281 342.199219 338.113281 343.816406 C 337.535156 344.507812 336.898438 345.160156 336.285156 345.796875 C 334.253906 347.890625 332.339844 349.871094 332.09375 353.050781 C 331.808594 356.714844 334.144531 357.507812 335.394531 357.9375 L 335.503906 357.972656 C 335.796875 358.074219 336.113281 358.125 336.441406 358.125 C 337.925781 358.125 340.671875 357.792969 342.398438 355.5625 C 346.054688 350.824219 348.765625 341.203125 349.023438 336.660156 C 349.21875 333.175781 348.71875 330.511719 347.648438 329.359375 C 346.789062 328.433594 345.511719 327.914062 344.210938 327.914062 Z M 336.441406 359.394531 C 335.96875 359.394531 335.519531 359.324219 335.089844 359.175781 L 334.984375 359.140625 C 333.75 358.71875 330.464844 357.597656 330.824219 352.953125 C 331.105469 349.316406 333.273438 347.078125 335.375 344.910156 C 335.972656 344.292969 336.589844 343.652344 337.144531 342.996094 C 338.25 341.691406 338.597656 337.015625 338.832031 333.917969 C 338.972656 332.058594 339.082031 330.589844 339.304688 329.898438 C 339.824219 328.308594 341.136719 327.171875 342.910156 326.785156 C 344.96875 326.328125 347.195312 327.003906 348.582031 328.496094 C 350.363281 330.421875 350.417969 334.480469 350.292969 336.730469 C 350.023438 341.433594 347.210938 351.410156 343.398438 356.339844 C 341.347656 359 338.160156 359.394531 336.441406 359.394531 " fill-opacity="1" fill-rule="nonzero"/><path fill="#000000" d="M 336.441406 359.394531 C 335.304688 359.394531 334.265625 358.957031 333.597656 358.1875 C 333 357.503906 332.742188 356.605469 332.875 355.660156 C 333.519531 350.996094 336.046875 348.570312 338.71875 346.007812 C 340.714844 344.089844 341.25 337.1875 341.507812 333.871094 C 341.605469 332.621094 341.65625 332.007812 341.738281 331.703125 C 342.136719 330.25 343.925781 328.949219 345.8125 328.742188 C 347.546875 328.550781 349.019531 329.335938 349.847656 330.898438 C 350.011719 331.210938 349.890625 331.59375 349.582031 331.757812 C 349.273438 331.921875 348.890625 331.804688 348.722656 331.492188 C 347.984375 330.09375 346.804688 329.914062 345.949219 330.003906 C 344.476562 330.167969 343.191406 331.207031 342.964844 332.039062 C 342.910156 332.238281 342.84375 333.082031 342.777344 333.972656 C 342.484375 337.710938 341.945312 344.671875 339.597656 346.921875 C 336.980469 349.433594 334.714844 351.605469 334.132812 355.832031 C 334.050781 356.417969 334.195312 356.945312 334.554688 357.351562 C 334.984375 357.84375 335.671875 358.125 336.441406 358.125 C 336.878906 358.125 337.3125 358.097656 337.734375 358.046875 C 338.078125 358 338.398438 358.246094 338.445312 358.59375 C 338.488281 358.941406 338.242188 359.257812 337.894531 359.304688 C 337.425781 359.367188 336.933594 359.394531 336.441406 359.394531 " fill-opacity="1" fill-rule="nonzero"/><path fill="#ffffff" d="M 328.074219 210.003906 C 328.074219 210.003906 333.214844 208.667969 334.539062 209.820312 C 334.886719 210.117188 333.097656 215.667969 334.140625 217.152344 C 335.46875 219.042969 338.628906 220.832031 339.210938 222.332031 C 340.109375 224.660156 339.035156 231.398438 338.484375 234.417969 C 338.199219 235.976562 336.027344 236.242188 335.429688 234.773438 C 335.269531 234.375 335.183594 233.84375 335.234375 233.144531 C 335.398438 230.699219 335.167969 228.9375 335.003906 228.066406 C 334.929688 227.675781 334.714844 227.335938 334.398438 227.101562 C 332.925781 226.007812 328.386719 222.457031 327.714844 219.816406 C 327.632812 219.480469 327.632812 218.417969 327.824219 217.777344 C 328.015625 217.152344 328.160156 215.542969 328.136719 214.890625 L 328.074219 210.003906 " fill-opacity="1" fill-rule="nonzero"/><path fill="#000000" d="M 328.71875 210.5 L 328.773438 214.882812 C 328.796875 215.554688 328.648438 217.246094 328.433594 217.957031 C 328.269531 218.503906 328.277344 219.445312 328.332031 219.660156 C 328.824219 221.605469 331.988281 224.515625 334.777344 226.589844 C 335.222656 226.921875 335.523438 227.402344 335.625 227.945312 C 335.789062 228.816406 336.035156 230.652344 335.867188 233.1875 C 335.828125 233.738281 335.882812 234.191406 336.019531 234.535156 C 336.261719 235.128906 336.820312 235.121094 336.984375 235.101562 C 337.34375 235.066406 337.761719 234.839844 337.859375 234.304688 C 338.921875 228.476562 339.207031 224.085938 338.617188 222.5625 C 338.363281 221.910156 337.332031 221.035156 336.332031 220.191406 C 335.328125 219.339844 334.285156 218.460938 333.621094 217.515625 C 332.855469 216.429688 333.203125 214.1875 333.703125 211.585938 C 333.796875 211.089844 333.910156 210.5 333.941406 210.179688 C 333.042969 209.765625 330.523438 210.082031 328.71875 210.5 Z M 336.867188 236.378906 C 335.96875 236.378906 335.191406 235.863281 334.847656 235.015625 C 334.632812 234.492188 334.550781 233.847656 334.601562 233.101562 C 334.761719 230.707031 334.53125 228.988281 334.378906 228.179688 C 334.335938 227.953125 334.207031 227.75 334.023438 227.609375 C 332.175781 226.242188 327.804688 222.75 327.101562 219.972656 C 326.976562 219.484375 327.003906 218.3125 327.21875 217.59375 C 327.378906 217.066406 327.523438 215.546875 327.503906 214.914062 L 327.4375 210.011719 C 327.4375 209.71875 327.632812 209.464844 327.914062 209.390625 C 328.828125 209.152344 333.453125 208.03125 334.957031 209.335938 C 335.355469 209.683594 335.261719 210.179688 334.949219 211.824219 C 334.667969 213.300781 334.140625 216.050781 334.660156 216.785156 C 335.230469 217.597656 336.207031 218.425781 337.152344 219.222656 C 338.324219 220.214844 339.433594 221.148438 339.800781 222.101562 C 340.730469 224.511719 339.769531 230.925781 339.109375 234.535156 C 338.929688 235.527344 338.128906 236.261719 337.113281 236.367188 C 337.03125 236.375 336.949219 236.378906 336.867188 236.378906 " fill-opacity="1" fill-rule="nonzero"/><path fill="#ffffff" d="M 223.808594 129.136719 L 221.378906 126.800781 C 219.570312 125.273438 218.898438 121.9375 218.898438 121.9375 C 218.582031 120.675781 217.851562 119.554688 216.824219 118.757812 L 206.644531 110.835938 C 205.976562 110.320312 204.988281 110.6875 204.84375 111.515625 C 204.703125 112.34375 204.898438 113.425781 206.167969 114.5625 L 208.867188 116.792969 C 209.347656 117.191406 209.46875 117.875 209.15625 118.414062 C 208.585938 119.40625 207.878906 121.121094 208.390625 123.027344 C 209.53125 127.273438 214.589844 128.726562 215.851562 129.027344 C 216.035156 129.074219 219.339844 134.039062 219.339844 134.039062 L 223.808594 129.136719 " fill-opacity="1" fill-rule="nonzero"/><path fill="#000000" d="M 205.953125 111.230469 C 205.871094 111.230469 205.804688 111.25 205.765625 111.265625 C 205.691406 111.296875 205.511719 111.390625 205.46875 111.625 C 205.328125 112.464844 205.703125 113.292969 206.589844 114.085938 L 209.273438 116.304688 C 209.992188 116.902344 210.175781 117.921875 209.707031 118.734375 C 209.144531 119.707031 208.566406 121.214844 209.007812 122.863281 C 210.066406 126.8125 215.015625 128.175781 216 128.410156 C 216.285156 128.476562 216.414062 128.507812 219.417969 133.011719 L 222.925781 129.164062 L 220.941406 127.257812 C 219.019531 125.636719 218.308594 122.207031 218.277344 122.0625 C 218.003906 120.972656 217.347656 119.964844 216.433594 119.257812 L 206.25 111.335938 C 206.148438 111.253906 206.042969 111.230469 205.953125 111.230469 Z M 219.339844 134.675781 C 219.324219 134.675781 219.308594 134.671875 219.292969 134.671875 C 219.097656 134.65625 218.917969 134.550781 218.808594 134.390625 C 217.664062 132.664062 215.972656 130.171875 215.519531 129.597656 C 213.777344 129.15625 208.949219 127.554688 207.78125 123.191406 C 207.226562 121.121094 207.925781 119.28125 208.609375 118.09375 C 208.765625 117.824219 208.703125 117.484375 208.464844 117.285156 L 205.761719 115.046875 C 204.203125 113.65625 204.066406 112.300781 204.21875 111.410156 C 204.324219 110.800781 204.730469 110.304688 205.308594 110.082031 C 205.890625 109.855469 206.539062 109.949219 207.03125 110.335938 L 217.214844 118.253906 C 218.347656 119.136719 219.164062 120.386719 219.515625 121.785156 C 219.53125 121.84375 220.175781 124.953125 221.792969 126.3125 L 224.25 128.675781 C 224.5 128.914062 224.511719 129.308594 224.28125 129.5625 L 219.808594 134.464844 C 219.6875 134.597656 219.515625 134.675781 219.339844 134.675781 " fill-opacity="1" fill-rule="nonzero"/><path fill="#000000" d="M 216.585938 131.269531 L 222.195312 125.644531 C 222.734375 125.34375 223.375 125.488281 223.816406 125.914062 C 236.570312 138.230469 246.300781 136.898438 256.511719 134.335938 C 256.511719 134.335938 266.996094 131.882812 269.902344 131.609375 C 272.09375 131.40625 277.917969 129.925781 291.5625 131.457031 C 296.863281 132.050781 302.003906 133.667969 306.691406 136.210938 L 307.398438 136.59375 C 307.398438 136.59375 345.976562 160.796875 336.546875 213.050781 C 336.441406 213.628906 335.933594 214.097656 335.339844 214.097656 L 327.59375 214.097656 C 326.949219 214.097656 326.414062 213.554688 326.371094 212.910156 C 326.023438 207.496094 323.917969 184.105469 313.058594 171.136719 C 311.859375 169.707031 309.550781 170.121094 308.992188 171.902344 C 308.128906 174.664062 307.90625 180.539062 310.183594 192.910156 C 310.253906 193.289062 313.125 207.886719 313.125 207.886719 C 313.125 207.886719 282.929688 213.066406 272.40625 211.175781 C 264.085938 209.679688 261.574219 207.632812 260.886719 206.839844 C 260.730469 206.660156 260.660156 206.421875 260.6875 206.183594 L 261.910156 195.546875 C 262.347656 191.6875 263.414062 184.476562 262.148438 175.289062 C 260.410156 162.660156 252.839844 162.90625 252.839844 162.90625 C 243.222656 162.289062 225.949219 164.304688 215.96875 132.78125 C 215.78125 132.199219 216.054688 131.566406 216.585938 131.269531 " fill-opacity="1" fill-rule="nonzero"/><path fill="#ffffff" d="M 267.507812 104.644531 C 267.507812 104.644531 265.667969 107.46875 265.582031 109.785156 C 265.558594 110.398438 265.324219 112.359375 263.84375 114.515625 C 263.699219 114.726562 263.734375 115.007812 263.925781 115.175781 L 265.382812 116.445312 C 265.484375 116.53125 265.539062 116.652344 265.542969 116.785156 C 265.558594 117.601562 265.613281 120.625 265.722656 121.183594 C 265.84375 121.835938 266.371094 122.40625 266.632812 122.542969 C 267.324219 122.90625 270.300781 122.496094 270.300781 122.496094 C 270.300781 122.496094 271.101562 122.5625 272.714844 126.785156 C 274.457031 131.347656 270.96875 133.117188 270.96875 133.117188 C 269.65625 133.820312 269.867188 135.128906 271.300781 135.566406 C 276.230469 137.078125 285.816406 138.714844 291.382812 134.507812 C 292.425781 133.722656 291.980469 132.882812 291.085938 132.683594 C 277.808594 129.738281 283.964844 115.8125 283.691406 115.738281 C 282.980469 115.5625 278.882812 111.335938 276.496094 110.148438 C 274.871094 109.339844 272.917969 110.558594 271.589844 109.320312 L 267.507812 104.644531 " fill-opacity="1" fill-rule="nonzero"/><path fill="#000000" d="M 264.964844 116.921875 L 264.96875 116.921875 Z M 270.304688 121.859375 C 270.320312 121.859375 270.335938 121.859375 270.355469 121.859375 C 271.148438 121.929688 272.144531 123.507812 273.308594 126.558594 C 275.234375 131.597656 271.296875 133.664062 271.257812 133.683594 C 270.910156 133.871094 270.710938 134.117188 270.730469 134.335938 C 270.757812 134.582031 271.054688 134.828125 271.484375 134.957031 C 273.652344 135.621094 284.785156 138.695312 291 134 C 291.28125 133.785156 291.363281 133.613281 291.351562 133.546875 C 291.335938 133.476562 291.199219 133.359375 290.949219 133.300781 C 287.34375 132.5 284.769531 130.832031 283.296875 128.339844 C 280.667969 123.878906 282.371094 118.101562 282.929688 116.203125 C 282.945312 116.15625 282.957031 116.105469 282.972656 116.058594 C 282.582031 115.78125 282.003906 115.289062 281.035156 114.4375 C 279.5625 113.148438 277.546875 111.378906 276.214844 110.714844 C 275.628906 110.425781 274.941406 110.46875 274.210938 110.511719 C 273.210938 110.574219 272.085938 110.648438 271.15625 109.785156 C 271.140625 109.769531 271.128906 109.753906 271.113281 109.738281 L 267.609375 105.726562 C 267.089844 106.675781 266.273438 108.375 266.21875 109.808594 C 266.195312 110.390625 266 112.445312 264.433594 114.773438 L 265.800781 115.964844 C 266.035156 116.167969 266.171875 116.460938 266.179688 116.773438 C 266.21875 119.011719 266.285156 120.738281 266.34375 121.066406 C 266.429688 121.515625 266.820312 121.917969 266.933594 121.984375 C 267.230469 122.117188 268.769531 122.066406 270.214844 121.863281 C 270.242188 121.859375 270.273438 121.859375 270.304688 121.859375 Z M 281.695312 137.820312 C 276.875 137.820312 272.425781 136.574219 271.113281 136.171875 C 270.160156 135.882812 269.546875 135.238281 269.46875 134.457031 C 269.394531 133.710938 269.84375 133 270.667969 132.558594 C 270.800781 132.492188 273.632812 130.957031 272.125 127.011719 C 271.050781 124.203125 270.386719 123.375 270.160156 123.152344 C 269.105469 123.289062 267.070312 123.488281 266.339844 123.105469 C 265.933594 122.890625 265.257812 122.171875 265.097656 121.300781 C 264.992188 120.742188 264.9375 118.324219 264.914062 116.871094 L 263.511719 115.652344 C 263.078125 115.273438 262.996094 114.628906 263.320312 114.15625 C 264.792969 112.015625 264.933594 110.121094 264.949219 109.761719 C 265.042969 107.296875 266.898438 104.417969 266.976562 104.296875 C 267.085938 104.132812 267.265625 104.023438 267.464844 104.011719 C 267.660156 103.996094 267.855469 104.074219 267.988281 104.226562 L 272.042969 108.875 C 272.542969 109.320312 273.164062 109.308594 274.132812 109.246094 C 274.957031 109.195312 275.890625 109.136719 276.78125 109.578125 C 278.261719 110.316406 280.261719 112.074219 281.871094 113.480469 C 282.65625 114.167969 283.632812 115.023438 283.882812 115.136719 C 284.050781 115.179688 284.160156 115.28125 284.25 115.429688 C 284.402344 115.699219 284.347656 115.882812 284.144531 116.5625 C 283.625 118.328125 282.039062 123.707031 284.390625 127.695312 C 285.675781 129.871094 287.976562 131.339844 291.226562 132.0625 C 291.941406 132.222656 292.460938 132.683594 292.59375 133.277344 C 292.667969 133.632812 292.664062 134.335938 291.765625 135.015625 C 288.933594 137.15625 285.214844 137.820312 281.695312 137.820312 " fill-opacity="1" fill-rule="nonzero"/><path fill="#000000" d="M 263.964844 114.8125 C 263.953125 114.8125 263.9375 114.808594 263.925781 114.808594 C 263.246094 114.769531 262.671875 114.46875 262.269531 113.949219 C 261.148438 112.507812 261.632812 109.761719 261.691406 109.453125 C 261.757812 109.121094 262.074219 108.898438 262.40625 108.945312 L 272.832031 110.460938 C 273.179688 110.511719 273.417969 110.835938 273.367188 111.183594 C 273.316406 111.53125 272.992188 111.769531 272.648438 111.71875 L 262.855469 110.292969 C 262.765625 111.171875 262.757812 112.515625 263.269531 113.171875 C 263.449219 113.402344 263.683594 113.523438 264.003906 113.542969 C 264.351562 113.5625 264.617188 113.863281 264.597656 114.214844 C 264.578125 114.550781 264.296875 114.8125 263.964844 114.8125 " fill-opacity="1" fill-rule="nonzero"/><path fill="#000000" d="M 272.796875 115.949219 C 272.457031 115.949219 272.15625 115.898438 271.917969 115.832031 C 271.578125 115.734375 271.382812 115.382812 271.480469 115.046875 C 271.578125 114.710938 271.925781 114.515625 272.261719 114.609375 C 272.457031 114.664062 274.167969 115.058594 274.964844 113.046875 C 275.257812 112.296875 275.203125 111.699219 274.816406 111.40625 C 274.453125 111.132812 273.753906 111.109375 273.125 111.59375 C 273.003906 111.691406 272.71875 112.085938 272.539062 112.378906 C 272.359375 112.683594 271.96875 112.777344 271.667969 112.59375 C 271.367188 112.414062 271.269531 112.023438 271.453125 111.722656 C 271.570312 111.53125 271.984375 110.871094 272.351562 110.589844 C 273.371094 109.808594 274.699219 109.726562 275.582031 110.390625 C 276.445312 111.042969 276.65625 112.210938 276.144531 113.511719 C 275.386719 115.4375 273.90625 115.949219 272.796875 115.949219 " fill-opacity="1" fill-rule="nonzero"/><path fill="#000000" d="M 263.59375 97.75 C 264.53125 96.136719 265.542969 94.746094 268.679688 94.09375 C 270.828125 93.644531 274.351562 95.195312 276.101562 97.007812 C 276.246094 97.160156 276.476562 97.160156 276.59375 97.007812 C 276.960938 96.535156 277.828125 95.46875 278.609375 95.363281 C 280.867188 95.070312 283.214844 97.972656 284.050781 99.472656 C 284.664062 100.5625 285.707031 103.039062 286.25 105.921875 C 286.285156 106.105469 286.449219 106.234375 286.628906 106.21875 C 287.308594 106.144531 288.671875 106.132812 289.894531 107.015625 C 292.074219 108.59375 291.867188 110.9375 291.84375 111.222656 C 291.585938 114.566406 288.222656 117.070312 285.667969 118.433594 C 283.933594 119.363281 283.277344 119.5 282.253906 119.75 C 282.195312 119.765625 282.132812 119.757812 282.074219 119.742188 C 281.167969 119.882812 279.628906 119.972656 277.898438 119.394531 C 275.160156 118.476562 275.3125 113.941406 275.3125 113.941406 L 275.648438 113.085938 C 275.851562 112.5625 275.875 111.980469 275.65625 111.464844 C 274.996094 109.894531 272.628906 111.105469 272.542969 111.089844 C 268.054688 110.210938 266.460938 108.914062 265.636719 108.035156 C 262.6875 104.867188 261.320312 101.660156 263.59375 97.75 " fill-opacity="1" fill-rule="nonzero"/><path fill="#3a435e" d="M 92.546875 117.425781 C 92.328125 117.425781 92.113281 117.3125 91.996094 117.109375 C 91.820312 116.804688 91.921875 116.417969 92.226562 116.242188 L 130.957031 93.675781 C 131.261719 93.5 131.648438 93.601562 131.824219 93.90625 C 132.003906 94.210938 131.898438 94.597656 131.597656 94.773438 L 92.867188 117.339844 C 92.765625 117.398438 92.65625 117.425781 92.546875 117.425781 " fill-opacity="1" fill-rule="nonzero"/><path fill="#3a435e" d="M 347.257812 288.335938 C 347.039062 288.335938 346.828125 288.226562 346.707031 288.019531 C 346.53125 287.71875 346.636719 287.328125 346.9375 287.152344 L 385.671875 264.589844 C 385.96875 264.414062 386.359375 264.511719 386.539062 264.820312 C 386.714844 265.121094 386.613281 265.507812 386.308594 265.6875 L 347.578125 288.25 C 347.476562 288.308594 347.367188 288.335938 347.257812 288.335938 " fill-opacity="1" fill-rule="nonzero"/><path fill="#3a435e" d="M 201.765625 52.867188 C 201.65625 52.867188 201.546875 52.839844 201.449219 52.785156 C 201.253906 52.667969 201.132812 52.460938 201.132812 52.230469 L 201.132812 30.8125 L 166.867188 48.007812 C 166.554688 48.164062 166.171875 48.039062 166.015625 47.722656 C 165.855469 47.410156 165.984375 47.027344 166.296875 46.871094 L 201.484375 29.214844 C 201.679688 29.117188 201.914062 29.125 202.097656 29.242188 C 202.289062 29.355469 202.402344 29.5625 202.402344 29.78125 L 202.402344 51.125 L 240.179688 29.117188 C 240.484375 28.941406 240.871094 29.046875 241.046875 29.347656 C 241.222656 29.652344 241.121094 30.039062 240.816406 30.21875 L 202.085938 52.78125 C 201.988281 52.839844 201.875 52.867188 201.765625 52.867188 " fill-opacity="1" fill-rule="nonzero"/><path fill="#3a435e" d="M 55.3125 47.902344 C 55.09375 47.902344 54.878906 47.789062 54.761719 47.585938 C 54.585938 47.285156 54.6875 46.894531 54.992188 46.71875 L 93.722656 24.15625 C 94.027344 23.976562 94.414062 24.082031 94.589844 24.382812 C 94.769531 24.6875 94.664062 25.074219 94.363281 25.25 L 55.628906 47.816406 C 55.53125 47.875 55.421875 47.902344 55.3125 47.902344 " fill-opacity="1" fill-rule="nonzero"/><path fill="#3a435e" d="M 61.40625 102.976562 C 61.183594 102.976562 60.96875 102.859375 60.851562 102.648438 C 60.679688 102.34375 60.789062 101.957031 61.097656 101.785156 L 67.628906 98.140625 C 67.933594 97.96875 68.320312 98.082031 68.492188 98.386719 C 68.664062 98.691406 68.554688 99.078125 68.246094 99.25 L 61.714844 102.898438 C 61.617188 102.949219 61.511719 102.976562 61.40625 102.976562 " fill-opacity="1" fill-rule="nonzero"/><path fill="#3a435e" d="M 74.007812 95.921875 C 73.785156 95.921875 73.570312 95.804688 73.453125 95.597656 C 73.28125 95.292969 73.390625 94.902344 73.695312 94.734375 L 116.175781 70.867188 C 116.859375 70.484375 117.285156 69.753906 117.285156 68.96875 L 117.285156 61.671875 C 117.285156 60.449219 117.941406 59.308594 118.996094 58.691406 L 145.300781 43.367188 C 145.601562 43.191406 145.992188 43.296875 146.167969 43.597656 C 146.34375 43.902344 146.242188 44.289062 145.9375 44.464844 L 119.636719 59.789062 C 118.96875 60.179688 118.554688 60.898438 118.554688 61.671875 L 118.554688 68.96875 C 118.554688 70.214844 117.882812 71.363281 116.796875 71.972656 L 74.316406 95.839844 C 74.21875 95.894531 74.109375 95.921875 74.007812 95.921875 " fill-opacity="1" fill-rule="nonzero"/><path fill="#3a435e" d="M 196.800781 333.816406 C 196.582031 333.816406 196.371094 333.707031 196.25 333.5 C 196.074219 333.199219 196.179688 332.8125 196.484375 332.632812 L 224.179688 316.496094 C 224.484375 316.320312 224.871094 316.421875 225.050781 316.726562 C 225.226562 317.027344 225.121094 317.417969 224.820312 317.59375 L 197.121094 333.730469 C 197.019531 333.789062 196.910156 333.816406 196.800781 333.816406 " fill-opacity="1" fill-rule="nonzero"/><path fill="#3a435e" d="M 246.292969 24.171875 C 246.292969 22.191406 247.894531 20.585938 249.875 20.585938 C 251.859375 20.585938 253.460938 22.191406 253.460938 24.171875 C 253.460938 26.152344 251.859375 27.757812 249.875 27.757812 C 247.894531 27.757812 246.292969 26.152344 246.292969 24.171875 " fill-opacity="1" fill-rule="nonzero"/><path fill="#3a435e" d="M 198.296875 52.222656 C 198.296875 50.242188 199.902344 48.636719 201.882812 48.636719 C 203.863281 48.636719 205.46875 50.242188 205.46875 52.222656 C 205.46875 54.207031 203.863281 55.808594 201.882812 55.808594 C 199.902344 55.808594 198.296875 54.207031 198.296875 52.222656 " fill-opacity="1" fill-rule="nonzero"/><path fill="#3a435e" d="M 198.296875 29.78125 C 198.296875 27.804688 199.90625 26.195312 201.886719 26.195312 C 203.863281 26.195312 205.46875 27.804688 205.46875 29.78125 C 205.46875 31.765625 203.863281 33.367188 201.886719 33.367188 C 199.90625 33.367188 198.296875 31.765625 198.296875 29.78125 " fill-opacity="1" fill-rule="nonzero"/><path fill="#3a435e" d="M 232.039062 311.277344 C 232.039062 309.300781 233.644531 307.691406 235.625 307.691406 C 237.605469 307.691406 239.210938 309.300781 239.210938 311.277344 C 239.210938 313.261719 237.605469 314.867188 235.625 314.867188 C 233.644531 314.867188 232.039062 313.261719 232.039062 311.277344 " fill-opacity="1" fill-rule="nonzero"/><path fill="#3a435e" d="M 153.066406 53.789062 C 153.066406 51.804688 154.671875 50.199219 156.652344 50.199219 C 158.632812 50.199219 160.234375 51.804688 160.234375 53.789062 C 160.234375 55.769531 158.632812 57.371094 156.652344 57.371094 C 154.671875 57.371094 153.066406 55.769531 153.066406 53.789062 " fill-opacity="1" fill-rule="nonzero"/><path fill="#000000" d="M 140.378906 87.152344 C 139.152344 87.152344 138.15625 88.152344 138.15625 89.375 C 138.15625 90.601562 139.152344 91.597656 140.378906 91.597656 C 141.605469 91.597656 142.601562 90.601562 142.601562 89.375 C 142.601562 88.152344 141.605469 87.152344 140.378906 87.152344 Z M 140.378906 92.871094 C 138.453125 92.871094 136.886719 91.300781 136.886719 89.375 C 136.886719 87.449219 138.453125 85.882812 140.378906 85.882812 C 142.304688 85.882812 143.871094 87.449219 143.871094 89.375 C 143.871094 91.300781 142.304688 92.871094 140.378906 92.871094 " fill-opacity="1" fill-rule="nonzero"/><path fill="#000000" d="M 373.335938 206.886719 C 372.109375 206.886719 371.117188 207.882812 371.117188 209.109375 C 371.117188 210.335938 372.109375 211.332031 373.335938 211.332031 C 374.5625 211.332031 375.558594 210.335938 375.558594 209.109375 C 375.558594 207.882812 374.5625 206.886719 373.335938 206.886719 Z M 373.335938 212.605469 C 371.414062 212.605469 369.84375 211.035156 369.84375 209.109375 C 369.84375 207.183594 371.414062 205.617188 373.335938 205.617188 C 375.265625 205.617188 376.828125 207.183594 376.828125 209.109375 C 376.828125 211.035156 375.265625 212.605469 373.335938 212.605469 " fill-opacity="1" fill-rule="nonzero"/><path fill="#99b9ff" d="M 359.09375 231.917969 C 359.09375 230.703125 360.078125 229.714844 361.296875 229.714844 C 362.507812 229.714844 363.492188 230.703125 363.492188 231.917969 C 363.492188 233.132812 362.507812 234.117188 361.296875 234.117188 C 360.078125 234.117188 359.09375 233.132812 359.09375 231.917969 " fill-opacity="1" fill-rule="nonzero"/><path fill="#000000" d="M 184.738281 296.742188 C 184.578125 296.742188 184.414062 296.679688 184.289062 296.554688 L 182.832031 295.101562 C 182.585938 294.851562 182.585938 294.449219 182.832031 294.203125 C 183.082031 293.953125 183.484375 293.953125 183.730469 294.203125 L 185.1875 295.660156 C 185.4375 295.90625 185.4375 296.308594 185.1875 296.554688 C 185.066406 296.679688 184.902344 296.742188 184.738281 296.742188 " fill-opacity="1" fill-rule="nonzero"/><path fill="#000000" d="M 190.238281 302.246094 C 190.078125 302.246094 189.914062 302.179688 189.789062 302.058594 L 188.335938 300.601562 C 188.085938 300.355469 188.085938 299.953125 188.335938 299.703125 C 188.582031 299.453125 188.984375 299.453125 189.230469 299.703125 L 190.6875 301.160156 C 190.9375 301.40625 190.9375 301.808594 190.6875 302.058594 C 190.5625 302.179688 190.402344 302.246094 190.238281 302.246094 " fill-opacity="1" fill-rule="nonzero"/><path fill="#000000" d="M 183.285156 302.246094 C 183.121094 302.246094 182.960938 302.179688 182.832031 302.058594 C 182.585938 301.808594 182.585938 301.40625 182.832031 301.160156 L 184.289062 299.703125 C 184.539062 299.453125 184.941406 299.453125 185.1875 299.703125 C 185.4375 299.953125 185.4375 300.355469 185.1875 300.601562 L 183.730469 302.058594 C 183.609375 302.179688 183.445312 302.246094 183.285156 302.246094 " fill-opacity="1" fill-rule="nonzero"/><path fill="#000000" d="M 188.785156 296.742188 C 188.621094 296.742188 188.457031 296.679688 188.335938 296.554688 C 188.085938 296.308594 188.085938 295.90625 188.335938 295.660156 L 189.789062 294.203125 C 190.039062 293.953125 190.441406 293.953125 190.6875 294.203125 C 190.9375 294.449219 190.9375 294.851562 190.6875 295.101562 L 189.230469 296.554688 C 189.109375 296.679688 188.945312 296.742188 188.785156 296.742188 " fill-opacity="1" fill-rule="nonzero"/><g clip-path="url(#446eded4e8)"><path fill="#3a435e" d="M 411.199219 305.367188 C 410.875 305.097656 410.449219 304.988281 410.039062 305.066406 L 370.613281 312.585938 C 369.949219 312.710938 369.46875 313.292969 369.46875 313.972656 L 369.46875 366.605469 C 369.46875 367.28125 369.949219 367.863281 370.613281 367.988281 L 410.039062 375.507812 C 410.125 375.523438 410.214844 375.53125 410.300781 375.53125 C 410.625 375.53125 410.945312 375.417969 411.199219 375.210938 C 411.523438 374.941406 411.710938 374.542969 411.710938 374.121094 L 411.710938 306.453125 C 411.710938 306.03125 411.523438 305.632812 411.199219 305.367188 Z M 395.542969 353.507812 L 391.007812 344.925781 C 390.835938 344.605469 390.65625 344.015625 390.472656 343.160156 L 390.402344 343.160156 C 390.316406 343.5625 390.113281 344.175781 389.792969 344.996094 L 385.242188 353.507812 L 378.175781 353.507812 L 386.5625 340.328125 L 378.890625 327.148438 L 386.105469 327.148438 L 389.871094 335.050781 C 390.164062 335.675781 390.429688 336.417969 390.660156 337.277344 L 390.730469 337.277344 C 390.878906 336.761719 391.152344 335.996094 391.558594 334.976562 L 395.742188 327.148438 L 402.351562 327.148438 L 394.457031 340.21875 L 402.574219 353.507812 Z M 395.542969 353.507812 " fill-opacity="1" fill-rule="nonzero"/></g><g clip-path="url(#4c20200183)"><path fill="#3a435e" d="M 435.648438 313.5 L 414.527344 313.5 L 414.527344 323.371094 L 417.34375 323.371094 L 417.34375 326.191406 L 414.527344 326.191406 L 414.527344 333.238281 L 417.34375 333.238281 L 417.34375 336.058594 L 414.527344 336.058594 L 414.527344 343.105469 L 417.34375 343.105469 L 417.34375 345.925781 L 414.527344 345.925781 L 414.527344 354.386719 L 417.34375 354.386719 L 417.34375 357.203125 L 414.527344 357.203125 L 414.527344 367.074219 L 435.648438 367.074219 C 437.199219 367.074219 438.460938 365.808594 438.460938 364.253906 L 438.460938 316.320312 C 438.460938 314.765625 437.199219 313.5 435.648438 313.5 Z M 431.421875 357.203125 L 420.160156 357.203125 L 420.160156 354.386719 L 431.421875 354.386719 Z M 431.421875 345.925781 L 420.160156 345.925781 L 420.160156 343.105469 L 431.421875 343.105469 Z M 431.421875 336.058594 L 420.160156 336.058594 L 420.160156 333.238281 L 431.421875 333.238281 Z M 431.421875 326.191406 L 420.160156 326.191406 L 420.160156 323.371094 L 431.421875 323.371094 Z M 431.421875 326.191406 " fill-opacity="1" fill-rule="nonzero"/></g></svg>