<svg xmlns="http://www.w3.org/2000/svg" xmlns:xlink="http://www.w3.org/1999/xlink" width="585" zoomAndPan="magnify" viewBox="0 0 438.75 375.749991" height="501" preserveAspectRatio="xMidYMid meet" version="1.0"><defs><clipPath id="ba7535365b"><path d="M 0.0195312 34.707031 L 438.480469 34.707031 L 438.480469 340.679688 L 0.0195312 340.679688 Z M 0.0195312 34.707031 " clip-rule="nonzero"/></clipPath><clipPath id="d3437a6ba7"><path d="M 72 222 L 373 222 L 373 340.679688 L 72 340.679688 Z M 72 222 " clip-rule="nonzero"/></clipPath><clipPath id="bd93a8a43d"><path d="M 0.0195312 34.707031 L 438.480469 34.707031 L 438.480469 323 L 0.0195312 323 Z M 0.0195312 34.707031 " clip-rule="nonzero"/></clipPath></defs><g clip-path="url(#ba7535365b)"><path fill="#f4f4ed" d="M 405.371094 195.191406 C 405.03125 195.191406 404.695312 195.191406 404.355469 195.191406 C 403.453125 195.191406 402.660156 195.191406 401.757812 195.191406 C 401.757812 196.546875 401.757812 197.898438 401.757812 199.253906 C 401.757812 199.929688 400.628906 199.929688 400.628906 199.253906 C 400.628906 198.914062 400.628906 198.464844 400.628906 198.125 C 400.628906 197.109375 400.628906 196.207031 400.628906 195.191406 C 399.386719 195.191406 398.257812 195.191406 397.015625 195.191406 C 396.339844 195.191406 396.339844 194.066406 397.015625 194.066406 C 397.355469 194.066406 397.695312 194.066406 398.03125 194.066406 C 398.9375 194.066406 399.726562 194.066406 400.628906 194.066406 C 400.628906 192.710938 400.628906 191.359375 400.628906 190.003906 C 400.628906 189.328125 401.757812 189.328125 401.757812 190.003906 C 401.757812 190.34375 401.757812 190.792969 401.757812 191.132812 C 401.757812 192.148438 401.757812 193.050781 401.757812 194.066406 C 403 194.066406 404.128906 194.066406 405.371094 194.066406 C 406.046875 194.066406 406.046875 195.191406 405.371094 195.191406 Z M 389.339844 179.292969 C 389.339844 177.601562 387.984375 176.246094 386.292969 176.246094 C 384.597656 176.246094 383.242188 177.601562 383.242188 179.292969 C 383.242188 180.984375 384.597656 182.335938 386.292969 182.335938 C 387.984375 182.335938 389.339844 180.871094 389.339844 179.292969 Z M 388.324219 281.695312 C 388.324219 281.695312 385.613281 281.355469 385.050781 280.339844 C 384.484375 279.328125 383.921875 276.167969 383.921875 276.167969 C 383.808594 275.832031 383.355469 275.832031 383.242188 276.167969 C 383.242188 276.167969 382.90625 278.875 382.226562 280.339844 C 381.550781 281.808594 378.953125 281.808594 378.953125 281.808594 C 378.613281 281.921875 378.613281 282.371094 378.953125 282.484375 C 378.953125 282.484375 381.664062 282.9375 382.226562 283.949219 C 382.90625 285.078125 383.355469 288.125 383.355469 288.125 C 383.46875 288.460938 383.921875 288.460938 384.035156 288.125 C 384.035156 288.125 384.824219 284.964844 385.390625 283.949219 C 385.953125 282.9375 388.550781 282.371094 388.550781 282.371094 C 388.664062 282.257812 388.664062 281.808594 388.324219 281.695312 Z M 372.066406 310.226562 C 372.632812 311.582031 372.066406 313.160156 370.710938 313.722656 L 363.375 316.996094 C 362.019531 317.558594 361.453125 319.136719 362.019531 320.492188 L 365.179688 327.820312 C 365.746094 329.175781 365.179688 330.753906 363.824219 331.316406 L 362.582031 331.882812 C 361.230469 332.445312 359.648438 331.882812 359.082031 330.527344 L 355.921875 323.3125 C 355.359375 321.957031 353.777344 321.394531 352.421875 321.957031 L 344.519531 325.453125 C 343.164062 326.015625 342.601562 327.597656 343.164062 328.949219 L 346.328125 336.054688 C 346.890625 337.410156 346.328125 338.988281 344.972656 339.550781 L 343.730469 340.113281 C 342.375 340.679688 340.792969 340.113281 340.230469 338.761719 L 337.183594 331.769531 C 336.617188 330.414062 335.035156 329.851562 333.683594 330.414062 L 326.683594 333.574219 C 325.328125 334.136719 323.746094 333.574219 323.183594 332.21875 L 322.617188 330.980469 C 322.054688 329.625 322.617188 328.046875 323.972656 327.484375 L 331.085938 324.324219 C 332.441406 323.761719 333.003906 322.183594 332.441406 320.828125 L 329.054688 312.933594 C 328.488281 311.582031 326.910156 311.019531 325.554688 311.582031 L 318.328125 314.851562 C 316.972656 315.417969 315.507812 314.851562 314.828125 313.5 L 314.265625 312.257812 C 313.699219 310.90625 314.265625 309.324219 315.617188 308.761719 L 322.957031 305.492188 C 324.3125 304.925781 324.875 303.347656 324.3125 301.996094 L 321.039062 294.4375 C 320.472656 293.085938 321.039062 291.507812 322.394531 290.941406 L 323.632812 290.378906 C 324.988281 289.816406 326.570312 290.378906 327.132812 291.734375 L 330.296875 298.949219 C 330.859375 300.304688 332.441406 300.867188 333.796875 300.304688 L 341.699219 296.808594 C 343.050781 296.242188 343.617188 294.664062 343.050781 293.3125 L 339.890625 286.09375 C 339.328125 284.738281 339.890625 283.160156 341.246094 282.597656 L 342.601562 282.035156 C 343.957031 281.46875 345.421875 282.035156 346.101562 283.386719 L 349.148438 290.378906 C 349.714844 291.734375 351.292969 292.296875 352.648438 291.734375 L 359.648438 288.574219 C 361.003906 288.011719 362.582031 288.574219 363.148438 289.929688 L 363.710938 291.167969 C 364.277344 292.523438 363.710938 294.101562 362.359375 294.664062 L 355.246094 297.824219 C 353.890625 298.386719 353.328125 299.964844 353.890625 301.320312 L 357.277344 309.214844 C 357.84375 310.566406 359.421875 311.128906 360.777344 310.566406 L 368.003906 307.296875 C 369.359375 306.730469 370.824219 307.296875 371.503906 308.648438 Z M 351.179688 312.257812 L 347.792969 304.363281 C 347.230469 303.011719 345.648438 302.445312 344.292969 303.011719 L 336.390625 306.507812 C 335.035156 307.070312 334.472656 308.648438 335.035156 310.003906 L 338.425781 317.898438 C 338.988281 319.25 340.570312 319.816406 341.921875 319.25 L 349.828125 315.753906 C 351.179688 315.078125 351.746094 313.5 351.179688 312.257812 Z M 345.199219 96.058594 C 347.117188 96.058594 348.699219 94.480469 348.699219 92.5625 C 348.699219 90.648438 347.117188 89.066406 345.199219 89.066406 C 343.277344 89.066406 341.699219 90.648438 341.699219 92.5625 C 341.699219 94.480469 343.164062 96.058594 345.199219 96.058594 Z M 396.902344 243.351562 C 396.339844 239.855469 395.664062 236.46875 395.097656 232.972656 C 394.308594 228.351562 393.40625 223.613281 392.613281 218.878906 C 391.9375 215.042969 391.257812 211.09375 390.582031 207.261719 C 390.355469 206.246094 390.242188 205.34375 390.015625 204.328125 C 389.679688 202.523438 388.777344 201.058594 387.195312 200.15625 C 384.9375 198.914062 382.453125 199.703125 380.195312 200.042969 C 376.582031 200.71875 372.96875 201.285156 369.46875 201.960938 C 364.730469 202.75 359.988281 203.652344 355.359375 204.441406 C 351.066406 205.230469 346.777344 205.90625 342.488281 206.695312 C 340.117188 207.148438 337.746094 207.484375 335.488281 207.9375 C 333.683594 208.277344 332.214844 209.179688 331.3125 210.757812 C 330.519531 212.109375 330.519531 213.578125 330.859375 215.042969 C 331.3125 217.863281 331.875 220.679688 332.328125 223.5 C 333.117188 228.125 333.90625 232.636719 334.8125 237.261719 C 335.601562 241.546875 336.277344 245.832031 337.070312 250.117188 C 337.40625 252.035156 337.632812 253.953125 338.085938 255.867188 C 338.761719 258.800781 341.585938 260.605469 344.519531 260.152344 C 345.085938 260.042969 345.535156 259.929688 346.101562 259.929688 C 349.261719 259.363281 352.308594 258.800781 355.472656 258.238281 C 360.101562 257.449219 364.617188 256.65625 369.246094 255.753906 C 373.761719 254.964844 378.277344 254.175781 382.792969 253.386719 C 385.726562 252.824219 388.664062 252.371094 391.710938 251.808594 C 392.164062 251.695312 392.5 251.695312 392.953125 251.582031 C 396 251.019531 397.921875 248.085938 397.46875 245.042969 C 397.128906 244.476562 397.015625 243.914062 396.902344 243.351562 Z M 437.433594 100.457031 C 436.53125 100.683594 435.628906 100.910156 434.722656 101.246094 C 432.355469 101.925781 429.984375 102.601562 427.5 103.277344 C 424 104.292969 420.386719 105.308594 416.773438 106.324219 C 412.484375 107.5625 408.082031 108.691406 403.789062 109.933594 C 399.050781 111.285156 394.308594 112.640625 389.566406 113.878906 C 384.824219 115.234375 379.96875 116.585938 375.113281 117.9375 C 370.597656 119.179688 366.195312 120.421875 361.792969 121.660156 C 357.953125 122.675781 354.230469 123.804688 350.503906 124.820312 C 347.792969 125.609375 345.085938 126.285156 342.375 127.074219 C 341.132812 127.414062 339.777344 127.75 338.535156 128.203125 C 338.535156 128.203125 338.425781 128.203125 338.425781 128.203125 C 338.199219 128.316406 338.085938 128.429688 338.085938 128.539062 C 336.957031 131.359375 335.714844 134.066406 334.585938 136.886719 C 332.777344 141.285156 330.859375 145.796875 328.941406 150.195312 C 328.488281 151.210938 328.039062 152.222656 327.699219 153.238281 C 327.472656 153.691406 328.039062 154.027344 328.375 153.914062 C 333.570312 152.902344 338.761719 151.886719 344.070312 150.871094 C 344.746094 150.757812 345.421875 150.644531 346.101562 150.53125 C 346.441406 151.433594 346.777344 152.335938 347.117188 153.125 C 347.230469 153.578125 347.679688 155.042969 348.359375 154.929688 C 349.375 154.816406 363.148438 151.320312 374.890625 148.390625 C 376.921875 150.417969 378.839844 152.449219 380.871094 154.367188 C 383.921875 157.414062 386.855469 160.457031 389.90625 163.503906 C 391.597656 165.195312 393.292969 166.886719 394.871094 168.578125 C 394.984375 168.691406 394.984375 168.691406 395.097656 168.804688 C 395.324219 169.027344 395.773438 169.027344 396 168.691406 C 397.355469 166.433594 398.824219 164.179688 400.179688 161.921875 C 403.566406 156.511719 406.839844 151.210938 410.226562 145.796875 C 414.289062 139.253906 418.355469 132.828125 422.417969 126.285156 C 425.917969 120.644531 429.417969 115.121094 432.917969 109.480469 C 434.046875 107.5625 435.289062 105.757812 436.417969 103.84375 C 436.980469 102.941406 437.546875 102.148438 438.109375 101.246094 C 438.109375 101.246094 438.109375 101.136719 438.222656 101.136719 C 438.335938 100.910156 438 100.347656 437.433594 100.457031 Z M 323.523438 267.484375 C 321.601562 267.484375 320.023438 269.0625 320.023438 270.980469 C 320.023438 272.898438 321.601562 274.476562 323.523438 274.476562 C 325.441406 274.476562 327.019531 272.898438 327.019531 270.980469 C 327.019531 269.0625 325.554688 267.484375 323.523438 267.484375 Z M 324.3125 171.285156 C 325.554688 171.285156 326.570312 170.269531 326.570312 169.027344 C 326.570312 167.789062 325.554688 166.773438 324.3125 166.773438 C 323.070312 166.773438 322.054688 167.789062 322.054688 169.027344 C 322.054688 170.269531 323.070312 171.285156 324.3125 171.285156 Z M 315.507812 245.945312 C 316.183594 244.816406 319.117188 244.253906 319.117188 244.253906 C 319.457031 244.140625 319.457031 243.574219 319.117188 243.460938 C 319.117188 243.460938 315.957031 243.125 315.394531 241.882812 C 314.714844 240.757812 314.039062 237.261719 314.039062 237.261719 C 313.925781 236.808594 313.359375 236.808594 313.25 237.261719 C 313.25 237.261719 312.796875 240.191406 312.007812 241.882812 C 311.214844 243.574219 308.167969 243.460938 308.167969 243.460938 C 307.828125 243.574219 307.714844 244.140625 308.167969 244.253906 C 308.167969 244.253906 311.214844 244.703125 312.007812 245.945312 C 312.683594 247.183594 313.25 250.566406 313.25 250.566406 C 313.359375 251.019531 313.925781 250.90625 314.039062 250.566406 C 314.039062 250.566406 314.941406 247.070312 315.507812 245.945312 Z M 296.878906 275.265625 C 291.121094 275.265625 286.378906 280.230469 286.378906 286.433594 C 286.378906 288.460938 284.007812 293.425781 284.007812 295.230469 L 284.007812 297.371094 C 284.007812 299.175781 285.476562 300.640625 287.394531 300.640625 L 306.363281 300.640625 C 308.167969 300.640625 309.75 299.175781 309.75 297.371094 L 309.75 295.230469 C 309.75 293.425781 307.378906 288.347656 307.378906 286.433594 C 307.378906 280.339844 302.636719 275.265625 296.878906 275.265625 Z M 288.976562 155.71875 C 278.476562 155.71875 269.894531 164.292969 269.894531 174.78125 C 269.894531 185.269531 278.476562 193.839844 288.976562 193.839844 C 299.476562 193.839844 308.054688 185.269531 308.054688 174.78125 C 308.054688 164.179688 299.476562 155.71875 288.976562 155.71875 Z M 302.523438 123.128906 C 301.84375 123.351562 301.84375 124.253906 302.410156 124.480469 C 302.410156 124.480469 307.714844 125.269531 308.957031 127.414062 C 310.199219 129.441406 311.214844 135.53125 311.214844 135.53125 C 311.441406 136.210938 312.457031 136.210938 312.683594 135.53125 C 312.683594 135.53125 314.265625 129.441406 315.394531 127.527344 C 316.523438 125.496094 321.601562 124.480469 321.601562 124.480469 C 322.167969 124.253906 322.167969 123.351562 321.601562 123.128906 C 321.601562 123.128906 316.183594 122.449219 315.054688 120.421875 C 313.925781 118.390625 312.683594 112.414062 312.683594 112.414062 C 312.457031 111.738281 311.441406 111.625 311.214844 112.414062 C 311.214844 112.414062 310.425781 117.601562 309.070312 120.421875 C 307.714844 123.238281 302.523438 123.128906 302.523438 123.128906 Z M 296.878906 265.679688 C 294.621094 265.679688 292.8125 267.484375 292.8125 269.742188 C 292.8125 271.996094 294.621094 273.800781 296.878906 273.800781 C 299.136719 273.800781 301.054688 271.996094 301.054688 269.742188 C 300.941406 267.597656 299.136719 265.679688 296.878906 265.679688 Z M 247.996094 133.839844 C 248.445312 130.007812 250.929688 126.734375 252.960938 123.578125 C 255.105469 120.195312 257.363281 116.8125 259.847656 113.539062 C 262.105469 110.382812 264.589844 107.449219 267.300781 104.632812 C 269.332031 102.601562 272.492188 100.234375 275.316406 101.699219 C 278.589844 96.960938 282.203125 92.113281 286.265625 88.054688 C 287.847656 86.472656 289.425781 85.007812 291.796875 85.007812 C 294.957031 84.894531 298.121094 86.699219 300.265625 88.953125 C 301.167969 89.96875 302.070312 91.097656 302.410156 92.449219 C 302.863281 94.480469 302.410156 96.960938 301.734375 98.878906 C 301.054688 101.023438 300.039062 103.050781 299.136719 105.082031 C 298.121094 107.113281 297.105469 109.140625 295.863281 111.058594 C 293.492188 114.894531 290.78125 118.617188 287.734375 122 C 286.265625 123.578125 284.796875 125.496094 282.539062 125.945312 C 280.394531 126.398438 278.25 125.722656 276.21875 124.929688 C 276.105469 125.15625 275.878906 125.496094 275.765625 125.722656 C 272.042969 132.035156 268.429688 139.820312 261.203125 142.523438 C 258.15625 143.652344 254.65625 143.539062 251.832031 141.734375 C 249.125 140.042969 247.65625 137.113281 247.996094 133.839844 Z M 280.507812 104.96875 C 281.636719 105.984375 282.539062 107.449219 282.992188 108.804688 C 283.554688 110.496094 283.332031 112.074219 282.652344 113.652344 C 282.316406 114.554688 281.863281 115.34375 281.410156 116.136719 C 281.410156 116.136719 281.523438 116.136719 281.523438 116.136719 C 283.78125 117.714844 285.703125 113.539062 286.605469 111.960938 C 287.960938 109.820312 289.3125 107.675781 290.667969 105.535156 C 291.910156 103.503906 293.039062 101.585938 294.167969 99.554688 C 294.507812 98.878906 294.847656 98.203125 295.183594 97.414062 C 295.636719 96.285156 295.296875 95.046875 294.621094 94.144531 C 293.378906 92.449219 291.121094 91.660156 289.425781 93.242188 C 288.410156 94.253906 287.621094 95.269531 286.71875 96.398438 C 284.574219 99.21875 282.539062 102.039062 280.507812 104.96875 Z M 255.558594 134.066406 C 256.460938 134.96875 257.929688 135.082031 259.058594 134.628906 C 260.527344 134.066406 261.542969 132.828125 262.558594 131.699219 C 263.574219 130.457031 264.703125 129.21875 265.71875 127.976562 C 267.523438 125.609375 269.332031 123.238281 270.910156 120.757812 C 270.6875 120.871094 270.347656 120.871094 270.121094 120.535156 C 269.445312 119.632812 268.992188 118.503906 268.878906 117.375 C 268.429688 114.78125 269.21875 112.1875 270.347656 109.820312 C 270.234375 109.820312 270.234375 109.933594 270.007812 109.933594 C 269.558594 110.15625 269.105469 110.609375 268.765625 110.945312 C 267.523438 112.074219 266.394531 113.429688 265.378906 114.78125 C 263.007812 117.714844 260.976562 120.871094 258.945312 124.03125 C 258.042969 125.382812 257.25 126.734375 256.460938 128.089844 C 256.011719 128.878906 255.445312 129.78125 255.21875 130.570312 C 254.878906 131.699219 254.769531 133.164062 255.558594 134.066406 Z M 246.074219 157.1875 C 247.316406 157.1875 248.332031 156.171875 248.332031 154.929688 C 248.332031 153.691406 247.316406 152.675781 246.074219 152.675781 C 244.832031 152.675781 243.816406 153.691406 243.816406 154.929688 C 243.816406 156.171875 244.832031 157.1875 246.074219 157.1875 Z M 231.171875 197.675781 C 231.171875 197.675781 236.480469 198.464844 237.71875 200.605469 C 238.960938 202.75 239.980469 208.726562 239.980469 208.726562 C 240.203125 209.402344 241.21875 209.402344 241.445312 208.726562 C 241.445312 208.726562 243.027344 202.636719 244.15625 200.71875 C 245.285156 198.800781 250.363281 197.675781 250.363281 197.675781 C 251.042969 197.449219 250.929688 196.546875 250.363281 196.320312 C 250.363281 196.320312 244.945312 195.644531 243.816406 193.613281 C 242.6875 191.585938 241.445312 185.605469 241.445312 185.605469 C 241.21875 184.929688 240.203125 184.929688 239.976562 185.605469 C 239.976562 185.605469 239.1875 190.792969 237.832031 193.613281 C 236.480469 196.433594 231.285156 196.320312 231.285156 196.320312 C 230.609375 196.433594 230.609375 197.335938 231.171875 197.675781 Z M 255.332031 322.070312 L 300.828125 322.070312 L 300.828125 323.199219 L 28.863281 323.199219 L 28.863281 322.070312 L 31.234375 322.070312 C 31.121094 321.957031 31.121094 321.84375 31.121094 321.730469 C 31.234375 319.25 31.234375 316.882812 31.347656 314.402344 C 28.183594 314.175781 25.023438 313.722656 21.976562 312.933594 C 18.363281 311.921875 14.636719 310.226562 11.703125 307.859375 C 7.863281 304.816406 5.492188 300.304688 4.136719 295.566406 C 2.558594 290.378906 1.992188 284.851562 1.316406 279.441406 C 0.75 273.238281 0.414062 267.148438 0.414062 261.054688 C 0.414062 248.875 1.542969 236.808594 3.574219 224.855469 C 5.492188 214.027344 7.863281 203.3125 13.171875 193.5 C 17.6875 185.269531 23.78125 178.050781 30.894531 172.074219 C 38.007812 166.207031 46.25 161.585938 55.167969 158.765625 C 56.410156 158.425781 57.652344 157.976562 58.894531 157.636719 C 57.652344 157.414062 56.410156 156.960938 55.28125 156.398438 C 51.667969 154.707031 48.054688 151.660156 46.925781 147.714844 C 45.796875 143.765625 46.925781 139.253906 49.972656 136.324219 C 47.714844 134.742188 45.683594 132.828125 44.105469 130.570312 C 41.167969 126.058594 39.925781 120.535156 41.054688 115.234375 C 42.070312 110.269531 45.007812 105.644531 49.183594 102.714844 C 46.472656 100.683594 44.554688 97.75 43.765625 94.480469 C 42.863281 90.984375 43.199219 87.375 44.328125 83.992188 C 45.796875 79.480469 48.84375 75.648438 52.910156 73.277344 C 54.378906 72.488281 55.84375 71.8125 57.425781 71.363281 C 58.328125 71.023438 59.34375 70.910156 60.246094 70.570312 C 60.246094 70.347656 60.246094 69.894531 60.246094 69.78125 C 60.136719 68.203125 60.246094 66.625 60.585938 65.160156 C 61.152344 62.113281 62.617188 59.179688 64.425781 56.585938 C 68.039062 51.738281 73.570312 48.355469 79.667969 47.902344 C 80.457031 42.378906 85.535156 38.65625 90.390625 36.625 C 92.875 35.609375 95.585938 35.160156 98.292969 34.933594 C 101.230469 34.707031 104.277344 34.933594 107.210938 35.722656 C 110.375 36.625 113.195312 38.429688 115.226562 41.136719 C 117.824219 44.632812 118.503906 49.03125 118.390625 53.316406 C 125.839844 53.769531 133.066406 56.25 139.050781 60.871094 C 145.144531 65.609375 150.339844 72.261719 152.9375 79.480469 C 154.175781 82.976562 154.742188 86.699219 154.628906 90.421875 C 154.515625 93.128906 154.175781 95.835938 153.046875 98.316406 C 152.371094 100.007812 151.015625 102.261719 149.210938 103.050781 C 148.644531 105.195312 148.082031 107.339844 147.515625 109.480469 C 146.273438 113.765625 144.921875 118.164062 143.453125 122.449219 C 142.097656 126.511719 140.742188 130.570312 138.824219 134.40625 C 135.4375 140.945312 130.128906 146.472656 123.808594 150.082031 C 122.339844 150.984375 120.648438 151.886719 118.953125 152.113281 C 118.953125 152.222656 118.953125 152.222656 118.953125 152.335938 C 118.839844 152.5625 118.726562 152.902344 118.613281 153.125 C 118.613281 153.125 118.726562 153.125 118.726562 153.125 C 122.792969 154.027344 126.855469 155.15625 130.921875 156.171875 C 137.015625 157.75 143.113281 159.554688 148.984375 161.808594 C 155.871094 164.515625 161.742188 169.140625 166.371094 174.894531 C 171.449219 181.207031 174.949219 188.652344 177.207031 196.433594 C 179.691406 205.003906 180.59375 213.800781 181.835938 222.597656 L 293.265625 223.386719 C 293.828125 223.386719 294.394531 223.5 294.957031 223.613281 C 297.894531 216.058594 300.492188 208.277344 304.105469 200.945312 C 308.054688 193.164062 313.359375 185.71875 321.039062 181.207031 C 323.746094 179.628906 327.246094 178.390625 330.296875 179.179688 C 332.328125 176.472656 334.925781 174.101562 337.632812 171.960938 C 345.535156 165.871094 354.792969 161.808594 364.503906 159.78125 C 365.179688 159.667969 365.519531 160.683594 364.839844 160.910156 C 362.472656 161.359375 360.101562 162.035156 357.730469 162.710938 C 352.875 164.292969 348.246094 166.320312 343.957031 169.027344 C 339.777344 171.507812 335.828125 174.441406 332.667969 178.164062 C 332.328125 178.613281 331.875 179.066406 331.539062 179.515625 C 332.328125 179.855469 333.003906 180.304688 333.683594 180.871094 C 335.035156 182.109375 335.714844 184.027344 335.375 185.945312 C 335.148438 187.636719 333.90625 189.214844 332.214844 189.554688 C 330.632812 189.894531 328.828125 189.328125 327.925781 188.089844 C 326.570312 186.285156 327.472656 184.027344 328.488281 182.222656 C 328.941406 181.546875 329.28125 180.757812 329.730469 180.082031 C 325.441406 179.292969 321.039062 182.222656 317.875 184.816406 C 314.488281 187.636719 311.554688 191.019531 309.183594 194.628906 C 304.105469 202.296875 301.054688 210.980469 297.78125 219.554688 C 297.21875 221.019531 296.652344 222.484375 296.089844 223.839844 C 297.554688 224.402344 298.910156 225.53125 299.8125 226.996094 C 301.167969 229.253906 301.28125 232.070312 300.039062 234.441406 Z M 328.375 184.480469 C 327.925781 185.496094 327.585938 186.847656 328.375 187.75 C 328.941406 188.425781 329.730469 188.765625 330.519531 188.878906 C 332.554688 189.101562 333.90625 187.410156 333.90625 185.496094 C 333.90625 183.351562 332.441406 181.546875 330.519531 180.871094 C 329.730469 182 328.941406 183.125 328.375 184.480469 Z M 126.742188 321.957031 L 110.375 322.070312 L 126.742188 321.957031 C 126.628906 321.957031 126.742188 321.957031 126.742188 321.957031 Z M 126.742188 321.957031 " fill-opacity="1" fill-rule="nonzero"/></g><g clip-path="url(#d3437a6ba7)"><path fill="#330000" d="M 299.476562 227.449219 C 300.828125 229.703125 300.941406 232.523438 299.699219 234.890625 L 254.878906 322.859375 L 253.863281 322.296875 L 298.683594 234.328125 C 299.699219 232.296875 299.585938 229.929688 298.457031 227.898438 C 297.21875 225.980469 295.183594 224.742188 292.925781 224.742188 L 179.351562 223.839844 C 174.613281 223.839844 170.207031 226.546875 168.289062 230.945312 C 156.210938 258.238281 127.871094 321.957031 127.421875 323.085938 L 126.40625 322.632812 C 126.40625 322.519531 126.519531 322.296875 126.742188 321.84375 L 72.441406 322.183594 L 72.441406 313.046875 C 72.441406 310.226562 75.488281 307.859375 79.328125 307.859375 L 133.066406 307.859375 C 142.324219 287.109375 158.804688 249.890625 167.386719 230.605469 C 169.53125 225.871094 174.273438 222.824219 179.464844 222.824219 L 293.039062 223.726562 C 295.636719 223.726562 298.121094 225.078125 299.476562 227.449219 Z M 370.710938 313.613281 L 363.375 316.882812 C 362.019531 317.445312 361.453125 319.023438 362.019531 320.378906 L 365.179688 327.710938 C 365.746094 329.0625 365.179688 330.640625 363.824219 331.207031 L 362.472656 331.769531 C 361.117188 332.332031 359.535156 331.769531 358.972656 330.414062 L 355.808594 323.199219 C 355.246094 321.84375 353.664062 321.28125 352.308594 321.84375 L 344.40625 325.339844 C 343.050781 325.90625 342.488281 327.484375 343.050781 328.835938 L 346.214844 335.941406 C 346.777344 337.296875 346.214844 338.875 344.859375 339.4375 L 343.503906 340.003906 C 342.148438 340.566406 340.570312 340.003906 340.003906 338.648438 L 336.957031 331.65625 C 336.390625 330.304688 334.8125 329.738281 333.457031 330.304688 L 326.457031 333.460938 C 325.101562 334.023438 323.523438 333.460938 322.957031 332.109375 L 322.390625 330.867188 C 321.828125 329.511719 322.390625 327.933594 323.746094 327.371094 L 330.859375 324.214844 C 332.214844 323.648438 332.777344 322.070312 332.214844 320.714844 L 328.828125 312.820312 C 328.261719 311.46875 326.683594 310.90625 325.328125 311.46875 L 318.101562 314.738281 C 316.746094 315.304688 315.167969 314.738281 314.601562 313.386719 L 314.039062 312.144531 C 313.472656 310.792969 314.039062 309.214844 315.394531 308.648438 L 322.730469 305.378906 C 324.085938 304.816406 324.652344 303.234375 324.085938 301.882812 L 321.039062 294.4375 C 320.472656 293.085938 321.039062 291.507812 322.394531 290.941406 L 323.746094 290.378906 C 325.101562 289.816406 326.683594 290.378906 327.246094 291.734375 L 330.410156 298.949219 C 330.972656 300.304688 332.554688 300.867188 333.90625 300.304688 L 341.8125 296.808594 C 343.164062 296.242188 343.730469 294.664062 343.164062 293.3125 L 340.003906 286.207031 C 339.441406 284.851562 340.003906 283.273438 341.359375 282.710938 L 342.714844 282.144531 C 344.070312 281.582031 345.648438 282.144531 346.214844 283.5 L 349.261719 290.492188 C 349.828125 291.84375 351.40625 292.410156 352.761719 291.84375 L 359.761719 288.6875 C 361.117188 288.125 362.695312 288.6875 363.261719 290.039062 L 363.824219 291.28125 C 364.390625 292.632812 363.824219 294.214844 362.472656 294.777344 L 355.359375 297.933594 C 354.003906 298.5 353.4375 300.078125 354.003906 301.429688 L 357.390625 309.324219 C 357.957031 310.679688 359.535156 311.242188 360.890625 310.679688 L 368.117188 307.410156 C 369.46875 306.84375 371.050781 307.410156 371.617188 308.761719 L 372.179688 310.003906 C 372.632812 311.46875 372.066406 313.046875 370.710938 313.613281 Z M 351.179688 312.257812 L 347.792969 304.363281 C 347.230469 303.011719 345.648438 302.445312 344.292969 303.011719 L 336.390625 306.507812 C 335.035156 307.070312 334.472656 308.648438 335.035156 310.003906 L 338.425781 317.898438 C 338.988281 319.25 340.570312 319.816406 341.921875 319.25 L 349.828125 315.753906 C 351.179688 315.078125 351.746094 313.5 351.179688 312.257812 Z M 351.179688 312.257812 " fill-opacity="1" fill-rule="nonzero"/></g><path fill="#a6a6a6" d="M 307.378906 286.542969 C 307.378906 280.339844 302.636719 275.378906 296.878906 275.378906 C 291.121094 275.378906 286.378906 280.339844 286.378906 286.542969 C 286.378906 288.574219 284.007812 293.535156 284.007812 295.339844 L 284.007812 297.484375 C 284.007812 299.289062 285.476562 300.867188 287.394531 300.867188 L 306.363281 300.867188 C 308.167969 300.867188 309.75 299.402344 309.75 297.484375 L 309.75 295.339844 C 309.75 293.425781 307.378906 288.460938 307.378906 286.542969 Z M 296.878906 265.679688 C 299.136719 265.679688 300.941406 267.484375 300.941406 269.742188 C 300.941406 271.996094 299.136719 273.800781 296.878906 273.800781 C 294.621094 273.800781 292.8125 271.996094 292.8125 269.742188 C 292.8125 267.484375 294.621094 265.679688 296.878906 265.679688 Z M 288.976562 155.71875 C 299.476562 155.71875 308.054688 164.292969 308.054688 174.78125 C 308.054688 185.269531 299.476562 193.839844 288.976562 193.839844 C 278.476562 193.839844 269.894531 185.269531 269.894531 174.78125 C 269.894531 164.292969 278.363281 155.71875 288.976562 155.71875 Z M 288.976562 155.71875 " fill-opacity="1" fill-rule="nonzero"/><g clip-path="url(#bd93a8a43d)"><path fill="#000000" d="M 396.902344 243.351562 C 396.339844 239.964844 395.664062 236.46875 395.097656 232.972656 C 394.308594 228.238281 393.40625 223.613281 392.613281 218.878906 C 391.9375 215.042969 391.257812 211.09375 390.582031 207.261719 C 390.355469 206.246094 390.242188 205.34375 390.015625 204.328125 C 389.679688 202.523438 388.777344 201.058594 387.195312 200.15625 C 384.9375 198.914062 382.453125 199.703125 380.195312 200.042969 C 376.582031 200.71875 372.96875 201.285156 369.46875 201.960938 C 364.730469 202.75 359.988281 203.652344 355.359375 204.441406 C 351.066406 205.230469 346.777344 205.90625 342.488281 206.695312 C 340.117188 207.148438 337.746094 207.484375 335.375 207.9375 C 333.570312 208.277344 332.101562 209.179688 331.199219 210.757812 C 330.410156 212.109375 330.410156 213.578125 330.746094 215.042969 C 331.199219 217.863281 331.761719 220.679688 332.214844 223.5 C 333.003906 228.125 333.796875 232.636719 334.699219 237.261719 C 335.488281 241.546875 336.164062 245.832031 336.957031 250.117188 C 337.296875 252.035156 337.519531 253.953125 337.972656 255.867188 C 338.648438 258.800781 341.472656 260.605469 344.40625 260.152344 C 344.972656 260.042969 345.421875 259.929688 345.988281 259.929688 C 349.148438 259.363281 352.199219 258.800781 355.359375 258.238281 C 359.988281 257.449219 364.503906 256.65625 369.132812 255.867188 C 373.648438 255.078125 378.164062 254.289062 382.679688 253.5 C 385.613281 252.9375 388.550781 252.484375 391.484375 251.921875 C 391.9375 251.808594 392.277344 251.808594 392.726562 251.695312 C 395.773438 251.132812 397.695312 248.199219 397.128906 245.15625 C 397.128906 244.589844 397.015625 243.914062 396.902344 243.351562 Z M 392.613281 225.644531 C 393.292969 229.253906 393.855469 232.863281 394.535156 236.582031 L 384.710938 238.273438 C 383.921875 234.101562 383.242188 230.042969 382.453125 225.871094 L 392.277344 224.175781 C 392.5 224.742188 392.5 225.191406 392.613281 225.644531 Z M 369.132812 227.222656 L 358.066406 229.140625 C 357.730469 227.109375 357.390625 225.078125 356.9375 223.050781 C 356.714844 221.582031 356.375 220.003906 356.148438 218.539062 C 356.148438 218.3125 356.035156 218.199219 355.921875 218.199219 C 359.761719 217.523438 363.601562 216.847656 367.4375 216.171875 C 367.324219 216.28125 367.210938 216.507812 367.210938 216.734375 C 367.890625 220.117188 368.453125 223.613281 369.132812 227.222656 Z M 381.210938 225.078125 L 370.148438 226.996094 C 369.808594 224.96875 369.46875 222.9375 369.019531 220.90625 C 368.792969 219.328125 368.453125 217.863281 368.226562 216.28125 C 368.226562 216.058594 368.117188 215.945312 368.003906 215.945312 C 368.339844 215.832031 368.679688 215.832031 369.019531 215.71875 C 372.519531 215.15625 376.019531 214.480469 379.519531 213.914062 C 379.40625 214.027344 379.292969 214.253906 379.292969 214.480469 C 379.96875 217.976562 380.648438 221.472656 381.210938 225.078125 Z M 357.164062 230.378906 C 357.164062 230.71875 357.277344 230.945312 357.277344 231.28125 C 357.953125 235.117188 358.632812 238.953125 359.308594 242.785156 L 348.246094 244.703125 C 347.457031 240.53125 346.777344 236.46875 346.101562 232.296875 Z M 358.292969 230.269531 L 369.359375 228.351562 C 369.359375 228.6875 369.46875 228.914062 369.46875 229.253906 C 370.148438 233.085938 370.824219 236.921875 371.503906 240.757812 L 360.4375 242.671875 C 359.761719 238.5 359.082031 234.328125 358.292969 230.269531 Z M 370.488281 228.125 L 381.550781 226.207031 C 381.550781 226.546875 381.664062 226.773438 381.664062 227.109375 C 382.339844 230.945312 383.019531 234.777344 383.695312 238.613281 L 372.632812 240.53125 C 371.839844 236.359375 371.164062 232.183594 370.488281 228.125 Z M 390.242188 212.449219 C 390.921875 216.058594 391.484375 219.554688 392.164062 223.164062 L 382.339844 224.855469 C 382 222.824219 381.664062 220.792969 381.210938 218.765625 C 380.984375 217.296875 380.648438 215.71875 380.421875 214.253906 C 380.421875 214.027344 380.308594 213.914062 380.195312 213.914062 C 381.324219 213.6875 382.453125 213.578125 383.582031 213.351562 C 385.164062 213.125 386.742188 212.785156 388.324219 212.449219 C 388.886719 212.335938 389.566406 212.222656 390.128906 212.109375 C 390.242188 212.222656 390.242188 212.335938 390.242188 212.449219 Z M 332.441406 218.652344 C 332.214844 217.523438 331.988281 216.394531 331.875 215.15625 C 331.648438 214.140625 331.539062 213.125 331.875 211.996094 C 332.441406 210.304688 334.019531 209.402344 335.714844 209.066406 C 336.503906 208.953125 337.40625 208.726562 338.199219 208.613281 C 341.585938 208.050781 344.972656 207.375 348.472656 206.808594 C 352.988281 206.019531 357.617188 205.230469 362.132812 204.441406 C 366.421875 203.652344 370.710938 202.976562 375.113281 202.1875 C 377.710938 201.734375 380.421875 201.285156 383.019531 200.832031 C 384.035156 200.605469 384.9375 200.492188 385.953125 200.832031 C 387.757812 201.394531 388.664062 202.976562 389 204.667969 C 389.339844 206.808594 389.792969 208.839844 390.128906 210.871094 C 388.324219 211.207031 386.628906 211.433594 384.824219 211.773438 C 380.195312 212.5625 375.566406 213.464844 370.9375 214.253906 C 365.292969 215.269531 359.648438 216.28125 354.117188 217.183594 C 349.261719 218.085938 344.40625 218.875 339.554688 219.777344 C 337.972656 220.003906 336.390625 220.34375 334.8125 220.570312 C 334.246094 220.679688 333.570312 220.792969 333.003906 220.90625 C 332.667969 220.230469 332.554688 219.441406 332.441406 218.652344 Z M 334.472656 230.605469 C 334.019531 227.785156 333.457031 224.96875 333.003906 222.148438 C 334.8125 221.808594 336.503906 221.472656 338.3125 221.246094 C 340.003906 220.90625 341.8125 220.679688 343.503906 220.34375 C 346.441406 219.777344 349.375 219.328125 352.199219 218.765625 C 353.214844 218.539062 354.230469 218.425781 355.246094 218.199219 C 355.132812 218.3125 355.019531 218.539062 355.019531 218.765625 C 355.585938 222.261719 356.261719 225.757812 356.9375 229.367188 L 345.875 231.28125 C 345.535156 229.367188 345.199219 227.449219 344.859375 225.53125 C 344.632812 224.066406 344.292969 222.484375 344.070312 221.019531 C 343.957031 220.679688 343.730469 220.570312 343.503906 220.679688 C 343.164062 220.679688 342.941406 221.019531 342.941406 221.359375 C 343.503906 224.742188 344.183594 228.238281 344.746094 231.621094 L 334.8125 233.3125 C 334.8125 232.410156 334.699219 231.507812 334.472656 230.605469 Z M 336.957031 244.363281 C 336.390625 240.980469 335.714844 237.710938 335.148438 234.328125 L 345.085938 232.636719 C 345.199219 233.085938 345.199219 233.425781 345.3125 233.875 C 345.988281 237.597656 346.664062 241.320312 347.34375 245.042969 L 337.40625 246.734375 C 337.183594 245.945312 337.070312 245.15625 336.957031 244.363281 Z M 344.183594 259.140625 C 341.699219 259.589844 339.441406 258.011719 338.988281 255.644531 C 338.875 255.078125 338.761719 254.628906 338.761719 254.0625 C 338.425781 252.035156 338.085938 249.890625 337.632812 247.859375 L 347.570312 246.167969 C 348.019531 248.761719 348.472656 251.359375 348.921875 253.953125 C 349.148438 255.417969 349.488281 256.769531 349.714844 258.238281 C 347.792969 258.460938 345.988281 258.800781 344.183594 259.140625 Z M 350.730469 257.898438 C 350.050781 253.839844 349.261719 249.890625 348.585938 245.832031 L 359.648438 243.914062 C 360.101562 246.394531 360.550781 248.875 361.003906 251.359375 C 361.230469 252.824219 361.566406 254.402344 361.792969 255.867188 C 358.066406 256.65625 354.34375 257.222656 350.730469 257.898438 Z M 362.808594 255.753906 C 362.808594 255.753906 362.808594 255.644531 362.808594 255.644531 C 362.132812 251.695312 361.453125 247.75 360.664062 243.6875 L 371.726562 241.769531 C 372.179688 244.253906 372.632812 246.734375 373.082031 249.214844 C 373.308594 250.679688 373.648438 252.257812 373.875 253.726562 C 370.148438 254.515625 366.421875 255.191406 362.808594 255.753906 Z M 376.242188 253.386719 C 375.792969 253.5 375.339844 253.5 374.890625 253.613281 C 374.890625 253.613281 374.890625 253.5 374.890625 253.5 C 374.210938 249.554688 373.535156 245.605469 372.746094 241.660156 L 383.808594 239.742188 C 384.257812 242.222656 384.710938 244.703125 385.164062 247.183594 C 385.390625 248.652344 385.726562 250.230469 385.953125 251.695312 C 382.792969 252.257812 379.519531 252.824219 376.242188 253.386719 Z M 392.5 250.566406 C 390.921875 250.792969 389.339844 251.132812 387.757812 251.46875 C 387.535156 251.46875 387.308594 251.582031 387.082031 251.582031 C 387.082031 251.582031 387.082031 251.46875 387.082031 251.46875 C 386.40625 247.523438 385.726562 243.574219 384.9375 239.628906 L 394.757812 237.9375 C 394.757812 238.273438 394.871094 238.5 394.871094 238.839844 C 395.210938 241.09375 395.664062 243.351562 396 245.605469 C 396.566406 247.859375 394.871094 250.117188 392.5 250.566406 Z M 437.433594 100.457031 C 436.53125 100.683594 435.628906 100.910156 434.722656 101.246094 C 432.355469 101.925781 429.984375 102.601562 427.5 103.277344 C 424 104.292969 420.386719 105.308594 416.773438 106.324219 C 412.484375 107.5625 408.195312 108.691406 403.789062 109.933594 C 399.050781 111.285156 394.308594 112.640625 389.566406 113.878906 C 384.824219 115.234375 379.96875 116.585938 375.113281 117.9375 C 370.710938 119.179688 366.195312 120.421875 361.792969 121.660156 C 357.953125 122.675781 354.230469 123.804688 350.503906 124.820312 C 347.792969 125.609375 345.085938 126.285156 342.375 127.074219 C 341.132812 127.414062 339.777344 127.75 338.535156 128.203125 C 338.535156 128.203125 338.425781 128.203125 338.425781 128.203125 C 338.199219 128.203125 338.085938 128.429688 338.085938 128.539062 C 336.957031 131.359375 335.714844 134.066406 334.585938 136.886719 C 332.777344 141.285156 330.859375 145.796875 328.941406 150.195312 C 328.488281 151.210938 328.039062 152.222656 327.699219 153.238281 C 327.472656 153.691406 328.039062 154.027344 328.375 153.914062 C 333.570312 152.902344 338.761719 151.886719 344.070312 150.871094 C 344.746094 150.757812 345.421875 150.644531 346.101562 150.417969 C 346.441406 151.320312 346.777344 152.222656 347.117188 153.015625 C 347.230469 153.464844 347.679688 154.929688 348.359375 154.816406 C 349.375 154.707031 363.148438 151.210938 374.890625 148.164062 C 376.921875 150.195312 378.839844 152.222656 380.871094 154.140625 C 383.921875 157.1875 386.855469 160.230469 389.90625 163.277344 C 391.597656 164.96875 393.179688 166.660156 394.871094 168.351562 C 394.984375 168.464844 394.984375 168.464844 395.097656 168.578125 C 395.324219 168.804688 395.773438 168.804688 396 168.464844 C 397.355469 166.207031 398.824219 163.953125 400.179688 161.699219 C 403.566406 156.285156 406.839844 150.984375 410.226562 145.570312 C 414.289062 139.027344 418.355469 132.601562 422.417969 126.171875 C 425.917969 120.535156 429.417969 115.007812 432.917969 109.367188 C 434.046875 107.5625 435.289062 105.644531 436.417969 103.730469 C 436.980469 102.828125 437.546875 102.039062 438.109375 101.136719 C 438.109375 101.136719 438.109375 101.023438 438.222656 101.023438 C 438.335938 100.910156 437.886719 100.347656 437.433594 100.457031 Z M 330.296875 152.5625 C 329.957031 152.675781 329.503906 152.675781 329.167969 152.789062 C 330.183594 150.308594 331.199219 147.824219 332.328125 145.34375 C 334.246094 140.945312 336.054688 136.433594 337.859375 132.035156 C 338.085938 131.472656 338.3125 130.910156 338.535156 130.34375 C 339.214844 132.148438 339.890625 134.066406 340.570312 135.871094 C 342.148438 140.15625 343.730469 144.328125 345.3125 148.617188 C 345.421875 148.953125 345.535156 149.179688 345.648438 149.515625 C 340.570312 150.53125 335.488281 151.546875 330.296875 152.5625 Z M 348.359375 153.238281 C 348.019531 152.449219 347.679688 151.660156 347.457031 150.757812 C 345.875 146.699219 344.40625 142.636719 342.941406 138.578125 C 341.8125 135.421875 340.683594 132.261719 339.441406 129.105469 C 340.117188 128.878906 340.792969 128.652344 341.472656 128.539062 C 343.84375 127.863281 346.214844 127.1875 348.699219 126.511719 C 352.308594 125.496094 355.808594 124.480469 359.421875 123.578125 C 363.710938 122.335938 368.117188 121.097656 372.40625 119.96875 C 377.148438 118.617188 381.890625 117.261719 386.628906 116.023438 C 391.484375 114.667969 396.226562 113.316406 401.082031 111.960938 C 405.484375 110.722656 410 109.480469 414.402344 108.242188 C 418.128906 107.226562 421.96875 106.097656 425.691406 105.082031 C 427.835938 104.519531 429.984375 103.84375 432.128906 103.277344 C 415.191406 110.496094 361.679688 133.617188 361.003906 133.839844 L 361.003906 134.066406 C 360.210938 134.292969 359.421875 135.53125 359.082031 136.097656 C 357.84375 137.675781 356.714844 139.367188 355.695312 141.171875 C 353.328125 144.894531 351.066406 148.726562 348.921875 152.5625 C 348.699219 152.675781 348.472656 153.015625 348.359375 153.238281 Z M 349.375 153.691406 C 349.714844 153.125 349.9375 152.5625 350.277344 152 C 351.292969 150.082031 352.421875 148.277344 353.550781 146.359375 C 354.792969 144.328125 356.035156 142.1875 357.390625 140.15625 C 358.40625 138.691406 359.421875 137.113281 360.550781 135.757812 C 360.777344 135.53125 360.890625 135.308594 361.117188 135.195312 C 361.117188 135.195312 361.230469 135.082031 361.230469 135.082031 C 361.90625 135.644531 362.582031 136.324219 363.148438 136.886719 C 365.746094 139.367188 368.226562 141.847656 370.824219 144.441406 C 371.839844 145.457031 372.855469 146.472656 373.875 147.488281 C 365.179688 149.742188 353.101562 152.789062 349.375 153.691406 Z M 432.917969 107.5625 C 429.53125 112.976562 426.257812 118.277344 422.871094 123.691406 C 418.804688 130.230469 414.742188 136.660156 410.675781 143.203125 C 407.175781 148.839844 403.679688 154.480469 400.179688 160.007812 C 399.050781 161.921875 397.808594 163.726562 396.679688 165.644531 C 396.339844 166.207031 396 166.773438 395.550781 167.335938 C 395.4375 167.449219 395.324219 167.5625 395.324219 167.675781 C 394.308594 166.660156 393.292969 165.644531 392.386719 164.628906 C 389.566406 161.8125 386.855469 158.992188 384.035156 156.171875 C 380.761719 152.789062 377.375 149.40625 373.984375 146.132812 C 371.164062 143.316406 368.339844 140.496094 365.519531 137.675781 C 364.617188 136.773438 363.710938 135.871094 362.808594 135.082031 C 362.695312 134.855469 362.472656 134.628906 362.246094 134.519531 C 369.695312 131.359375 417.902344 110.609375 435.851562 102.828125 C 434.949219 104.40625 433.933594 105.984375 432.917969 107.5625 Z M 288.523438 163.726562 L 288.523438 175.570312 C 288.75 175.570312 289.089844 175.457031 289.3125 175.457031 C 292.8125 174.894531 296.3125 174.328125 299.8125 173.652344 C 300.492188 173.539062 300.828125 174.667969 300.152344 174.78125 C 299.699219 174.894531 299.136719 174.894531 298.683594 175.003906 C 295.183594 175.570312 291.683594 176.132812 288.183594 176.808594 C 287.847656 176.808594 287.507812 176.699219 287.507812 176.246094 L 287.507812 163.726562 C 287.394531 162.9375 288.523438 162.9375 288.523438 163.726562 Z M 251.832031 141.734375 C 254.65625 143.539062 258.15625 143.652344 261.203125 142.523438 C 268.542969 139.820312 272.152344 132.035156 275.765625 125.722656 C 275.878906 125.496094 276.105469 125.15625 276.21875 124.929688 C 278.25 125.722656 280.394531 126.398438 282.539062 125.945312 C 284.796875 125.496094 286.265625 123.578125 287.734375 122 C 290.78125 118.617188 293.492188 115.007812 295.863281 111.058594 C 296.992188 109.140625 298.121094 107.113281 299.136719 105.082031 C 300.152344 103.050781 301.054688 101.023438 301.734375 98.878906 C 302.410156 96.847656 302.863281 94.480469 302.410156 92.449219 C 302.070312 91.097656 301.28125 89.96875 300.265625 88.953125 C 298.234375 86.699219 294.957031 84.894531 291.796875 85.007812 C 289.425781 85.121094 287.847656 86.472656 286.265625 88.054688 C 282.203125 92.226562 278.589844 96.960938 275.316406 101.699219 C 272.492188 100.234375 269.21875 102.601562 267.300781 104.632812 C 264.589844 107.339844 262.105469 110.382812 259.847656 113.539062 C 257.476562 116.8125 255.21875 120.082031 252.960938 123.578125 C 250.929688 126.734375 248.445312 130.007812 247.996094 133.839844 C 247.65625 137.113281 249.125 140.042969 251.832031 141.734375 Z M 285.363281 90.871094 C 286.605469 89.519531 287.960938 87.941406 289.539062 86.925781 C 292.023438 85.347656 295.183594 86.472656 297.441406 87.941406 C 298.683594 88.730469 299.8125 89.746094 300.605469 90.984375 C 301.507812 92.339844 301.621094 93.691406 301.507812 95.269531 C 301.28125 97.527344 300.492188 99.667969 299.585938 101.699219 C 298.683594 103.617188 297.78125 105.644531 296.765625 107.449219 C 294.734375 111.171875 292.363281 114.78125 289.765625 118.050781 C 288.410156 119.742188 287.054688 121.324219 285.476562 122.902344 C 284.683594 123.691406 283.894531 124.367188 282.765625 124.707031 C 281.75 125.042969 280.621094 124.933594 279.492188 124.707031 C 278.589844 124.480469 277.6875 124.253906 276.894531 123.917969 C 277.796875 122.449219 278.589844 120.984375 279.492188 119.519531 C 279.945312 118.730469 280.507812 117.9375 280.960938 117.035156 C 282.316406 118.050781 284.121094 117.261719 285.136719 116.136719 C 285.8125 115.34375 286.265625 114.441406 286.832031 113.652344 C 288.070312 111.847656 289.203125 109.933594 290.332031 108.128906 C 291.796875 105.871094 293.152344 103.503906 294.394531 101.136719 C 295.410156 99.332031 296.652344 97.300781 296.199219 95.15625 C 295.636719 92.789062 293.265625 90.757812 290.78125 91.097656 C 289.089844 91.324219 288.070312 92.789062 287.054688 93.917969 C 284.234375 97.300781 281.636719 100.910156 279.152344 104.632812 C 277.910156 106.546875 276.667969 108.464844 275.652344 110.609375 C 275.203125 111.398438 274.300781 113.089844 274.976562 113.992188 C 274.75 114.441406 274.410156 114.894531 274.1875 115.34375 C 273.394531 116.699219 272.492188 118.164062 271.589844 119.519531 C 271.476562 119.742188 271.363281 119.855469 271.25 120.082031 C 271.25 119.96875 271.25 119.855469 271.136719 119.742188 C 267.636719 114.667969 272.039062 108.464844 274.863281 104.292969 C 278.136719 99.667969 281.523438 95.046875 285.363281 90.871094 Z M 282.992188 108.804688 C 282.425781 107.339844 281.636719 105.984375 280.507812 104.96875 C 282.425781 102.039062 284.460938 99.21875 286.71875 96.511719 C 287.621094 95.382812 288.410156 94.367188 289.425781 93.351562 C 291.007812 91.773438 293.378906 92.5625 294.621094 94.253906 C 295.296875 95.269531 295.523438 96.398438 295.183594 97.640625 C 294.957031 98.429688 294.507812 99.105469 294.167969 99.78125 C 293.152344 101.8125 291.910156 103.84375 290.667969 105.871094 C 289.3125 108.015625 287.960938 110.15625 286.605469 112.300781 C 285.589844 113.878906 283.667969 118.050781 281.523438 116.472656 C 281.523438 116.472656 281.523438 116.472656 281.410156 116.472656 C 281.863281 115.683594 282.316406 114.78125 282.652344 113.992188 C 283.332031 111.960938 283.667969 110.496094 282.992188 108.804688 Z M 268.878906 117.375 C 269.105469 118.503906 269.558594 119.519531 270.121094 120.535156 C 270.347656 120.757812 270.6875 120.871094 270.910156 120.757812 C 269.21875 123.238281 267.523438 125.609375 265.605469 127.976562 C 264.589844 129.21875 263.574219 130.457031 262.445312 131.699219 C 261.429688 132.828125 260.414062 134.066406 258.945312 134.628906 C 257.816406 135.082031 256.347656 134.96875 255.445312 134.066406 C 254.65625 133.164062 254.769531 131.699219 255.105469 130.683594 C 255.332031 129.894531 255.898438 128.992188 256.347656 128.203125 C 257.140625 126.847656 257.929688 125.496094 258.832031 124.140625 C 260.863281 120.984375 263.007812 117.828125 265.265625 114.894531 C 266.285156 113.539062 267.414062 112.1875 268.652344 111.058594 C 269.105469 110.722656 269.445312 110.269531 269.894531 110.042969 C 270.007812 109.933594 270.121094 109.933594 270.234375 109.933594 C 269.21875 112.1875 268.542969 114.78125 268.878906 117.375 Z M 252.960938 125.832031 C 254.878906 122.789062 256.914062 119.742188 258.945312 116.8125 C 261.316406 113.539062 263.6875 110.382812 266.394531 107.339844 C 267.636719 105.984375 268.878906 104.519531 270.460938 103.503906 C 271.816406 102.601562 273.28125 102.039062 274.75 102.601562 C 273.394531 104.632812 272.042969 106.546875 270.910156 108.691406 C 270.007812 108.351562 269.105469 109.253906 268.429688 109.707031 C 267.1875 110.722656 266.171875 111.960938 265.15625 113.203125 C 262.558594 116.472656 260.074219 119.96875 257.816406 123.464844 C 256.914062 124.929688 256.011719 126.398438 255.105469 127.976562 C 254.542969 128.878906 253.976562 129.894531 253.863281 130.910156 C 253.640625 132.375 253.75 133.953125 254.992188 134.96875 C 256.011719 135.871094 257.476562 135.984375 258.71875 135.757812 C 260.300781 135.421875 261.542969 134.292969 262.558594 133.164062 C 263.800781 131.8125 264.929688 130.457031 266.058594 128.992188 C 268.652344 125.722656 271.136719 122.335938 273.28125 118.839844 C 274.410156 117.148438 275.429688 115.34375 276.445312 113.539062 C 276.78125 112.863281 277.347656 112.1875 277.234375 111.398438 C 277.234375 111.058594 277.007812 110.722656 276.78125 110.609375 C 277.460938 109.253906 278.25 107.902344 279.152344 106.660156 C 279.378906 106.4375 279.492188 106.097656 279.71875 105.757812 C 280.507812 106.546875 281.1875 107.5625 281.636719 108.691406 C 282.203125 110.15625 282.089844 111.398438 281.523438 112.863281 C 280.847656 114.554688 279.832031 116.136719 278.925781 117.601562 C 277.910156 119.292969 276.894531 120.984375 275.992188 122.675781 C 274.074219 125.945312 272.265625 129.21875 270.234375 132.261719 C 268.429688 135.195312 266.285156 138.015625 263.347656 139.929688 C 260.75 141.621094 257.476562 142.636719 254.316406 141.621094 C 251.492188 140.832031 249.125 138.578125 248.898438 135.53125 C 248.785156 132.035156 251.042969 128.765625 252.960938 125.832031 Z M 331.875 189.894531 C 333.570312 189.554688 334.8125 187.976562 335.035156 186.285156 C 335.375 184.367188 334.699219 182.5625 333.34375 181.207031 C 332.667969 180.644531 331.988281 180.195312 331.199219 179.855469 C 331.539062 179.402344 331.875 178.953125 332.328125 178.5 C 335.488281 174.894531 339.554688 171.960938 343.617188 169.367188 C 347.90625 166.773438 352.535156 164.628906 357.390625 163.050781 C 359.761719 162.261719 362.132812 161.699219 364.503906 161.246094 C 365.179688 161.132812 364.953125 160.007812 364.164062 160.117188 C 354.457031 162.035156 345.199219 166.207031 337.296875 172.300781 C 334.585938 174.441406 331.988281 176.699219 329.957031 179.515625 C 326.910156 178.839844 323.410156 179.96875 320.699219 181.546875 C 313.023438 186.058594 307.714844 193.5 303.765625 201.285156 C 299.585938 209.515625 296.878906 218.3125 293.378906 226.882812 C 291.570312 231.28125 289.539062 235.566406 287.167969 239.628906 C 284.796875 243.574219 281.863281 247.523438 278.136719 250.34375 C 275.992188 252.035156 273.171875 253.386719 270.460938 253.613281 C 270.574219 253.273438 270.800781 252.824219 270.910156 252.484375 C 272.265625 248.3125 272.945312 242.785156 269.105469 239.628906 C 267.636719 238.5 265.605469 237.710938 263.800781 238.273438 C 262.21875 238.726562 260.976562 239.964844 260.414062 241.433594 C 259.058594 244.816406 260.414062 248.761719 262.671875 251.46875 C 264.136719 253.160156 266.058594 254.289062 268.316406 254.628906 C 268.542969 254.628906 268.652344 254.628906 268.878906 254.742188 C 268.765625 255.078125 268.542969 255.53125 268.429688 255.867188 C 265.042969 263.652344 259.285156 270.304688 252.058594 274.703125 C 244.71875 279.214844 235.238281 281.921875 226.769531 279.441406 C 224.625 278.761719 222.707031 277.859375 221.011719 276.507812 C 220.449219 276.054688 219.882812 277.070312 220.449219 277.523438 C 227.671875 282.9375 237.832031 282.144531 245.847656 278.988281 C 253.640625 275.945312 260.414062 270.53125 265.265625 263.761719 C 267.1875 260.945312 268.765625 258.011719 270.007812 254.855469 C 271.476562 254.855469 272.945312 254.402344 274.300781 253.839844 C 278.589844 252.148438 281.863281 248.761719 284.683594 245.15625 C 290.441406 237.710938 293.941406 228.800781 297.21875 220.117188 C 300.378906 211.546875 303.539062 202.976562 308.621094 195.304688 C 310.988281 191.585938 313.925781 188.199219 317.3125 185.496094 C 320.472656 182.898438 324.875 179.96875 329.167969 180.757812 C 328.714844 181.433594 328.261719 182.109375 327.8125 182.898438 C 326.910156 184.703125 325.890625 186.960938 327.246094 188.765625 C 328.488281 189.78125 330.296875 190.230469 331.875 189.894531 Z M 269.445312 253.613281 C 268.203125 253.613281 267.074219 253.273438 265.945312 252.597656 C 262.558594 250.679688 260.414062 246.28125 261.429688 242.449219 C 261.878906 240.757812 263.121094 239.402344 264.816406 239.175781 C 266.847656 238.953125 268.878906 240.304688 269.894531 241.996094 C 271.25 244.140625 271.136719 246.960938 270.574219 249.328125 C 270.347656 250.792969 269.894531 252.148438 269.445312 253.613281 Z M 328.375 187.75 C 327.585938 186.734375 327.925781 185.496094 328.375 184.480469 C 328.941406 183.238281 329.617188 182 330.519531 180.757812 C 332.554688 181.546875 334.019531 183.238281 333.90625 185.382812 C 333.90625 187.296875 332.554688 188.992188 330.519531 188.765625 C 329.730469 188.765625 328.941406 188.425781 328.375 187.75 Z M 160.273438 241.433594 C 161.515625 231.507812 159.710938 221.582031 157 212.109375 C 154.289062 202.636719 151.015625 192.375 154.175781 182.5625 C 154.402344 181.886719 155.53125 182.109375 155.304688 182.898438 C 153.5 188.425781 153.839844 194.292969 154.855469 199.816406 C 155.871094 205.003906 157.5625 210.082031 158.917969 215.15625 C 160.273438 220.003906 161.175781 224.96875 161.515625 230.042969 C 162.304688 239.628906 160.726562 249.214844 156.324219 257.785156 C 155.984375 258.460938 154.96875 257.898438 155.304688 257.222656 C 158.015625 252.257812 159.597656 246.960938 160.273438 241.433594 Z M 135.097656 110.722656 C 135.550781 108.578125 137.015625 107 138.371094 107.339844 C 139.726562 107.5625 140.402344 109.59375 139.953125 111.738281 C 139.5 113.878906 138.035156 115.457031 136.679688 115.121094 C 135.324219 114.894531 134.644531 112.863281 135.097656 110.722656 Z M 138.371094 97.1875 C 138.371094 96.960938 138.597656 96.625 138.9375 96.625 C 143 97.074219 146.5 100.910156 146.386719 105.082031 C 146.386719 105.757812 145.257812 105.757812 145.257812 105.082031 C 145.371094 101.585938 142.550781 98.203125 138.9375 97.75 C 138.597656 97.75 138.371094 97.527344 138.371094 97.1875 Z M 143 284.175781 C 140.402344 282.9375 138.710938 280.679688 136.566406 278.761719 C 135.4375 277.746094 134.195312 276.957031 132.726562 276.621094 C 130.921875 276.28125 129 276.394531 127.195312 276.394531 C 126.40625 276.394531 126.40625 275.265625 127.195312 275.265625 C 129.113281 275.265625 131.035156 275.042969 132.839844 275.492188 C 134.308594 275.832031 135.550781 276.507812 136.679688 277.410156 C 139.050781 279.214844 140.742188 281.808594 143.453125 283.046875 C 144.242188 283.5 143.679688 284.515625 143 284.175781 Z M 138.035156 296.019531 C 138.710938 296.132812 138.484375 297.257812 137.695312 297.144531 C 134.757812 296.582031 132.386719 295.117188 130.019531 293.425781 C 128.777344 292.523438 127.421875 291.621094 125.953125 291.28125 C 124.261719 290.832031 122.566406 291.28125 120.984375 291.957031 C 120.308594 292.183594 120.082031 291.167969 120.648438 290.832031 C 122.226562 290.152344 123.921875 289.703125 125.613281 290.039062 C 127.082031 290.265625 128.4375 291.054688 129.792969 291.957031 C 131.148438 292.859375 132.5 293.761719 133.855469 294.664062 C 135.324219 295.339844 136.566406 295.792969 138.035156 296.019531 Z M 140.402344 289.703125 C 137.582031 287.898438 134.644531 285.980469 131.824219 284.175781 C 130.582031 283.386719 129.113281 282.035156 127.535156 282.144531 C 126.179688 282.257812 125.050781 282.9375 123.695312 282.710938 C 123.019531 282.597656 123.242188 281.46875 124.035156 281.582031 C 125.5 281.808594 126.855469 280.792969 128.324219 281.019531 C 129.792969 281.242188 131.035156 282.257812 132.277344 283.046875 C 135.210938 284.964844 138.144531 286.882812 141.082031 288.800781 C 141.644531 289.136719 141.082031 290.152344 140.402344 289.703125 Z M 124.597656 121.773438 C 125.5 122 125.953125 120.984375 126.628906 120.757812 C 127.761719 120.308594 128.4375 121.433594 129.226562 122 C 130.019531 122.5625 131.035156 122.675781 131.484375 121.773438 C 132.050781 120.644531 131.824219 119.066406 131.597656 117.828125 C 131.148438 115.683594 130.46875 113.539062 129.453125 111.511719 C 129.113281 110.835938 130.128906 110.269531 130.46875 110.945312 C 131.597656 113.429688 132.613281 116.023438 132.839844 118.730469 C 132.953125 120.082031 132.953125 121.773438 132.050781 122.789062 C 131.148438 123.804688 129.566406 123.691406 128.550781 122.902344 C 128.097656 122.5625 127.648438 122 127.195312 121.773438 C 126.96875 121.660156 126.96875 121.773438 126.742188 121.886719 C 126.40625 122.113281 126.179688 122.449219 125.726562 122.675781 C 123.808594 123.578125 122.113281 121.546875 121.550781 119.855469 C 121.324219 119.179688 122.453125 118.839844 122.679688 119.519531 C 123.019531 120.535156 123.582031 121.546875 124.597656 121.773438 Z M 118.503906 111.625 C 117.148438 111.398438 116.46875 109.367188 116.921875 107.226562 C 117.375 105.082031 118.839844 103.503906 120.195312 103.84375 C 121.550781 104.066406 122.226562 106.097656 121.777344 108.242188 C 121.324219 110.382812 119.855469 111.960938 118.503906 111.625 Z M 128.324219 133.277344 C 123.46875 134.628906 117.9375 133.050781 114.550781 129.21875 C 114.097656 128.652344 114.890625 127.863281 115.339844 128.429688 C 118.503906 131.925781 123.46875 133.390625 127.984375 132.148438 C 128.777344 132.035156 129.113281 133.164062 128.324219 133.277344 Z M 108.339844 98.203125 C 111.953125 93.578125 118.390625 91.550781 124.035156 93.242188 C 124.710938 93.464844 124.371094 94.59375 123.695312 94.367188 C 118.390625 92.789062 112.519531 94.707031 109.132812 99.105469 C 108.679688 99.554688 107.890625 98.765625 108.339844 98.203125 Z M 93.101562 110.15625 C 92.761719 108.464844 91.972656 106.773438 90.617188 105.644531 C 90.957031 107.5625 91.070312 109.480469 90.84375 111.398438 C 90.84375 112.074219 89.714844 112.074219 89.714844 111.398438 C 89.828125 109.367188 89.714844 107.226562 89.375 105.195312 C 89.375 104.96875 89.375 104.855469 89.488281 104.742188 C 88.472656 103.953125 87.230469 103.503906 85.875 103.277344 C 85.535156 103.277344 85.3125 103.050781 85.3125 102.714844 C 85.3125 102.488281 85.535156 102.148438 85.875 102.148438 C 89.828125 102.714844 93.328125 105.871094 94.003906 109.820312 C 94.34375 110.609375 93.214844 110.945312 93.101562 110.15625 Z M 45.683594 257.109375 C 42.636719 244.816406 38.457031 232.75 33.265625 221.132812 C 32.925781 220.457031 33.941406 219.890625 34.28125 220.570312 C 35.75 223.839844 37.105469 227.109375 38.457031 230.492188 C 43.199219 242.449219 46.699219 254.855469 49.183594 267.484375 C 49.296875 268.160156 48.28125 268.5 48.054688 267.824219 C 47.265625 264.101562 46.472656 260.605469 45.683594 257.109375 Z M 31.460938 314.402344 C 34.621094 314.625 37.78125 314.738281 40.828125 314.851562 C 47.941406 314.964844 54.941406 314.851562 62.054688 314.402344 C 66.34375 314.175781 70.519531 313.949219 74.8125 313.613281 C 75.039062 313.613281 75.261719 313.613281 75.488281 313.613281 C 76.167969 313.5 76.167969 312.371094 75.488281 312.484375 C 72.554688 312.710938 69.617188 312.933594 66.683594 313.160156 C 60.136719 313.5 53.585938 313.835938 47.039062 313.835938 C 40.265625 313.835938 33.492188 313.835938 26.832031 312.824219 C 19.378906 311.695312 11.816406 308.425781 7.976562 301.65625 C 5.492188 297.371094 4.476562 292.410156 3.800781 287.558594 C 2.898438 281.582031 2.21875 275.492188 1.992188 269.402344 C 1.429688 257.335938 2.105469 245.265625 3.6875 233.425781 C 4.476562 227.449219 5.492188 221.582031 6.847656 215.605469 C 8.089844 210.191406 9.558594 204.890625 11.703125 199.816406 C 15.429688 191.359375 20.734375 183.691406 27.394531 177.148438 C 33.941406 170.71875 41.847656 165.417969 50.3125 161.921875 C 54.265625 160.34375 58.328125 159.328125 62.28125 157.863281 C 65.78125 156.621094 69.167969 155.269531 72.554688 153.804688 C 72.554688 153.804688 72.554688 153.804688 72.667969 153.804688 C 71.3125 155.609375 69.957031 157.414062 68.601562 159.214844 C 64.875 164.292969 61.152344 169.367188 57.539062 174.554688 C 55.84375 177.035156 54.152344 179.515625 52.570312 182.109375 C 51.78125 183.351562 50.652344 184.816406 50.3125 186.285156 C 49.972656 187.863281 50.878906 189.441406 52.007812 190.570312 C 54.039062 192.597656 56.75 193.839844 59.117188 195.417969 C 61.828125 197.109375 64.875 199.027344 66.457031 201.847656 C 67.699219 203.988281 66.796875 206.695312 66.003906 208.726562 C 64.988281 211.546875 63.523438 214.253906 62.394531 216.960938 C 61.488281 219.214844 60.359375 221.808594 60.8125 224.402344 C 61.039062 225.53125 61.714844 226.433594 62.503906 227.335938 C 65.101562 230.15625 68.375 232.410156 71.425781 234.667969 C 75.601562 237.597656 79.890625 240.417969 84.292969 243.125 C 88.359375 245.605469 92.421875 248.085938 96.488281 250.457031 C 98.746094 251.808594 101.003906 253.160156 103.375 254.402344 C 103.488281 254.402344 103.601562 254.515625 103.714844 254.628906 C 103.824219 254.742188 104.050781 254.742188 104.164062 254.628906 C 104.164062 254.628906 104.164062 254.742188 104.277344 254.742188 C 107.324219 260.832031 110.488281 267.035156 114.550781 272.449219 C 114.777344 272.671875 114.890625 272.898438 115.117188 273.238281 C 113.082031 273.574219 111.164062 273.914062 109.246094 274.25 C 105.859375 274.816406 102.472656 275.492188 99.085938 275.378906 C 99.308594 275.152344 99.308594 274.589844 98.859375 274.363281 C 89.148438 271.546875 79.101562 269.628906 68.941406 268.949219 C 58.78125 268.273438 48.621094 268.613281 38.570312 269.964844 C 32.925781 270.753906 27.28125 271.996094 21.636719 273.460938 C 20.960938 273.6875 21.1875 274.703125 21.976562 274.589844 C 31.683594 271.996094 41.734375 270.417969 51.894531 269.851562 C 61.941406 269.402344 72.101562 269.964844 82.148438 271.65625 C 87.457031 272.558594 92.761719 273.800781 97.84375 275.265625 C 97.84375 275.265625 97.84375 275.378906 97.730469 275.378906 C 97.503906 275.492188 97.390625 275.71875 97.503906 275.945312 C 95.921875 279.441406 94.90625 283.273438 94.230469 286.996094 C 93.4375 291.507812 93.214844 296.019531 93.550781 300.640625 C 93.664062 303.011719 94.003906 305.378906 94.566406 307.746094 C 94.679688 308.425781 95.808594 308.199219 95.699219 307.410156 C 95.246094 305.71875 95.019531 303.914062 94.792969 302.222656 C 95.808594 302.785156 96.9375 303.234375 97.957031 303.574219 C 97.957031 304.476562 97.84375 305.492188 97.617188 306.394531 C 97.503906 306.84375 97.390625 307.296875 97.277344 307.746094 C 97.277344 307.972656 97.164062 308.085938 97.050781 308.3125 C 96.9375 308.3125 96.828125 308.3125 96.828125 308.3125 C 96.488281 308.425781 96.261719 308.761719 96.375 309.214844 C 96.488281 309.550781 96.828125 309.777344 97.164062 309.777344 C 97.957031 309.777344 98.179688 308.648438 98.40625 308.085938 C 98.859375 306.730469 99.085938 305.265625 99.195312 303.914062 C 102.921875 305.039062 106.875 305.265625 110.710938 304.703125 C 113.535156 304.25 116.246094 303.460938 118.839844 302.222656 C 120.195312 301.65625 121.4375 300.867188 122.90625 300.53125 C 124.261719 300.191406 125.613281 300.304688 126.855469 300.640625 C 129.679688 301.320312 132.386719 302.898438 135.4375 302.898438 C 136.113281 302.898438 136.113281 301.769531 135.4375 301.769531 C 132.839844 301.769531 130.355469 300.53125 127.871094 299.738281 C 126.628906 299.402344 125.390625 299.175781 124.148438 299.175781 C 122.792969 299.175781 121.664062 299.628906 120.421875 300.191406 C 117.824219 301.429688 115.226562 302.558594 112.40625 303.125 C 109.695312 303.6875 106.875 303.914062 104.164062 303.6875 C 101.003906 303.347656 97.957031 302.445312 95.132812 300.980469 C 95.019531 300.867188 94.90625 300.867188 94.792969 300.980469 C 94.679688 298.949219 94.566406 296.921875 94.679688 294.777344 C 94.90625 290.378906 95.472656 285.867188 96.714844 281.582031 C 97.277344 279.777344 97.84375 278.085938 98.632812 276.394531 C 101.679688 276.507812 104.730469 276.054688 107.664062 275.605469 C 110.9375 275.042969 114.097656 274.476562 117.375 273.914062 C 120.648438 273.347656 123.808594 272.785156 127.082031 272.222656 C 128.777344 271.996094 130.46875 271.546875 132.164062 271.320312 C 133.742188 271.207031 135.097656 272.335938 136.339844 273.125 C 139.5 275.152344 142.550781 277.070312 145.710938 279.101562 C 146.273438 279.441406 146.839844 278.539062 146.273438 278.085938 L 137.808594 272.671875 C 137.128906 272.222656 136.453125 271.769531 135.777344 271.433594 C 135.097656 270.980469 134.535156 270.53125 133.742188 270.304688 C 132.386719 269.851562 130.582031 270.417969 129.226562 270.644531 C 126.96875 270.980469 124.824219 271.433594 122.566406 271.769531 C 123.132812 270.417969 123.355469 268.839844 123.46875 267.371094 C 123.808594 264.664062 123.921875 261.957031 124.035156 259.253906 C 124.035156 257.898438 124.035156 256.433594 124.148438 255.078125 C 128.890625 248.199219 133.515625 241.320312 138.257812 234.328125 C 139.386719 232.636719 140.628906 230.945312 141.644531 229.253906 C 142.550781 227.785156 143.453125 226.207031 143.679688 224.402344 C 144.128906 220.792969 141.421875 217.636719 139.386719 214.929688 C 138.257812 213.351562 136.90625 211.773438 135.886719 210.082031 C 135.324219 209.066406 135.210938 208.277344 135.664062 207.261719 C 136.113281 206.246094 136.566406 205.230469 137.128906 204.328125 C 138.9375 200.71875 140.742188 197.109375 142.4375 193.390625 C 143.226562 191.695312 143.902344 190.003906 143.679688 188.089844 C 143.453125 186.398438 142.550781 184.703125 141.757812 183.238281 C 139.839844 179.96875 137.695312 176.699219 135.550781 173.539062 C 130.921875 166.773438 125.726562 160.457031 120.082031 154.480469 C 122.792969 155.15625 125.5 155.832031 128.210938 156.511719 C 134.308594 158.089844 140.402344 159.78125 146.273438 161.921875 C 149.324219 163.050781 152.257812 164.292969 155.082031 165.984375 C 158.242188 168.011719 161.175781 170.496094 163.660156 173.3125 C 168.96875 179.179688 172.804688 186.285156 175.289062 193.839844 C 178.113281 202.296875 179.242188 211.09375 180.371094 219.890625 C 180.480469 221.019531 180.707031 222.035156 180.820312 223.164062 C 180.933594 223.839844 182.0625 223.613281 181.949219 222.824219 C 180.707031 213.914062 179.804688 204.890625 177.207031 196.320312 C 174.949219 188.539062 171.449219 181.207031 166.371094 174.894531 C 161.742188 169.140625 155.871094 164.515625 148.984375 161.8125 C 143.113281 159.441406 137.015625 157.75 130.921875 156.171875 C 126.855469 155.042969 122.792969 153.917969 118.726562 153.125 C 118.726562 153.125 118.613281 153.125 118.613281 153.125 C 118.726562 152.902344 118.839844 152.5625 118.953125 152.335938 C 118.953125 152.222656 118.953125 152.222656 118.953125 152.113281 C 120.648438 151.886719 122.339844 150.984375 123.808594 150.082031 C 130.128906 146.359375 135.4375 140.945312 138.824219 134.40625 C 140.742188 130.570312 142.097656 126.511719 143.453125 122.5625 C 144.921875 118.277344 146.273438 113.992188 147.515625 109.59375 C 148.082031 107.449219 148.644531 105.308594 149.210938 103.164062 C 151.015625 102.375 152.371094 100.121094 153.046875 98.316406 C 154.066406 95.835938 154.515625 93.015625 154.628906 90.421875 C 154.742188 86.699219 154.175781 82.976562 152.9375 79.480469 C 150.339844 72.152344 145.144531 65.496094 139.050781 60.871094 C 133.066406 56.363281 125.839844 53.769531 118.390625 53.316406 C 118.503906 49.03125 117.710938 44.632812 115.226562 41.136719 C 113.195312 38.429688 110.375 36.738281 107.210938 35.722656 C 104.390625 34.933594 101.34375 34.707031 98.292969 34.933594 C 95.585938 35.160156 92.988281 35.609375 90.390625 36.625 C 85.535156 38.542969 80.457031 42.378906 79.667969 47.902344 C 73.570312 48.355469 68.039062 51.738281 64.425781 56.585938 C 62.503906 59.070312 61.152344 62 60.585938 65.160156 C 60.246094 66.625 60.136719 68.316406 60.246094 69.78125 C 60.246094 69.894531 60.246094 70.234375 60.246094 70.570312 C 59.34375 70.910156 58.328125 71.136719 57.425781 71.363281 C 55.84375 71.8125 54.378906 72.488281 52.910156 73.277344 C 48.734375 75.648438 45.796875 79.480469 44.328125 83.992188 C 43.199219 87.375 42.75 90.984375 43.765625 94.480469 C 44.667969 97.75 46.585938 100.683594 49.183594 102.601562 C 45.007812 105.644531 42.070312 110.15625 41.054688 115.121094 C 39.925781 120.421875 41.167969 125.945312 44.105469 130.457031 C 45.683594 132.714844 47.605469 134.742188 49.972656 136.210938 C 47.039062 139.140625 45.796875 143.652344 46.925781 147.601562 C 48.054688 151.546875 51.78125 154.480469 55.28125 156.285156 C 56.410156 156.847656 57.652344 157.300781 58.894531 157.523438 C 57.652344 157.863281 56.410156 158.203125 55.167969 158.652344 C 46.363281 161.472656 38.121094 165.984375 30.894531 171.960938 C 23.667969 177.9375 17.574219 185.15625 13.171875 193.390625 C 7.863281 203.089844 5.378906 213.914062 3.574219 224.742188 C 1.542969 236.695312 0.414062 248.875 0.414062 260.945312 C 0.414062 267.035156 0.75 273.238281 1.316406 279.328125 C 1.878906 284.738281 2.558594 290.265625 4.136719 295.453125 C 5.492188 300.078125 7.75 304.589844 11.703125 307.632812 C 14.636719 310.003906 18.25 311.808594 21.976562 312.710938 C 24.6875 313.386719 27.507812 313.835938 30.332031 314.0625 L 30.332031 321.84375 L 28.863281 321.84375 L 28.863281 322.972656 L 300.828125 322.972656 L 300.828125 321.84375 L 31.460938 321.84375 Z M 132.613281 172.1875 C 134.757812 175.230469 136.90625 178.390625 138.824219 181.546875 C 139.839844 183.125 140.855469 184.703125 141.644531 186.394531 C 142.4375 188.199219 142.4375 190.003906 141.644531 191.921875 C 140.855469 193.726562 139.953125 195.53125 139.050781 197.335938 L 136.339844 202.863281 C 135.886719 203.652344 135.550781 204.554688 135.097656 205.34375 C 134.644531 206.246094 134.082031 207.148438 133.855469 208.164062 C 133.515625 209.855469 134.644531 211.320312 135.550781 212.5625 C 136.792969 214.140625 137.921875 215.832031 139.164062 217.410156 C 140.179688 218.765625 141.195312 220.230469 141.757812 221.808594 C 143 225.644531 140.292969 228.914062 138.257812 231.847656 C 133.40625 238.953125 128.550781 246.058594 123.695312 253.160156 C 123.695312 247.296875 123.582031 241.546875 123.355469 235.679688 C 123.019531 226.09375 122.453125 216.507812 121.890625 206.921875 C 121.324219 197.675781 120.535156 188.425781 119.746094 179.179688 C 119.519531 175.90625 119.179688 172.636719 118.839844 169.367188 C 118.953125 169.140625 118.953125 168.914062 118.726562 168.691406 C 118.390625 165.195312 118.050781 161.808594 117.597656 158.3125 C 117.484375 157.75 117.484375 157.1875 117.375 156.621094 C 117.375 156.398438 117.261719 156.285156 117.148438 156.171875 C 117.375 155.609375 117.484375 154.929688 117.710938 154.367188 C 117.710938 154.367188 117.710938 154.367188 117.824219 154.367188 C 117.824219 154.480469 117.824219 154.59375 117.9375 154.707031 C 123.355469 160.230469 128.210938 165.984375 132.613281 172.1875 Z M 74.925781 152.675781 C 75.039062 152.675781 75.039062 152.5625 75.148438 152.5625 C 81.8125 145.570312 83.957031 135.757812 85.421875 126.511719 C 85.421875 126.285156 85.421875 126.171875 85.535156 126.058594 C 85.535156 126.058594 85.535156 125.945312 85.535156 125.945312 C 85.875 123.464844 86.214844 120.984375 86.328125 118.503906 C 88.019531 119.632812 90.050781 120.421875 92.199219 120.308594 C 92.988281 120.308594 92.988281 119.179688 92.199219 119.179688 C 86.777344 119.179688 82.601562 114.332031 81.699219 109.253906 C 81.246094 106.546875 81.585938 103.617188 82.601562 101.136719 C 83.503906 98.992188 85.199219 95.949219 87.90625 95.835938 C 91.179688 95.722656 92.761719 99.332031 93.777344 101.925781 C 94.003906 102.601562 95.132812 102.261719 94.90625 101.585938 C 94.34375 100.234375 93.777344 98.765625 92.875 97.527344 C 95.808594 97.75 97.617188 94.707031 98.972656 92.449219 C 100.550781 89.855469 102.695312 87.152344 106.082031 87.039062 C 108.003906 87.039062 109.808594 87.601562 111.730469 87.375 C 113.195312 87.152344 114.664062 86.585938 116.019531 85.796875 C 116.695312 85.347656 117.375 84.894531 118.050781 84.332031 C 118.164062 84.332031 118.164062 84.332031 118.277344 84.332031 C 119.855469 83.542969 121.4375 82.640625 122.90625 81.738281 C 124.261719 80.949219 125.613281 80.046875 126.855469 79.144531 C 127.421875 78.804688 127.871094 78.242188 128.550781 78.355469 C 128.777344 78.355469 129 78.464844 129.226562 78.578125 C 129.453125 79.257812 130.019531 79.820312 130.808594 79.933594 C 131.257812 80.046875 131.710938 79.933594 132.164062 79.707031 C 132.5 79.480469 132.839844 79.03125 132.953125 78.578125 C 133.066406 78.355469 133.066406 78.242188 133.066406 78.015625 C 134.195312 76.324219 135.777344 74.859375 137.695312 74.179688 C 138.824219 73.730469 140.179688 73.503906 141.195312 74.179688 C 141.421875 74.292969 141.53125 74.519531 141.757812 74.632812 C 138.710938 74.179688 135.4375 75.761719 133.96875 78.578125 C 133.628906 79.257812 134.644531 79.820312 134.984375 79.144531 C 136.453125 76.324219 139.5 75.082031 142.550781 75.984375 C 142.660156 76.324219 142.773438 76.773438 142.773438 77.113281 C 142.773438 77.113281 142.773438 77.226562 142.773438 77.226562 C 140.628906 76.550781 138.144531 77.226562 136.679688 78.917969 C 136.226562 79.480469 137.015625 80.269531 137.46875 79.707031 C 138.824219 78.242188 141.082031 77.675781 142.886719 78.464844 C 142.886719 78.804688 143 79.03125 143 79.367188 C 141.644531 79.144531 140.292969 79.144531 139.050781 79.707031 C 138.710938 79.820312 138.597656 80.046875 138.710938 80.382812 C 138.824219 80.609375 139.164062 80.949219 139.386719 80.722656 C 140.742188 80.15625 142.097656 80.15625 143.453125 80.609375 C 143.902344 81.511719 144.582031 82.414062 145.371094 83.089844 C 146.273438 83.878906 147.289062 84.332031 148.417969 84.554688 C 148.417969 84.667969 148.417969 84.78125 148.53125 84.894531 C 150.902344 87.488281 150.566406 91.4375 150 94.707031 C 149.324219 98.878906 148.308594 103.050781 147.289062 107.113281 C 146.160156 111.171875 144.921875 115.234375 143.679688 119.179688 C 142.324219 123.128906 141.082031 127.074219 139.5 130.910156 C 136.679688 137.675781 132.050781 143.539062 126.066406 147.714844 C 124.597656 148.726562 123.132812 149.628906 121.550781 150.417969 C 120.648438 150.871094 119.746094 151.210938 118.726562 151.320312 C 117.597656 151.433594 116.582031 151.097656 115.566406 150.644531 C 113.648438 149.855469 111.953125 148.839844 110.148438 147.824219 C 108.453125 146.921875 106.761719 146.019531 105.066406 145.007812 C 98.066406 140.722656 91.519531 134.628906 89.828125 126.398438 C 89.714844 125.722656 88.921875 125.945312 88.699219 126.398438 C 88.699219 126.398438 88.699219 126.511719 88.699219 126.511719 C 88.699219 126.511719 88.699219 126.625 88.699219 126.625 C 90.277344 134.179688 95.699219 140.042969 101.90625 144.328125 C 105.40625 146.699219 109.132812 148.726562 112.859375 150.644531 C 114.4375 151.433594 116.019531 152.335938 117.824219 152.449219 C 116.46875 155.382812 115.679688 158.425781 115.453125 161.585938 C 115.453125 162.261719 116.582031 162.261719 116.582031 161.585938 C 116.582031 160.683594 116.808594 159.667969 116.921875 158.765625 C 117.375 162.148438 117.710938 165.644531 118.050781 169.027344 C 116.246094 171.734375 113.648438 173.652344 110.597656 174.667969 C 107.101562 175.796875 103.261719 175.683594 99.648438 175.457031 C 92.761719 175.003906 85.761719 173.089844 80.570312 168.351562 C 78.199219 166.207031 76.277344 163.503906 75.261719 160.457031 C 75.039062 158.3125 75.039062 156.285156 75.039062 154.140625 C 74.8125 153.691406 74.8125 153.238281 74.925781 152.675781 Z M 73.796875 159.441406 C 73.683594 159.554688 73.570312 159.78125 73.683594 160.007812 C 73.683594 160.230469 73.796875 160.457031 73.910156 160.570312 C 74.246094 164.628906 74.925781 168.691406 75.714844 172.75 C 77.519531 182 80.003906 191.019531 82.714844 199.929688 C 85.761719 209.742188 89.148438 219.441406 92.875 229.027344 C 96.035156 237.148438 99.421875 245.265625 103.261719 253.160156 C 102.019531 252.484375 100.664062 251.695312 99.421875 250.90625 C 95.699219 248.761719 91.972656 246.507812 88.246094 244.253906 C 83.84375 241.546875 79.441406 238.839844 75.261719 235.90625 C 71.652344 233.539062 68.152344 231.058594 64.988281 228.238281 C 64.085938 227.335938 62.957031 226.433594 62.28125 225.304688 C 61.941406 224.855469 61.828125 224.628906 61.828125 223.953125 C 61.714844 222.824219 61.941406 221.582031 62.167969 220.457031 C 62.957031 217.636719 64.3125 215.042969 65.554688 212.335938 C 66.683594 209.855469 67.8125 207.375 68.039062 204.667969 C 68.261719 201.847656 66.683594 199.816406 64.652344 198.011719 C 62.28125 195.871094 59.457031 194.179688 56.636719 192.597656 C 55.507812 191.921875 54.265625 191.132812 53.25 190.230469 C 52.121094 189.214844 50.878906 187.75 51.441406 186.058594 C 51.894531 184.703125 52.910156 183.351562 53.699219 182.109375 C 54.488281 180.871094 55.28125 179.742188 56.070312 178.613281 C 59.570312 173.3125 63.296875 168.238281 67.023438 163.050781 C 69.28125 160.007812 71.425781 157.074219 73.683594 154.027344 C 73.570312 155.832031 73.683594 157.636719 73.796875 159.441406 Z M 73.796875 159.441406 " fill-opacity="1" fill-rule="nonzero"/></g><path fill="#217bf4" d="M 405.371094 195.191406 C 405.03125 195.191406 404.695312 195.191406 404.355469 195.191406 C 403.453125 195.191406 402.660156 195.191406 401.757812 195.191406 C 401.757812 196.546875 401.757812 197.898438 401.757812 199.253906 C 401.757812 199.929688 400.628906 199.929688 400.628906 199.253906 C 400.628906 198.914062 400.628906 198.464844 400.628906 198.125 C 400.628906 197.109375 400.628906 196.207031 400.628906 195.191406 C 399.386719 195.191406 398.257812 195.191406 397.015625 195.191406 C 396.339844 195.191406 396.339844 194.066406 397.015625 194.066406 C 397.355469 194.066406 397.695312 194.066406 398.03125 194.066406 C 398.9375 194.066406 399.726562 194.066406 400.628906 194.066406 C 400.628906 192.710938 400.628906 191.359375 400.628906 190.003906 C 400.628906 189.328125 401.757812 189.328125 401.757812 190.003906 C 401.757812 190.34375 401.757812 190.792969 401.757812 191.132812 C 401.757812 192.148438 401.757812 193.050781 401.757812 194.066406 C 403 194.066406 404.128906 194.066406 405.371094 194.066406 C 406.046875 194.066406 406.046875 195.191406 405.371094 195.191406 Z M 309.070312 127.300781 C 310.3125 129.328125 311.328125 135.421875 311.328125 135.421875 C 311.554688 136.097656 312.570312 136.097656 312.796875 135.421875 C 312.796875 135.421875 314.378906 129.328125 315.507812 127.414062 C 316.636719 125.382812 321.714844 124.367188 321.714844 124.367188 C 322.28125 124.140625 322.28125 123.238281 321.714844 123.015625 C 321.714844 123.015625 316.296875 122.335938 315.167969 120.308594 C 314.039062 118.277344 312.796875 112.300781 312.796875 112.300781 C 312.570312 111.625 311.554688 111.511719 311.328125 112.300781 C 311.328125 112.300781 310.539062 117.488281 309.183594 120.308594 C 307.828125 123.238281 302.636719 123.015625 302.636719 123.015625 C 301.957031 123.238281 301.957031 124.140625 302.523438 124.367188 C 302.410156 124.480469 307.714844 125.269531 309.070312 127.300781 Z M 250.363281 196.207031 C 250.363281 196.207031 244.945312 195.53125 243.816406 193.5 C 242.6875 191.472656 241.445312 185.496094 241.445312 185.496094 C 241.21875 184.816406 240.203125 184.703125 239.976562 185.496094 C 239.976562 185.496094 239.1875 190.683594 237.832031 193.5 C 236.480469 196.433594 231.285156 196.207031 231.285156 196.207031 C 230.609375 196.433594 230.609375 197.335938 231.171875 197.5625 C 231.171875 197.5625 236.480469 198.351562 237.71875 200.492188 C 238.960938 202.523438 239.976562 208.613281 239.976562 208.613281 C 240.203125 209.289062 241.21875 209.289062 241.445312 208.613281 C 241.445312 208.613281 243.027344 202.523438 244.15625 200.605469 C 245.285156 198.6875 250.363281 197.5625 250.363281 197.5625 C 251.042969 197.335938 250.929688 196.433594 250.363281 196.207031 Z M 388.324219 281.695312 C 388.324219 281.695312 385.613281 281.355469 385.050781 280.339844 C 384.484375 279.328125 383.921875 276.167969 383.921875 276.167969 C 383.808594 275.832031 383.355469 275.832031 383.242188 276.167969 C 383.242188 276.167969 382.90625 278.875 382.226562 280.339844 C 381.550781 281.808594 378.953125 281.808594 378.953125 281.808594 C 378.613281 281.921875 378.613281 282.371094 378.953125 282.484375 C 378.953125 282.484375 381.550781 282.9375 382.226562 283.949219 C 382.90625 284.964844 383.355469 288.125 383.355469 288.125 C 383.46875 288.460938 383.921875 288.460938 384.035156 288.125 C 384.035156 288.125 384.824219 284.964844 385.390625 283.949219 C 385.953125 282.9375 388.550781 282.371094 388.550781 282.371094 C 388.664062 282.257812 388.664062 281.808594 388.324219 281.695312 Z M 319.117188 243.351562 C 319.117188 243.351562 315.957031 243.011719 315.394531 241.769531 C 314.714844 240.644531 314.039062 237.148438 314.039062 237.148438 C 313.925781 236.695312 313.359375 236.695312 313.25 237.148438 C 313.25 237.148438 312.796875 240.078125 312.007812 241.769531 C 311.214844 243.460938 308.167969 243.351562 308.167969 243.351562 C 307.828125 243.460938 307.714844 244.027344 308.167969 244.140625 C 308.167969 244.140625 311.214844 244.589844 312.007812 245.832031 C 312.796875 247.070312 313.25 250.457031 313.25 250.457031 C 313.359375 250.90625 313.925781 250.792969 314.039062 250.457031 C 314.039062 250.457031 314.941406 246.960938 315.617188 245.832031 C 316.296875 244.703125 319.230469 244.140625 319.230469 244.140625 C 319.457031 244.027344 319.457031 243.460938 319.117188 243.351562 Z M 323.523438 267.484375 C 321.601562 267.484375 320.023438 269.0625 320.023438 270.980469 C 320.023438 272.898438 321.601562 274.476562 323.523438 274.476562 C 325.441406 274.476562 327.019531 272.898438 327.019531 270.980469 C 327.132812 269.0625 325.554688 267.484375 323.523438 267.484375 Z M 386.292969 176.246094 C 384.597656 176.246094 383.242188 177.601562 383.242188 179.292969 C 383.242188 180.984375 384.597656 182.335938 386.292969 182.335938 C 387.984375 182.335938 389.339844 180.984375 389.339844 179.292969 C 389.339844 177.601562 387.984375 176.246094 386.292969 176.246094 Z M 345.199219 89.066406 C 343.277344 89.066406 341.699219 90.648438 341.699219 92.5625 C 341.699219 94.480469 343.277344 96.058594 345.199219 96.058594 C 347.117188 96.058594 348.699219 94.480469 348.699219 92.5625 C 348.699219 90.648438 347.117188 89.066406 345.199219 89.066406 Z M 246.074219 157.1875 C 247.316406 157.1875 248.332031 156.171875 248.332031 154.929688 C 248.332031 153.691406 247.316406 152.675781 246.074219 152.675781 C 244.832031 152.675781 243.816406 153.691406 243.816406 154.929688 C 243.816406 156.171875 244.832031 157.1875 246.074219 157.1875 Z M 324.3125 171.285156 C 325.554688 171.285156 326.570312 170.269531 326.570312 169.027344 C 326.570312 167.789062 325.554688 166.773438 324.3125 166.773438 C 323.070312 166.773438 322.054688 167.789062 322.054688 169.027344 C 322.054688 170.269531 323.070312 171.285156 324.3125 171.285156 Z M 324.3125 171.285156 " fill-opacity="1" fill-rule="nonzero"/><path fill="#f4f4ed" d="M 117.375 53.878906 C 109.019531 52.640625 100.550781 55.234375 93.664062 59.859375 C 82.488281 67.300781 74.132812 79.707031 72.101562 93.128906 C 70.183594 105.757812 74.585938 119.40625 84.519531 127.75 C 85.085938 128.203125 84.292969 128.992188 83.730469 128.539062 C 78.085938 123.804688 74.132812 117.261719 72.101562 110.15625 C 68.261719 96.847656 71.875 82.527344 80.003906 71.472656 C 88.585938 59.746094 102.582031 50.382812 117.597656 52.753906 C 118.390625 52.867188 118.164062 53.992188 117.375 53.878906 Z M 117.375 53.878906 " fill-opacity="1" fill-rule="nonzero"/></svg>