<svg xmlns="http://www.w3.org/2000/svg" xmlns:xlink="http://www.w3.org/1999/xlink" width="54" zoomAndPan="magnify" viewBox="0 0 40.5 36.000001" height="48" preserveAspectRatio="xMidYMid meet" version="1.0"><defs><clipPath id="685c1621e7"><path d="M 2.359375 0 L 27 0 L 27 24 L 2.359375 24 Z M 2.359375 0 " clip-rule="nonzero"/></clipPath><clipPath id="2437604fb5"><path d="M 25 23 L 37.816406 23 L 37.816406 35.027344 L 25 35.027344 Z M 25 23 " clip-rule="nonzero"/></clipPath></defs><g clip-path="url(#685c1621e7)"><path fill="#ffffff" d="M 14.191406 23.863281 C 7.671875 23.863281 2.367188 18.511719 2.367188 11.929688 C 2.367188 5.351562 7.671875 0 14.191406 0 C 20.710938 0 26.015625 5.351562 26.015625 11.929688 C 26.015625 18.511719 20.710938 23.863281 14.191406 23.863281 Z M 14.191406 1.960938 C 13.542969 1.960938 12.902344 2.023438 12.265625 2.152344 C 11.628906 2.28125 11.011719 2.46875 10.410156 2.71875 C 9.8125 2.96875 9.242188 3.277344 8.703125 3.640625 C 8.164062 4.003906 7.664062 4.417969 7.207031 4.882812 C 6.746094 5.34375 6.335938 5.847656 5.976562 6.390625 C 5.617188 6.9375 5.3125 7.511719 5.066406 8.117188 C 4.816406 8.71875 4.628906 9.34375 4.503906 9.984375 C 4.375 10.628906 4.3125 11.277344 4.3125 11.929688 C 4.3125 12.585938 4.375 13.234375 4.503906 13.875 C 4.628906 14.519531 4.816406 15.140625 5.066406 15.746094 C 5.3125 16.351562 5.617188 16.925781 5.976562 17.46875 C 6.335938 18.015625 6.746094 18.519531 7.207031 18.980469 C 7.664062 19.445312 8.164062 19.855469 8.703125 20.21875 C 9.242188 20.585938 9.8125 20.890625 10.410156 21.140625 C 11.011719 21.390625 11.628906 21.582031 12.265625 21.710938 C 12.902344 21.835938 13.542969 21.902344 14.191406 21.902344 C 14.839844 21.902344 15.484375 21.835938 16.121094 21.710938 C 16.757812 21.582031 17.375 21.390625 17.972656 21.140625 C 18.574219 20.890625 19.140625 20.585938 19.679688 20.21875 C 20.21875 19.855469 20.71875 19.445312 21.179688 18.980469 C 21.636719 18.519531 22.046875 18.015625 22.40625 17.46875 C 22.765625 16.925781 23.070312 16.351562 23.320312 15.746094 C 23.566406 15.140625 23.753906 14.519531 23.882812 13.875 C 24.007812 13.234375 24.070312 12.585938 24.070312 11.929688 C 24.070312 11.277344 24.007812 10.628906 23.878906 9.988281 C 23.753906 9.34375 23.566406 8.722656 23.316406 8.117188 C 23.066406 7.511719 22.761719 6.9375 22.402344 6.394531 C 22.042969 5.851562 21.632812 5.347656 21.175781 4.886719 C 20.714844 4.421875 20.21875 4.007812 19.679688 3.644531 C 19.140625 3.28125 18.570312 2.976562 17.972656 2.722656 C 17.371094 2.472656 16.753906 2.285156 16.117188 2.15625 C 15.484375 2.027344 14.839844 1.964844 14.191406 1.960938 Z M 14.191406 1.960938 " fill-opacity="1" fill-rule="nonzero"/></g><path fill="#ffffff" d="M 22.730469 25.152344 C 22.511719 25.152344 22.308594 25.089844 22.125 24.96875 C 21.945312 24.84375 21.808594 24.679688 21.726562 24.476562 C 21.640625 24.273438 21.621094 24.058594 21.660156 23.84375 C 21.703125 23.625 21.800781 23.4375 21.957031 23.28125 L 24.96875 20.21875 C 25.066406 20.105469 25.183594 20.015625 25.320312 19.949219 C 25.457031 19.886719 25.597656 19.851562 25.75 19.84375 C 25.898438 19.839844 26.042969 19.863281 26.183594 19.921875 C 26.324219 19.976562 26.445312 20.054688 26.550781 20.164062 C 26.660156 20.269531 26.742188 20.390625 26.796875 20.53125 C 26.851562 20.671875 26.878906 20.820312 26.875 20.96875 C 26.871094 21.121094 26.839844 21.265625 26.777344 21.402344 C 26.714844 21.539062 26.625 21.660156 26.515625 21.761719 L 23.503906 24.824219 C 23.292969 25.042969 23.035156 25.152344 22.730469 25.152344 Z M 22.730469 25.152344 " fill-opacity="1" fill-rule="nonzero"/><g clip-path="url(#2437604fb5)"><path fill="#ffffff" d="M 35.796875 35.457031 C 35.273438 35.460938 34.828125 35.269531 34.460938 34.890625 L 26.449219 26.613281 C 26.277344 26.433594 26.144531 26.226562 26.050781 25.996094 C 25.960938 25.761719 25.914062 25.523438 25.917969 25.273438 C 25.921875 25.023438 25.972656 24.78125 26.070312 24.554688 C 26.167969 24.324219 26.304688 24.121094 26.480469 23.945312 C 26.65625 23.773438 26.863281 23.636719 27.089844 23.546875 C 27.320312 23.453125 27.558594 23.40625 27.808594 23.410156 C 28.054688 23.414062 28.292969 23.464844 28.519531 23.5625 C 28.75 23.660156 28.949219 23.800781 29.121094 23.976562 L 37.132812 32.257812 C 37.398438 32.527344 37.5625 32.851562 37.632812 33.222656 C 37.703125 33.597656 37.664062 33.957031 37.519531 34.304688 C 37.375 34.65625 37.144531 34.933594 36.832031 35.144531 C 36.519531 35.355469 36.175781 35.457031 35.796875 35.457031 Z M 35.796875 35.457031 " fill-opacity="1" fill-rule="nonzero"/></g><path fill="#ffffff" d="M 14.171875 20.335938 C 12.648438 20.335938 10.636719 19.894531 8.480469 18.222656 C 6.589844 16.753906 5.71875 14.496094 5.957031 11.691406 C 6.074219 10.394531 6.378906 9.148438 6.875 7.945312 C 6.941406 7.796875 7.050781 7.695312 7.199219 7.636719 C 7.351562 7.578125 7.5 7.585938 7.644531 7.652344 C 7.792969 7.71875 7.894531 7.824219 7.953125 7.976562 C 8.007812 8.128906 8.003906 8.277344 7.941406 8.425781 C 7.5 9.515625 7.222656 10.648438 7.117188 11.824219 C 6.917969 14.222656 7.617188 16.0625 9.191406 17.285156 C 13.082031 20.308594 16.40625 18.746094 16.441406 18.730469 C 16.585938 18.65625 16.738281 18.644531 16.890625 18.695312 C 17.046875 18.75 17.160156 18.851562 17.230469 19 C 17.300781 19.148438 17.308594 19.300781 17.253906 19.453125 C 17.199219 19.609375 17.097656 19.722656 16.949219 19.789062 C 16.863281 19.832031 15.796875 20.335938 14.171875 20.335938 Z M 14.171875 20.335938 " fill-opacity="1" fill-rule="nonzero"/></svg>