<svg xmlns="http://www.w3.org/2000/svg" xmlns:xlink="http://www.w3.org/1999/xlink" width="40" zoomAndPan="magnify" viewBox="0 0 30 30.000001" height="40" preserveAspectRatio="xMidYMid meet" version="1.0"><defs><clipPath id="557fd89334"><path d="M 3.066406 5.804688 L 27.015625 5.804688 L 27.015625 23.222656 L 3.066406 23.222656 Z M 3.066406 5.804688 " clip-rule="nonzero"/></clipPath></defs><g clip-path="url(#557fd89334)"><path fill="#000000" d="M 5.839844 5.832031 C 5.554688 5.832031 5.289062 5.886719 5.03125 5.964844 L 7.714844 7.667969 L 22.367188 7.667969 L 25.050781 5.964844 C 24.792969 5.886719 24.527344 5.832031 24.242188 5.832031 Z M 4.101562 6.460938 C 3.480469 6.96875 3.078125 7.726562 3.078125 8.582031 L 3.078125 20.5 C 3.078125 22.015625 4.316406 23.25 5.839844 23.25 L 24.242188 23.25 C 25.765625 23.25 27.003906 22.015625 27.003906 20.5 L 27.003906 8.582031 C 27.003906 7.726562 26.601562 6.96875 25.980469 6.460938 L 15.042969 13.394531 Z M 5.839844 10.796875 L 15.042969 16.632812 L 24.242188 10.796875 L 24.242188 21.417969 L 5.839844 21.417969 Z M 5.839844 10.796875 " fill-opacity="1" fill-rule="nonzero"/></g></svg>