<svg xmlns="http://www.w3.org/2000/svg" xmlns:xlink="http://www.w3.org/1999/xlink" width="40" zoomAndPan="magnify" viewBox="0 0 30 30.000001" height="40" preserveAspectRatio="xMidYMid meet" version="1.0"><defs><clipPath id="7bf25a7c57"><path d="M 0.484375 10 L 29.515625 10 L 29.515625 26.328125 L 0.484375 26.328125 Z M 0.484375 10 " clip-rule="nonzero"/></clipPath><clipPath id="af8442e590"><path d="M 4 2.375 L 26 2.375 L 26 14 L 4 14 Z M 4 2.375 " clip-rule="nonzero"/></clipPath></defs><g clip-path="url(#7bf25a7c57)"><path fill="#e50000" d="M 2.660156 10.234375 L 27.339844 10.234375 C 27.625 10.234375 27.898438 10.285156 28.160156 10.394531 C 28.421875 10.5 28.65625 10.652344 28.855469 10.851562 C 29.054688 11.050781 29.210938 11.277344 29.320312 11.535156 C 29.429688 11.796875 29.484375 12.066406 29.484375 12.34375 L 29.484375 24.21875 C 29.484375 24.496094 29.429688 24.765625 29.320312 25.027344 C 29.210938 25.285156 29.054688 25.511719 28.855469 25.710938 C 28.65625 25.910156 28.421875 26.0625 28.160156 26.167969 C 27.898438 26.277344 27.625 26.328125 27.339844 26.328125 L 2.660156 26.328125 C 2.375 26.328125 2.101562 26.277344 1.839844 26.167969 C 1.578125 26.0625 1.347656 25.910156 1.144531 25.710938 C 0.945312 25.511719 0.789062 25.285156 0.679688 25.027344 C 0.574219 24.765625 0.519531 24.496094 0.519531 24.21875 L 0.519531 12.34375 C 0.519531 12.066406 0.574219 11.796875 0.679688 11.535156 C 0.789062 11.277344 0.945312 11.050781 1.144531 10.851562 C 1.347656 10.652344 1.578125 10.5 1.839844 10.394531 C 2.101562 10.285156 2.375 10.234375 2.660156 10.234375 " fill-opacity="1" fill-rule="nonzero"/></g><path fill="#ffffff" d="M 9.085938 20.285156 L 9.085938 16.277344 L 20.914062 16.277344 L 20.914062 20.285156 Z M 9.085938 20.285156 " fill-opacity="1" fill-rule="nonzero"/><path fill="#ffffff" d="M 17.03125 24.117188 L 12.96875 24.117188 L 12.96875 12.445312 L 17.03125 12.445312 Z M 17.03125 24.117188 " fill-opacity="1" fill-rule="nonzero"/><g clip-path="url(#af8442e590)"><path stroke-linecap="square" transform="matrix(0.0713922, 0, 0, 0.0704252, -11.560763, -22.70375)" fill="none" stroke-linejoin="round" d="M 251.994563 481.459396 C 251.994563 481.459396 271.637374 379.73356 372.040041 379.73356 C 472.442707 379.73356 492.085518 481.459396 492.085518 481.459396 " stroke="#e50000" stroke-width="47.278999" stroke-opacity="1" stroke-miterlimit="4"/></g></svg>