<svg xmlns="http://www.w3.org/2000/svg" xmlns:xlink="http://www.w3.org/1999/xlink" width="54" zoomAndPan="magnify" viewBox="0 0 40.5 36.000001" height="48" preserveAspectRatio="xMidYMid meet" version="1.0"><defs><clipPath id="a3f58d21c8"><path d="M 3.714844 6 L 36.957031 6 L 36.957031 17 L 3.714844 17 Z M 3.714844 6 " clip-rule="nonzero"/></clipPath><clipPath id="bb18532994"><path d="M 3.714844 25 L 36.957031 25 L 36.957031 35.027344 L 3.714844 35.027344 Z M 3.714844 25 " clip-rule="nonzero"/></clipPath><clipPath id="108c7f03cb"><path d="M 3.714844 0 L 36.957031 0 L 36.957031 8 L 3.714844 8 Z M 3.714844 0 " clip-rule="nonzero"/></clipPath><clipPath id="f3c06e7c11"><path d="M 3.714844 16 L 36.957031 16 L 36.957031 26 L 3.714844 26 Z M 3.714844 16 " clip-rule="nonzero"/></clipPath></defs><g clip-path="url(#a3f58d21c8)"><path fill="#ffffff" d="M 3.773438 6.648438 L 3.773438 12.996094 C 3.773438 13.199219 4.539062 14.226562 8.078125 15.171875 C 11.339844 16.039062 15.691406 16.515625 20.335938 16.515625 C 31.09375 16.515625 36.894531 14.015625 36.894531 12.996094 L 36.894531 6.648438 C 33.40625 8.570312 26.703125 9.476562 20.335938 9.476562 C 13.964844 9.476562 7.265625 8.570312 3.773438 6.648438 Z M 3.773438 6.648438 " fill-opacity="1" fill-rule="nonzero"/></g><g clip-path="url(#bb18532994)"><path fill="#ffffff" d="M 3.773438 25.582031 L 3.773438 31.933594 C 3.773438 32.136719 4.539062 33.164062 8.078125 34.105469 C 11.339844 34.976562 15.691406 35.453125 20.335938 35.453125 C 24.976562 35.453125 29.328125 34.976562 32.589844 34.105469 C 36.128906 33.164062 36.894531 32.136719 36.894531 31.933594 L 36.894531 25.582031 C 33.40625 27.507812 26.703125 28.410156 20.335938 28.410156 C 13.964844 28.410156 7.265625 27.507812 3.773438 25.582031 Z M 3.773438 25.582031 " fill-opacity="1" fill-rule="nonzero"/></g><g clip-path="url(#108c7f03cb)"><path fill="#ffffff" d="M 8.078125 5.703125 C 11.339844 6.570312 15.691406 7.046875 20.335938 7.046875 C 24.976562 7.046875 29.328125 6.570312 32.589844 5.703125 C 36.128906 4.757812 36.894531 3.730469 36.894531 3.527344 C 36.894531 3.324219 36.128906 2.292969 32.589844 1.351562 C 29.328125 0.484375 24.976562 0.00390625 20.335938 0.00390625 C 15.691406 0.00390625 11.339844 0.484375 8.078125 1.351562 C 4.539062 2.292969 3.773438 3.324219 3.773438 3.527344 C 3.773438 3.730469 4.539062 4.757812 8.078125 5.703125 Z M 8.078125 5.703125 " fill-opacity="1" fill-rule="nonzero"/></g><g clip-path="url(#f3c06e7c11)"><path fill="#ffffff" d="M 3.773438 16.113281 L 3.773438 22.464844 C 3.773438 22.667969 4.539062 23.695312 8.078125 24.636719 C 11.339844 25.507812 15.691406 25.984375 20.335938 25.984375 C 24.976562 25.984375 29.328125 25.507812 32.589844 24.636719 C 36.128906 23.695312 36.894531 22.667969 36.894531 22.464844 L 36.894531 16.113281 C 33.40625 18.039062 26.703125 18.941406 20.335938 18.941406 C 13.964844 18.941406 7.265625 18.039062 3.773438 16.113281 Z M 3.773438 16.113281 " fill-opacity="1" fill-rule="nonzero"/></g></svg>