<svg xmlns="http://www.w3.org/2000/svg" xmlns:xlink="http://www.w3.org/1999/xlink" width="54" zoomAndPan="magnify" viewBox="0 0 40.5 36.000001" height="48" preserveAspectRatio="xMidYMid meet" version="1.0"><defs><clipPath id="d84b9a2f4f"><path d="M 2.519531 0 L 37.980469 0 L 37.980469 35.027344 L 2.519531 35.027344 Z M 2.519531 0 " clip-rule="nonzero"/></clipPath></defs><path fill="#ffffff" d="M 25.898438 20.175781 C 26.867188 17.925781 26.441406 15.214844 24.601562 13.378906 C 23.140625 11.914062 21.121094 11.351562 19.226562 11.675781 L 22.8125 15.261719 L 21.617188 19.089844 L 17.800781 20.296875 L 14.210938 16.707031 C 13.890625 18.609375 14.460938 20.628906 15.921875 22.09375 C 17.757812 23.929688 20.464844 24.351562 22.710938 23.375 L 31.851562 32.519531 C 32.734375 33.398438 34.160156 33.398438 35.042969 32.515625 C 35.921875 31.628906 35.921875 30.199219 35.039062 29.320312 L 25.898438 20.175781 " fill-opacity="1" fill-rule="nonzero"/><g clip-path="url(#d84b9a2f4f)"><path fill="#ffffff" d="M 33.832031 15.179688 C 33.472656 13.265625 32.722656 11.484375 31.664062 9.933594 L 34.039062 6.441406 L 31.542969 3.949219 L 28.054688 6.324219 C 26.503906 5.265625 24.722656 4.515625 22.808594 4.15625 L 22.019531 0.00390625 L 18.488281 0.00390625 L 17.703125 4.15625 C 15.785156 4.515625 14.003906 5.265625 12.453125 6.324219 L 8.964844 3.949219 L 6.46875 6.441406 L 8.847656 9.933594 C 7.785156 11.484375 7.035156 13.265625 6.675781 15.179688 L 2.523438 15.96875 L 2.523438 19.496094 L 6.675781 20.285156 C 7.035156 22.203125 7.785156 23.984375 8.847656 25.535156 L 6.46875 29.023438 L 8.964844 31.519531 L 12.453125 29.140625 C 14.003906 30.203125 15.785156 30.953125 17.703125 31.308594 L 18.488281 35.464844 L 22.019531 35.464844 L 22.808594 31.308594 C 23.800781 31.125 24.753906 30.832031 25.660156 30.445312 L 22.496094 27.285156 C 21.777344 27.457031 21.027344 27.554688 20.253906 27.554688 C 14.832031 27.554688 10.433594 23.15625 10.433594 17.734375 C 10.433594 12.308594 14.832031 7.914062 20.253906 7.914062 C 25.679688 7.914062 30.074219 12.308594 30.074219 17.734375 C 30.074219 18.507812 29.976562 19.257812 29.808594 19.980469 L 32.96875 23.136719 C 33.351562 22.230469 33.644531 21.277344 33.832031 20.285156 L 37.984375 19.496094 L 37.984375 15.96875 L 33.832031 15.179688 " fill-opacity="1" fill-rule="nonzero"/></g></svg>