<svg width="25" height="24" viewBox="0 0 25 24" fill="none" xmlns="http://www.w3.org/2000/svg">
<g clip-path="url(#clip0_1336_38)">
<mask id="mask0_1336_38" style="mask-type:luminance" maskUnits="userSpaceOnUse" x="0" y="0" width="16" height="24">
<path d="M0.644531 0H15.8333V23.225H0.644531V0Z" fill="white"/>
</mask>
<g mask="url(#mask0_1336_38)">
<path d="M14.9121 0.109371C14.8014 0.021871 14.6549 -0.015629 14.515 0.012496L1.03516 2.4875C0.810546 2.53125 0.644531 2.72187 0.644531 2.94375V20.2812C0.644531 20.5031 0.810546 20.6969 1.03516 20.7375L14.515 23.2125C14.5443 23.2187 14.5768 23.2219 14.6061 23.2219C14.7168 23.2219 14.8242 23.1844 14.9121 23.1156C15.0228 23.0281 15.0879 22.8969 15.0879 22.7562V0.468746C15.0879 0.331246 15.0228 0.196871 14.9121 0.109371ZM9.56055 15.9687L8.00781 13.1406C7.94922 13.0344 7.89062 12.8406 7.82552 12.5594H7.80273C7.77344 12.6906 7.70182 12.8937 7.5944 13.1656L6.03841 15.9687H3.61979L6.49088 11.625L3.86719 7.28437H6.33463L7.62044 9.8875C7.72135 10.0937 7.80924 10.3375 7.89062 10.6219H7.91341C7.96549 10.45 8.05989 10.2 8.19661 9.86562L9.6289 7.28437H11.888L9.18945 11.5906L11.9629 15.9687H9.56055Z" fill="#0C7238"/>
</g>
<mask id="mask1_1336_38" style="mask-type:luminance" maskUnits="userSpaceOnUse" x="15" y="2" width="10" height="19">
<path d="M15.8335 2.40002H24.2352V20.8H15.8335V2.40002Z" fill="white"/>
</mask>
<g mask="url(#mask1_1336_38)">
<path d="M23.2718 2.79065H16.0518V6.04065H17.012V6.96877H16.0518V9.29065H17.012V10.2188H16.0518V12.5406H17.012V13.4719H16.0518V16.2563H17.012V17.1844H16.0518V20.4344H23.2718C23.8024 20.4344 24.2354 20.0188 24.2354 19.5063V3.71877C24.2354 3.20627 23.8024 2.79065 23.2718 2.79065ZM21.8265 17.1844H17.9756V16.2563H21.8265V17.1844ZM21.8265 13.4719H17.9756V12.5406H21.8265V13.4719ZM21.8265 10.2188H17.9756V9.29065H21.8265V10.2188ZM21.8265 6.96877H17.9756V6.04065H21.8265V6.96877Z" fill="#0C7238"/>
</g>
</g>
<defs>
<clipPath id="clip0_1336_38">
<rect width="25" height="24" fill="white"/>
</clipPath>
</defs>
</svg>
