<svg xmlns="http://www.w3.org/2000/svg" xmlns:xlink="http://www.w3.org/1999/xlink" width="54" zoomAndPan="magnify" viewBox="0 0 40.5 36.000001" height="48" preserveAspectRatio="xMidYMid meet" version="1.0"><defs><clipPath id="ebbcc0f830"><path d="M 2.519531 0 L 37.980469 0 L 37.980469 35.027344 L 2.519531 35.027344 Z M 2.519531 0 " clip-rule="nonzero"/></clipPath></defs><g clip-path="url(#ebbcc0f830)"><path fill="#ffffff" d="M 18.554688 0.0976562 C 14.394531 0.527344 10.648438 2.300781 7.726562 5.222656 C 4.921875 8.023438 3.234375 11.464844 2.652344 15.5625 C 2.535156 16.378906 2.535156 19.109375 2.652344 19.925781 C 3.238281 24.03125 4.921875 27.457031 7.726562 30.269531 C 10.535156 33.070312 13.964844 34.753906 18.070312 35.34375 C 18.886719 35.460938 21.613281 35.460938 22.429688 35.34375 C 25.28125 34.933594 27.707031 34.039062 30.011719 32.53125 C 31.894531 31.300781 33.804688 29.390625 35.039062 27.503906 C 36.546875 25.195312 37.4375 22.777344 37.847656 19.925781 C 37.964844 19.109375 37.964844 16.378906 37.847656 15.5625 C 37.257812 11.457031 35.578125 8.03125 32.773438 5.222656 C 30.03125 2.480469 26.679688 0.804688 22.742188 0.195312 C 21.871094 0.0625 19.441406 0 18.554688 0.0976562 Z M 22.429688 12.046875 C 22.402344 12.15625 21.78125 14.746094 21.039062 17.8125 C 20.296875 20.878906 19.675781 23.441406 19.65625 23.503906 C 19.621094 23.613281 19.515625 23.628906 18.824219 23.628906 L 18.019531 23.628906 L 18.070312 23.398438 C 18.097656 23.28125 18.726562 20.660156 19.460938 17.578125 C 20.203125 14.492188 20.804688 11.949219 20.804688 11.914062 C 20.804688 11.886719 21.175781 11.859375 21.640625 11.859375 L 22.480469 11.859375 Z M 17.273438 14.609375 L 17.273438 15.703125 L 14.726562 16.664062 C 13.328125 17.199219 12.109375 17.667969 12.011719 17.714844 L 11.839844 17.804688 L 12.046875 17.882812 C 12.164062 17.925781 13.375 18.402344 14.746094 18.949219 L 17.238281 19.9375 L 17.257812 21.019531 C 17.265625 21.621094 17.253906 22.105469 17.226562 22.105469 C 17.191406 22.105469 15.433594 21.351562 13.3125 20.429688 L 9.449219 18.753906 L 9.449219 16.863281 L 10.507812 16.402344 C 15.984375 14.019531 17.113281 13.535156 17.191406 13.527344 C 17.253906 13.519531 17.273438 13.785156 17.273438 14.609375 Z M 27.261719 15.238281 L 31.050781 16.871094 L 31.050781 18.753906 L 28.40625 19.910156 C 26.945312 20.542969 25.1875 21.308594 24.488281 21.613281 L 23.226562 22.160156 L 23.238281 21.054688 L 23.261719 19.9375 L 25.890625 18.90625 C 27.339844 18.339844 28.542969 17.855469 28.570312 17.828125 C 28.597656 17.800781 27.414062 17.308594 25.941406 16.742188 L 23.261719 15.695312 L 23.242188 14.601562 C 23.226562 13.578125 23.234375 13.507812 23.34375 13.550781 C 23.414062 13.578125 25.171875 14.339844 27.261719 15.238281 Z M 27.261719 15.238281 " fill-opacity="1" fill-rule="nonzero"/></g></svg>