<svg xmlns="http://www.w3.org/2000/svg" xmlns:xlink="http://www.w3.org/1999/xlink" width="54" zoomAndPan="magnify" viewBox="0 0 40.5 36.000001" height="48" preserveAspectRatio="xMidYMid meet" version="1.0"><defs><clipPath id="dc25d69783"><path d="M 2.519531 0 L 37.980469 0 L 37.980469 35.027344 L 2.519531 35.027344 Z M 2.519531 0 " clip-rule="nonzero"/></clipPath></defs><g clip-path="url(#dc25d69783)"><path fill="#ffffff" d="M 36.933594 16.984375 L 20.984375 1.039062 C 20.339844 0.398438 19.453125 0 18.476562 0 L 6.066406 0 C 4.105469 0 2.519531 1.585938 2.519531 3.546875 L 2.519531 15.957031 C 2.519531 16.941406 2.917969 17.828125 3.566406 18.464844 L 19.523438 34.421875 C 20.160156 35.058594 21.046875 35.460938 22.023438 35.460938 C 23 35.460938 23.894531 35.058594 24.53125 34.421875 L 36.941406 22.011719 C 37.582031 21.363281 37.980469 20.476562 37.980469 19.503906 C 37.980469 18.519531 37.582031 17.632812 36.933594 16.984375 Z M 8.726562 8.863281 C 7.253906 8.863281 6.066406 7.675781 6.066406 6.207031 C 6.066406 4.734375 7.253906 3.546875 8.726562 3.546875 C 10.195312 3.546875 11.386719 4.734375 11.386719 6.207031 C 11.386719 7.675781 10.195312 8.863281 8.726562 8.863281 Z M 8.726562 8.863281 " fill-opacity="1" fill-rule="nonzero"/></g></svg>