<svg width="28" height="27" viewBox="0 0 28 27" fill="none" xmlns="http://www.w3.org/2000/svg">
<mask id="mask0_1336_37" style="mask-type:luminance" maskUnits="userSpaceOnUse" x="0" y="0" width="28" height="27">
<path d="M0 0H27.3543V26.7083H0V0Z" fill="white"/>
</mask>
<g mask="url(#mask0_1336_37)">
<path d="M26.92 12.9301H25.33C25.1055 6.98973 20.1955 2.19575 14.1115 1.97653V0.424056C14.1115 0.186872 13.9127 0 13.6772 0C13.4342 0 13.2429 0.190466 13.2429 0.424056V1.97653C7.1588 2.19575 2.24886 6.98973 2.02434 12.9301H0.434312C0.191392 12.9301 0 13.1242 0 13.3542C0 13.5914 0.195072 13.7782 0.434312 13.7782H2.02434C2.24886 19.7186 7.1588 24.5162 13.2429 24.7318V26.2879C13.2429 26.5215 13.4416 26.7083 13.6772 26.7083C13.9201 26.7083 14.1115 26.5179 14.1115 26.2879V24.7318C20.1955 24.5162 25.1055 19.7186 25.33 13.7782H26.92C27.1629 13.7782 27.3543 13.5878 27.3543 13.3542C27.3543 13.117 27.1593 12.9301 26.92 12.9301ZM14.1115 3.19479C19.5073 3.41401 23.8577 7.66176 24.0823 12.9301H22.2383C22.0211 8.65361 18.4951 5.21445 14.1152 4.99883V3.19479H14.1115ZM13.2429 3.19479V4.99523C8.86292 5.20726 5.33689 8.65002 5.11974 12.9265H3.27207C3.49658 7.66176 7.84707 3.41401 13.2429 3.19479ZM13.2429 23.5135C7.84707 23.2943 3.49658 19.0466 3.27207 13.7782H5.11974C5.33689 18.0547 8.86292 21.4975 13.2429 21.7095V23.5135ZM13.6772 17.4941C13.4342 17.4941 13.2429 17.6846 13.2429 17.9182V19.9666C9.84564 19.7545 7.12199 17.0952 6.90851 13.7782H9.00278C9.2457 13.7782 9.4371 13.5878 9.4371 13.3542C9.4371 13.117 9.24202 12.9301 9.00278 12.9301H6.90851C7.12199 9.61672 9.84564 6.9538 13.2429 6.74536V8.79018C13.2429 9.02736 13.4416 9.21423 13.6772 9.21423C13.9201 9.21423 14.1115 9.02377 14.1115 8.79018V6.74536C17.5087 6.9538 20.2287 9.61672 20.4458 12.9301H18.3515C18.1086 12.9301 17.9172 13.1242 17.9172 13.3542C17.9172 13.5914 18.1123 13.7782 18.3515 13.7782H20.4458C20.2323 17.0952 17.5087 19.7545 14.1115 19.9666V17.9182C14.1115 17.6846 13.9201 17.4941 13.6772 17.4941ZM14.1115 23.5135V21.7095C18.4914 21.4975 22.0174 18.0547 22.2346 13.7782H24.0749C23.8577 19.0466 19.5073 23.2943 14.1115 23.5135ZM16.0401 13.3542C16.0401 12.082 14.9764 11.047 13.6772 11.047C12.3742 11.047 11.3142 12.0856 11.3142 13.3542C11.3142 14.6263 12.3779 15.6613 13.6772 15.6613C14.9801 15.6613 16.0401 14.6263 16.0401 13.3542ZM13.6772 14.6156C12.9668 14.6156 12.3853 14.0477 12.3853 13.3542C12.3853 12.6606 12.9668 12.0964 13.6772 12.0964C14.3875 12.0964 14.9691 12.6606 14.9691 13.3542C14.9691 14.0477 14.3875 14.6156 13.6772 14.6156Z" fill="#5271FF"/>
</g>
</svg>
