<svg xmlns="http://www.w3.org/2000/svg" xmlns:xlink="http://www.w3.org/1999/xlink" width="54" zoomAndPan="magnify" viewBox="0 0 40.5 36.000001" height="48" preserveAspectRatio="xMidYMid meet" version="1.0"><defs><clipPath id="305edf5535"><path d="M 4.648438 0 L 35.675781 0 L 35.675781 35.027344 L 4.648438 35.027344 Z M 4.648438 0 " clip-rule="nonzero"/></clipPath></defs><g clip-path="url(#305edf5535)"><path fill="#ffffff" d="M 32.625 0 L 13.167969 0 C 11.492188 0 10.128906 1.371094 10.128906 3.058594 L 10.128906 17.117188 L 5.265625 17.117188 C 4.929688 17.117188 4.65625 17.394531 4.65625 17.730469 L 4.65625 32.097656 C 4.65625 33.949219 6.160156 35.460938 8 35.460938 L 32.625 35.460938 C 34.304688 35.460938 35.664062 34.089844 35.664062 32.402344 L 35.664062 3.058594 C 35.664062 1.371094 34.304688 0 32.625 0 Z M 10.128906 32.097656 C 10.128906 33.277344 9.175781 34.238281 8 34.238281 C 6.828125 34.238281 5.875 33.277344 5.875 32.097656 L 5.875 18.339844 L 10.128906 18.339844 Z M 23.53125 4.4375 L 26.65625 4.4375 C 26.988281 4.4375 27.261719 4.714844 27.261719 5.050781 C 27.261719 5.386719 26.988281 5.660156 26.65625 5.660156 L 23.53125 5.660156 C 23.195312 5.660156 22.921875 5.386719 22.921875 5.050781 C 22.921875 4.714844 23.1875 4.4375 23.53125 4.4375 Z M 23.53125 7.921875 L 32 7.921875 C 32.332031 7.921875 32.605469 8.199219 32.605469 8.535156 C 32.605469 8.871094 32.332031 9.144531 32 9.144531 L 23.53125 9.144531 C 23.195312 9.144531 22.921875 8.871094 22.921875 8.535156 C 22.921875 8.199219 23.1875 7.921875 23.53125 7.921875 Z M 12.964844 9.457031 C 13.277344 8.210938 14.125 7.226562 15.222656 6.699219 C 14.828125 6.265625 14.582031 5.691406 14.582031 5.054688 C 14.582031 3.703125 15.675781 2.605469 17.019531 2.605469 C 18.363281 2.605469 19.457031 3.703125 19.457031 5.054688 C 19.457031 5.691406 19.207031 6.265625 18.8125 6.699219 C 19.925781 7.234375 20.78125 8.230469 21.085938 9.5 C 21.117188 9.621094 21.105469 9.75 21.0625 9.875 C 21.035156 9.941406 21 10.003906 20.953125 10.050781 C 19.953125 11.183594 18.527344 11.828125 17.019531 11.828125 C 15.523438 11.828125 14.101562 11.195312 13.109375 10.074219 C 13.054688 10.019531 13.003906 9.945312 12.976562 9.875 C 12.925781 9.738281 12.921875 9.59375 12.964844 9.457031 Z M 32.125 30.832031 L 13.667969 30.832031 C 13.332031 30.832031 13.058594 30.554688 13.058594 30.21875 C 13.058594 29.882812 13.332031 29.609375 13.667969 29.609375 L 32.121094 29.609375 C 32.453125 29.609375 32.726562 29.882812 32.726562 30.21875 C 32.726562 30.554688 32.460938 30.832031 32.125 30.832031 Z M 32.125 26.898438 L 13.667969 26.898438 C 13.332031 26.898438 13.058594 26.625 13.058594 26.289062 C 13.058594 25.953125 13.332031 25.675781 13.667969 25.675781 L 32.121094 25.675781 C 32.453125 25.675781 32.726562 25.953125 32.726562 26.289062 C 32.726562 26.625 32.460938 26.898438 32.125 26.898438 Z M 32.125 22.96875 L 13.667969 22.96875 C 13.332031 22.96875 13.058594 22.695312 13.058594 22.359375 C 13.058594 22.023438 13.332031 21.746094 13.667969 21.746094 L 32.121094 21.746094 C 32.453125 21.746094 32.726562 22.023438 32.726562 22.359375 C 32.726562 22.695312 32.460938 22.96875 32.125 22.96875 Z M 32.125 19.039062 L 13.667969 19.039062 C 13.332031 19.039062 13.058594 18.761719 13.058594 18.425781 C 13.058594 18.089844 13.332031 17.816406 13.667969 17.816406 L 32.121094 17.816406 C 32.453125 17.816406 32.726562 18.089844 32.726562 18.425781 C 32.726562 18.761719 32.460938 19.039062 32.125 19.039062 Z M 32.125 15.105469 L 13.667969 15.105469 C 13.332031 15.105469 13.058594 14.832031 13.058594 14.496094 C 13.058594 14.160156 13.332031 13.882812 13.667969 13.882812 L 32.121094 13.882812 C 32.453125 13.882812 32.726562 14.160156 32.726562 14.496094 C 32.726562 14.832031 32.460938 15.105469 32.125 15.105469 Z M 32.125 15.105469 " fill-opacity="1" fill-rule="nonzero"/></g></svg>