<svg width="22" height="23" viewBox="0 0 22 23" fill="none" xmlns="http://www.w3.org/2000/svg">
<path fill-rule="evenodd" clip-rule="evenodd" d="M2.70426 19.9896C2.81364 19.3959 3.23551 18.0157 3.43864 17.2917C3.56885 16.8073 3.65739 16.8229 3.42822 16.4479C-1.16553 9.03649 6.16781 0.19274 14.3241 3.38545C15.5324 3.8542 16.4022 4.55211 17.1418 5.24482C18.5532 6.56774 19.9074 8.92711 19.8449 11.8282C19.6991 18.6042 12.272 22.8073 6.38656 19.3073C5.90218 19.0209 5.58968 19.2396 4.56885 19.5104C4.00635 19.6615 3.26676 19.9011 2.70426 19.9896ZM0.136555 22.5313C0.771973 22.4427 1.74593 22.1302 2.39697 21.9584C3.17301 21.7552 3.91781 21.5573 4.67822 21.3542C6.05843 20.9844 5.59489 21.0209 6.79801 21.5365C11.0011 23.3438 15.1782 22.1094 18.1366 19.5729C18.5168 19.2448 18.8709 18.8959 19.1991 18.474C20.6001 16.6823 21.4907 14.7709 21.6418 12.2865C21.7876 9.9167 21.0845 7.36462 19.7772 5.55211L18.8241 4.34378C18.6938 4.20836 18.5741 4.14587 18.4491 4.00524C18.0636 3.56253 17.4438 3.08337 16.9126 2.71878C11.0428 -1.25518 2.74593 1.55212 0.641765 8.62503C0.162597 10.224 0.0688477 12.0209 0.402181 13.7032C0.56364 14.5261 0.782389 15.1927 1.08447 15.9063C1.59489 17.1094 1.74593 16.5886 1.36051 17.9896C1.1626 18.7344 0.949056 19.5104 0.74593 20.25C0.548014 20.9584 0.256348 21.8386 0.131348 22.5365L0.136555 22.5313Z" fill="#1D1D1F"/>
<path fill-rule="evenodd" clip-rule="evenodd" d="M6.97504 6.70307C6.60004 6.78641 6.37087 7.0312 6.13649 7.33328C5.34483 8.3437 5.32399 9.54162 5.81358 10.6979C6.41253 12.1354 7.80316 13.7291 9.00629 14.7656C10.1677 15.7656 12.6782 16.9322 14.2355 16.7552C15.4177 16.6249 16.3448 15.7708 16.3761 14.5208C16.3865 14.0104 16.0948 14.0052 15.673 13.802C15.3448 13.6406 13.923 12.8593 13.5896 12.9791C13.4438 13.0312 12.8344 13.8645 12.5792 14.1406C12.4594 14.2708 12.3657 14.3802 12.1052 14.3177C10.9594 14.0364 9.51149 12.7552 8.79274 11.7968C7.9542 10.677 8.19899 10.9218 8.84483 10.0468C9.10524 9.69787 9.21983 9.45828 9.02191 8.99474C8.86566 8.63536 8.73024 8.28641 8.58441 7.93224C8.24587 7.11974 8.16253 6.44266 6.97504 6.70828V6.70307Z" fill="#1D1D1F"/>
</svg>
