<svg xmlns="http://www.w3.org/2000/svg" xmlns:xlink="http://www.w3.org/1999/xlink" width="450" zoomAndPan="magnify" viewBox="0 0 337.5 89.999999" height="120" preserveAspectRatio="xMidYMid meet" version="1.0"><defs><g/><clipPath id="db4c7a9456"><path d="M 37 0.480469 L 45 0.480469 L 45 71.714844 L 37 71.714844 Z M 37 0.480469 " clip-rule="nonzero"/></clipPath><clipPath id="6853ee81ba"><path d="M 25 23 L 51 23 L 51 71.714844 L 25 71.714844 Z M 25 23 " clip-rule="nonzero"/></clipPath><clipPath id="efc87dd7d1"><path d="M 31 23 L 57 23 L 57 71.714844 L 31 71.714844 Z M 31 23 " clip-rule="nonzero"/></clipPath><clipPath id="a04886e741"><path d="M 43 2 L 81.921875 2 L 81.921875 24 L 43 24 Z M 43 2 " clip-rule="nonzero"/></clipPath><clipPath id="6207b975fe"><path d="M 59 32 L 98.886719 32 L 98.886719 51 L 59 51 Z M 59 32 " clip-rule="nonzero"/></clipPath><clipPath id="aab309ef13"><path d="M 59 51 L 98.886719 51 L 98.886719 61 L 59 61 Z M 59 51 " clip-rule="nonzero"/></clipPath><clipPath id="8cc1a77cde"><path d="M 59 41 L 98.886719 41 L 98.886719 71.160156 L 59 71.160156 Z M 59 41 " clip-rule="nonzero"/></clipPath><clipPath id="bab458bcbe"><path d="M 38.335938 14.167969 L 92 14.167969 L 92 67 L 38.335938 67 Z M 38.335938 14.167969 " clip-rule="nonzero"/></clipPath></defs><g clip-path="url(#db4c7a9456)"><path fill="#3a435e" d="M 44.726562 4.214844 C 44.726562 2.152344 43.039062 0.476562 40.960938 0.476562 C 38.882812 0.476562 37.199219 2.152344 37.199219 4.214844 C 37.199219 5.660156 38.023438 6.910156 39.226562 7.535156 L 37.84375 7.535156 L 37.84375 8.640625 L 38.328125 8.640625 L 39.085938 11.03125 L 38.957031 11.03125 L 38.957031 11.886719 L 39.386719 11.886719 L 40.476562 71.246094 C 40.480469 71.507812 40.699219 71.71875 40.960938 71.71875 C 41.226562 71.71875 41.441406 71.507812 41.445312 71.246094 L 42.539062 11.886719 L 42.96875 11.886719 L 42.96875 11.03125 L 42.835938 11.03125 L 43.59375 8.640625 L 44.078125 8.640625 L 44.078125 7.535156 L 42.695312 7.535156 C 43.902344 6.910156 44.726562 5.660156 44.726562 4.214844 " fill-opacity="1" fill-rule="nonzero"/></g><g clip-path="url(#6853ee81ba)"><path fill="#3a435e" d="M 36.105469 24.621094 C 36.808594 25.601562 38.324219 24.976562 37.964844 26.175781 C 37.605469 27.378906 36.167969 28.125 34.210938 28.027344 C 32.25 27.929688 31.792969 27.28125 31.136719 27.671875 C 30.484375 28.058594 30.875 28.320312 31.726562 28.707031 C 32.574219 29.097656 45.152344 33.675781 47.113281 34.746094 C 49.074219 35.816406 50.257812 36.503906 50.445312 39.355469 C 50.792969 44.585938 35.589844 45.914062 35.589844 51.007812 C 35.589844 54.210938 45.035156 56.746094 45.035156 61.679688 C 45.035156 63.808594 40.554688 66.277344 40.386719 67.949219 C 40.148438 70.308594 41.671875 71.089844 41.234375 71.359375 C 40.960938 71.527344 39.585938 70.609375 39.304688 69.769531 C 38.140625 66.273438 43.34375 63.816406 43.390625 61.753906 C 43.441406 59.261719 33.6875 55.550781 33.359375 52.695312 C 33.03125 49.839844 33 46.203125 40.5 43.414062 C 47.996094 40.621094 47.929688 39.710938 47.734375 39.0625 C 47.539062 38.414062 46.328125 37.308594 43.78125 36.5 C 41.234375 35.6875 30.679688 31.890625 28.753906 31.144531 C 26.824219 30.398438 25.160156 28.9375 25.488281 27.214844 C 25.8125 25.496094 28.222656 24.128906 31.953125 24.230469 C 33.359375 24.265625 33.164062 23.515625 34.339844 23.742188 C 35.515625 23.96875 35.777344 24.164062 36.105469 24.621094 " fill-opacity="1" fill-rule="nonzero"/></g><g clip-path="url(#efc87dd7d1)"><path fill="#3a435e" d="M 45.820312 24.621094 C 45.113281 25.601562 43.597656 24.976562 43.957031 26.175781 C 44.316406 27.378906 45.753906 28.125 47.714844 28.027344 C 49.675781 27.929688 50.132812 27.28125 50.785156 27.671875 C 51.4375 28.058594 51.046875 28.320312 50.195312 28.707031 C 49.347656 29.097656 36.769531 33.675781 34.808594 34.746094 C 32.847656 35.816406 31.667969 36.503906 31.476562 39.355469 C 31.128906 44.585938 46.332031 45.914062 46.332031 51.007812 C 46.332031 54.210938 36.886719 56.746094 36.886719 61.679688 C 36.886719 63.808594 41.367188 66.277344 41.535156 67.949219 C 41.773438 70.308594 40.25 71.089844 40.691406 71.359375 C 40.964844 71.527344 42.339844 70.609375 42.617188 69.769531 C 43.78125 66.273438 38.578125 63.816406 38.535156 61.753906 C 38.480469 59.261719 48.238281 55.550781 48.5625 52.695312 C 48.890625 49.839844 48.921875 46.203125 41.425781 43.414062 C 33.925781 40.621094 33.992188 39.710938 34.1875 39.0625 C 34.386719 38.414062 35.59375 37.308594 38.140625 36.5 C 40.691406 35.6875 51.242188 31.890625 53.167969 31.144531 C 55.097656 30.398438 56.761719 28.9375 56.4375 27.214844 C 56.109375 25.496094 53.699219 24.128906 49.96875 24.230469 C 48.5625 24.265625 48.757812 23.515625 47.582031 23.742188 C 46.40625 23.96875 46.144531 24.164062 45.820312 24.621094 " fill-opacity="1" fill-rule="nonzero"/></g><g clip-path="url(#a04886e741)"><path fill="#3a435e" d="M 81.886719 10.160156 C 78.050781 10.523438 68.089844 7.375 68.089844 7.375 C 68.089844 7.375 68.460938 7.300781 69.34375 6.933594 C 67.28125 7.007812 61.15625 4.441406 59.976562 3.929688 C 58.796875 3.414062 55.996094 1.804688 52.160156 3.5625 C 48.324219 5.320312 49.0625 8.765625 48.027344 10.453125 C 46.996094 12.136719 45.960938 12.722656 43.085938 12.945312 L 43.085938 17.558594 C 46.550781 24.523438 49.652344 22.910156 49.652344 22.910156 C 49.652344 22.910156 49.355469 22.472656 48.027344 20.636719 C 49.652344 22.910156 53.191406 22.324219 53.191406 22.324219 C 53.191406 22.324219 53.191406 22.324219 51.421875 20.34375 C 53.632812 22.398438 56.660156 21.519531 56.660156 21.519531 C 56.660156 21.519531 55.625 20.492188 54.667969 19.320312 C 58.503906 21.8125 61.527344 20.125 61.527344 20.125 C 61.527344 20.125 61.527344 20.125 58.945312 18.511719 C 63.738281 20.785156 66.835938 18.511719 66.835938 18.511719 C 66.835938 18.511719 66.320312 18.367188 64.625 17.414062 C 68.238281 18.511719 70.601562 17.121094 71.484375 16.023438 C 71.484375 16.023438 70.96875 16.09375 68.976562 15.214844 C 75.542969 16.535156 76.058594 13.238281 76.058594 13.238281 C 76.058594 13.238281 76.058594 13.238281 73.625 12.429688 C 75.910156 12.503906 80.410156 11.84375 81.886719 10.160156 " fill-opacity="1" fill-rule="nonzero"/></g><path fill="#3a435e" d="M 0.0351562 10.160156 C 3.871094 10.523438 13.832031 7.375 13.832031 7.375 C 13.832031 7.375 13.460938 7.300781 12.578125 6.933594 C 14.644531 7.007812 20.765625 4.441406 21.945312 3.929688 C 23.125 3.414062 25.929688 1.804688 29.765625 3.5625 C 33.601562 5.320312 32.863281 8.765625 33.894531 10.453125 C 34.929688 12.136719 35.960938 12.722656 38.835938 12.945312 L 38.835938 17.558594 C 35.371094 24.523438 32.273438 22.910156 32.273438 22.910156 C 32.273438 22.910156 32.566406 22.472656 33.894531 20.636719 C 32.273438 22.910156 28.730469 22.324219 28.730469 22.324219 C 28.730469 22.324219 28.730469 22.324219 30.503906 20.34375 C 28.289062 22.398438 25.265625 21.519531 25.265625 21.519531 C 25.265625 21.519531 26.296875 20.492188 27.257812 19.320312 C 23.421875 21.8125 20.398438 20.125 20.398438 20.125 C 20.398438 20.125 20.398438 20.125 22.976562 18.511719 C 18.183594 20.785156 15.085938 18.511719 15.085938 18.511719 C 15.085938 18.511719 15.601562 18.367188 17.296875 17.414062 C 13.683594 18.511719 11.324219 17.121094 10.4375 16.023438 C 10.4375 16.023438 10.953125 16.09375 12.945312 15.214844 C 6.382812 16.535156 5.863281 13.238281 5.863281 13.238281 C 5.863281 13.238281 5.863281 13.238281 8.300781 12.429688 C 6.011719 12.503906 1.511719 11.84375 0.0351562 10.160156 " fill-opacity="1" fill-rule="nonzero"/><g clip-path="url(#6207b975fe)"><path fill="#3a435e" d="M 64.804688 41.417969 C 64.804688 41.417969 64.804688 41.414062 64.808594 41.402344 C 64.808594 41.414062 64.804688 41.417969 64.804688 41.417969 Z M 64.820312 41.371094 C 64.851562 41.296875 64.957031 41.128906 65.246094 40.867188 C 65.769531 40.398438 66.679688 39.851562 68.035156 39.335938 C 70.730469 38.316406 74.640625 37.625 79.09375 37.625 C 83.550781 37.625 87.460938 38.316406 90.15625 39.335938 C 91.511719 39.851562 92.421875 40.398438 92.941406 40.867188 C 93.234375 41.128906 93.335938 41.296875 93.371094 41.371094 C 93.335938 41.449219 93.234375 41.617188 92.941406 41.878906 C 92.421875 42.347656 91.511719 42.894531 90.15625 43.410156 C 87.460938 44.429688 83.550781 45.121094 79.09375 45.121094 C 74.640625 45.121094 70.730469 44.429688 68.035156 43.410156 C 66.679688 42.894531 65.769531 42.347656 65.246094 41.878906 C 64.957031 41.617188 64.851562 41.449219 64.820312 41.371094 Z M 93.386719 41.417969 C 93.386719 41.417969 93.382812 41.414062 93.382812 41.402344 C 93.386719 41.414062 93.386719 41.417969 93.386719 41.417969 Z M 93.382812 41.339844 C 93.382812 41.332031 93.386719 41.328125 93.386719 41.328125 C 93.386719 41.328125 93.386719 41.332031 93.382812 41.339844 Z M 64.808594 41.339844 C 64.804688 41.332031 64.804688 41.328125 64.804688 41.328125 C 64.804688 41.328125 64.808594 41.332031 64.808594 41.339844 Z M 66.058594 34.273438 C 69.53125 32.957031 74.140625 32.199219 79.09375 32.199219 C 84.050781 32.199219 88.660156 32.957031 92.132812 34.273438 C 93.859375 34.925781 95.445312 35.773438 96.648438 36.851562 C 97.851562 37.929688 98.886719 39.453125 98.886719 41.371094 C 98.886719 43.292969 97.851562 44.816406 96.648438 45.894531 C 95.445312 46.972656 93.859375 47.820312 92.132812 48.472656 C 88.660156 49.789062 84.050781 50.546875 79.09375 50.546875 C 74.140625 50.546875 69.53125 49.789062 66.058594 48.472656 C 64.332031 47.820312 62.746094 46.972656 61.542969 45.894531 C 60.339844 44.816406 59.304688 43.292969 59.304688 41.371094 C 59.304688 39.453125 60.339844 37.929688 61.542969 36.851562 C 62.746094 35.773438 64.332031 34.925781 66.058594 34.273438 Z M 66.058594 34.273438 " fill-opacity="1" fill-rule="evenodd"/></g><g clip-path="url(#aab309ef13)"><path fill="#3a435e" d="M 93.382812 51.679688 C 93.382812 51.683594 93.382812 51.695312 93.382812 51.707031 L 98.886719 51.707031 C 98.886719 53.628906 97.851562 55.152344 96.648438 56.230469 C 95.445312 57.308594 93.859375 58.15625 92.132812 58.808594 C 88.660156 60.125 84.050781 60.882812 79.09375 60.882812 C 74.140625 60.882812 69.53125 60.125 66.058594 58.808594 C 64.332031 58.15625 62.746094 57.308594 61.542969 56.230469 C 60.339844 55.152344 59.304688 53.628906 59.304688 51.707031 L 64.808594 51.707031 C 64.808594 51.695312 64.808594 51.683594 64.808594 51.679688 C 64.824219 51.726562 64.902344 51.90625 65.246094 52.214844 C 65.769531 52.683594 66.679688 53.230469 68.035156 53.746094 C 70.730469 54.765625 74.640625 55.457031 79.09375 55.457031 C 83.550781 55.457031 87.460938 54.765625 90.15625 53.746094 C 91.511719 53.230469 92.421875 52.683594 92.941406 52.214844 C 93.289062 51.90625 93.367188 51.726562 93.382812 51.679688 Z M 93.386719 51.664062 C 93.386719 51.664062 93.386719 51.667969 93.382812 51.679688 C 93.382812 51.667969 93.386719 51.664062 93.386719 51.664062 Z M 64.804688 51.664062 C 64.804688 51.664062 64.808594 51.667969 64.808594 51.679688 C 64.804688 51.667969 64.804688 51.664062 64.804688 51.664062 Z M 64.804688 51.664062 " fill-opacity="1" fill-rule="evenodd"/></g><g clip-path="url(#8cc1a77cde)"><path fill="#3a435e" d="M 64.808594 62.019531 L 64.808594 41.371094 L 59.304688 41.371094 L 59.304688 62.046875 C 59.304688 63.964844 60.339844 65.488281 61.542969 66.566406 C 62.746094 67.644531 64.332031 68.492188 66.058594 69.144531 C 69.53125 70.460938 74.140625 71.21875 79.09375 71.21875 C 84.050781 71.21875 88.660156 70.460938 92.132812 69.144531 C 93.859375 68.492188 95.445312 67.644531 96.648438 66.566406 C 97.851562 65.488281 98.886719 63.964844 98.886719 62.046875 L 98.886719 41.371094 L 93.382812 41.371094 L 93.382812 62.019531 C 93.363281 62.074219 93.277344 62.253906 92.941406 62.550781 C 92.421875 63.019531 91.511719 63.566406 90.15625 64.082031 C 87.460938 65.101562 83.550781 65.792969 79.09375 65.792969 C 74.640625 65.792969 70.730469 65.101562 68.035156 64.082031 C 66.679688 63.566406 65.769531 63.019531 65.246094 62.550781 C 64.914062 62.253906 64.828125 62.074219 64.808594 62.019531 Z M 93.386719 62 C 93.386719 62 93.386719 62.003906 93.382812 62.015625 C 93.382812 62.003906 93.386719 62 93.386719 62 Z M 64.808594 62.015625 C 64.804688 62.003906 64.804688 62 64.804688 62 C 64.804688 62 64.808594 62.003906 64.808594 62.015625 Z M 64.808594 62.015625 " fill-opacity="1" fill-rule="evenodd"/></g><g clip-path="url(#bab458bcbe)"><path fill="#3a435e" d="M 38.335938 16.824219 C 38.335938 15.328125 39.566406 14.113281 41.085938 14.113281 L 55.242188 14.113281 C 56.148438 14.113281 57 14.550781 57.511719 15.289062 L 61.410156 20.894531 L 88.269531 20.894531 C 89.789062 20.894531 91.023438 22.109375 91.023438 23.609375 L 91.023438 29.746094 L 85.519531 29.746094 L 85.519531 26.320312 L 59.960938 26.320312 C 59.050781 26.320312 58.203125 25.878906 57.691406 25.140625 L 53.792969 19.539062 L 43.839844 19.539062 L 43.839844 60.625 L 55.503906 60.625 L 55.503906 66.050781 L 41.085938 66.050781 C 39.566406 66.050781 38.335938 64.835938 38.335938 63.335938 Z M 38.335938 16.824219 " fill-opacity="1" fill-rule="evenodd"/></g><g fill="#ffffff" fill-opacity="1"><g transform="translate(3.912914, 86.566573)"><g><path d="M 8.53125 -3.597656 C 8.53125 -4.257812 8.628906 -4.769531 9.007812 -4.769531 C 9.257812 -4.769531 9.339844 -4.6875 9.519531 -4.6875 C 9.917969 -4.6875 10.132812 -4.902344 10.132812 -5.261719 C 10.132812 -5.660156 9.898438 -5.839844 9.421875 -5.839844 C 8.960938 -5.839844 8.710938 -5.824219 8.070312 -5.824219 L 5.921875 -5.824219 C 5.558594 -5.824219 5.214844 -5.644531 5.214844 -5.246094 C 5.214844 -4.882812 5.429688 -4.667969 5.824219 -4.667969 C 6.121094 -4.667969 6.386719 -4.753906 6.632812 -4.753906 C 7.34375 -4.753906 7.410156 -4.421875 7.410156 -3.945312 C 7.410156 -3.019531 6.765625 -1.039062 5.015625 -1.039062 C 3.285156 -1.039062 2.425781 -2.34375 2.425781 -5.773438 C 2.425781 -9.074219 3.285156 -10.378906 5.179688 -10.378906 C 6.367188 -10.378906 7.078125 -9.785156 7.128906 -8.644531 C 7.144531 -8.414062 7.144531 -8.183594 7.160156 -7.953125 C 7.210938 -7.457031 7.226562 -7.160156 7.65625 -7.113281 C 7.96875 -7.078125 8.234375 -7.226562 8.28125 -7.722656 C 8.398438 -8.910156 8.515625 -9.964844 8.644531 -10.957031 C 8.695312 -11.320312 8.5625 -11.582031 8.167969 -11.617188 C 7.835938 -11.648438 7.6875 -11.484375 7.621094 -11.269531 C 7.539062 -10.972656 7.359375 -10.890625 7.195312 -10.890625 C 6.863281 -10.890625 6.269531 -11.535156 4.964844 -11.535156 C 2.953125 -11.535156 0.972656 -10.492188 0.972656 -5.773438 C 0.972656 -0.925781 2.953125 0.117188 4.734375 0.117188 C 6.269531 0.117188 6.566406 -0.628906 7.144531 -0.628906 C 7.375 -0.628906 7.492188 -0.496094 7.589844 -0.246094 C 7.65625 -0.0664062 7.835938 0.148438 8.117188 0.148438 C 8.414062 0.148438 8.628906 -0.0507812 8.628906 -0.347656 C 8.628906 -1.054688 8.53125 -1.648438 8.53125 -3.597656 Z M 8.53125 -3.597656 "/></g></g></g><g fill="#ffffff" fill-opacity="1"><g transform="translate(15.133006, 86.566573)"><g><path d="M 8.050781 -4.703125 C 8.050781 -7.789062 6.238281 -8.695312 4.4375 -8.695312 C 2.640625 -8.695312 0.824219 -7.789062 0.824219 -4.371094 C 0.824219 -0.691406 2.625 0.0976562 4.585938 0.0976562 C 6.269531 0.0976562 7.804688 -1.007812 7.902344 -2.390625 C 7.9375 -2.855469 7.738281 -3.152344 7.242188 -3.152344 C 6.730469 -3.152344 6.601562 -2.820312 6.515625 -2.375 C 6.402344 -1.765625 5.742188 -1.023438 4.585938 -1.023438 C 3.019531 -1.023438 2.179688 -2.113281 2.195312 -3.925781 L 7.308594 -3.925781 C 7.789062 -3.925781 8.050781 -4.191406 8.050781 -4.667969 Z M 4.4375 -7.574219 C 5.875 -7.574219 6.648438 -6.550781 6.648438 -5.050781 L 2.210938 -5.050781 C 2.210938 -6.648438 3.070312 -7.574219 4.4375 -7.574219 Z M 4.4375 -7.574219 "/></g></g></g><g fill="#ffffff" fill-opacity="1"><g transform="translate(24.703079, 86.566573)"><g><path d="M 4.835938 -1.023438 C 6.269531 -1.023438 7.027344 -1.519531 7.027344 -2.328125 C 7.027344 -3.167969 6.5 -3.496094 4.785156 -3.746094 C 2.539062 -4.074219 1.335938 -4.800781 1.335938 -6.253906 C 1.335938 -7.707031 2.753906 -8.664062 4.554688 -8.664062 C 5.347656 -8.664062 5.792969 -8.53125 6.304688 -8.316406 C 6.648438 -8.167969 6.898438 -8.117188 6.980469 -8.398438 C 7.027344 -8.546875 7.175781 -8.730469 7.507812 -8.679688 C 7.855469 -8.628906 8.019531 -8.414062 7.984375 -8.117188 C 7.902344 -7.195312 7.804688 -6.417969 7.738281 -5.691406 C 7.6875 -5.214844 7.523438 -5.066406 7.210938 -5.066406 C 6.78125 -5.066406 6.632812 -5.28125 6.632812 -5.726562 C 6.632812 -5.988281 6.714844 -6.203125 6.714844 -6.484375 C 6.714844 -6.566406 6.699219 -6.648438 6.683594 -6.730469 C 6.550781 -7.359375 5.496094 -7.574219 4.554688 -7.574219 C 3.398438 -7.574219 2.691406 -7.0625 2.691406 -6.320312 C 2.691406 -5.410156 3.316406 -5.113281 4.949219 -4.851562 C 7.292969 -4.472656 8.414062 -3.925781 8.414062 -2.425781 C 8.414062 -0.890625 6.945312 0.0507812 4.949219 0.0507812 C 3.960938 0.0507812 3.117188 -0.214844 2.625 -0.445312 C 2.261719 -0.609375 2.0625 -0.59375 2.0625 -0.265625 C 2.0625 -0.0507812 1.914062 0.164062 1.585938 0.164062 C 1.089844 0.164062 1.039062 -0.164062 1.007812 -0.660156 C 0.957031 -1.351562 0.890625 -2.425781 0.890625 -2.988281 C 0.890625 -3.433594 1.023438 -3.628906 1.453125 -3.628906 C 1.796875 -3.628906 1.980469 -3.414062 1.996094 -2.96875 C 2.011719 -2.640625 1.964844 -2.277344 2.179688 -1.945312 C 2.476562 -1.484375 3.777344 -1.023438 4.835938 -1.023438 Z M 4.835938 -1.023438 "/></g></g></g><g fill="#ffffff" fill-opacity="1"><g transform="translate(34.834159, 86.566573)"><g><path d="M 6.054688 -3.777344 C 5.542969 -3.777344 5.347656 -3.449219 5.347656 -3.003906 C 5.347656 -2.078125 5.230469 -1.023438 4.257812 -1.023438 C 3.5625 -1.023438 3.199219 -1.320312 3.199219 -2.722656 L 3.136719 -7.574219 L 4.949219 -7.574219 C 5.296875 -7.574219 5.558594 -7.789062 5.558594 -8.085938 C 5.558594 -8.382812 5.296875 -8.597656 4.949219 -8.597656 L 3.136719 -8.597656 L 3.101562 -10.675781 C 3.101562 -11.171875 2.855469 -11.417969 2.457031 -11.417969 C 2.128906 -11.417969 1.898438 -11.152344 1.898438 -10.675781 L 1.898438 -8.597656 L 0.957031 -8.597656 C 0.609375 -8.597656 0.347656 -8.382812 0.347656 -8.085938 C 0.347656 -7.789062 0.609375 -7.574219 0.957031 -7.574219 L 1.898438 -7.574219 L 1.898438 -2.722656 C 1.898438 -0.199219 3.285156 0.0976562 4.257812 0.0976562 C 5.921875 0.0976562 6.714844 -1.320312 6.714844 -3.019531 C 6.714844 -3.480469 6.550781 -3.777344 6.054688 -3.777344 Z M 6.054688 -3.777344 "/></g></g></g><g fill="#ffffff" fill-opacity="1"><g transform="translate(42.721229, 86.566573)"><g><path d="M 4.421875 0.0976562 C 6.21875 0.0976562 8.019531 -0.691406 8.019531 -4.371094 C 8.019531 -7.953125 6.21875 -8.695312 4.421875 -8.695312 C 2.625 -8.695312 0.824219 -7.953125 0.824219 -4.371094 C 0.824219 -0.691406 2.625 0.0976562 4.421875 0.0976562 Z M 4.421875 -1.023438 C 2.902344 -1.023438 2.210938 -2.113281 2.210938 -4.371094 C 2.210938 -6.550781 2.871094 -7.574219 4.421875 -7.574219 C 5.972656 -7.574219 6.632812 -6.550781 6.632812 -4.371094 C 6.632812 -2.113281 5.941406 -1.023438 4.421875 -1.023438 Z M 4.421875 -1.023438 "/></g></g></g><g fill="#ffffff" fill-opacity="1"><g transform="translate(52.258322, 86.566573)"><g><path d="M 6.089844 -8.695312 C 5.199219 -8.695312 4.355469 -8.429688 3.761719 -7.6875 L 3.761719 -7.953125 C 3.761719 -8.515625 3.53125 -8.597656 3.136719 -8.597656 C 2.988281 -8.597656 2.855469 -8.597656 2.640625 -8.597656 L 1.484375 -8.597656 C 1.121094 -8.597656 0.757812 -8.515625 0.757812 -8.019531 C 0.757812 -7.707031 0.988281 -7.441406 1.386719 -7.441406 C 1.683594 -7.441406 1.796875 -7.523438 2.046875 -7.523438 C 2.375 -7.523438 2.492188 -7.242188 2.492188 -6.832031 L 2.492188 -1.765625 C 2.492188 -1.351562 2.375 -1.074219 1.882812 -1.074219 C 1.632812 -1.074219 1.519531 -1.15625 1.222656 -1.15625 C 0.824219 -1.15625 0.609375 -0.941406 0.609375 -0.5625 C 0.609375 -0.148438 0.957031 0 1.320312 0 L 4.933594 0 C 5.296875 0 5.644531 -0.148438 5.644531 -0.5625 C 5.644531 -0.941406 5.429688 -1.15625 5.03125 -1.15625 C 4.734375 -1.15625 4.621094 -1.074219 4.371094 -1.074219 C 3.878906 -1.074219 3.761719 -1.351562 3.761719 -1.765625 L 3.761719 -5.3125 C 3.945312 -6.847656 4.601562 -7.574219 5.890625 -7.574219 C 6.699219 -7.574219 7.308594 -7.160156 7.308594 -6.601562 C 7.308594 -6.453125 7.175781 -6.253906 7.175781 -5.90625 C 7.175781 -5.527344 7.472656 -5.179688 7.953125 -5.179688 C 8.515625 -5.179688 8.878906 -5.578125 8.878906 -6.238281 C 8.878906 -7.671875 7.707031 -8.695312 6.089844 -8.695312 Z M 6.089844 -8.695312 "/></g></g></g><g fill="#ffffff" fill-opacity="1"><g transform="translate(62.290417, 86.566573)"><g/></g></g><g fill="#ffffff" fill-opacity="1"><g transform="translate(68.758469, 86.566573)"><g><path d="M 9.222656 -1.15625 C 8.925781 -1.15625 8.8125 -1.074219 8.5625 -1.074219 C 8.234375 -1.074219 8.117188 -1.351562 8.117188 -1.765625 L 8.117188 -10.773438 C 8.117188 -11.335938 7.886719 -11.417969 7.492188 -11.417969 C 7.34375 -11.417969 7.210938 -11.417969 6.996094 -11.417969 L 5.839844 -11.417969 C 5.476562 -11.417969 5.113281 -11.335938 5.113281 -10.839844 C 5.113281 -10.527344 5.347656 -10.261719 5.742188 -10.261719 C 6.039062 -10.261719 6.15625 -10.34375 6.402344 -10.34375 C 6.730469 -10.34375 6.847656 -10.066406 6.847656 -9.652344 L 6.847656 -7.6875 C 6.269531 -8.429688 5.394531 -8.695312 4.355469 -8.695312 C 2.839844 -8.695312 1.039062 -7.953125 1.039062 -4.371094 C 1.039062 -0.691406 2.839844 0.0976562 4.355469 0.0976562 C 5.394531 0.0976562 6.269531 -0.164062 6.847656 -0.957031 L 6.847656 -0.644531 C 6.847656 -0.0820312 7.078125 0 7.472656 0 C 7.621094 0 7.753906 0 7.96875 0 L 9.125 0 C 9.488281 0 9.851562 -0.0820312 9.851562 -0.578125 C 9.851562 -0.890625 9.621094 -1.15625 9.222656 -1.15625 Z M 4.636719 -1.023438 C 3.117188 -1.023438 2.425781 -2.113281 2.425781 -4.371094 C 2.425781 -6.550781 3.085938 -7.574219 4.636719 -7.574219 C 6.1875 -7.574219 6.847656 -6.550781 6.847656 -4.371094 C 6.847656 -2.113281 6.15625 -1.023438 4.636719 -1.023438 Z M 4.636719 -1.023438 "/></g></g></g><g fill="#ffffff" fill-opacity="1"><g transform="translate(79.978565, 86.566573)"><g><path d="M 8.050781 -4.703125 C 8.050781 -7.789062 6.238281 -8.695312 4.4375 -8.695312 C 2.640625 -8.695312 0.824219 -7.789062 0.824219 -4.371094 C 0.824219 -0.691406 2.625 0.0976562 4.585938 0.0976562 C 6.269531 0.0976562 7.804688 -1.007812 7.902344 -2.390625 C 7.9375 -2.855469 7.738281 -3.152344 7.242188 -3.152344 C 6.730469 -3.152344 6.601562 -2.820312 6.515625 -2.375 C 6.402344 -1.765625 5.742188 -1.023438 4.585938 -1.023438 C 3.019531 -1.023438 2.179688 -2.113281 2.195312 -3.925781 L 7.308594 -3.925781 C 7.789062 -3.925781 8.050781 -4.191406 8.050781 -4.667969 Z M 4.4375 -7.574219 C 5.875 -7.574219 6.648438 -6.550781 6.648438 -5.050781 L 2.210938 -5.050781 C 2.210938 -6.648438 3.070312 -7.574219 4.4375 -7.574219 Z M 4.4375 -7.574219 "/></g></g></g><g fill="#ffffff" fill-opacity="1"><g transform="translate(89.548639, 86.566573)"><g/></g></g><g fill="#ffffff" fill-opacity="1"><g transform="translate(96.016692, 86.566573)"><g><path d="M 9.222656 -1.15625 C 8.925781 -1.15625 8.8125 -1.074219 8.5625 -1.074219 C 8.234375 -1.074219 8.117188 -1.351562 8.117188 -1.765625 L 8.117188 -10.773438 C 8.117188 -11.335938 7.886719 -11.417969 7.492188 -11.417969 C 7.34375 -11.417969 7.210938 -11.417969 6.996094 -11.417969 L 5.839844 -11.417969 C 5.476562 -11.417969 5.113281 -11.335938 5.113281 -10.839844 C 5.113281 -10.527344 5.347656 -10.261719 5.742188 -10.261719 C 6.039062 -10.261719 6.15625 -10.34375 6.402344 -10.34375 C 6.730469 -10.34375 6.847656 -10.066406 6.847656 -9.652344 L 6.847656 -7.6875 C 6.269531 -8.429688 5.394531 -8.695312 4.355469 -8.695312 C 2.839844 -8.695312 1.039062 -7.953125 1.039062 -4.371094 C 1.039062 -0.691406 2.839844 0.0976562 4.355469 0.0976562 C 5.394531 0.0976562 6.269531 -0.164062 6.847656 -0.957031 L 6.847656 -0.644531 C 6.847656 -0.0820312 7.078125 0 7.472656 0 C 7.621094 0 7.753906 0 7.96875 0 L 9.125 0 C 9.488281 0 9.851562 -0.0820312 9.851562 -0.578125 C 9.851562 -0.890625 9.621094 -1.15625 9.222656 -1.15625 Z M 4.636719 -1.023438 C 3.117188 -1.023438 2.425781 -2.113281 2.425781 -4.371094 C 2.425781 -6.550781 3.085938 -7.574219 4.636719 -7.574219 C 6.1875 -7.574219 6.847656 -6.550781 6.847656 -4.371094 C 6.847656 -2.113281 6.15625 -1.023438 4.636719 -1.023438 Z M 4.636719 -1.023438 "/></g></g></g><g fill="#ffffff" fill-opacity="1"><g transform="translate(107.236782, 86.566573)"><g><path d="M 4.421875 0.0976562 C 6.21875 0.0976562 8.019531 -0.691406 8.019531 -4.371094 C 8.019531 -7.953125 6.21875 -8.695312 4.421875 -8.695312 C 2.625 -8.695312 0.824219 -7.953125 0.824219 -4.371094 C 0.824219 -0.691406 2.625 0.0976562 4.421875 0.0976562 Z M 4.421875 -1.023438 C 2.902344 -1.023438 2.210938 -2.113281 2.210938 -4.371094 C 2.210938 -6.550781 2.871094 -7.574219 4.421875 -7.574219 C 5.972656 -7.574219 6.632812 -6.550781 6.632812 -4.371094 C 6.632812 -2.113281 5.941406 -1.023438 4.421875 -1.023438 Z M 4.421875 -1.023438 "/></g></g></g><g fill="#ffffff" fill-opacity="1"><g transform="translate(116.77387, 86.566573)"><g><path d="M 4.585938 -1.023438 C 2.902344 -1.023438 2.210938 -2.113281 2.210938 -4.371094 C 2.210938 -6.386719 2.886719 -7.574219 4.4375 -7.574219 C 5.378906 -7.574219 5.988281 -7.160156 5.988281 -6.601562 C 5.988281 -6.453125 5.859375 -6.253906 5.859375 -5.90625 C 5.859375 -5.527344 6.15625 -5.179688 6.632812 -5.179688 C 7.195312 -5.179688 7.558594 -5.578125 7.558594 -6.238281 C 7.558594 -7.671875 6.386719 -8.695312 4.4375 -8.695312 C 2.640625 -8.695312 0.824219 -7.789062 0.824219 -4.371094 C 0.824219 -0.691406 2.625 0.0976562 4.585938 0.0976562 C 6.417969 0.0976562 7.820312 -1.320312 7.9375 -2.855469 C 7.96875 -3.316406 7.773438 -3.613281 7.277344 -3.613281 C 6.765625 -3.613281 6.632812 -3.285156 6.566406 -2.839844 C 6.453125 -2.078125 5.890625 -1.023438 4.585938 -1.023438 Z M 4.585938 -1.023438 "/></g></g></g><g fill="#ffffff" fill-opacity="1"><g transform="translate(126.22844, 86.566573)"><g><path d="M 10.476562 -1.15625 C 10.179688 -1.15625 10.066406 -1.074219 9.816406 -1.074219 C 9.488281 -1.074219 9.371094 -1.351562 9.371094 -1.765625 L 9.371094 -7.953125 C 9.371094 -8.515625 9.140625 -8.597656 8.746094 -8.597656 C 8.597656 -8.597656 8.464844 -8.597656 8.25 -8.597656 L 7.09375 -8.597656 C 6.730469 -8.597656 6.367188 -8.515625 6.367188 -8.019531 C 6.367188 -7.707031 6.601562 -7.441406 6.996094 -7.441406 C 7.292969 -7.441406 7.410156 -7.523438 7.65625 -7.523438 C 7.984375 -7.523438 8.101562 -7.242188 8.101562 -6.832031 L 8.101562 -3.730469 C 7.96875 -1.882812 7.128906 -1.023438 5.710938 -1.023438 C 4.15625 -1.023438 3.648438 -1.929688 3.648438 -3.398438 L 3.648438 -7.953125 C 3.648438 -8.515625 3.414062 -8.597656 3.019531 -8.597656 C 2.871094 -8.597656 2.738281 -8.597656 2.523438 -8.597656 L 1.371094 -8.597656 C 1.007812 -8.597656 0.644531 -8.515625 0.644531 -8.019531 C 0.644531 -7.707031 0.875 -7.441406 1.269531 -7.441406 C 1.566406 -7.441406 1.683594 -7.523438 1.929688 -7.523438 C 2.261719 -7.523438 2.375 -7.242188 2.375 -6.832031 L 2.328125 -2.902344 C 2.292969 -0.644531 3.945312 0.0976562 5.460938 0.0976562 C 6.535156 0.0976562 7.472656 -0.179688 8.101562 -0.972656 L 8.101562 -0.644531 C 8.101562 -0.0820312 8.332031 0 8.730469 0 C 8.878906 0 9.007812 0 9.222656 0 L 10.378906 0 C 10.742188 0 11.105469 -0.0820312 11.105469 -0.578125 C 11.105469 -0.890625 10.875 -1.15625 10.476562 -1.15625 Z M 10.476562 -1.15625 "/></g></g></g><g fill="#ffffff" fill-opacity="1"><g transform="translate(138.801544, 86.566573)"><g><path d="M 15.921875 -1.15625 C 15.675781 -1.15625 15.527344 -1.074219 15.261719 -1.074219 C 14.785156 -1.074219 14.652344 -1.351562 14.652344 -1.765625 L 14.652344 -5.691406 C 14.652344 -7.589844 13.5625 -8.695312 11.699219 -8.695312 C 10.625 -8.695312 9.570312 -8.316406 8.941406 -7.128906 C 8.515625 -8.132812 7.589844 -8.695312 6.253906 -8.695312 C 5.328125 -8.695312 4.390625 -8.414062 3.761719 -7.539062 L 3.761719 -7.953125 C 3.761719 -8.515625 3.53125 -8.597656 3.136719 -8.597656 C 2.988281 -8.597656 2.855469 -8.597656 2.640625 -8.597656 L 1.484375 -8.597656 C 1.121094 -8.597656 0.757812 -8.515625 0.757812 -8.019531 C 0.757812 -7.707031 0.988281 -7.441406 1.386719 -7.441406 C 1.683594 -7.441406 1.796875 -7.523438 2.046875 -7.523438 C 2.375 -7.523438 2.492188 -7.242188 2.492188 -6.832031 L 2.492188 -1.765625 C 2.492188 -1.351562 2.375 -1.074219 1.882812 -1.074219 C 1.632812 -1.074219 1.519531 -1.15625 1.222656 -1.15625 C 0.824219 -1.15625 0.609375 -0.941406 0.609375 -0.5625 C 0.609375 -0.148438 0.957031 0 1.320312 0 L 4.933594 0 C 5.296875 0 5.644531 -0.148438 5.644531 -0.5625 C 5.644531 -0.941406 5.429688 -1.15625 5.03125 -1.15625 C 4.734375 -1.15625 4.621094 -1.074219 4.371094 -1.074219 C 3.878906 -1.074219 3.761719 -1.351562 3.761719 -1.765625 L 3.761719 -4.371094 C 3.761719 -6.550781 4.570312 -7.574219 5.972656 -7.574219 C 7.242188 -7.574219 7.9375 -6.75 7.9375 -5.199219 L 7.9375 -1.765625 C 7.9375 -1.285156 7.753906 -1.074219 7.324219 -1.074219 C 7.0625 -1.074219 6.929688 -1.15625 6.664062 -1.15625 C 6.238281 -1.15625 6.054688 -0.890625 6.054688 -0.5625 C 6.054688 -0.0976562 6.402344 0 6.765625 0 L 10.378906 0 C 10.742188 0 11.089844 -0.117188 11.089844 -0.5625 C 11.089844 -0.90625 10.921875 -1.15625 10.476562 -1.15625 C 10.230469 -1.15625 10.082031 -1.074219 9.816406 -1.074219 C 9.339844 -1.074219 9.207031 -1.351562 9.207031 -1.765625 L 9.207031 -4.371094 C 9.207031 -6.550781 10.015625 -7.574219 11.417969 -7.574219 C 12.6875 -7.574219 13.382812 -6.75 13.382812 -5.199219 L 13.382812 -1.765625 C 13.382812 -1.285156 13.199219 -1.074219 12.769531 -1.074219 C 12.507812 -1.074219 12.375 -1.15625 12.109375 -1.15625 C 11.683594 -1.15625 11.5 -0.890625 11.5 -0.5625 C 11.5 -0.0976562 11.847656 0 12.210938 0 L 15.824219 0 C 16.1875 0 16.53125 -0.117188 16.53125 -0.5625 C 16.53125 -0.90625 16.367188 -1.15625 15.921875 -1.15625 Z M 15.921875 -1.15625 "/></g></g></g><g fill="#ffffff" fill-opacity="1"><g transform="translate(156.489702, 86.566573)"><g><path d="M 8.050781 -4.703125 C 8.050781 -7.789062 6.238281 -8.695312 4.4375 -8.695312 C 2.640625 -8.695312 0.824219 -7.789062 0.824219 -4.371094 C 0.824219 -0.691406 2.625 0.0976562 4.585938 0.0976562 C 6.269531 0.0976562 7.804688 -1.007812 7.902344 -2.390625 C 7.9375 -2.855469 7.738281 -3.152344 7.242188 -3.152344 C 6.730469 -3.152344 6.601562 -2.820312 6.515625 -2.375 C 6.402344 -1.765625 5.742188 -1.023438 4.585938 -1.023438 C 3.019531 -1.023438 2.179688 -2.113281 2.195312 -3.925781 L 7.308594 -3.925781 C 7.789062 -3.925781 8.050781 -4.191406 8.050781 -4.667969 Z M 4.4375 -7.574219 C 5.875 -7.574219 6.648438 -6.550781 6.648438 -5.050781 L 2.210938 -5.050781 C 2.210938 -6.648438 3.070312 -7.574219 4.4375 -7.574219 Z M 4.4375 -7.574219 "/></g></g></g><g fill="#ffffff" fill-opacity="1"><g transform="translate(166.059772, 86.566573)"><g><path d="M 10.773438 -1.15625 C 10.476562 -1.15625 10.363281 -1.074219 10.113281 -1.074219 C 9.621094 -1.074219 9.503906 -1.351562 9.503906 -1.765625 L 9.554688 -5.691406 C 9.585938 -7.953125 7.9375 -8.695312 6.417969 -8.695312 C 5.328125 -8.695312 4.390625 -8.414062 3.761719 -7.589844 L 3.761719 -7.953125 C 3.761719 -8.515625 3.53125 -8.597656 3.136719 -8.597656 C 2.988281 -8.597656 2.855469 -8.597656 2.640625 -8.597656 L 1.484375 -8.597656 C 1.121094 -8.597656 0.757812 -8.515625 0.757812 -8.019531 C 0.757812 -7.707031 0.988281 -7.441406 1.386719 -7.441406 C 1.683594 -7.441406 1.796875 -7.523438 2.046875 -7.523438 C 2.375 -7.523438 2.492188 -7.242188 2.492188 -6.832031 L 2.492188 -1.765625 C 2.492188 -1.351562 2.375 -1.074219 1.882812 -1.074219 C 1.632812 -1.074219 1.519531 -1.15625 1.222656 -1.15625 C 0.824219 -1.15625 0.609375 -0.941406 0.609375 -0.5625 C 0.609375 -0.148438 0.957031 0 1.320312 0 L 4.933594 0 C 5.296875 0 5.644531 -0.148438 5.644531 -0.5625 C 5.644531 -0.941406 5.429688 -1.15625 5.03125 -1.15625 C 4.734375 -1.15625 4.621094 -1.074219 4.371094 -1.074219 C 3.878906 -1.074219 3.761719 -1.351562 3.761719 -1.765625 L 3.761719 -4.371094 C 3.761719 -6.550781 4.621094 -7.574219 6.171875 -7.574219 C 7.722656 -7.574219 8.300781 -6.664062 8.28125 -5.199219 L 8.234375 -1.765625 C 8.234375 -1.351562 8.117188 -1.074219 7.621094 -1.074219 C 7.375 -1.074219 7.261719 -1.15625 6.964844 -1.15625 C 6.566406 -1.15625 6.351562 -0.941406 6.351562 -0.5625 C 6.351562 -0.148438 6.699219 0 7.0625 0 L 10.675781 0 C 11.039062 0 11.386719 -0.148438 11.386719 -0.5625 C 11.386719 -0.941406 11.171875 -1.15625 10.773438 -1.15625 Z M 10.773438 -1.15625 "/></g></g></g><g fill="#ffffff" fill-opacity="1"><g transform="translate(178.632876, 86.566573)"><g><path d="M 6.054688 -3.777344 C 5.542969 -3.777344 5.347656 -3.449219 5.347656 -3.003906 C 5.347656 -2.078125 5.230469 -1.023438 4.257812 -1.023438 C 3.5625 -1.023438 3.199219 -1.320312 3.199219 -2.722656 L 3.136719 -7.574219 L 4.949219 -7.574219 C 5.296875 -7.574219 5.558594 -7.789062 5.558594 -8.085938 C 5.558594 -8.382812 5.296875 -8.597656 4.949219 -8.597656 L 3.136719 -8.597656 L 3.101562 -10.675781 C 3.101562 -11.171875 2.855469 -11.417969 2.457031 -11.417969 C 2.128906 -11.417969 1.898438 -11.152344 1.898438 -10.675781 L 1.898438 -8.597656 L 0.957031 -8.597656 C 0.609375 -8.597656 0.347656 -8.382812 0.347656 -8.085938 C 0.347656 -7.789062 0.609375 -7.574219 0.957031 -7.574219 L 1.898438 -7.574219 L 1.898438 -2.722656 C 1.898438 -0.199219 3.285156 0.0976562 4.257812 0.0976562 C 5.921875 0.0976562 6.714844 -1.320312 6.714844 -3.019531 C 6.714844 -3.480469 6.550781 -3.777344 6.054688 -3.777344 Z M 6.054688 -3.777344 "/></g></g></g><g fill="#ffffff" fill-opacity="1"><g transform="translate(186.519944, 86.566573)"><g><path d="M 8.628906 -1.15625 C 8.332031 -1.15625 8.21875 -1.074219 7.96875 -1.074219 C 7.640625 -1.074219 7.523438 -1.351562 7.523438 -1.765625 L 7.523438 -5.859375 C 7.523438 -7.539062 6.550781 -8.664062 4.4375 -8.664062 C 2.492188 -8.664062 1.203125 -7.773438 1.203125 -6.46875 C 1.203125 -5.808594 1.566406 -5.410156 2.128906 -5.410156 C 2.605469 -5.410156 2.902344 -5.757812 2.902344 -6.136719 C 2.902344 -6.484375 2.773438 -6.683594 2.773438 -6.832031 C 2.773438 -7.277344 3.480469 -7.589844 4.4375 -7.589844 C 5.726562 -7.589844 6.253906 -6.964844 6.253906 -5.859375 C 6.253906 -5.3125 5.90625 -5.214844 4.816406 -5.066406 C 3.21875 -4.867188 0.660156 -4.519531 0.660156 -2.261719 C 0.660156 -0.824219 1.714844 0.03125 3.464844 0.03125 C 4.503906 0.03125 5.558594 -0.328125 6.253906 -1.121094 L 6.253906 -0.742188 C 6.253906 -0.0820312 6.433594 0 6.78125 0 C 6.964844 0 7.160156 0 7.523438 0 L 8.53125 0 C 8.894531 0 9.238281 -0.0820312 9.238281 -0.578125 C 9.238281 -0.890625 9.027344 -1.15625 8.628906 -1.15625 Z M 3.316406 -1.089844 C 2.476562 -1.089844 2.046875 -1.433594 2.046875 -2.261719 C 2.046875 -3.5625 3.398438 -3.746094 5 -3.960938 C 5.527344 -4.027344 5.941406 -4.140625 6.253906 -4.339844 L 6.253906 -3.414062 C 6.253906 -1.699219 4.488281 -1.089844 3.316406 -1.089844 Z M 3.316406 -1.089844 "/></g></g></g><g fill="#ffffff" fill-opacity="1"><g transform="translate(196.783033, 86.566573)"><g><path d="M 4.585938 -1.023438 C 2.902344 -1.023438 2.210938 -2.113281 2.210938 -4.371094 C 2.210938 -6.386719 2.886719 -7.574219 4.4375 -7.574219 C 5.378906 -7.574219 5.988281 -7.160156 5.988281 -6.601562 C 5.988281 -6.453125 5.859375 -6.253906 5.859375 -5.90625 C 5.859375 -5.527344 6.15625 -5.179688 6.632812 -5.179688 C 7.195312 -5.179688 7.558594 -5.578125 7.558594 -6.238281 C 7.558594 -7.671875 6.386719 -8.695312 4.4375 -8.695312 C 2.640625 -8.695312 0.824219 -7.789062 0.824219 -4.371094 C 0.824219 -0.691406 2.625 0.0976562 4.585938 0.0976562 C 6.417969 0.0976562 7.820312 -1.320312 7.9375 -2.855469 C 7.96875 -3.316406 7.773438 -3.613281 7.277344 -3.613281 C 6.765625 -3.613281 6.632812 -3.285156 6.566406 -2.839844 C 6.453125 -2.078125 5.890625 -1.023438 4.585938 -1.023438 Z M 4.585938 -1.023438 "/></g></g></g><g fill="#ffffff" fill-opacity="1"><g transform="translate(206.237603, 86.566573)"><g><path d="M 2.921875 -9.636719 C 3.449219 -9.636719 3.878906 -10.066406 3.878906 -10.609375 C 3.878906 -11.136719 3.449219 -11.566406 2.921875 -11.566406 C 2.390625 -11.566406 1.945312 -11.136719 1.945312 -10.609375 C 1.945312 -10.066406 2.390625 -9.636719 2.921875 -9.636719 Z M 2.492188 -6.832031 L 2.492188 -1.765625 C 2.492188 -1.351562 2.375 -1.074219 1.882812 -1.074219 C 1.632812 -1.074219 1.519531 -1.15625 1.222656 -1.15625 C 0.824219 -1.15625 0.609375 -0.941406 0.609375 -0.5625 C 0.609375 -0.148438 0.957031 0 1.320312 0 L 4.933594 0 C 5.296875 0 5.644531 -0.148438 5.644531 -0.5625 C 5.644531 -0.941406 5.429688 -1.15625 5.03125 -1.15625 C 4.734375 -1.15625 4.621094 -1.074219 4.371094 -1.074219 C 3.878906 -1.074219 3.761719 -1.351562 3.761719 -1.765625 L 3.761719 -7.953125 C 3.761719 -8.515625 3.53125 -8.597656 3.136719 -8.597656 C 2.988281 -8.597656 2.855469 -8.597656 2.640625 -8.597656 L 1.484375 -8.597656 C 1.121094 -8.597656 0.757812 -8.515625 0.757812 -8.019531 C 0.757812 -7.707031 0.988281 -7.441406 1.386719 -7.441406 C 1.683594 -7.441406 1.796875 -7.523438 2.046875 -7.523438 C 2.375 -7.523438 2.492188 -7.242188 2.492188 -6.832031 Z M 2.492188 -6.832031 "/></g></g></g><g fill="#ffffff" fill-opacity="1"><g transform="translate(213.068662, 86.566573)"><g><path d="M 2.96875 -9.453125 C 3.035156 -9.371094 3.117188 -9.339844 3.199219 -9.339844 C 3.300781 -9.339844 3.414062 -9.386719 3.5625 -9.472656 L 5.644531 -10.757812 C 5.941406 -10.941406 6.054688 -11.171875 6.054688 -11.402344 C 6.054688 -11.78125 5.742188 -12.128906 5.347656 -12.128906 C 5.132812 -12.128906 4.902344 -12.027344 4.667969 -11.78125 L 3.101562 -10.03125 C 2.96875 -9.882812 2.902344 -9.75 2.902344 -9.636719 C 2.902344 -9.570312 2.921875 -9.503906 2.96875 -9.453125 Z M 4.421875 0.0976562 C 6.21875 0.0976562 8.019531 -0.691406 8.019531 -4.371094 C 8.019531 -7.953125 6.21875 -8.695312 4.421875 -8.695312 C 2.625 -8.695312 0.824219 -7.953125 0.824219 -4.371094 C 0.824219 -0.691406 2.625 0.0976562 4.421875 0.0976562 Z M 4.421875 -1.023438 C 2.902344 -1.023438 2.210938 -2.113281 2.210938 -4.371094 C 2.210938 -6.550781 2.871094 -7.574219 4.421875 -7.574219 C 5.972656 -7.574219 6.632812 -6.550781 6.632812 -4.371094 C 6.632812 -2.113281 5.941406 -1.023438 4.421875 -1.023438 Z M 4.421875 -1.023438 "/></g></g></g><g fill="#ffffff" fill-opacity="1"><g transform="translate(222.605749, 86.566573)"><g><path d="M 10.773438 -1.15625 C 10.476562 -1.15625 10.363281 -1.074219 10.113281 -1.074219 C 9.621094 -1.074219 9.503906 -1.351562 9.503906 -1.765625 L 9.554688 -5.691406 C 9.585938 -7.953125 7.9375 -8.695312 6.417969 -8.695312 C 5.328125 -8.695312 4.390625 -8.414062 3.761719 -7.589844 L 3.761719 -7.953125 C 3.761719 -8.515625 3.53125 -8.597656 3.136719 -8.597656 C 2.988281 -8.597656 2.855469 -8.597656 2.640625 -8.597656 L 1.484375 -8.597656 C 1.121094 -8.597656 0.757812 -8.515625 0.757812 -8.019531 C 0.757812 -7.707031 0.988281 -7.441406 1.386719 -7.441406 C 1.683594 -7.441406 1.796875 -7.523438 2.046875 -7.523438 C 2.375 -7.523438 2.492188 -7.242188 2.492188 -6.832031 L 2.492188 -1.765625 C 2.492188 -1.351562 2.375 -1.074219 1.882812 -1.074219 C 1.632812 -1.074219 1.519531 -1.15625 1.222656 -1.15625 C 0.824219 -1.15625 0.609375 -0.941406 0.609375 -0.5625 C 0.609375 -0.148438 0.957031 0 1.320312 0 L 4.933594 0 C 5.296875 0 5.644531 -0.148438 5.644531 -0.5625 C 5.644531 -0.941406 5.429688 -1.15625 5.03125 -1.15625 C 4.734375 -1.15625 4.621094 -1.074219 4.371094 -1.074219 C 3.878906 -1.074219 3.761719 -1.351562 3.761719 -1.765625 L 3.761719 -4.371094 C 3.761719 -6.550781 4.621094 -7.574219 6.171875 -7.574219 C 7.722656 -7.574219 8.300781 -6.664062 8.28125 -5.199219 L 8.234375 -1.765625 C 8.234375 -1.351562 8.117188 -1.074219 7.621094 -1.074219 C 7.375 -1.074219 7.261719 -1.15625 6.964844 -1.15625 C 6.566406 -1.15625 6.351562 -0.941406 6.351562 -0.5625 C 6.351562 -0.148438 6.699219 0 7.0625 0 L 10.675781 0 C 11.039062 0 11.386719 -0.148438 11.386719 -0.5625 C 11.386719 -0.941406 11.171875 -1.15625 10.773438 -1.15625 Z M 10.773438 -1.15625 "/></g></g></g><g fill="#ffffff" fill-opacity="1"><g transform="translate(235.178854, 86.566573)"><g/></g></g><g fill="#ffffff" fill-opacity="1"><g transform="translate(241.646901, 86.566573)"><g><path d="M 6.203125 -8.695312 C 5.164062 -8.695312 4.289062 -8.429688 3.710938 -7.6875 L 3.710938 -10.773438 C 3.710938 -11.335938 3.480469 -11.417969 3.085938 -11.417969 L 1.433594 -11.417969 C 1.074219 -11.417969 0.710938 -11.335938 0.710938 -10.839844 C 0.710938 -10.527344 0.941406 -10.261719 1.335938 -10.261719 C 1.632812 -10.261719 1.75 -10.34375 1.996094 -10.34375 C 2.328125 -10.34375 2.441406 -10.066406 2.441406 -9.652344 L 2.441406 -0.742188 C 2.441406 -0.265625 2.671875 0 3.085938 0 C 3.496094 0 3.710938 -0.265625 3.710938 -0.742188 L 3.710938 -0.957031 C 4.289062 -0.164062 5.164062 0.0976562 6.203125 0.0976562 C 7.722656 0.0976562 9.519531 -0.691406 9.519531 -4.371094 C 9.519531 -7.953125 7.722656 -8.695312 6.203125 -8.695312 Z M 5.921875 -1.023438 C 4.40625 -1.023438 3.710938 -2.113281 3.710938 -4.371094 C 3.710938 -6.550781 4.371094 -7.574219 5.921875 -7.574219 C 7.472656 -7.574219 8.132812 -6.550781 8.132812 -4.371094 C 8.132812 -2.113281 7.441406 -1.023438 5.921875 -1.023438 Z M 5.921875 -1.023438 "/></g></g></g><g fill="#ffffff" fill-opacity="1"><g transform="translate(252.899994, 86.566573)"><g><path d="M 2.921875 -9.636719 C 3.449219 -9.636719 3.878906 -10.066406 3.878906 -10.609375 C 3.878906 -11.136719 3.449219 -11.566406 2.921875 -11.566406 C 2.390625 -11.566406 1.945312 -11.136719 1.945312 -10.609375 C 1.945312 -10.066406 2.390625 -9.636719 2.921875 -9.636719 Z M 2.492188 -6.832031 L 2.492188 -1.765625 C 2.492188 -1.351562 2.375 -1.074219 1.882812 -1.074219 C 1.632812 -1.074219 1.519531 -1.15625 1.222656 -1.15625 C 0.824219 -1.15625 0.609375 -0.941406 0.609375 -0.5625 C 0.609375 -0.148438 0.957031 0 1.320312 0 L 4.933594 0 C 5.296875 0 5.644531 -0.148438 5.644531 -0.5625 C 5.644531 -0.941406 5.429688 -1.15625 5.03125 -1.15625 C 4.734375 -1.15625 4.621094 -1.074219 4.371094 -1.074219 C 3.878906 -1.074219 3.761719 -1.351562 3.761719 -1.765625 L 3.761719 -7.953125 C 3.761719 -8.515625 3.53125 -8.597656 3.136719 -8.597656 C 2.988281 -8.597656 2.855469 -8.597656 2.640625 -8.597656 L 1.484375 -8.597656 C 1.121094 -8.597656 0.757812 -8.515625 0.757812 -8.019531 C 0.757812 -7.707031 0.988281 -7.441406 1.386719 -7.441406 C 1.683594 -7.441406 1.796875 -7.523438 2.046875 -7.523438 C 2.375 -7.523438 2.492188 -7.242188 2.492188 -6.832031 Z M 2.492188 -6.832031 "/></g></g></g><g fill="#ffffff" fill-opacity="1"><g transform="translate(259.731052, 86.566573)"><g><path d="M 4.421875 0.0976562 C 6.21875 0.0976562 8.019531 -0.691406 8.019531 -4.371094 C 8.019531 -7.953125 6.21875 -8.695312 4.421875 -8.695312 C 2.625 -8.695312 0.824219 -7.953125 0.824219 -4.371094 C 0.824219 -0.691406 2.625 0.0976562 4.421875 0.0976562 Z M 4.421875 -1.023438 C 2.902344 -1.023438 2.210938 -2.113281 2.210938 -4.371094 C 2.210938 -6.550781 2.871094 -7.574219 4.421875 -7.574219 C 5.972656 -7.574219 6.632812 -6.550781 6.632812 -4.371094 C 6.632812 -2.113281 5.941406 -1.023438 4.421875 -1.023438 Z M 4.421875 -1.023438 "/></g></g></g><g fill="#ffffff" fill-opacity="1"><g transform="translate(269.26814, 86.566573)"><g><path d="M 15.921875 -1.15625 C 15.675781 -1.15625 15.527344 -1.074219 15.261719 -1.074219 C 14.785156 -1.074219 14.652344 -1.351562 14.652344 -1.765625 L 14.652344 -5.691406 C 14.652344 -7.589844 13.5625 -8.695312 11.699219 -8.695312 C 10.625 -8.695312 9.570312 -8.316406 8.941406 -7.128906 C 8.515625 -8.132812 7.589844 -8.695312 6.253906 -8.695312 C 5.328125 -8.695312 4.390625 -8.414062 3.761719 -7.539062 L 3.761719 -7.953125 C 3.761719 -8.515625 3.53125 -8.597656 3.136719 -8.597656 C 2.988281 -8.597656 2.855469 -8.597656 2.640625 -8.597656 L 1.484375 -8.597656 C 1.121094 -8.597656 0.757812 -8.515625 0.757812 -8.019531 C 0.757812 -7.707031 0.988281 -7.441406 1.386719 -7.441406 C 1.683594 -7.441406 1.796875 -7.523438 2.046875 -7.523438 C 2.375 -7.523438 2.492188 -7.242188 2.492188 -6.832031 L 2.492188 -1.765625 C 2.492188 -1.351562 2.375 -1.074219 1.882812 -1.074219 C 1.632812 -1.074219 1.519531 -1.15625 1.222656 -1.15625 C 0.824219 -1.15625 0.609375 -0.941406 0.609375 -0.5625 C 0.609375 -0.148438 0.957031 0 1.320312 0 L 4.933594 0 C 5.296875 0 5.644531 -0.148438 5.644531 -0.5625 C 5.644531 -0.941406 5.429688 -1.15625 5.03125 -1.15625 C 4.734375 -1.15625 4.621094 -1.074219 4.371094 -1.074219 C 3.878906 -1.074219 3.761719 -1.351562 3.761719 -1.765625 L 3.761719 -4.371094 C 3.761719 -6.550781 4.570312 -7.574219 5.972656 -7.574219 C 7.242188 -7.574219 7.9375 -6.75 7.9375 -5.199219 L 7.9375 -1.765625 C 7.9375 -1.285156 7.753906 -1.074219 7.324219 -1.074219 C 7.0625 -1.074219 6.929688 -1.15625 6.664062 -1.15625 C 6.238281 -1.15625 6.054688 -0.890625 6.054688 -0.5625 C 6.054688 -0.0976562 6.402344 0 6.765625 0 L 10.378906 0 C 10.742188 0 11.089844 -0.117188 11.089844 -0.5625 C 11.089844 -0.90625 10.921875 -1.15625 10.476562 -1.15625 C 10.230469 -1.15625 10.082031 -1.074219 9.816406 -1.074219 C 9.339844 -1.074219 9.207031 -1.351562 9.207031 -1.765625 L 9.207031 -4.371094 C 9.207031 -6.550781 10.015625 -7.574219 11.417969 -7.574219 C 12.6875 -7.574219 13.382812 -6.75 13.382812 -5.199219 L 13.382812 -1.765625 C 13.382812 -1.285156 13.199219 -1.074219 12.769531 -1.074219 C 12.507812 -1.074219 12.375 -1.15625 12.109375 -1.15625 C 11.683594 -1.15625 11.5 -0.890625 11.5 -0.5625 C 11.5 -0.0976562 11.847656 0 12.210938 0 L 15.824219 0 C 16.1875 0 16.53125 -0.117188 16.53125 -0.5625 C 16.53125 -0.90625 16.367188 -1.15625 15.921875 -1.15625 Z M 15.921875 -1.15625 "/></g></g></g><g fill="#ffffff" fill-opacity="1"><g transform="translate(286.956298, 86.566573)"><g><path d="M 2.988281 -9.453125 C 3.050781 -9.371094 3.136719 -9.339844 3.21875 -9.339844 C 3.316406 -9.339844 3.433594 -9.386719 3.582031 -9.472656 L 5.660156 -10.757812 C 5.957031 -10.941406 6.070312 -11.171875 6.070312 -11.402344 C 6.070312 -11.78125 5.757812 -12.128906 5.363281 -12.128906 C 5.148438 -12.128906 4.917969 -12.027344 4.6875 -11.78125 L 3.117188 -10.03125 C 2.988281 -9.882812 2.921875 -9.75 2.921875 -9.636719 C 2.921875 -9.570312 2.9375 -9.503906 2.988281 -9.453125 Z M 8.050781 -4.703125 C 8.050781 -7.789062 6.238281 -8.695312 4.4375 -8.695312 C 2.640625 -8.695312 0.824219 -7.789062 0.824219 -4.371094 C 0.824219 -0.691406 2.625 0.0976562 4.585938 0.0976562 C 6.269531 0.0976562 7.804688 -1.007812 7.902344 -2.390625 C 7.9375 -2.855469 7.738281 -3.152344 7.242188 -3.152344 C 6.730469 -3.152344 6.601562 -2.820312 6.515625 -2.375 C 6.402344 -1.765625 5.742188 -1.023438 4.585938 -1.023438 C 3.019531 -1.023438 2.179688 -2.113281 2.195312 -3.925781 L 7.308594 -3.925781 C 7.789062 -3.925781 8.050781 -4.191406 8.050781 -4.667969 Z M 4.4375 -7.574219 C 5.875 -7.574219 6.648438 -6.550781 6.648438 -5.050781 L 2.210938 -5.050781 C 2.210938 -6.648438 3.070312 -7.574219 4.4375 -7.574219 Z M 4.4375 -7.574219 "/></g></g></g><g fill="#ffffff" fill-opacity="1"><g transform="translate(296.526368, 86.566573)"><g><path d="M 9.222656 -1.15625 C 8.925781 -1.15625 8.8125 -1.074219 8.5625 -1.074219 C 8.234375 -1.074219 8.117188 -1.351562 8.117188 -1.765625 L 8.117188 -10.773438 C 8.117188 -11.335938 7.886719 -11.417969 7.492188 -11.417969 C 7.34375 -11.417969 7.210938 -11.417969 6.996094 -11.417969 L 5.839844 -11.417969 C 5.476562 -11.417969 5.113281 -11.335938 5.113281 -10.839844 C 5.113281 -10.527344 5.347656 -10.261719 5.742188 -10.261719 C 6.039062 -10.261719 6.15625 -10.34375 6.402344 -10.34375 C 6.730469 -10.34375 6.847656 -10.066406 6.847656 -9.652344 L 6.847656 -7.6875 C 6.269531 -8.429688 5.394531 -8.695312 4.355469 -8.695312 C 2.839844 -8.695312 1.039062 -7.953125 1.039062 -4.371094 C 1.039062 -0.691406 2.839844 0.0976562 4.355469 0.0976562 C 5.394531 0.0976562 6.269531 -0.164062 6.847656 -0.957031 L 6.847656 -0.644531 C 6.847656 -0.0820312 7.078125 0 7.472656 0 C 7.621094 0 7.753906 0 7.96875 0 L 9.125 0 C 9.488281 0 9.851562 -0.0820312 9.851562 -0.578125 C 9.851562 -0.890625 9.621094 -1.15625 9.222656 -1.15625 Z M 4.636719 -1.023438 C 3.117188 -1.023438 2.425781 -2.113281 2.425781 -4.371094 C 2.425781 -6.550781 3.085938 -7.574219 4.636719 -7.574219 C 6.1875 -7.574219 6.847656 -6.550781 6.847656 -4.371094 C 6.847656 -2.113281 6.15625 -1.023438 4.636719 -1.023438 Z M 4.636719 -1.023438 "/></g></g></g><g fill="#ffffff" fill-opacity="1"><g transform="translate(307.746458, 86.566573)"><g><path d="M 2.921875 -9.636719 C 3.449219 -9.636719 3.878906 -10.066406 3.878906 -10.609375 C 3.878906 -11.136719 3.449219 -11.566406 2.921875 -11.566406 C 2.390625 -11.566406 1.945312 -11.136719 1.945312 -10.609375 C 1.945312 -10.066406 2.390625 -9.636719 2.921875 -9.636719 Z M 2.492188 -6.832031 L 2.492188 -1.765625 C 2.492188 -1.351562 2.375 -1.074219 1.882812 -1.074219 C 1.632812 -1.074219 1.519531 -1.15625 1.222656 -1.15625 C 0.824219 -1.15625 0.609375 -0.941406 0.609375 -0.5625 C 0.609375 -0.148438 0.957031 0 1.320312 0 L 4.933594 0 C 5.296875 0 5.644531 -0.148438 5.644531 -0.5625 C 5.644531 -0.941406 5.429688 -1.15625 5.03125 -1.15625 C 4.734375 -1.15625 4.621094 -1.074219 4.371094 -1.074219 C 3.878906 -1.074219 3.761719 -1.351562 3.761719 -1.765625 L 3.761719 -7.953125 C 3.761719 -8.515625 3.53125 -8.597656 3.136719 -8.597656 C 2.988281 -8.597656 2.855469 -8.597656 2.640625 -8.597656 L 1.484375 -8.597656 C 1.121094 -8.597656 0.757812 -8.515625 0.757812 -8.019531 C 0.757812 -7.707031 0.988281 -7.441406 1.386719 -7.441406 C 1.683594 -7.441406 1.796875 -7.523438 2.046875 -7.523438 C 2.375 -7.523438 2.492188 -7.242188 2.492188 -6.832031 Z M 2.492188 -6.832031 "/></g></g></g><g fill="#ffffff" fill-opacity="1"><g transform="translate(314.577516, 86.566573)"><g><path d="M 4.585938 -1.023438 C 2.902344 -1.023438 2.210938 -2.113281 2.210938 -4.371094 C 2.210938 -6.386719 2.886719 -7.574219 4.4375 -7.574219 C 5.378906 -7.574219 5.988281 -7.160156 5.988281 -6.601562 C 5.988281 -6.453125 5.859375 -6.253906 5.859375 -5.90625 C 5.859375 -5.527344 6.15625 -5.179688 6.632812 -5.179688 C 7.195312 -5.179688 7.558594 -5.578125 7.558594 -6.238281 C 7.558594 -7.671875 6.386719 -8.695312 4.4375 -8.695312 C 2.640625 -8.695312 0.824219 -7.789062 0.824219 -4.371094 C 0.824219 -0.691406 2.625 0.0976562 4.585938 0.0976562 C 6.417969 0.0976562 7.820312 -1.320312 7.9375 -2.855469 C 7.96875 -3.316406 7.773438 -3.613281 7.277344 -3.613281 C 6.765625 -3.613281 6.632812 -3.285156 6.566406 -2.839844 C 6.453125 -2.078125 5.890625 -1.023438 4.585938 -1.023438 Z M 4.585938 -1.023438 "/></g></g></g><g fill="#ffffff" fill-opacity="1"><g transform="translate(324.032086, 86.566573)"><g><path d="M 8.628906 -1.15625 C 8.332031 -1.15625 8.21875 -1.074219 7.96875 -1.074219 C 7.640625 -1.074219 7.523438 -1.351562 7.523438 -1.765625 L 7.523438 -5.859375 C 7.523438 -7.539062 6.550781 -8.664062 4.4375 -8.664062 C 2.492188 -8.664062 1.203125 -7.773438 1.203125 -6.46875 C 1.203125 -5.808594 1.566406 -5.410156 2.128906 -5.410156 C 2.605469 -5.410156 2.902344 -5.757812 2.902344 -6.136719 C 2.902344 -6.484375 2.773438 -6.683594 2.773438 -6.832031 C 2.773438 -7.277344 3.480469 -7.589844 4.4375 -7.589844 C 5.726562 -7.589844 6.253906 -6.964844 6.253906 -5.859375 C 6.253906 -5.3125 5.90625 -5.214844 4.816406 -5.066406 C 3.21875 -4.867188 0.660156 -4.519531 0.660156 -2.261719 C 0.660156 -0.824219 1.714844 0.03125 3.464844 0.03125 C 4.503906 0.03125 5.558594 -0.328125 6.253906 -1.121094 L 6.253906 -0.742188 C 6.253906 -0.0820312 6.433594 0 6.78125 0 C 6.964844 0 7.160156 0 7.523438 0 L 8.53125 0 C 8.894531 0 9.238281 -0.0820312 9.238281 -0.578125 C 9.238281 -0.890625 9.027344 -1.15625 8.628906 -1.15625 Z M 3.316406 -1.089844 C 2.476562 -1.089844 2.046875 -1.433594 2.046875 -2.261719 C 2.046875 -3.5625 3.398438 -3.746094 5 -3.960938 C 5.527344 -4.027344 5.941406 -4.140625 6.253906 -4.339844 L 6.253906 -3.414062 C 6.253906 -1.699219 4.488281 -1.089844 3.316406 -1.089844 Z M 3.316406 -1.089844 "/></g></g></g><g fill="#ffffff" fill-opacity="1"><g transform="translate(111.308151, 67.85209)"><g><path d="M 55.234375 -8.265625 L 55.234375 -15.5 L 62.375 -15.5 L 62.375 -8.265625 Z M 55.234375 -16.515625 L 55.234375 -23.765625 L 62.375 -23.765625 L 62.375 -16.515625 Z M 55.234375 -24.78125 L 55.234375 -32.03125 L 62.375 -32.03125 L 62.375 -24.78125 Z M 55.234375 -49.484375 L 55.234375 -56.71875 L 62.375 -56.71875 L 62.375 -49.484375 Z M 47.0625 0 L 47.0625 -7.234375 L 54.21875 -7.234375 L 54.21875 0 Z M 47.0625 -8.265625 L 47.0625 -15.5 L 54.21875 -15.5 L 54.21875 -8.265625 Z M 47.0625 -16.515625 L 47.0625 -23.765625 L 54.21875 -23.765625 L 54.21875 -16.515625 Z M 47.0625 -24.78125 L 47.0625 -32.03125 L 54.21875 -32.03125 L 54.21875 -24.78125 Z M 47.0625 -49.484375 L 47.0625 -56.71875 L 54.21875 -56.71875 L 54.21875 -49.484375 Z M 47.0625 -57.734375 L 47.0625 -64.984375 L 54.21875 -64.984375 L 54.21875 -57.734375 Z M 38.984375 0 L 38.984375 -7.234375 L 46.140625 -7.234375 L 46.140625 0 Z M 38.984375 -8.265625 L 38.984375 -15.5 L 46.140625 -15.5 L 46.140625 -8.265625 Z M 38.984375 -24.78125 L 38.984375 -32.03125 L 46.140625 -32.03125 L 46.140625 -24.78125 Z M 38.984375 -49.484375 L 38.984375 -56.71875 L 46.140625 -56.71875 L 46.140625 -49.484375 Z M 38.984375 -57.734375 L 38.984375 -64.984375 L 46.140625 -64.984375 L 46.140625 -57.734375 Z M 30.8125 0 L 30.8125 -7.234375 L 37.96875 -7.234375 L 37.96875 0 Z M 30.8125 -8.265625 L 30.8125 -15.5 L 37.96875 -15.5 L 37.96875 -8.265625 Z M 30.8125 -49.484375 L 30.8125 -56.71875 L 37.96875 -56.71875 L 37.96875 -49.484375 Z M 30.8125 -57.734375 L 30.8125 -64.984375 L 37.96875 -64.984375 L 37.96875 -57.734375 Z M 22.65625 0 L 22.65625 -7.234375 L 29.796875 -7.234375 L 29.796875 0 Z M 22.65625 -8.265625 L 22.65625 -15.5 L 29.796875 -15.5 L 29.796875 -8.265625 Z M 22.65625 -49.484375 L 22.65625 -56.71875 L 29.796875 -56.71875 L 29.796875 -49.484375 Z M 22.65625 -57.734375 L 22.65625 -64.984375 L 29.796875 -64.984375 L 29.796875 -57.734375 Z M 14.578125 0 L 14.578125 -7.234375 L 21.71875 -7.234375 L 21.71875 0 Z M 14.578125 -8.265625 L 14.578125 -15.5 L 21.71875 -15.5 L 21.71875 -8.265625 Z M 14.578125 -16.515625 L 14.578125 -23.765625 L 21.71875 -23.765625 L 21.71875 -16.515625 Z M 14.578125 -24.78125 L 14.578125 -32.03125 L 21.71875 -32.03125 L 21.71875 -24.78125 Z M 14.578125 -32.953125 L 14.578125 -40.1875 L 21.71875 -40.1875 L 21.71875 -32.953125 Z M 14.578125 -41.21875 L 14.578125 -48.453125 L 21.71875 -48.453125 L 21.71875 -41.21875 Z M 14.578125 -49.484375 L 14.578125 -56.71875 L 21.71875 -56.71875 L 21.71875 -49.484375 Z M 14.578125 -57.734375 L 14.578125 -64.984375 L 21.71875 -64.984375 L 21.71875 -57.734375 Z M 6.40625 -8.265625 L 6.40625 -15.5 L 13.546875 -15.5 L 13.546875 -8.265625 Z M 6.40625 -16.515625 L 6.40625 -23.765625 L 13.546875 -23.765625 L 13.546875 -16.515625 Z M 6.40625 -24.78125 L 6.40625 -32.03125 L 13.546875 -32.03125 L 13.546875 -24.78125 Z M 6.40625 -32.953125 L 6.40625 -40.1875 L 13.546875 -40.1875 L 13.546875 -32.953125 Z M 6.40625 -41.21875 L 6.40625 -48.453125 L 13.546875 -48.453125 L 13.546875 -41.21875 Z M 6.40625 -49.484375 L 6.40625 -56.71875 L 13.546875 -56.71875 L 13.546875 -49.484375 Z M 6.40625 -49.484375 "/></g></g></g><g fill="#ffffff" fill-opacity="1"><g transform="translate(191.224944, 67.85209)"><g><path d="M 55.421875 -8.265625 L 55.421875 -15.5 L 62.5625 -15.5 L 62.5625 -8.265625 Z M 55.421875 -16.515625 L 55.421875 -23.765625 L 62.5625 -23.765625 L 62.5625 -16.515625 Z M 55.421875 -24.78125 L 55.421875 -32.03125 L 62.5625 -32.03125 L 62.5625 -24.78125 Z M 55.421875 -32.953125 L 55.421875 -40.1875 L 62.5625 -40.1875 L 62.5625 -32.953125 Z M 55.421875 -41.21875 L 55.421875 -48.453125 L 62.5625 -48.453125 L 62.5625 -41.21875 Z M 55.421875 -49.484375 L 55.421875 -56.71875 L 62.5625 -56.71875 L 62.5625 -49.484375 Z M 47.25 0 L 47.25 -7.234375 L 54.390625 -7.234375 L 54.390625 0 Z M 47.25 -8.265625 L 47.25 -15.5 L 54.390625 -15.5 L 54.390625 -8.265625 Z M 47.25 -16.515625 L 47.25 -23.765625 L 54.390625 -23.765625 L 54.390625 -16.515625 Z M 47.25 -24.78125 L 47.25 -32.03125 L 54.390625 -32.03125 L 54.390625 -24.78125 Z M 47.25 -32.953125 L 47.25 -40.1875 L 54.390625 -40.1875 L 54.390625 -32.953125 Z M 47.25 -41.21875 L 47.25 -48.453125 L 54.390625 -48.453125 L 54.390625 -41.21875 Z M 47.25 -49.484375 L 47.25 -56.71875 L 54.390625 -56.71875 L 54.390625 -49.484375 Z M 47.25 -57.734375 L 47.25 -64.984375 L 54.390625 -64.984375 L 54.390625 -57.734375 Z M 39.171875 0 L 39.171875 -7.234375 L 46.328125 -7.234375 L 46.328125 0 Z M 39.171875 -57.734375 L 39.171875 -64.984375 L 46.328125 -64.984375 L 46.328125 -57.734375 Z M 31 0 L 31 -7.234375 L 38.15625 -7.234375 L 38.15625 0 Z M 31 -57.734375 L 31 -64.984375 L 38.15625 -64.984375 L 38.15625 -57.734375 Z M 22.828125 0 L 22.828125 -7.234375 L 29.984375 -7.234375 L 29.984375 0 Z M 22.828125 -8.265625 L 22.828125 -15.5 L 29.984375 -15.5 L 29.984375 -8.265625 Z M 22.828125 -16.515625 L 22.828125 -23.765625 L 29.984375 -23.765625 L 29.984375 -16.515625 Z M 22.828125 -24.78125 L 22.828125 -32.03125 L 29.984375 -32.03125 L 29.984375 -24.78125 Z M 22.828125 -32.953125 L 22.828125 -40.1875 L 29.984375 -40.1875 L 29.984375 -32.953125 Z M 22.828125 -41.21875 L 22.828125 -48.453125 L 29.984375 -48.453125 L 29.984375 -41.21875 Z M 22.828125 -49.484375 L 22.828125 -56.71875 L 29.984375 -56.71875 L 29.984375 -49.484375 Z M 22.828125 -57.734375 L 22.828125 -64.984375 L 29.984375 -64.984375 L 29.984375 -57.734375 Z M 14.765625 0 L 14.765625 -7.234375 L 21.90625 -7.234375 L 21.90625 0 Z M 14.765625 -8.265625 L 14.765625 -15.5 L 21.90625 -15.5 L 21.90625 -8.265625 Z M 14.765625 -16.515625 L 14.765625 -23.765625 L 21.90625 -23.765625 L 21.90625 -16.515625 Z M 14.765625 -24.78125 L 14.765625 -32.03125 L 21.90625 -32.03125 L 21.90625 -24.78125 Z M 14.765625 -32.953125 L 14.765625 -40.1875 L 21.90625 -40.1875 L 21.90625 -32.953125 Z M 14.765625 -41.21875 L 14.765625 -48.453125 L 21.90625 -48.453125 L 21.90625 -41.21875 Z M 14.765625 -49.484375 L 14.765625 -56.71875 L 21.90625 -56.71875 L 21.90625 -49.484375 Z M 14.765625 -57.734375 L 14.765625 -64.984375 L 21.90625 -64.984375 L 21.90625 -57.734375 Z M 6.59375 0 L 6.59375 -7.234375 L 13.734375 -7.234375 L 13.734375 0 Z M 6.59375 -57.734375 L 6.59375 -64.984375 L 13.734375 -64.984375 L 13.734375 -57.734375 Z M 6.59375 -57.734375 "/></g></g></g><g fill="#ffffff" fill-opacity="1"><g transform="translate(271.698605, 67.85209)"><g><path d="M 53.46875 -8.265625 L 53.46875 -15.5 L 60.609375 -15.5 L 60.609375 -8.265625 Z M 53.46875 -16.515625 L 53.46875 -23.765625 L 60.609375 -23.765625 L 60.609375 -16.515625 Z M 53.46875 -24.78125 L 53.46875 -32.03125 L 60.609375 -32.03125 L 60.609375 -24.78125 Z M 53.46875 -32.953125 L 53.46875 -40.1875 L 60.609375 -40.1875 L 60.609375 -32.953125 Z M 53.46875 -41.21875 L 53.46875 -48.453125 L 60.609375 -48.453125 L 60.609375 -41.21875 Z M 53.46875 -49.484375 L 53.46875 -56.71875 L 60.609375 -56.71875 L 60.609375 -49.484375 Z M 45.296875 0 L 45.296875 -7.234375 L 52.453125 -7.234375 L 52.453125 0 Z M 45.296875 -8.265625 L 45.296875 -15.5 L 52.453125 -15.5 L 52.453125 -8.265625 Z M 45.296875 -16.515625 L 45.296875 -23.765625 L 52.453125 -23.765625 L 52.453125 -16.515625 Z M 45.296875 -24.78125 L 45.296875 -32.03125 L 52.453125 -32.03125 L 52.453125 -24.78125 Z M 45.296875 -32.953125 L 45.296875 -40.1875 L 52.453125 -40.1875 L 52.453125 -32.953125 Z M 45.296875 -41.21875 L 45.296875 -48.453125 L 52.453125 -48.453125 L 52.453125 -41.21875 Z M 45.296875 -49.484375 L 45.296875 -56.71875 L 52.453125 -56.71875 L 52.453125 -49.484375 Z M 45.296875 -57.734375 L 45.296875 -64.984375 L 52.453125 -64.984375 L 52.453125 -57.734375 Z M 37.21875 0 L 37.21875 -7.234375 L 44.375 -7.234375 L 44.375 0 Z M 37.21875 -24.78125 L 37.21875 -32.03125 L 44.375 -32.03125 L 44.375 -24.78125 Z M 37.21875 -32.953125 L 37.21875 -40.1875 L 44.375 -40.1875 L 44.375 -32.953125 Z M 37.21875 -57.734375 L 37.21875 -64.984375 L 44.375 -64.984375 L 44.375 -57.734375 Z M 29.0625 0 L 29.0625 -7.234375 L 36.203125 -7.234375 L 36.203125 0 Z M 29.0625 -24.78125 L 29.0625 -32.03125 L 36.203125 -32.03125 L 36.203125 -24.78125 Z M 29.0625 -32.953125 L 29.0625 -40.1875 L 36.203125 -40.1875 L 36.203125 -32.953125 Z M 29.0625 -57.734375 L 29.0625 -64.984375 L 36.203125 -64.984375 L 36.203125 -57.734375 Z M 20.890625 0 L 20.890625 -7.234375 L 28.03125 -7.234375 L 28.03125 0 Z M 20.890625 -8.265625 L 20.890625 -15.5 L 28.03125 -15.5 L 28.03125 -8.265625 Z M 20.890625 -16.515625 L 20.890625 -23.765625 L 28.03125 -23.765625 L 28.03125 -16.515625 Z M 20.890625 -24.78125 L 20.890625 -32.03125 L 28.03125 -32.03125 L 28.03125 -24.78125 Z M 20.890625 -32.953125 L 20.890625 -40.1875 L 28.03125 -40.1875 L 28.03125 -32.953125 Z M 20.890625 -41.21875 L 20.890625 -48.453125 L 28.03125 -48.453125 L 28.03125 -41.21875 Z M 20.890625 -49.484375 L 20.890625 -56.71875 L 28.03125 -56.71875 L 28.03125 -49.484375 Z M 20.890625 -57.734375 L 20.890625 -64.984375 L 28.03125 -64.984375 L 28.03125 -57.734375 Z M 12.8125 0 L 12.8125 -7.234375 L 19.953125 -7.234375 L 19.953125 0 Z M 12.8125 -8.265625 L 12.8125 -15.5 L 19.953125 -15.5 L 19.953125 -8.265625 Z M 12.8125 -16.515625 L 12.8125 -23.765625 L 19.953125 -23.765625 L 19.953125 -16.515625 Z M 12.8125 -24.78125 L 12.8125 -32.03125 L 19.953125 -32.03125 L 19.953125 -24.78125 Z M 12.8125 -32.953125 L 12.8125 -40.1875 L 19.953125 -40.1875 L 19.953125 -32.953125 Z M 12.8125 -41.21875 L 12.8125 -48.453125 L 19.953125 -48.453125 L 19.953125 -41.21875 Z M 12.8125 -49.484375 L 12.8125 -56.71875 L 19.953125 -56.71875 L 19.953125 -49.484375 Z M 12.8125 -57.734375 L 12.8125 -64.984375 L 19.953125 -64.984375 L 19.953125 -57.734375 Z M 4.640625 0 L 4.640625 -7.234375 L 11.796875 -7.234375 L 11.796875 0 Z M 4.640625 -57.734375 L 4.640625 -64.984375 L 11.796875 -64.984375 L 11.796875 -57.734375 Z M 4.640625 -57.734375 "/></g></g></g></svg>