<svg xmlns="http://www.w3.org/2000/svg" xmlns:xlink="http://www.w3.org/1999/xlink" width="450" zoomAndPan="magnify" viewBox="0 0 337.5 89.999999" height="120" preserveAspectRatio="xMidYMid meet" version="1.0"><defs><g/><clipPath id="8632141b77"><path d="M 41 5.320312 L 50 5.320312 L 50 84.8125 L 41 84.8125 Z M 41 5.320312 " clip-rule="nonzero"/></clipPath><clipPath id="8754c87a18"><path d="M 28 31 L 57 31 L 57 84.8125 L 28 84.8125 Z M 28 31 " clip-rule="nonzero"/></clipPath><clipPath id="406406f659"><path d="M 35 31 L 64 31 L 64 84.8125 L 35 84.8125 Z M 35 31 " clip-rule="nonzero"/></clipPath><clipPath id="83cd53009e"><path d="M 48 7 L 91.414062 7 L 91.414062 31 L 48 31 Z M 48 7 " clip-rule="nonzero"/></clipPath><clipPath id="1620d9375d"><path d="M 66 40 L 110.339844 40 L 110.339844 62 L 66 62 Z M 66 40 " clip-rule="nonzero"/></clipPath><clipPath id="e4b64de22b"><path d="M 66 62 L 110.339844 62 L 110.339844 73 L 66 73 Z M 66 62 " clip-rule="nonzero"/></clipPath><clipPath id="740627e743"><path d="M 66 50 L 110.339844 50 L 110.339844 84.191406 L 66 84.191406 Z M 66 50 " clip-rule="nonzero"/></clipPath><clipPath id="00f87458c1"><path d="M 42.773438 20.597656 L 102 20.597656 L 102 79 L 42.773438 79 Z M 42.773438 20.597656 " clip-rule="nonzero"/></clipPath><clipPath id="1af1951618"><path d="M 273 7 L 337 7 L 337 84 L 273 84 Z M 273 7 " clip-rule="nonzero"/></clipPath></defs><g clip-path="url(#8632141b77)"><path fill="#3a435e" d="M 49.90625 9.492188 C 49.90625 7.1875 48.023438 5.320312 45.707031 5.320312 C 43.386719 5.320312 41.507812 7.1875 41.507812 9.492188 C 41.507812 11.101562 42.425781 12.5 43.769531 13.195312 L 42.226562 13.195312 L 42.226562 14.425781 L 42.769531 14.425781 L 43.613281 17.09375 L 43.46875 17.09375 L 43.46875 18.054688 L 43.949219 18.054688 L 45.164062 84.285156 C 45.171875 84.578125 45.410156 84.8125 45.707031 84.8125 C 46 84.8125 46.242188 84.578125 46.246094 84.285156 L 47.464844 18.054688 L 47.945312 18.054688 L 47.945312 17.09375 L 47.796875 17.09375 L 48.644531 14.425781 L 49.183594 14.425781 L 49.183594 13.195312 L 47.640625 13.195312 C 48.988281 12.5 49.90625 11.101562 49.90625 9.492188 " fill-opacity="1" fill-rule="nonzero"/></g><g clip-path="url(#8754c87a18)"><path fill="#3a435e" d="M 40.285156 32.257812 C 41.074219 33.351562 42.765625 32.65625 42.363281 33.996094 C 41.960938 35.335938 40.359375 36.171875 38.171875 36.0625 C 35.984375 35.953125 35.472656 35.226562 34.746094 35.664062 C 34.015625 36.097656 34.453125 36.386719 35.402344 36.820312 C 36.347656 37.257812 50.382812 42.363281 52.570312 43.558594 C 54.757812 44.753906 56.078125 45.519531 56.289062 48.703125 C 56.679688 54.539062 39.710938 56.019531 39.710938 61.703125 C 39.710938 65.277344 50.25 68.105469 50.25 73.613281 C 50.25 75.988281 45.25 78.742188 45.0625 80.605469 C 44.800781 83.242188 46.5 84.113281 46.007812 84.414062 C 45.703125 84.597656 44.171875 83.574219 43.859375 82.636719 C 42.558594 78.738281 48.367188 75.996094 48.414062 73.695312 C 48.472656 70.914062 37.589844 66.773438 37.222656 63.585938 C 36.859375 60.398438 36.824219 56.34375 45.1875 53.230469 C 53.554688 50.113281 53.480469 49.101562 53.261719 48.375 C 53.042969 47.652344 51.695312 46.417969 48.851562 45.515625 C 46.007812 44.609375 34.234375 40.371094 32.082031 39.539062 C 29.933594 38.707031 28.074219 37.074219 28.4375 35.15625 C 28.804688 33.238281 31.492188 31.710938 35.65625 31.824219 C 37.222656 31.867188 37.003906 31.027344 38.316406 31.28125 C 39.628906 31.535156 39.921875 31.75 40.285156 32.257812 " fill-opacity="1" fill-rule="nonzero"/></g><g clip-path="url(#406406f659)"><path fill="#3a435e" d="M 51.125 32.257812 C 50.339844 33.351562 48.648438 32.65625 49.046875 33.996094 C 49.449219 35.335938 51.054688 36.171875 53.242188 36.0625 C 55.425781 35.953125 55.9375 35.226562 56.667969 35.664062 C 57.394531 36.097656 56.960938 36.386719 56.011719 36.820312 C 55.0625 37.257812 41.027344 42.363281 38.839844 43.558594 C 36.65625 44.753906 35.335938 45.519531 35.121094 48.703125 C 34.734375 54.539062 51.699219 56.019531 51.699219 61.703125 C 51.699219 65.277344 41.160156 68.105469 41.160156 73.613281 C 41.160156 75.988281 46.160156 78.742188 46.347656 80.605469 C 46.613281 83.242188 44.910156 84.113281 45.402344 84.414062 C 45.707031 84.597656 47.242188 83.574219 47.554688 82.636719 C 48.855469 78.738281 43.046875 75.996094 42.996094 73.695312 C 42.9375 70.914062 53.824219 66.773438 54.1875 63.585938 C 54.554688 60.398438 54.589844 56.34375 46.222656 53.230469 C 37.855469 50.113281 37.929688 49.101562 38.148438 48.375 C 38.367188 47.652344 39.714844 46.417969 42.558594 45.515625 C 45.402344 44.609375 57.175781 40.371094 59.328125 39.539062 C 61.480469 38.707031 63.339844 37.074219 62.972656 35.15625 C 62.609375 33.238281 59.921875 31.710938 55.757812 31.824219 C 54.1875 31.867188 54.40625 31.027344 53.09375 31.28125 C 51.78125 31.535156 51.492188 31.75 51.125 32.257812 " fill-opacity="1" fill-rule="nonzero"/></g><g clip-path="url(#83cd53009e)"><path fill="#3a435e" d="M 91.371094 16.121094 C 87.089844 16.53125 75.980469 13.015625 75.980469 13.015625 C 75.980469 13.015625 76.390625 12.933594 77.378906 12.523438 C 75.074219 12.605469 68.242188 9.742188 66.925781 9.171875 C 65.609375 8.597656 62.480469 6.800781 58.199219 8.761719 C 53.917969 10.726562 54.742188 14.570312 53.589844 16.449219 C 52.4375 18.332031 51.285156 18.984375 48.074219 19.230469 L 48.074219 24.382812 C 51.945312 32.152344 55.402344 30.351562 55.402344 30.351562 C 55.402344 30.351562 55.070312 29.859375 53.589844 27.816406 C 55.402344 30.351562 59.351562 29.699219 59.351562 29.699219 C 59.351562 29.699219 59.351562 29.699219 57.375 27.488281 C 59.847656 29.78125 63.222656 28.796875 63.222656 28.796875 C 63.222656 28.796875 62.070312 27.652344 61 26.34375 C 65.277344 29.125 68.652344 27.246094 68.652344 27.246094 C 68.652344 27.246094 68.652344 27.246094 65.773438 25.445312 C 71.121094 27.980469 74.578125 25.445312 74.578125 25.445312 C 74.578125 25.445312 74.003906 25.28125 72.109375 24.21875 C 76.144531 25.445312 78.777344 23.890625 79.765625 22.664062 C 79.765625 22.664062 79.1875 22.746094 76.964844 21.765625 C 84.292969 23.238281 84.867188 19.558594 84.867188 19.558594 C 84.867188 19.558594 84.867188 19.558594 82.152344 18.65625 C 84.703125 18.738281 89.722656 18.003906 91.371094 16.121094 " fill-opacity="1" fill-rule="nonzero"/></g><path fill="#3a435e" d="M 0.0429688 16.121094 C 4.320312 16.53125 15.433594 13.015625 15.433594 13.015625 C 15.433594 13.015625 15.023438 12.933594 14.035156 12.523438 C 16.339844 12.605469 23.171875 9.742188 24.488281 9.171875 C 25.804688 8.597656 28.933594 6.800781 33.210938 8.761719 C 37.492188 10.726562 36.667969 14.570312 37.820312 16.449219 C 38.972656 18.332031 40.125 18.984375 43.335938 19.230469 L 43.335938 24.382812 C 39.46875 32.152344 36.011719 30.351562 36.011719 30.351562 C 36.011719 30.351562 36.339844 29.859375 37.820312 27.816406 C 36.011719 30.351562 32.058594 29.699219 32.058594 29.699219 C 32.058594 29.699219 32.058594 29.699219 34.035156 27.488281 C 31.566406 29.78125 28.191406 28.796875 28.191406 28.796875 C 28.191406 28.796875 29.34375 27.652344 30.414062 26.34375 C 26.132812 29.125 22.757812 27.246094 22.757812 27.246094 C 22.757812 27.246094 22.757812 27.246094 25.640625 25.445312 C 20.289062 27.980469 16.832031 25.445312 16.832031 25.445312 C 16.832031 25.445312 17.410156 25.28125 19.300781 24.21875 C 15.269531 25.445312 12.636719 23.890625 11.648438 22.664062 C 11.648438 22.664062 12.222656 22.746094 14.445312 21.765625 C 7.121094 23.238281 6.542969 19.558594 6.542969 19.558594 C 6.542969 19.558594 6.542969 19.558594 9.261719 18.65625 C 6.707031 18.738281 1.6875 18.003906 0.0429688 16.121094 " fill-opacity="1" fill-rule="nonzero"/><g clip-path="url(#1620d9375d)"><path fill="#3a435e" d="M 72.3125 51.003906 C 72.3125 51.003906 72.3125 50.996094 72.3125 50.988281 C 72.3125 50.996094 72.3125 51.003906 72.3125 51.003906 Z M 72.328125 50.953125 C 72.367188 50.867188 72.480469 50.679688 72.804688 50.386719 C 73.386719 49.863281 74.402344 49.253906 75.917969 48.679688 C 78.921875 47.542969 83.285156 46.773438 88.257812 46.773438 C 93.230469 46.773438 97.589844 47.542969 100.597656 48.679688 C 102.113281 49.253906 103.125 49.863281 103.707031 50.386719 C 104.035156 50.679688 104.148438 50.867188 104.1875 50.953125 C 104.148438 51.035156 104.035156 51.226562 103.707031 51.519531 C 103.125 52.039062 102.113281 52.648438 100.597656 53.222656 C 97.589844 54.363281 93.230469 55.132812 88.257812 55.132812 C 83.285156 55.132812 78.921875 54.363281 75.917969 53.222656 C 74.402344 52.648438 73.386719 52.039062 72.804688 51.519531 C 72.480469 51.226562 72.367188 51.035156 72.328125 50.953125 Z M 104.203125 51.003906 C 104.203125 51.003906 104.203125 50.996094 104.199219 50.988281 C 104.203125 50.996094 104.203125 51.003906 104.203125 51.003906 Z M 104.199219 50.917969 C 104.203125 50.90625 104.203125 50.902344 104.203125 50.902344 C 104.203125 50.902344 104.203125 50.90625 104.199219 50.917969 Z M 72.3125 50.917969 C 72.3125 50.90625 72.3125 50.902344 72.3125 50.902344 C 72.3125 50.902344 72.3125 50.90625 72.3125 50.917969 Z M 73.710938 43.03125 C 77.585938 41.5625 82.730469 40.71875 88.257812 40.71875 C 93.785156 40.71875 98.929688 41.5625 102.804688 43.03125 C 104.730469 43.761719 106.5 44.703125 107.839844 45.90625 C 109.183594 47.109375 110.339844 48.8125 110.339844 50.953125 C 110.339844 53.09375 109.183594 54.796875 107.839844 56 C 106.5 57.199219 104.730469 58.144531 102.804688 58.875 C 98.929688 60.34375 93.785156 61.1875 88.257812 61.1875 C 82.730469 61.1875 77.585938 60.34375 73.710938 58.875 C 71.785156 58.144531 70.015625 57.199219 68.671875 56 C 67.332031 54.796875 66.175781 53.09375 66.175781 50.953125 C 66.175781 48.8125 67.332031 47.109375 68.671875 45.90625 C 70.015625 44.703125 71.785156 43.761719 73.710938 43.03125 Z M 73.710938 43.03125 " fill-opacity="1" fill-rule="evenodd"/></g><g clip-path="url(#e4b64de22b)"><path fill="#3a435e" d="M 104.199219 62.453125 C 104.199219 62.460938 104.199219 62.472656 104.199219 62.484375 L 110.339844 62.484375 C 110.339844 64.628906 109.183594 66.328125 107.839844 67.53125 C 106.5 68.734375 104.730469 69.679688 102.804688 70.410156 C 98.929688 71.878906 93.785156 72.722656 88.257812 72.722656 C 82.730469 72.722656 77.585938 71.878906 73.710938 70.410156 C 71.785156 69.679688 70.015625 68.734375 68.671875 67.53125 C 67.332031 66.328125 66.175781 64.628906 66.175781 62.484375 L 72.316406 62.484375 C 72.316406 62.472656 72.316406 62.460938 72.3125 62.453125 C 72.332031 62.503906 72.421875 62.707031 72.804688 63.050781 C 73.386719 63.574219 74.402344 64.183594 75.917969 64.757812 C 78.921875 65.898438 83.285156 66.667969 88.257812 66.667969 C 93.230469 66.667969 97.589844 65.898438 100.597656 64.757812 C 102.113281 64.183594 103.125 63.574219 103.707031 63.050781 C 104.09375 62.707031 104.183594 62.503906 104.199219 62.453125 Z M 104.203125 62.4375 C 104.203125 62.4375 104.203125 62.441406 104.199219 62.453125 C 104.203125 62.441406 104.203125 62.4375 104.203125 62.4375 Z M 72.3125 62.4375 C 72.3125 62.4375 72.3125 62.441406 72.3125 62.453125 C 72.3125 62.441406 72.3125 62.4375 72.3125 62.4375 Z M 72.3125 62.4375 " fill-opacity="1" fill-rule="evenodd"/></g><g clip-path="url(#740627e743)"><path fill="#3a435e" d="M 72.316406 73.992188 L 72.316406 50.953125 L 66.175781 50.953125 L 66.175781 74.019531 C 66.175781 76.160156 67.332031 77.863281 68.671875 79.066406 C 70.015625 80.265625 71.785156 81.210938 73.710938 81.941406 C 77.585938 83.410156 82.730469 84.253906 88.257812 84.253906 C 93.785156 84.253906 98.929688 83.410156 102.804688 81.941406 C 104.730469 81.210938 106.5 80.265625 107.839844 79.066406 C 109.183594 77.863281 110.339844 76.160156 110.339844 74.019531 L 110.339844 50.953125 L 104.199219 50.953125 L 104.199219 73.992188 C 104.175781 74.050781 104.078125 74.253906 103.707031 74.585938 C 103.125 75.105469 102.113281 75.714844 100.597656 76.289062 C 97.589844 77.429688 93.230469 78.199219 88.257812 78.199219 C 83.285156 78.199219 78.921875 77.429688 75.917969 76.289062 C 74.402344 75.714844 73.386719 75.105469 72.804688 74.585938 C 72.433594 74.253906 72.335938 74.050781 72.316406 73.992188 Z M 104.203125 73.96875 C 104.203125 73.96875 104.203125 73.972656 104.199219 73.984375 C 104.203125 73.972656 104.203125 73.96875 104.203125 73.96875 Z M 72.3125 73.984375 C 72.3125 73.972656 72.3125 73.96875 72.3125 73.96875 C 72.3125 73.96875 72.3125 73.972656 72.3125 73.984375 Z M 72.3125 73.984375 " fill-opacity="1" fill-rule="evenodd"/></g><g clip-path="url(#00f87458c1)"><path fill="#3a435e" d="M 42.773438 23.5625 C 42.773438 21.890625 44.148438 20.535156 45.84375 20.535156 L 61.640625 20.535156 C 62.652344 20.535156 63.601562 21.027344 64.171875 21.847656 L 68.523438 28.101562 L 98.496094 28.101562 C 100.191406 28.101562 101.566406 29.457031 101.566406 31.128906 L 101.566406 37.976562 L 95.421875 37.976562 L 95.421875 34.15625 L 66.90625 34.15625 C 65.890625 34.15625 64.945312 33.664062 64.371094 32.84375 L 60.023438 26.589844 L 48.917969 26.589844 L 48.917969 72.433594 L 61.933594 72.433594 L 61.933594 78.488281 L 45.84375 78.488281 C 44.148438 78.488281 42.773438 77.132812 42.773438 75.460938 Z M 42.773438 23.5625 " fill-opacity="1" fill-rule="evenodd"/></g><g fill="#000000" fill-opacity="1"><g transform="translate(122.67873, 83.264291)"><g><path d="M 64.140625 -9.59375 L 64.140625 -18 L 72.4375 -18 L 72.4375 -9.59375 Z M 64.140625 -19.1875 L 64.140625 -27.59375 L 72.4375 -27.59375 L 72.4375 -19.1875 Z M 64.140625 -28.78125 L 64.140625 -37.1875 L 72.4375 -37.1875 L 72.4375 -28.78125 Z M 64.140625 -57.453125 L 64.140625 -65.859375 L 72.4375 -65.859375 L 72.4375 -57.453125 Z M 54.65625 0 L 54.65625 -8.40625 L 62.953125 -8.40625 L 62.953125 0 Z M 54.65625 -9.59375 L 54.65625 -18 L 62.953125 -18 L 62.953125 -9.59375 Z M 54.65625 -19.1875 L 54.65625 -27.59375 L 62.953125 -27.59375 L 62.953125 -19.1875 Z M 54.65625 -28.78125 L 54.65625 -37.1875 L 62.953125 -37.1875 L 62.953125 -28.78125 Z M 54.65625 -57.453125 L 54.65625 -65.859375 L 62.953125 -65.859375 L 62.953125 -57.453125 Z M 54.65625 -67.046875 L 54.65625 -75.453125 L 62.953125 -75.453125 L 62.953125 -67.046875 Z M 45.28125 0 L 45.28125 -8.40625 L 53.578125 -8.40625 L 53.578125 0 Z M 45.28125 -9.59375 L 45.28125 -18 L 53.578125 -18 L 53.578125 -9.59375 Z M 45.28125 -28.78125 L 45.28125 -37.1875 L 53.578125 -37.1875 L 53.578125 -28.78125 Z M 45.28125 -57.453125 L 45.28125 -65.859375 L 53.578125 -65.859375 L 53.578125 -57.453125 Z M 45.28125 -67.046875 L 45.28125 -75.453125 L 53.578125 -75.453125 L 53.578125 -67.046875 Z M 35.78125 0 L 35.78125 -8.40625 L 44.09375 -8.40625 L 44.09375 0 Z M 35.78125 -9.59375 L 35.78125 -18 L 44.09375 -18 L 44.09375 -9.59375 Z M 35.78125 -57.453125 L 35.78125 -65.859375 L 44.09375 -65.859375 L 44.09375 -57.453125 Z M 35.78125 -67.046875 L 35.78125 -75.453125 L 44.09375 -75.453125 L 44.09375 -67.046875 Z M 26.296875 0 L 26.296875 -8.40625 L 34.609375 -8.40625 L 34.609375 0 Z M 26.296875 -9.59375 L 26.296875 -18 L 34.609375 -18 L 34.609375 -9.59375 Z M 26.296875 -57.453125 L 26.296875 -65.859375 L 34.609375 -65.859375 L 34.609375 -57.453125 Z M 26.296875 -67.046875 L 26.296875 -75.453125 L 34.609375 -75.453125 L 34.609375 -67.046875 Z M 16.921875 0 L 16.921875 -8.40625 L 25.21875 -8.40625 L 25.21875 0 Z M 16.921875 -9.59375 L 16.921875 -18 L 25.21875 -18 L 25.21875 -9.59375 Z M 16.921875 -19.1875 L 16.921875 -27.59375 L 25.21875 -27.59375 L 25.21875 -19.1875 Z M 16.921875 -28.78125 L 16.921875 -37.1875 L 25.21875 -37.1875 L 25.21875 -28.78125 Z M 16.921875 -38.265625 L 16.921875 -46.671875 L 25.21875 -46.671875 L 25.21875 -38.265625 Z M 16.921875 -47.859375 L 16.921875 -56.265625 L 25.21875 -56.265625 L 25.21875 -47.859375 Z M 16.921875 -57.453125 L 16.921875 -65.859375 L 25.21875 -65.859375 L 25.21875 -57.453125 Z M 16.921875 -67.046875 L 16.921875 -75.453125 L 25.21875 -75.453125 L 25.21875 -67.046875 Z M 7.4375 -9.59375 L 7.4375 -18 L 15.734375 -18 L 15.734375 -9.59375 Z M 7.4375 -19.1875 L 7.4375 -27.59375 L 15.734375 -27.59375 L 15.734375 -19.1875 Z M 7.4375 -28.78125 L 7.4375 -37.1875 L 15.734375 -37.1875 L 15.734375 -28.78125 Z M 7.4375 -38.265625 L 7.4375 -46.671875 L 15.734375 -46.671875 L 15.734375 -38.265625 Z M 7.4375 -47.859375 L 7.4375 -56.265625 L 15.734375 -56.265625 L 15.734375 -47.859375 Z M 7.4375 -57.453125 L 7.4375 -65.859375 L 15.734375 -65.859375 L 15.734375 -57.453125 Z M 7.4375 -57.453125 "/></g></g></g><g fill="#000000" fill-opacity="1"><g transform="translate(195.224318, 83.264291)"><g><path d="M 64.359375 -9.59375 L 64.359375 -18 L 72.65625 -18 L 72.65625 -9.59375 Z M 64.359375 -19.1875 L 64.359375 -27.59375 L 72.65625 -27.59375 L 72.65625 -19.1875 Z M 64.359375 -28.78125 L 64.359375 -37.1875 L 72.65625 -37.1875 L 72.65625 -28.78125 Z M 64.359375 -38.265625 L 64.359375 -46.671875 L 72.65625 -46.671875 L 72.65625 -38.265625 Z M 64.359375 -47.859375 L 64.359375 -56.265625 L 72.65625 -56.265625 L 72.65625 -47.859375 Z M 64.359375 -57.453125 L 64.359375 -65.859375 L 72.65625 -65.859375 L 72.65625 -57.453125 Z M 54.875 0 L 54.875 -8.40625 L 63.171875 -8.40625 L 63.171875 0 Z M 54.875 -9.59375 L 54.875 -18 L 63.171875 -18 L 63.171875 -9.59375 Z M 54.875 -19.1875 L 54.875 -27.59375 L 63.171875 -27.59375 L 63.171875 -19.1875 Z M 54.875 -28.78125 L 54.875 -37.1875 L 63.171875 -37.1875 L 63.171875 -28.78125 Z M 54.875 -38.265625 L 54.875 -46.671875 L 63.171875 -46.671875 L 63.171875 -38.265625 Z M 54.875 -47.859375 L 54.875 -56.265625 L 63.171875 -56.265625 L 63.171875 -47.859375 Z M 54.875 -57.453125 L 54.875 -65.859375 L 63.171875 -65.859375 L 63.171875 -57.453125 Z M 54.875 -67.046875 L 54.875 -75.453125 L 63.171875 -75.453125 L 63.171875 -67.046875 Z M 45.484375 0 L 45.484375 -8.40625 L 53.796875 -8.40625 L 53.796875 0 Z M 45.484375 -67.046875 L 45.484375 -75.453125 L 53.796875 -75.453125 L 53.796875 -67.046875 Z M 36 0 L 36 -8.40625 L 44.296875 -8.40625 L 44.296875 0 Z M 36 -67.046875 L 36 -75.453125 L 44.296875 -75.453125 L 44.296875 -67.046875 Z M 26.515625 0 L 26.515625 -8.40625 L 34.8125 -8.40625 L 34.8125 0 Z M 26.515625 -9.59375 L 26.515625 -18 L 34.8125 -18 L 34.8125 -9.59375 Z M 26.515625 -19.1875 L 26.515625 -27.59375 L 34.8125 -27.59375 L 34.8125 -19.1875 Z M 26.515625 -28.78125 L 26.515625 -37.1875 L 34.8125 -37.1875 L 34.8125 -28.78125 Z M 26.515625 -38.265625 L 26.515625 -46.671875 L 34.8125 -46.671875 L 34.8125 -38.265625 Z M 26.515625 -47.859375 L 26.515625 -56.265625 L 34.8125 -56.265625 L 34.8125 -47.859375 Z M 26.515625 -57.453125 L 26.515625 -65.859375 L 34.8125 -65.859375 L 34.8125 -57.453125 Z M 26.515625 -67.046875 L 26.515625 -75.453125 L 34.8125 -75.453125 L 34.8125 -67.046875 Z M 17.140625 0 L 17.140625 -8.40625 L 25.4375 -8.40625 L 25.4375 0 Z M 17.140625 -9.59375 L 17.140625 -18 L 25.4375 -18 L 25.4375 -9.59375 Z M 17.140625 -19.1875 L 17.140625 -27.59375 L 25.4375 -27.59375 L 25.4375 -19.1875 Z M 17.140625 -28.78125 L 17.140625 -37.1875 L 25.4375 -37.1875 L 25.4375 -28.78125 Z M 17.140625 -38.265625 L 17.140625 -46.671875 L 25.4375 -46.671875 L 25.4375 -38.265625 Z M 17.140625 -47.859375 L 17.140625 -56.265625 L 25.4375 -56.265625 L 25.4375 -47.859375 Z M 17.140625 -57.453125 L 17.140625 -65.859375 L 25.4375 -65.859375 L 25.4375 -57.453125 Z M 17.140625 -67.046875 L 17.140625 -75.453125 L 25.4375 -75.453125 L 25.4375 -67.046875 Z M 7.65625 0 L 7.65625 -8.40625 L 15.953125 -8.40625 L 15.953125 0 Z M 7.65625 -67.046875 L 7.65625 -75.453125 L 15.953125 -75.453125 L 15.953125 -67.046875 Z M 7.65625 -67.046875 "/></g></g></g><g clip-path="url(#1af1951618)"><g fill="#000000" fill-opacity="1"><g transform="translate(268.416673, 83.264291)"><g><path d="M 62.09375 -9.59375 L 62.09375 -18 L 70.390625 -18 L 70.390625 -9.59375 Z M 62.09375 -19.1875 L 62.09375 -27.59375 L 70.390625 -27.59375 L 70.390625 -19.1875 Z M 62.09375 -28.78125 L 62.09375 -37.1875 L 70.390625 -37.1875 L 70.390625 -28.78125 Z M 62.09375 -38.265625 L 62.09375 -46.671875 L 70.390625 -46.671875 L 70.390625 -38.265625 Z M 62.09375 -47.859375 L 62.09375 -56.265625 L 70.390625 -56.265625 L 70.390625 -47.859375 Z M 62.09375 -57.453125 L 62.09375 -65.859375 L 70.390625 -65.859375 L 70.390625 -57.453125 Z M 52.609375 0 L 52.609375 -8.40625 L 60.90625 -8.40625 L 60.90625 0 Z M 52.609375 -9.59375 L 52.609375 -18 L 60.90625 -18 L 60.90625 -9.59375 Z M 52.609375 -19.1875 L 52.609375 -27.59375 L 60.90625 -27.59375 L 60.90625 -19.1875 Z M 52.609375 -28.78125 L 52.609375 -37.1875 L 60.90625 -37.1875 L 60.90625 -28.78125 Z M 52.609375 -38.265625 L 52.609375 -46.671875 L 60.90625 -46.671875 L 60.90625 -38.265625 Z M 52.609375 -47.859375 L 52.609375 -56.265625 L 60.90625 -56.265625 L 60.90625 -47.859375 Z M 52.609375 -57.453125 L 52.609375 -65.859375 L 60.90625 -65.859375 L 60.90625 -57.453125 Z M 52.609375 -67.046875 L 52.609375 -75.453125 L 60.90625 -75.453125 L 60.90625 -67.046875 Z M 43.21875 0 L 43.21875 -8.40625 L 51.53125 -8.40625 L 51.53125 0 Z M 43.21875 -28.78125 L 43.21875 -37.1875 L 51.53125 -37.1875 L 51.53125 -28.78125 Z M 43.21875 -38.265625 L 43.21875 -46.671875 L 51.53125 -46.671875 L 51.53125 -38.265625 Z M 43.21875 -67.046875 L 43.21875 -75.453125 L 51.53125 -75.453125 L 51.53125 -67.046875 Z M 33.734375 0 L 33.734375 -8.40625 L 42.046875 -8.40625 L 42.046875 0 Z M 33.734375 -28.78125 L 33.734375 -37.1875 L 42.046875 -37.1875 L 42.046875 -28.78125 Z M 33.734375 -38.265625 L 33.734375 -46.671875 L 42.046875 -46.671875 L 42.046875 -38.265625 Z M 33.734375 -67.046875 L 33.734375 -75.453125 L 42.046875 -75.453125 L 42.046875 -67.046875 Z M 24.25 0 L 24.25 -8.40625 L 32.546875 -8.40625 L 32.546875 0 Z M 24.25 -9.59375 L 24.25 -18 L 32.546875 -18 L 32.546875 -9.59375 Z M 24.25 -19.1875 L 24.25 -27.59375 L 32.546875 -27.59375 L 32.546875 -19.1875 Z M 24.25 -28.78125 L 24.25 -37.1875 L 32.546875 -37.1875 L 32.546875 -28.78125 Z M 24.25 -38.265625 L 24.25 -46.671875 L 32.546875 -46.671875 L 32.546875 -38.265625 Z M 24.25 -47.859375 L 24.25 -56.265625 L 32.546875 -56.265625 L 32.546875 -47.859375 Z M 24.25 -57.453125 L 24.25 -65.859375 L 32.546875 -65.859375 L 32.546875 -57.453125 Z M 24.25 -67.046875 L 24.25 -75.453125 L 32.546875 -75.453125 L 32.546875 -67.046875 Z M 14.875 0 L 14.875 -8.40625 L 23.171875 -8.40625 L 23.171875 0 Z M 14.875 -9.59375 L 14.875 -18 L 23.171875 -18 L 23.171875 -9.59375 Z M 14.875 -19.1875 L 14.875 -27.59375 L 23.171875 -27.59375 L 23.171875 -19.1875 Z M 14.875 -28.78125 L 14.875 -37.1875 L 23.171875 -37.1875 L 23.171875 -28.78125 Z M 14.875 -38.265625 L 14.875 -46.671875 L 23.171875 -46.671875 L 23.171875 -38.265625 Z M 14.875 -47.859375 L 14.875 -56.265625 L 23.171875 -56.265625 L 23.171875 -47.859375 Z M 14.875 -57.453125 L 14.875 -65.859375 L 23.171875 -65.859375 L 23.171875 -57.453125 Z M 14.875 -67.046875 L 14.875 -75.453125 L 23.171875 -75.453125 L 23.171875 -67.046875 Z M 5.390625 0 L 5.390625 -8.40625 L 13.6875 -8.40625 L 13.6875 0 Z M 5.390625 -67.046875 L 5.390625 -75.453125 L 13.6875 -75.453125 L 13.6875 -67.046875 Z M 5.390625 -67.046875 "/></g></g></g></g></svg>